<?xml version="1.0" encoding="utf-8" standalone="no"?>
<!DOCTYPE svg PUBLIC "-//W3C//DTD SVG 1.1//EN"
  "http://www.w3.org/Graphics/SVG/1.1/DTD/svg11.dtd">
<svg xmlns:xlink="http://www.w3.org/1999/xlink" width="476.853419pt" height="406.645316pt" viewBox="0 0 476.853419 406.645316" xmlns="http://www.w3.org/2000/svg" version="1.1">
 <metadata>
  <rdf:RDF xmlns:dc="http://purl.org/dc/elements/1.1/" xmlns:cc="http://creativecommons.org/ns#" xmlns:rdf="http://www.w3.org/1999/02/22-rdf-syntax-ns#">
   <cc:Work>
    <dc:type rdf:resource="http://purl.org/dc/dcmitype/StillImage"/>
    <dc:date>2026-04-08T20:43:59.160356</dc:date>
    <dc:format>image/svg+xml</dc:format>
    <dc:creator>
     <cc:Agent>
      <dc:title>Matplotlib v3.10.8, https://matplotlib.org/</dc:title>
     </cc:Agent>
    </dc:creator>
   </cc:Work>
  </rdf:RDF>
 </metadata>
 <defs>
  <style type="text/css">*{stroke-linejoin: round; stroke-linecap: butt}</style>
 </defs>
 <g id="figure_1">
  <g id="patch_1">
   <path d="M 0 406.645316 
L 476.853419 406.645316 
L 476.853419 0 
L 0 0 
z
" style="fill: #ffffff"/>
  </g>
  <g id="axes_1">
   <g id="patch_2">
    <path d="M 361.291219 212.7298 
C 361.291219 191.463246 357.102171 170.403483 348.963814 150.755749 
C 340.825456 131.108015 328.896058 113.25441 313.858334 98.216685 
C 298.820609 83.178961 280.967004 71.249563 261.31927 63.111205 
C 241.671536 54.972847 220.611773 50.7838 199.345219 50.7838 
C 178.078665 50.7838 157.018901 54.972847 137.371168 63.111205 
C 117.723434 71.249563 99.869828 83.178961 84.832104 98.216685 
C 69.79438 113.25441 57.864982 131.108015 49.726624 150.755749 
C 41.588266 170.403483 37.399219 191.463246 37.399219 212.7298 
C 37.399219 233.996354 41.588266 255.056117 49.726624 274.703851 
C 57.864982 294.351585 69.79438 312.20519 84.832104 327.242915 
C 99.869828 342.280639 117.723434 354.210037 137.371168 362.348395 
C 157.018901 370.486753 178.078665 374.6758 199.345219 374.6758 
C 220.611773 374.6758 241.671536 370.486753 261.31927 362.348395 
C 280.967004 354.210037 298.820609 342.280639 313.858334 327.242915 
C 328.896058 312.20519 340.825456 294.351585 348.963814 274.703851 
C 357.102171 255.056117 361.291219 233.996354 361.291219 212.7298 
M 199.345219 212.7298 
C 199.345219 212.7298 199.345219 212.7298 199.345219 212.7298 
C 199.345219 212.7298 199.345219 212.7298 199.345219 212.7298 
C 199.345219 212.7298 199.345219 212.7298 199.345219 212.7298 
C 199.345219 212.7298 199.345219 212.7298 199.345219 212.7298 
C 199.345219 212.7298 199.345219 212.7298 199.345219 212.7298 
C 199.345219 212.7298 199.345219 212.7298 199.345219 212.7298 
C 199.345219 212.7298 199.345219 212.7298 199.345219 212.7298 
C 199.345219 212.7298 199.345219 212.7298 199.345219 212.7298 
C 199.345219 212.7298 199.345219 212.7298 199.345219 212.7298 
C 199.345219 212.7298 199.345219 212.7298 199.345219 212.7298 
C 199.345219 212.7298 199.345219 212.7298 199.345219 212.7298 
C 199.345219 212.7298 199.345219 212.7298 199.345219 212.7298 
C 199.345219 212.7298 199.345219 212.7298 199.345219 212.7298 
C 199.345219 212.7298 199.345219 212.7298 199.345219 212.7298 
C 199.345219 212.7298 199.345219 212.7298 199.345219 212.7298 
C 199.345219 212.7298 199.345219 212.7298 199.345219 212.7298 
z
" style="fill: #ffffff"/>
   </g>
   <g id="patch_3">
    <path d="M 346.568855 212.7298 
L 199.345219 65.506164 
L 52.121583 212.7298 
L 199.345219 359.953435 
z
" clip-path="url(#p8dd1fe7afe)" style="fill: #ee6f63; opacity: 0.12; stroke: #ee6f63; stroke-linejoin: miter"/>
   </g>
   <g id="patch_4">
    <path d="M 321.318632 212.7298 
L 199.345219 89.116302 
L 91.35916 212.7298 
L 199.345219 252.003428 
z
" clip-path="url(#p8dd1fe7afe)" style="fill: #5fa8e8; opacity: 0.12; stroke: #5fa8e8; stroke-linejoin: miter"/>
   </g>
   <g id="patch_5">
    <path d="M 315.697887 212.7298 
L 199.345219 96.60268 
L 103.657338 212.7298 
L 199.345219 240.408966 
z
" clip-path="url(#p8dd1fe7afe)" style="fill: #63cfa0; opacity: 0.12; stroke: #63cfa0; stroke-linejoin: miter"/>
   </g>
   <g id="patch_6">
    <path d="M 313.100145 212.7298 
L 199.345219 98.794836 
L 108.848338 212.7298 
L 199.345219 254.544501 
z
" clip-path="url(#p8dd1fe7afe)" style="fill: #b08adf; opacity: 0.12; stroke: #b08adf; stroke-linejoin: miter"/>
   </g>
   <g id="matplotlib.axis_1">
    <g id="xtick_1">
     <g id="line2d_1">
      <path d="M 199.345219 212.7298 
L 361.291219 212.7298 
" clip-path="url(#p8dd1fe7afe)" style="fill: none; stroke: #b0b0b0; stroke-opacity: 0.4; stroke-width: 0.8; stroke-linecap: square"/>
     </g>
     <g id="text_1">
      <!-- 最小用户速率 -->
      <g transform="translate(342.291219 215.409331) scale(0.11 -0.11)">
       <defs>
        <path id="SimSong-Regular-6700" d="M 1312 5107 
C 1325 4954 1338 4794 1338 4640 
L 1338 3475 
C 1338 3354 1325 3238 1312 3130 
C 1312 3059 1363 3027 1440 3027 
C 1491 3027 1555 3034 1632 3059 
C 1677 3072 1709 3098 1709 3130 
L 1709 3315 
L 4614 3315 
L 4614 3155 
C 4614 3085 4653 3053 4710 3053 
C 4774 3053 4845 3059 4934 3085 
C 4979 3104 5011 3130 5011 3168 
C 4986 3334 4979 3469 4979 3571 
L 4979 4576 
C 4979 4614 4992 4653 5043 4691 
C 5094 4730 5133 4762 5133 4800 
C 5133 4826 5075 4883 4973 4973 
C 4864 5062 4794 5107 4762 5107 
C 4730 5107 4691 5088 4653 5050 
C 4602 4998 4557 4954 4506 4915 
L 1728 4915 
C 1594 4992 1459 5056 1312 5107 
L 1312 5107 
z
M 1709 4192 
L 1709 4742 
L 4614 4742 
L 4614 4192 
L 1709 4192 
z
M 1709 3494 
L 1709 4019 
L 4614 4019 
L 4614 3494 
L 1709 3494 
z
M 237 2899 
L 358 2618 
C 493 2650 691 2662 960 2662 
L 960 346 
C 742 326 506 301 262 275 
L 410 -90 
C 454 -205 512 -269 557 -269 
C 570 -269 589 -243 621 -192 
C 621 -154 627 -122 634 -102 
C 634 -64 710 -32 883 -13 
C 1523 109 2131 250 2688 403 
L 2688 51 
C 2688 -173 2675 -346 2662 -474 
C 2662 -538 2714 -570 2790 -570 
C 2842 -570 2912 -557 3008 -531 
C 3040 -506 3072 -480 3072 -448 
C 3059 -256 3059 -90 3059 51 
L 3059 512 
C 3232 563 3405 621 3578 678 
L 3552 730 
C 3386 691 3219 666 3059 640 
L 3059 2669 
L 6042 2669 
C 6093 2669 6131 2694 6131 2752 
C 6131 2778 6067 2848 5958 2970 
C 5843 3091 5766 3155 5715 3155 
C 5690 3155 5638 3110 5562 3021 
C 5478 2925 5421 2867 5395 2842 
L 1037 2842 
C 691 2842 429 2861 237 2899 
L 237 2899 
z
M 1331 2042 
L 1331 2669 
L 2688 2669 
L 2688 2042 
L 1331 2042 
z
M 3162 2150 
L 3283 1869 
C 3379 1888 3488 1894 3603 1901 
C 3680 1523 3802 1197 3949 922 
C 4038 768 4141 614 4269 461 
C 4198 371 4122 294 4045 218 
C 3802 -13 3482 -256 3091 -499 
L 3142 -576 
C 3661 -352 4096 -77 4448 250 
L 4461 243 
C 4666 32 4922 -160 5229 -339 
C 5472 -474 5638 -544 5722 -544 
C 5728 -544 5747 -506 5786 -435 
L 5792 -435 
C 5830 -346 5907 -288 6035 -250 
L 6054 -205 
C 5600 -45 5229 122 4941 301 
C 4851 352 4768 410 4678 480 
C 4973 813 5229 1248 5427 1792 
C 5440 1824 5472 1856 5536 1882 
C 5594 1901 5632 1926 5632 1965 
C 5632 2003 5562 2074 5434 2176 
C 5318 2259 5248 2304 5222 2304 
C 5190 2304 5146 2278 5094 2227 
L 4960 2093 
L 3962 2093 
C 3731 2093 3469 2112 3162 2150 
L 3162 2150 
z
M 3725 1914 
L 5030 1914 
C 4954 1581 4832 1274 4653 992 
C 4589 883 4518 781 4442 685 
C 4358 755 4275 851 4192 954 
C 4000 1197 3846 1517 3731 1914 
L 3725 1914 
z
M 1331 1267 
L 1331 1869 
L 2688 1869 
L 2688 1267 
L 1331 1267 
z
M 1331 390 
L 1331 1094 
L 2688 1094 
L 2688 576 
C 2253 506 1792 442 1331 390 
L 1331 390 
z
" transform="scale(0.015625)"/>
        <path id="SimSong-Regular-5c0f" d="M 2950 5178 
C 2963 5018 2976 4832 2976 4627 
L 2976 83 
C 2976 19 2970 -13 2950 -32 
C 2912 -58 2861 -70 2797 -70 
C 2618 -70 2323 -32 1901 32 
L 1862 -77 
C 2362 -186 2605 -301 2630 -422 
C 2630 -550 2701 -621 2803 -621 
C 2874 -621 2989 -582 3142 -512 
C 3283 -448 3366 -307 3366 -83 
L 3366 4806 
C 3366 4864 3392 4902 3469 4928 
C 3565 4954 3622 4992 3622 5056 
C 3622 5082 3546 5107 3418 5126 
L 2950 5178 
L 2950 5178 
z
M 1574 3776 
C 1395 3059 1197 2464 966 1997 
C 685 1408 435 947 192 627 
L 275 518 
C 717 973 1069 1434 1338 1907 
C 1574 2278 1798 2771 2003 3392 
C 2010 3405 2054 3424 2131 3443 
C 2221 3450 2278 3475 2278 3514 
C 2278 3552 2189 3597 2029 3648 
C 1901 3680 1754 3725 1574 3776 
L 1574 3776 
z
M 4256 3776 
L 4192 3738 
C 4845 2893 5261 2016 5459 1094 
C 5491 902 5587 806 5728 806 
C 5779 806 5824 826 5862 877 
C 5901 928 5933 998 5933 1075 
C 5933 1408 5805 1798 5568 2234 
C 5318 2682 4883 3200 4262 3776 
L 4256 3776 
z
" transform="scale(0.015625)"/>
        <path id="SimSong-Regular-7528" d="M 941 4979 
C 966 4480 986 3654 986 2502 
C 986 1632 928 986 813 550 
C 723 192 550 -179 294 -582 
L 384 -653 
C 627 -397 826 -154 973 90 
C 1139 403 1261 742 1325 1101 
C 1344 1242 1363 1402 1376 1568 
L 2976 1568 
L 2976 128 
C 2976 -115 2963 -301 2950 -435 
C 2950 -506 3002 -544 3078 -544 
C 3142 -544 3219 -531 3315 -506 
C 3354 -480 3386 -454 3386 -416 
C 3373 -205 3366 -26 3366 128 
L 3366 1568 
L 4979 1568 
L 4979 64 
C 4979 -26 4928 -70 4800 -70 
C 4589 -70 4314 -32 3962 32 
L 3930 -77 
C 4390 -179 4614 -294 4640 -422 
C 4640 -538 4704 -595 4800 -595 
C 4890 -595 5005 -563 5139 -499 
C 5306 -422 5402 -314 5402 -166 
L 5402 4429 
C 5402 4467 5427 4506 5504 4544 
L 5504 4544 
C 5568 4570 5606 4614 5606 4672 
C 5606 4710 5536 4781 5414 4896 
C 5286 4986 5210 5030 5184 5030 
C 5146 5030 5088 4992 5018 4915 
L 4883 4768 
L 1402 4768 
C 1286 4832 1139 4902 941 4979 
L 941 4979 
z
M 1408 3238 
L 1408 4589 
L 2976 4589 
L 2976 3238 
L 1408 3238 
z
M 3360 4589 
L 4979 4589 
L 4979 3238 
L 3366 3238 
L 3366 4589 
L 3360 4589 
z
M 1389 1741 
C 1402 1971 1408 2221 1408 2502 
L 1408 3066 
L 2976 3066 
L 2976 1741 
L 1389 1741 
z
M 3360 3066 
L 4979 3066 
L 4979 1741 
L 3366 1741 
L 3366 3066 
L 3360 3066 
z
" transform="scale(0.015625)"/>
        <path id="SimSong-Regular-6237" d="M 2810 5203 
L 2746 5133 
C 2957 4954 3110 4736 3219 4474 
C 3270 4294 3373 4205 3501 4205 
C 3558 4205 3610 4237 3654 4307 
C 3699 4384 3731 4461 3731 4538 
C 3731 4640 3648 4742 3507 4851 
C 3373 4966 3142 5082 2810 5203 
L 2810 5203 
z
M 5114 4326 
C 5082 4326 5037 4301 4992 4262 
L 4845 4115 
L 1805 4115 
C 1690 4179 1549 4250 1357 4326 
C 1382 3949 1402 3322 1402 2451 
C 1402 1606 1325 979 1178 563 
C 1062 211 851 -154 518 -538 
L 602 -602 
C 883 -352 1114 -115 1286 115 
C 1478 416 1626 742 1702 1101 
C 1754 1459 1786 1882 1792 2368 
L 4902 2368 
L 4902 2035 
C 4902 1958 4941 1926 5005 1926 
C 5069 1926 5146 1933 5235 1958 
C 5286 1978 5325 2010 5325 2048 
C 5299 2227 5293 2368 5293 2477 
L 5293 3770 
C 5293 3808 5318 3846 5389 3885 
C 5459 3923 5504 3968 5504 4006 
C 5504 4038 5440 4102 5338 4192 
C 5222 4282 5152 4326 5114 4326 
z
M 1786 3942 
L 4902 3942 
L 4902 2541 
L 1792 2541 
L 1792 3942 
L 1786 3942 
z
" transform="scale(0.015625)"/>
        <path id="SimSong-Regular-901f" d="M 1862 4422 
L 1984 4141 
C 2125 4173 2349 4192 2662 4192 
L 3661 4192 
L 3661 3469 
L 2618 3469 
C 2502 3533 2387 3584 2259 3629 
C 2272 3475 2285 3322 2285 3168 
L 2285 2195 
C 2285 2080 2272 1965 2259 1856 
C 2259 1786 2310 1754 2387 1754 
C 2438 1754 2502 1760 2579 1786 
C 2624 1798 2656 1824 2656 1856 
L 2656 2093 
L 3539 2093 
C 3066 1466 2451 966 1696 582 
L 1741 499 
C 2458 762 3098 1165 3661 1683 
L 3661 442 
C 3661 390 3648 320 3635 230 
C 3642 179 3693 154 3763 154 
C 3821 154 3891 160 3974 186 
C 4019 198 4051 224 4051 256 
C 4038 384 4032 474 4032 518 
L 4032 1594 
C 4429 1402 4806 1120 5152 762 
C 5248 621 5350 557 5453 557 
C 5491 557 5536 582 5581 634 
C 5606 672 5632 730 5632 794 
C 5619 922 5504 1050 5299 1178 
C 4947 1382 4525 1562 4032 1709 
L 4032 2061 
L 4058 2093 
L 5037 2093 
L 5037 1926 
C 5037 1862 5075 1830 5139 1830 
C 5197 1830 5267 1837 5357 1862 
C 5408 1882 5440 1907 5440 1939 
C 5414 2106 5408 2246 5408 2349 
L 5408 3130 
C 5408 3168 5427 3206 5478 3238 
C 5542 3277 5581 3309 5581 3347 
C 5581 3379 5523 3437 5427 3520 
C 5312 3610 5242 3654 5210 3654 
C 5184 3654 5139 3635 5101 3597 
C 5050 3546 5005 3507 4954 3469 
L 4032 3469 
L 4032 4192 
L 5862 4192 
C 5920 4192 5958 4218 5958 4282 
C 5958 4301 5888 4378 5773 4512 
C 5658 4634 5568 4698 5510 4698 
C 5485 4698 5434 4646 5357 4557 
L 5184 4365 
L 4032 4365 
L 4032 4832 
C 4032 4877 4051 4909 4115 4934 
C 4198 4960 4250 4998 4250 5056 
C 4250 5088 4173 5107 4038 5120 
C 3885 5146 3757 5165 3635 5178 
C 3648 5107 3661 5024 3661 4934 
L 3661 4365 
L 2662 4365 
C 2317 4365 2054 4384 1862 4422 
L 1862 4422 
z
M 730 5030 
L 666 4966 
C 909 4736 1082 4454 1197 4115 
C 1242 3955 1338 3878 1453 3878 
C 1498 3878 1542 3910 1587 3974 
C 1626 4038 1658 4102 1658 4173 
C 1658 4301 1574 4435 1434 4576 
C 1293 4723 1056 4877 730 5030 
L 730 5030 
z
M 2656 2266 
L 2656 3290 
L 3661 3290 
L 3661 2266 
L 2656 2266 
z
M 4026 3290 
L 5037 3290 
L 5037 2266 
L 4032 2266 
L 4032 3290 
L 4026 3290 
z
M 211 2701 
L 333 2419 
C 512 2451 768 2464 1101 2464 
L 1101 461 
C 922 320 659 160 320 -13 
C 410 -192 493 -352 576 -486 
C 608 -538 640 -570 666 -570 
C 723 -570 762 -493 762 -346 
C 973 -109 1165 134 1318 403 
C 1338 442 1350 467 1357 467 
C 1606 19 2010 -237 2547 -314 
C 2976 -358 3443 -384 3949 -397 
L 5837 -397 
C 5888 -397 5926 -358 5939 -282 
C 5984 -115 6048 -26 6157 0 
L 6138 70 
C 5427 26 4794 6 4230 6 
C 3245 6 2598 26 2291 77 
C 1952 141 1683 301 1491 563 
L 1491 2349 
C 1491 2374 1517 2413 1581 2464 
C 1645 2515 1683 2554 1683 2592 
C 1683 2630 1619 2694 1504 2790 
C 1395 2880 1312 2931 1261 2931 
C 1222 2931 1165 2886 1088 2810 
C 1037 2758 992 2701 941 2643 
C 678 2643 442 2662 211 2701 
L 211 2701 
z
" transform="scale(0.015625)"/>
        <path id="SimSong-Regular-7387" d="M 461 4499 
L 582 4218 
C 723 4250 947 4269 1261 4269 
L 2938 4269 
C 2784 3891 2643 3590 2502 3360 
C 2445 3270 2381 3213 2317 3174 
C 2266 3149 2240 3123 2240 3098 
C 2240 3053 2291 2963 2381 2835 
C 2406 2797 2445 2778 2483 2778 
C 2509 2778 2534 2790 2566 2822 
C 2662 2874 2746 2906 2816 2931 
L 3264 3123 
C 3066 2848 2867 2611 2669 2406 
C 2541 2266 2406 2176 2234 2118 
C 2195 2099 2163 2067 2163 2035 
C 2163 1984 2214 1875 2304 1722 
C 2330 1670 2368 1651 2406 1651 
C 2432 1651 2458 1670 2496 1709 
C 2586 1766 2669 1811 2746 1837 
L 3834 2163 
C 3872 2054 3904 1939 3930 1811 
C 3968 1670 4051 1606 4147 1606 
C 4186 1606 4230 1632 4269 1683 
C 4307 1741 4333 1798 4333 1862 
C 4333 1997 4269 2138 4160 2285 
C 4058 2432 3891 2586 3648 2752 
L 3590 2701 
C 3667 2586 3725 2451 3782 2304 
L 2586 2138 
C 2989 2470 3456 2886 3994 3386 
C 4026 3418 4070 3437 4134 3450 
C 4224 3462 4282 3482 4282 3520 
C 4275 3546 4237 3578 4179 3616 
L 3757 3853 
C 3642 3674 3533 3501 3418 3334 
L 2662 3181 
C 2810 3354 2989 3571 3194 3834 
C 3226 3866 3270 3885 3334 3898 
C 3424 3910 3482 3936 3482 3974 
C 3475 4000 3437 4032 3379 4064 
L 3021 4269 
L 5805 4269 
C 5869 4269 5907 4294 5907 4352 
C 5907 4378 5837 4467 5709 4608 
C 5574 4749 5478 4819 5421 4819 
C 5395 4819 5331 4762 5242 4653 
C 5146 4544 5082 4474 5050 4442 
L 3206 4442 
C 3219 4448 3232 4461 3245 4486 
C 3283 4538 3309 4595 3309 4659 
C 3309 4742 3245 4826 3130 4915 
C 3027 5005 2854 5101 2598 5203 
L 2541 5146 
C 2707 5005 2829 4826 2906 4608 
C 2931 4531 2970 4474 3014 4442 
L 1261 4442 
C 915 4442 653 4461 461 4499 
L 461 4499 
z
M 5485 3622 
L 5613 3597 
C 5651 3597 5677 3616 5683 3654 
C 5683 3686 5619 3738 5510 3802 
L 5133 4006 
C 4902 3635 4614 3328 4269 3072 
L 4326 2995 
C 4819 3200 5203 3405 5485 3616 
L 5485 3622 
z
M 877 3904 
L 819 3846 
C 1075 3667 1293 3398 1485 3034 
C 1536 2931 1606 2880 1683 2880 
C 1734 2880 1773 2906 1811 2970 
C 1850 3014 1882 3072 1882 3142 
C 1882 3258 1824 3366 1728 3462 
C 1645 3526 1574 3578 1517 3616 
C 1325 3731 1114 3827 877 3904 
L 877 3904 
z
M 4301 2803 
L 4243 2714 
C 4589 2509 4902 2195 5171 1792 
C 5242 1645 5325 1581 5402 1581 
C 5459 1581 5517 1613 5568 1683 
C 5606 1741 5632 1811 5632 1894 
C 5619 2016 5530 2138 5376 2259 
C 5082 2477 4730 2656 4301 2803 
L 4301 2803 
z
M 2125 2726 
C 1651 2406 1139 2138 570 1920 
C 634 1824 698 1734 749 1651 
C 819 1536 883 1478 922 1478 
C 941 1478 960 1504 960 1568 
L 960 1651 
C 960 1677 1018 1728 1152 1805 
C 1478 1997 1818 2285 2176 2669 
L 2131 2726 
L 2125 2726 
z
M 314 1075 
L 429 794 
C 576 826 800 838 1114 838 
L 2976 838 
L 2976 -262 
C 2976 -314 2963 -390 2950 -499 
C 2957 -544 3008 -570 3078 -570 
C 3142 -570 3219 -557 3322 -538 
C 3360 -512 3392 -486 3392 -461 
C 3373 -320 3366 -224 3366 -186 
L 3366 838 
L 5978 838 
C 6042 838 6080 864 6080 928 
C 6080 954 6003 1043 5875 1190 
C 5741 1331 5638 1408 5574 1408 
C 5549 1408 5478 1350 5389 1242 
L 5190 1018 
L 3366 1018 
L 3366 1331 
C 3366 1382 3392 1421 3456 1446 
C 3546 1472 3603 1510 3603 1574 
C 3603 1606 3520 1626 3373 1638 
L 2950 1702 
C 2963 1632 2976 1549 2976 1446 
L 2976 1018 
L 1114 1018 
C 768 1018 506 1037 314 1075 
L 314 1075 
z
" transform="scale(0.015625)"/>
       </defs>
       <use xlink:href="#SimSong-Regular-6700"/>
       <use xlink:href="#SimSong-Regular-5c0f" transform="translate(99.999985 0)"/>
       <use xlink:href="#SimSong-Regular-7528" transform="translate(199.999969 0)"/>
       <use xlink:href="#SimSong-Regular-6237" transform="translate(299.999954 0)"/>
       <use xlink:href="#SimSong-Regular-901f" transform="translate(399.999939 0)"/>
       <use xlink:href="#SimSong-Regular-7387" transform="translate(499.999924 0)"/>
      </g>
     </g>
    </g>
    <g id="xtick_2">
     <g id="line2d_2">
      <path d="M 199.345219 212.7298 
L 199.345219 50.7838 
" clip-path="url(#p8dd1fe7afe)" style="fill: none; stroke: #b0b0b0; stroke-opacity: 0.4; stroke-width: 0.8; stroke-linecap: square"/>
     </g>
     <g id="text_2">
      <!-- $JFI_{\mathrm{eff}}$ -->
      <g transform="translate(187.685219 39.600831) scale(0.11 -0.11)">
       <defs>
        <path id="DejaVuSans-Oblique-4a" d="M 1069 4666 
L 1703 4666 
L 856 325 
Q 691 -522 298 -901 
Q -94 -1281 -800 -1281 
L -1050 -1281 
L -947 -750 
L -750 -750 
Q -328 -750 -109 -509 
Q 109 -269 225 325 
L 1069 4666 
z
" transform="scale(0.015625)"/>
        <path id="DejaVuSans-Oblique-46" d="M 1081 4666 
L 3756 4666 
L 3653 4134 
L 1606 4134 
L 1338 2759 
L 3188 2759 
L 3084 2228 
L 1234 2228 
L 800 0 
L 172 0 
L 1081 4666 
z
" transform="scale(0.015625)"/>
        <path id="DejaVuSans-Oblique-49" d="M 1081 4666 
L 1716 4666 
L 806 0 
L 172 0 
L 1081 4666 
z
" transform="scale(0.015625)"/>
        <path id="DejaVuSans-65" d="M 3597 1894 
L 3597 1613 
L 953 1613 
Q 991 1019 1311 708 
Q 1631 397 2203 397 
Q 2534 397 2845 478 
Q 3156 559 3463 722 
L 3463 178 
Q 3153 47 2828 -22 
Q 2503 -91 2169 -91 
Q 1331 -91 842 396 
Q 353 884 353 1716 
Q 353 2575 817 3079 
Q 1281 3584 2069 3584 
Q 2775 3584 3186 3129 
Q 3597 2675 3597 1894 
z
M 3022 2063 
Q 3016 2534 2758 2815 
Q 2500 3097 2075 3097 
Q 1594 3097 1305 2825 
Q 1016 2553 972 2059 
L 3022 2063 
z
" transform="scale(0.015625)"/>
        <path id="DejaVuSans-66" d="M 2375 4863 
L 2375 4384 
L 1825 4384 
Q 1516 4384 1395 4259 
Q 1275 4134 1275 3809 
L 1275 3500 
L 2222 3500 
L 2222 3053 
L 1275 3053 
L 1275 0 
L 697 0 
L 697 3053 
L 147 3053 
L 147 3500 
L 697 3500 
L 697 3744 
Q 697 4328 969 4595 
Q 1241 4863 1831 4863 
L 2375 4863 
z
" transform="scale(0.015625)"/>
       </defs>
       <use xlink:href="#DejaVuSans-Oblique-4a" transform="translate(0 0.09375)"/>
       <use xlink:href="#DejaVuSans-Oblique-46" transform="translate(29.492188 0.09375)"/>
       <use xlink:href="#DejaVuSans-Oblique-49" transform="translate(87.011719 0.09375)"/>
       <use xlink:href="#DejaVuSans-65" transform="translate(116.503906 -16.3125) scale(0.7)"/>
       <use xlink:href="#DejaVuSans-66" transform="translate(159.570312 -16.3125) scale(0.7)"/>
       <use xlink:href="#DejaVuSans-66" transform="translate(184.213867 -16.3125) scale(0.7)"/>
      </g>
     </g>
    </g>
    <g id="xtick_3">
     <g id="line2d_3">
      <path d="M 199.345219 212.7298 
L 37.399219 212.7298 
" clip-path="url(#p8dd1fe7afe)" style="fill: none; stroke: #b0b0b0; stroke-opacity: 0.4; stroke-width: 0.8; stroke-linecap: square"/>
     </g>
     <g id="text_3">
      <!-- 综合JS -->
      <g transform="translate(7.2 215.381831) scale(0.11 -0.11)">
       <defs>
        <path id="SimSong-Regular-7efc" d="M 3021 4557 
L 2938 4531 
C 2918 4250 2842 4013 2701 3821 
C 2547 3680 2464 3584 2464 3526 
C 2464 3488 2483 3450 2515 3411 
C 2547 3373 2598 3354 2656 3354 
C 2765 3354 2854 3392 2931 3482 
C 3021 3610 3072 3789 3072 4019 
L 3072 4115 
L 5549 4115 
C 5485 3885 5414 3680 5338 3507 
L 5421 3450 
C 5587 3584 5747 3718 5901 3866 
C 5952 3910 6010 3942 6086 3955 
C 6163 3955 6208 3987 6208 4038 
C 6208 4090 6138 4179 6016 4301 
C 5901 4416 5818 4480 5773 4480 
C 5747 4480 5702 4461 5658 4422 
C 5606 4378 5549 4333 5498 4294 
L 4506 4294 
L 4512 4301 
C 4550 4365 4582 4429 4582 4499 
C 4582 4602 4512 4717 4384 4838 
C 4256 4954 4051 5075 3757 5203 
L 3693 5139 
C 3885 4947 4026 4717 4122 4442 
C 4134 4378 4166 4333 4198 4294 
L 3059 4294 
C 3046 4371 3040 4454 3027 4557 
L 3021 4557 
z
M 1261 5152 
C 1043 4493 845 3968 640 3578 
C 563 3430 480 3328 390 3270 
C 339 3245 314 3219 314 3194 
C 314 3142 365 3053 461 2918 
C 493 2874 531 2854 570 2854 
C 595 2854 627 2867 666 2906 
C 762 2957 851 2989 934 3014 
L 1594 3174 
C 1434 2848 1267 2554 1101 2285 
C 890 1939 704 1741 531 1696 
C 493 1690 461 1670 461 1638 
C 461 1581 518 1466 627 1299 
C 640 1248 691 1229 742 1229 
C 781 1229 813 1235 845 1261 
C 934 1306 1018 1338 1101 1363 
L 2406 1792 
L 2374 1907 
L 973 1709 
C 1203 2010 1632 2637 2253 3597 
C 2278 3629 2317 3648 2368 3661 
C 2477 3674 2541 3706 2547 3757 
C 2547 3782 2515 3814 2477 3846 
L 2042 4134 
C 1907 3846 1786 3578 1664 3315 
L 755 3277 
C 973 3648 1229 4102 1517 4653 
C 1555 4691 1606 4710 1677 4723 
C 1766 4730 1824 4755 1824 4800 
C 1818 4826 1779 4858 1722 4896 
L 1261 5158 
L 1261 5152 
z
M 3110 3296 
L 3232 3014 
C 3373 3046 3597 3066 3910 3066 
L 5453 3066 
C 5498 3066 5530 3091 5530 3155 
C 5530 3181 5472 3245 5370 3360 
C 5254 3469 5178 3526 5133 3526 
C 5114 3526 5062 3482 4986 3405 
C 4909 3315 4858 3264 4832 3238 
L 3910 3238 
C 3565 3238 3302 3258 3110 3296 
L 3110 3296 
z
M 4115 1990 
L 4115 45 
C 4115 -32 4038 -70 3872 -70 
C 3795 -70 3603 -51 3283 -19 
L 3264 -115 
C 3610 -192 3776 -282 3802 -384 
C 3808 -486 3859 -544 3923 -544 
C 3987 -544 4090 -525 4218 -486 
C 4384 -410 4480 -307 4480 -173 
L 4480 1990 
L 5946 1990 
C 5997 1990 6029 2016 6029 2080 
C 6029 2106 5965 2176 5856 2298 
C 5747 2413 5664 2477 5613 2477 
C 5587 2477 5536 2432 5459 2349 
C 5376 2246 5318 2189 5293 2170 
L 3437 2170 
C 3091 2170 2829 2182 2637 2221 
L 2758 1939 
C 2899 1971 3123 1990 3437 1990 
L 4115 1990 
z
M 4909 1632 
L 4845 1587 
C 5171 1165 5382 730 5485 269 
C 5517 77 5613 -19 5747 -19 
C 5798 -19 5850 0 5888 51 
C 5926 102 5958 173 5958 250 
C 5958 416 5875 614 5734 838 
C 5574 1069 5299 1331 4915 1632 
L 4909 1632 
z
M 3219 1606 
C 3091 1216 2950 890 2790 634 
C 2586 314 2394 70 2221 -109 
L 2278 -205 
C 2618 32 2880 269 3072 518 
C 3251 710 3418 960 3578 1280 
C 3590 1293 3622 1312 3680 1331 
C 3757 1338 3808 1357 3808 1389 
C 3808 1421 3731 1459 3597 1498 
C 3494 1523 3373 1562 3219 1606 
L 3219 1606 
z
M 2445 1126 
C 1792 858 1075 634 294 448 
C 371 326 448 218 512 115 
C 602 -26 672 -96 717 -96 
C 749 -96 774 -58 774 13 
L 774 115 
C 774 141 858 192 1043 256 
C 1504 435 1990 698 2502 1056 
L 2445 1126 
L 2445 1126 
z
" transform="scale(0.015625)"/>
        <path id="SimSong-Regular-5408" d="M 3078 5229 
C 2707 4563 2291 4006 1830 3571 
C 1254 3021 717 2598 218 2298 
L 288 2195 
C 1101 2618 1747 3046 2234 3488 
C 2618 3802 2982 4205 3322 4678 
C 3501 4358 3744 4026 4051 3699 
C 4384 3341 4736 3040 5114 2810 
C 5472 2566 5709 2451 5805 2451 
C 5837 2451 5875 2490 5907 2579 
C 5958 2688 6054 2765 6202 2803 
L 6234 2874 
C 5722 3002 5216 3219 4710 3539 
C 4269 3795 3840 4224 3424 4826 
C 3430 4832 3443 4845 3456 4870 
C 3469 4890 3507 4909 3578 4922 
C 3654 4934 3706 4960 3706 4998 
C 3706 5037 3622 5069 3482 5107 
L 3078 5229 
L 3078 5229 
z
M 1587 2874 
L 1709 2592 
C 1850 2624 2074 2643 2387 2643 
L 4614 2643 
C 4666 2643 4704 2669 4704 2726 
C 4704 2752 4634 2835 4518 2970 
C 4390 3104 4301 3174 4243 3174 
C 4218 3174 4160 3123 4077 3021 
C 3981 2912 3917 2842 3885 2816 
L 2387 2816 
C 2042 2816 1779 2835 1587 2874 
L 1587 2874 
z
M 1376 1926 
C 1389 1760 1402 1600 1402 1434 
L 1402 -122 
C 1402 -237 1389 -358 1376 -486 
C 1376 -557 1427 -595 1504 -595 
C 1562 -595 1632 -582 1728 -563 
C 1760 -538 1792 -512 1792 -486 
L 1792 -186 
L 4474 -186 
L 4474 -467 
C 4474 -531 4518 -570 4582 -570 
C 4646 -570 4723 -557 4819 -538 
C 4864 -512 4902 -486 4902 -454 
C 4877 -275 4870 -128 4870 -19 
L 4870 1389 
C 4870 1434 4890 1472 4947 1510 
C 5011 1549 5056 1594 5056 1632 
C 5056 1664 4992 1728 4890 1818 
C 4774 1907 4698 1952 4666 1952 
C 4634 1952 4589 1926 4544 1882 
C 4493 1824 4448 1766 4397 1715 
L 1830 1715 
C 1677 1798 1530 1869 1376 1926 
L 1376 1926 
z
M 1792 -6 
L 1792 1542 
L 4474 1542 
L 4474 -6 
L 1792 -6 
z
" transform="scale(0.015625)"/>
        <path id="TimesNewRomanPSMT-4a" d="M 638 4122 
L 638 4238 
L 2453 4238 
L 2453 4122 
L 2300 4122 
Q 2041 4122 1922 3969 
Q 1847 3869 1847 3488 
L 1847 1416 
Q 1847 938 1742 641 
Q 1638 344 1381 123 
Q 1125 -97 763 -97 
Q 469 -97 300 48 
Q 131 194 131 381 
Q 131 534 209 613 
Q 313 709 450 709 
Q 550 709 629 643 
Q 709 578 831 294 
Q 903 125 1016 125 
Q 1100 125 1173 228 
Q 1247 331 1247 594 
L 1247 3488 
Q 1247 3809 1206 3913 
Q 1175 3991 1075 4047 
Q 941 4122 791 4122 
L 638 4122 
z
" transform="scale(0.015625)"/>
        <path id="TimesNewRomanPSMT-53" d="M 2934 4334 
L 2934 2869 
L 2819 2869 
Q 2763 3291 2617 3541 
Q 2472 3791 2203 3937 
Q 1934 4084 1647 4084 
Q 1322 4084 1109 3886 
Q 897 3688 897 3434 
Q 897 3241 1031 3081 
Q 1225 2847 1953 2456 
Q 2547 2138 2764 1967 
Q 2981 1797 3098 1565 
Q 3216 1334 3216 1081 
Q 3216 600 2842 251 
Q 2469 -97 1881 -97 
Q 1697 -97 1534 -69 
Q 1438 -53 1133 45 
Q 828 144 747 144 
Q 669 144 623 97 
Q 578 50 556 -97 
L 441 -97 
L 441 1356 
L 556 1356 
Q 638 900 775 673 
Q 913 447 1195 297 
Q 1478 147 1816 147 
Q 2206 147 2432 353 
Q 2659 559 2659 841 
Q 2659 997 2573 1156 
Q 2488 1316 2306 1453 
Q 2184 1547 1640 1851 
Q 1097 2156 867 2337 
Q 638 2519 519 2737 
Q 400 2956 400 3219 
Q 400 3675 750 4004 
Q 1100 4334 1641 4334 
Q 1978 4334 2356 4169 
Q 2531 4091 2603 4091 
Q 2684 4091 2736 4139 
Q 2788 4188 2819 4334 
L 2934 4334 
z
" transform="scale(0.015625)"/>
       </defs>
       <use xlink:href="#SimSong-Regular-7efc"/>
       <use xlink:href="#SimSong-Regular-5408" transform="translate(99.999985 0)"/>
       <use xlink:href="#TimesNewRomanPSMT-4a" transform="translate(199.999969 0)"/>
       <use xlink:href="#TimesNewRomanPSMT-53" transform="translate(238.915985 0)"/>
      </g>
     </g>
    </g>
    <g id="xtick_4">
     <g id="line2d_4">
      <path d="M 199.345219 212.7298 
L 199.345219 374.6758 
" clip-path="url(#p8dd1fe7afe)" style="fill: none; stroke: #b0b0b0; stroke-opacity: 0.4; stroke-width: 0.8; stroke-linecap: square"/>
     </g>
     <g id="text_4">
      <!-- 速度 -->
      <g transform="translate(188.345219 385.573628) scale(0.11 -0.11)">
       <defs>
        <path id="SimSong-Regular-5ea6" d="M 2963 5254 
L 2893 5184 
C 3066 5030 3187 4845 3270 4621 
C 3283 4544 3322 4486 3360 4442 
L 1286 4442 
C 1184 4506 1050 4563 883 4627 
C 909 4243 922 3610 922 2726 
C 922 1818 858 1133 736 678 
C 646 301 467 -90 192 -512 
L 275 -576 
C 531 -314 730 -58 877 198 
C 1043 525 1171 877 1235 1261 
C 1286 1683 1318 2170 1318 2726 
L 1318 4269 
L 5914 4269 
C 5971 4269 6010 4294 6010 4352 
C 6010 4378 5946 4435 5843 4538 
C 5677 4691 5574 4768 5536 4768 
C 5504 4768 5440 4717 5357 4621 
C 5267 4525 5210 4467 5184 4442 
L 3699 4442 
L 3718 4461 
C 3757 4525 3782 4595 3782 4685 
C 3782 4781 3712 4877 3597 4966 
C 3469 5056 3258 5152 2963 5254 
L 2963 5254 
z
M 1389 3398 
L 1504 3117 
C 1651 3149 1875 3168 2189 3168 
L 2451 3168 
L 2451 2362 
C 2451 2285 2438 2202 2426 2112 
C 2432 2035 2483 2003 2554 2003 
C 2611 2003 2682 2010 2765 2035 
C 2810 2054 2842 2086 2842 2131 
L 2842 2214 
L 4250 2214 
L 4250 2112 
C 4256 2035 4301 2003 4358 2003 
C 4422 2003 4499 2010 4589 2035 
C 4640 2054 4672 2086 4672 2131 
C 4653 2310 4646 2451 4646 2547 
L 4646 3168 
L 5843 3168 
C 5894 3168 5933 3194 5933 3251 
C 5933 3277 5869 3347 5754 3475 
C 5645 3590 5562 3654 5510 3654 
C 5485 3654 5434 3610 5363 3520 
C 5274 3424 5216 3366 5190 3341 
L 4646 3341 
L 4646 3680 
C 4646 3731 4672 3770 4742 3789 
C 4845 3814 4902 3859 4902 3923 
C 4902 3949 4826 3974 4698 4000 
C 4506 4026 4352 4038 4224 4051 
C 4237 3949 4250 3827 4250 3693 
L 4250 3341 
L 2842 3341 
L 2842 3680 
C 2842 3731 2867 3770 2944 3789 
C 3040 3814 3098 3859 3098 3923 
C 3098 3949 3027 3974 2899 4000 
C 2707 4026 2554 4038 2426 4051 
C 2438 3949 2451 3827 2451 3693 
L 2451 3341 
L 2189 3341 
C 1843 3341 1581 3360 1389 3398 
L 1389 3398 
z
M 2842 2394 
L 2842 3168 
L 4250 3168 
L 4250 2394 
L 2842 2394 
z
M 1715 1747 
L 1830 1466 
C 1978 1491 2150 1504 2342 1510 
C 2496 1203 2688 934 2893 710 
C 3002 582 3136 461 3302 346 
C 3078 211 2854 96 2618 -6 
C 2253 -147 1747 -307 1094 -493 
L 1152 -576 
C 1798 -461 2362 -326 2842 -173 
C 3110 -83 3366 26 3597 141 
C 3597 141 3622 134 3629 134 
C 3923 -45 4275 -198 4678 -326 
C 5088 -454 5350 -518 5466 -518 
C 5491 -518 5530 -474 5568 -390 
C 5606 -294 5696 -224 5843 -173 
L 5856 -102 
C 5318 -19 4819 83 4358 237 
C 4230 275 4102 320 3987 358 
C 4314 563 4634 883 4960 1331 
C 4973 1357 5024 1395 5114 1434 
C 5184 1459 5229 1498 5229 1536 
C 5229 1574 5158 1645 5043 1747 
C 4915 1850 4832 1907 4800 1907 
C 4762 1907 4704 1875 4627 1811 
L 4474 1690 
L 2547 1690 
C 2227 1690 1952 1709 1715 1747 
L 1715 1747 
z
M 2496 1517 
L 4563 1517 
C 4269 1094 3968 781 3654 570 
L 3597 531 
C 3514 576 3430 621 3354 672 
C 3110 806 2822 1088 2496 1517 
L 2496 1517 
z
" transform="scale(0.015625)"/>
       </defs>
       <use xlink:href="#SimSong-Regular-901f"/>
       <use xlink:href="#SimSong-Regular-5ea6" transform="translate(99.999985 0)"/>
      </g>
      <!-- (1/t) -->
      <g transform="translate(189.876625 397.092347) scale(0.11 -0.11)">
       <defs>
        <path id="TimesNewRomanPSMT-28" d="M 1988 -1253 
L 1988 -1369 
Q 1516 -1131 1200 -813 
Q 750 -359 506 256 
Q 263 872 263 1534 
Q 263 2503 741 3301 
Q 1219 4100 1988 4444 
L 1988 4313 
Q 1603 4100 1356 3731 
Q 1109 3363 987 2797 
Q 866 2231 866 1616 
Q 866 947 969 400 
Q 1050 -31 1165 -292 
Q 1281 -553 1476 -793 
Q 1672 -1034 1988 -1253 
z
" transform="scale(0.015625)"/>
        <path id="TimesNewRomanPSMT-31" d="M 750 3822 
L 1781 4325 
L 1884 4325 
L 1884 747 
Q 1884 391 1914 303 
Q 1944 216 2037 169 
Q 2131 122 2419 116 
L 2419 0 
L 825 0 
L 825 116 
Q 1125 122 1212 167 
Q 1300 213 1334 289 
Q 1369 366 1369 747 
L 1369 3034 
Q 1369 3497 1338 3628 
Q 1316 3728 1258 3775 
Q 1200 3822 1119 3822 
Q 1003 3822 797 3725 
L 750 3822 
z
" transform="scale(0.015625)"/>
        <path id="TimesNewRomanPSMT-2f" d="M 1794 4444 
L 259 -88 
L 9 -88 
L 1544 4444 
L 1794 4444 
z
" transform="scale(0.015625)"/>
        <path id="TimesNewRomanPSMT-74" d="M 1031 3803 
L 1031 2863 
L 1700 2863 
L 1700 2644 
L 1031 2644 
L 1031 788 
Q 1031 509 1111 412 
Q 1191 316 1316 316 
Q 1419 316 1516 380 
Q 1613 444 1666 569 
L 1788 569 
Q 1678 263 1478 108 
Q 1278 -47 1066 -47 
Q 922 -47 784 33 
Q 647 113 581 261 
Q 516 409 516 719 
L 516 2644 
L 63 2644 
L 63 2747 
Q 234 2816 414 2980 
Q 594 3144 734 3369 
Q 806 3488 934 3803 
L 1031 3803 
z
" transform="scale(0.015625)"/>
        <path id="TimesNewRomanPSMT-29" d="M 144 4313 
L 144 4444 
Q 619 4209 934 3891 
Q 1381 3434 1625 2820 
Q 1869 2206 1869 1541 
Q 1869 572 1392 -226 
Q 916 -1025 144 -1369 
L 144 -1253 
Q 528 -1038 776 -670 
Q 1025 -303 1145 264 
Q 1266 831 1266 1447 
Q 1266 2113 1163 2663 
Q 1084 3094 967 3353 
Q 850 3613 656 3853 
Q 463 4094 144 4313 
z
" transform="scale(0.015625)"/>
       </defs>
       <use xlink:href="#TimesNewRomanPSMT-28"/>
       <use xlink:href="#TimesNewRomanPSMT-31" transform="translate(33.300781 0)"/>
       <use xlink:href="#TimesNewRomanPSMT-2f" transform="translate(83.300781 0)"/>
       <use xlink:href="#TimesNewRomanPSMT-74" transform="translate(111.083984 0)"/>
       <use xlink:href="#TimesNewRomanPSMT-29" transform="translate(138.867188 0)"/>
      </g>
     </g>
    </g>
   </g>
   <g id="matplotlib.axis_2">
    <g id="ytick_1">
     <g id="line2d_5">
      <path d="M 228.789946 212.7298 
C 228.789946 208.863154 228.028301 205.034106 226.5486 201.461791 
C 225.068898 197.889475 222.899917 194.643365 220.165785 191.909234 
C 217.431653 189.175102 214.185543 187.006121 210.613228 185.526419 
C 207.040913 184.046718 203.211865 183.285073 199.345219 183.285073 
C 195.478573 183.285073 191.649525 184.046718 188.077209 185.526419 
C 184.504894 187.006121 181.258784 189.175102 178.524652 191.909234 
C 175.790521 194.643365 173.621539 197.889475 172.141838 201.461791 
C 170.662136 205.034106 169.900491 208.863154 169.900491 212.7298 
C 169.900491 216.596446 170.662136 220.425494 172.141838 223.997809 
C 173.621539 227.570125 175.790521 230.816235 178.524652 233.550366 
C 181.258784 236.284498 184.504894 238.453479 188.077209 239.933181 
C 191.649525 241.412882 195.478573 242.174527 199.345219 242.174527 
C 203.211865 242.174527 207.040913 241.412882 210.613228 239.933181 
C 214.185543 238.453479 217.431653 236.284498 220.165785 233.550366 
C 222.899917 230.816235 225.068898 227.570125 226.5486 223.997809 
C 228.028301 220.425494 228.789946 216.596446 228.789946 212.7298 
" clip-path="url(#p8dd1fe7afe)" style="fill: none; stroke: #b0b0b0; stroke-opacity: 0.4; stroke-width: 0.8; stroke-linecap: square"/>
     </g>
     <g id="text_5">
      <!-- 0.2 -->
      <g transform="translate(226.5486 199.322728) scale(0.1 -0.1)">
       <defs>
        <path id="TimesNewRomanPSMT-30" d="M 231 2094 
Q 231 2819 450 3342 
Q 669 3866 1031 4122 
Q 1313 4325 1613 4325 
Q 2100 4325 2488 3828 
Q 2972 3213 2972 2159 
Q 2972 1422 2759 906 
Q 2547 391 2217 158 
Q 1888 -75 1581 -75 
Q 975 -75 572 641 
Q 231 1244 231 2094 
z
M 844 2016 
Q 844 1141 1059 588 
Q 1238 122 1591 122 
Q 1759 122 1940 273 
Q 2122 425 2216 781 
Q 2359 1319 2359 2297 
Q 2359 3022 2209 3506 
Q 2097 3866 1919 4016 
Q 1791 4119 1609 4119 
Q 1397 4119 1231 3928 
Q 1006 3669 925 3112 
Q 844 2556 844 2016 
z
" transform="scale(0.015625)"/>
        <path id="TimesNewRomanPSMT-2e" d="M 800 606 
Q 947 606 1047 504 
Q 1147 403 1147 259 
Q 1147 116 1045 14 
Q 944 -88 800 -88 
Q 656 -88 554 14 
Q 453 116 453 259 
Q 453 406 554 506 
Q 656 606 800 606 
z
" transform="scale(0.015625)"/>
        <path id="TimesNewRomanPSMT-32" d="M 2934 816 
L 2638 0 
L 138 0 
L 138 116 
Q 1241 1122 1691 1759 
Q 2141 2397 2141 2925 
Q 2141 3328 1894 3587 
Q 1647 3847 1303 3847 
Q 991 3847 742 3664 
Q 494 3481 375 3128 
L 259 3128 
Q 338 3706 661 4015 
Q 984 4325 1469 4325 
Q 1984 4325 2329 3994 
Q 2675 3663 2675 3213 
Q 2675 2891 2525 2569 
Q 2294 2063 1775 1497 
Q 997 647 803 472 
L 1909 472 
Q 2247 472 2383 497 
Q 2519 522 2628 598 
Q 2738 675 2819 816 
L 2934 816 
z
" transform="scale(0.015625)"/>
       </defs>
       <use xlink:href="#TimesNewRomanPSMT-30"/>
       <use xlink:href="#TimesNewRomanPSMT-2e" transform="translate(50 0)"/>
       <use xlink:href="#TimesNewRomanPSMT-32" transform="translate(75 0)"/>
      </g>
     </g>
    </g>
    <g id="ytick_2">
     <g id="line2d_6">
      <path d="M 258.234673 212.7298 
C 258.234673 204.996508 256.711383 197.338412 253.75198 190.193781 
C 250.792578 183.049151 246.454615 176.556931 240.986351 171.088667 
C 235.518088 165.620404 229.025868 161.282441 221.881237 158.323038 
C 214.736607 155.363635 207.078511 153.840345 199.345219 153.840345 
C 191.611926 153.840345 183.953831 155.363635 176.8092 158.323038 
C 169.66457 161.282441 163.17235 165.620404 157.704086 171.088667 
C 152.235823 176.556931 147.89786 183.049151 144.938457 190.193781 
C 141.979054 197.338412 140.455764 204.996508 140.455764 212.7298 
C 140.455764 220.463092 141.979054 228.121188 144.938457 235.265819 
C 147.89786 242.410449 152.235823 248.902669 157.704086 254.370933 
C 163.17235 259.839196 169.66457 264.177159 176.8092 267.136562 
C 183.953831 270.095965 191.611926 271.619255 199.345219 271.619255 
C 207.078511 271.619255 214.736607 270.095965 221.881237 267.136562 
C 229.025868 264.177159 235.518088 259.839196 240.986351 254.370933 
C 246.454615 248.902669 250.792578 242.410449 253.75198 235.265819 
C 256.711383 228.121188 258.234673 220.463092 258.234673 212.7298 
" clip-path="url(#p8dd1fe7afe)" style="fill: none; stroke: #b0b0b0; stroke-opacity: 0.4; stroke-width: 0.8; stroke-linecap: square"/>
     </g>
     <g id="text_6">
      <!-- 0.4 -->
      <g transform="translate(253.75198 188.054719) scale(0.1 -0.1)">
       <defs>
        <path id="TimesNewRomanPSMT-34" d="M 2978 1563 
L 2978 1119 
L 2409 1119 
L 2409 0 
L 1894 0 
L 1894 1119 
L 100 1119 
L 100 1519 
L 2066 4325 
L 2409 4325 
L 2409 1563 
L 2978 1563 
z
M 1894 1563 
L 1894 3666 
L 406 1563 
L 1894 1563 
z
" transform="scale(0.015625)"/>
       </defs>
       <use xlink:href="#TimesNewRomanPSMT-30"/>
       <use xlink:href="#TimesNewRomanPSMT-2e" transform="translate(50 0)"/>
       <use xlink:href="#TimesNewRomanPSMT-34" transform="translate(75 0)"/>
      </g>
     </g>
    </g>
    <g id="ytick_3">
     <g id="line2d_7">
      <path d="M 287.679401 212.7298 
C 287.679401 201.129862 285.394466 189.642718 280.955361 178.925772 
C 276.516257 168.208826 270.009313 158.470496 261.806918 150.268101 
C 253.604523 142.065706 243.866192 135.558762 233.149247 131.119657 
C 222.432301 126.680553 210.945157 124.395618 199.345219 124.395618 
C 187.74528 124.395618 176.258137 126.680553 165.541191 131.119657 
C 154.824245 135.558762 145.085915 142.065706 136.88352 150.268101 
C 128.681125 158.470496 122.17418 168.208826 117.735076 178.925772 
C 113.295972 189.642718 111.011037 201.129862 111.011037 212.7298 
C 111.011037 224.329738 113.295972 235.816882 117.735076 246.533828 
C 122.17418 257.250774 128.681125 266.989104 136.88352 275.191499 
C 145.085915 283.393894 154.824245 289.900838 165.541191 294.339943 
C 176.258137 298.779047 187.74528 301.063982 199.345219 301.063982 
C 210.945157 301.063982 222.432301 298.779047 233.149247 294.339943 
C 243.866192 289.900838 253.604523 283.393894 261.806918 275.191499 
C 270.009313 266.989104 276.516257 257.250774 280.955361 246.533828 
C 285.394466 235.816882 287.679401 224.329738 287.679401 212.7298 
" clip-path="url(#p8dd1fe7afe)" style="fill: none; stroke: #b0b0b0; stroke-opacity: 0.4; stroke-width: 0.8; stroke-linecap: square"/>
     </g>
     <g id="text_7">
      <!-- 0.6 -->
      <g transform="translate(280.955361 176.78671) scale(0.1 -0.1)">
       <defs>
        <path id="TimesNewRomanPSMT-36" d="M 2869 4325 
L 2869 4209 
Q 2456 4169 2195 4045 
Q 1934 3922 1679 3669 
Q 1425 3416 1258 3105 
Q 1091 2794 978 2366 
Q 1428 2675 1881 2675 
Q 2316 2675 2634 2325 
Q 2953 1975 2953 1425 
Q 2953 894 2631 456 
Q 2244 -75 1606 -75 
Q 1172 -75 869 213 
Q 275 772 275 1663 
Q 275 2231 503 2743 
Q 731 3256 1154 3653 
Q 1578 4050 1965 4187 
Q 2353 4325 2688 4325 
L 2869 4325 
z
M 925 2138 
Q 869 1716 869 1456 
Q 869 1156 980 804 
Q 1091 453 1309 247 
Q 1469 100 1697 100 
Q 1969 100 2183 356 
Q 2397 613 2397 1088 
Q 2397 1622 2184 2012 
Q 1972 2403 1581 2403 
Q 1463 2403 1327 2353 
Q 1191 2303 925 2138 
z
" transform="scale(0.015625)"/>
       </defs>
       <use xlink:href="#TimesNewRomanPSMT-30"/>
       <use xlink:href="#TimesNewRomanPSMT-2e" transform="translate(50 0)"/>
       <use xlink:href="#TimesNewRomanPSMT-36" transform="translate(75 0)"/>
      </g>
     </g>
    </g>
    <g id="ytick_4">
     <g id="line2d_8">
      <path d="M 317.124128 212.7298 
C 317.124128 197.263215 314.077548 181.947024 308.158742 167.657763 
C 302.239937 153.368502 293.564011 140.384062 282.627484 129.447535 
C 271.690957 118.511008 258.706517 109.835082 244.417256 103.916277 
C 230.127995 97.997471 214.811803 94.950891 199.345219 94.950891 
C 183.878634 94.950891 168.562443 97.997471 154.273182 103.916277 
C 139.983921 109.835082 126.99948 118.511008 116.062953 129.447535 
C 105.126427 140.384062 96.450501 153.368502 90.531695 167.657763 
C 84.61289 181.947024 81.56631 197.263215 81.56631 212.7298 
C 81.56631 228.196385 84.61289 243.512576 90.531695 257.801837 
C 96.450501 272.091098 105.126427 285.075538 116.062953 296.012065 
C 126.99948 306.948592 139.983921 315.624518 154.273182 321.543323 
C 168.562443 327.462129 183.878634 330.508709 199.345219 330.508709 
C 214.811803 330.508709 230.127995 327.462129 244.417256 321.543323 
C 258.706517 315.624518 271.690957 306.948592 282.627484 296.012065 
C 293.564011 285.075538 302.239937 272.091098 308.158742 257.801837 
C 314.077548 243.512576 317.124128 228.196385 317.124128 212.7298 
" clip-path="url(#p8dd1fe7afe)" style="fill: none; stroke: #b0b0b0; stroke-opacity: 0.4; stroke-width: 0.8; stroke-linecap: square"/>
     </g>
     <g id="text_8">
      <!-- 0.8 -->
      <g transform="translate(308.158742 165.5187) scale(0.1 -0.1)">
       <defs>
        <path id="TimesNewRomanPSMT-38" d="M 1228 2134 
Q 725 2547 579 2797 
Q 434 3047 434 3316 
Q 434 3728 753 4026 
Q 1072 4325 1600 4325 
Q 2113 4325 2425 4047 
Q 2738 3769 2738 3413 
Q 2738 3175 2569 2928 
Q 2400 2681 1866 2347 
Q 2416 1922 2594 1678 
Q 2831 1359 2831 1006 
Q 2831 559 2490 242 
Q 2150 -75 1597 -75 
Q 994 -75 656 303 
Q 388 606 388 966 
Q 388 1247 577 1523 
Q 766 1800 1228 2134 
z
M 1719 2469 
Q 2094 2806 2194 3001 
Q 2294 3197 2294 3444 
Q 2294 3772 2109 3958 
Q 1925 4144 1606 4144 
Q 1288 4144 1088 3959 
Q 888 3775 888 3528 
Q 888 3366 970 3203 
Q 1053 3041 1206 2894 
L 1719 2469 
z
M 1375 2016 
Q 1116 1797 991 1539 
Q 866 1281 866 981 
Q 866 578 1086 336 
Q 1306 94 1647 94 
Q 1984 94 2187 284 
Q 2391 475 2391 747 
Q 2391 972 2272 1150 
Q 2050 1481 1375 2016 
z
" transform="scale(0.015625)"/>
       </defs>
       <use xlink:href="#TimesNewRomanPSMT-30"/>
       <use xlink:href="#TimesNewRomanPSMT-2e" transform="translate(50 0)"/>
       <use xlink:href="#TimesNewRomanPSMT-38" transform="translate(75 0)"/>
      </g>
     </g>
    </g>
    <g id="ytick_5">
     <g id="line2d_9">
      <path d="M 346.568855 212.7298 
C 346.568855 193.396569 342.76063 174.25133 335.362123 156.389754 
C 327.963616 138.528177 317.118709 122.297627 303.44805 108.626968 
C 289.777392 94.95631 273.546841 84.111403 255.685265 76.712896 
C 237.823689 69.314389 218.67845 65.506164 199.345219 65.506164 
C 180.011988 65.506164 160.866748 69.314389 143.005172 76.712896 
C 125.143596 84.111403 108.913046 94.95631 95.242387 108.626968 
C 81.571729 122.297627 70.726822 138.528177 63.328314 156.389754 
C 55.929807 174.25133 52.121582 193.396569 52.121582 212.7298 
C 52.121582 232.063031 55.929807 251.20827 63.328314 269.069846 
C 70.726822 286.931423 81.571729 303.161973 95.242387 316.832632 
C 108.913046 330.50329 125.143596 341.348197 143.005172 348.746704 
C 160.866748 356.145211 180.011988 359.953436 199.345219 359.953436 
C 218.67845 359.953436 237.823689 356.145211 255.685265 348.746704 
C 273.546841 341.348197 289.777392 330.50329 303.44805 316.832632 
C 317.118709 303.161973 327.963616 286.931423 335.362123 269.069846 
C 342.76063 251.20827 346.568855 232.063031 346.568855 212.7298 
" clip-path="url(#p8dd1fe7afe)" style="fill: none; stroke: #b0b0b0; stroke-opacity: 0.4; stroke-width: 0.8; stroke-linecap: square"/>
     </g>
     <g id="text_9">
      <!-- 1.0 -->
      <g transform="translate(335.362123 154.250691) scale(0.1 -0.1)">
       <use xlink:href="#TimesNewRomanPSMT-31"/>
       <use xlink:href="#TimesNewRomanPSMT-2e" transform="translate(50 0)"/>
       <use xlink:href="#TimesNewRomanPSMT-30" transform="translate(75 0)"/>
      </g>
     </g>
    </g>
   </g>
   <g id="line2d_10">
    <path d="M 346.568855 212.7298 
L 199.345219 65.506164 
L 52.121583 212.7298 
L 199.345219 359.953435 
L 346.568855 212.7298 
" clip-path="url(#p8dd1fe7afe)" style="fill: none; stroke: #ee6f63; stroke-width: 2; stroke-linecap: square"/>
   </g>
   <g id="line2d_11">
    <path d="M 321.318632 212.7298 
L 199.345219 89.116302 
L 91.35916 212.7298 
L 199.345219 252.003428 
L 321.318632 212.7298 
" clip-path="url(#p8dd1fe7afe)" style="fill: none; stroke: #5fa8e8; stroke-width: 2; stroke-linecap: square"/>
   </g>
   <g id="line2d_12">
    <path d="M 315.697887 212.7298 
L 199.345219 96.60268 
L 103.657338 212.7298 
L 199.345219 240.408966 
L 315.697887 212.7298 
" clip-path="url(#p8dd1fe7afe)" style="fill: none; stroke: #63cfa0; stroke-width: 2; stroke-linecap: square"/>
   </g>
   <g id="line2d_13">
    <path d="M 313.100145 212.7298 
L 199.345219 98.794836 
L 108.848338 212.7298 
L 199.345219 254.544501 
L 313.100145 212.7298 
" clip-path="url(#p8dd1fe7afe)" style="fill: none; stroke: #b08adf; stroke-width: 2; stroke-linecap: square"/>
   </g>
   <g id="patch_7">
    <path d="M 361.291219 212.7298 
C 361.291219 191.463246 357.102171 170.403483 348.963814 150.755749 
C 340.825456 131.108015 328.896058 113.25441 313.858334 98.216685 
C 298.820609 83.178961 280.967004 71.249563 261.31927 63.111205 
C 241.671536 54.972847 220.611773 50.7838 199.345219 50.7838 
C 178.078665 50.7838 157.018901 54.972847 137.371168 63.111205 
C 117.723434 71.249563 99.869828 83.178961 84.832104 98.216685 
C 69.79438 113.25441 57.864982 131.108015 49.726624 150.755749 
C 41.588266 170.403483 37.399219 191.463246 37.399219 212.7298 
C 37.399219 233.996354 41.588266 255.056117 49.726624 274.703851 
C 57.864982 294.351585 69.79438 312.20519 84.832104 327.242915 
C 99.869828 342.280639 117.723434 354.210037 137.371168 362.348395 
C 157.018901 370.486753 178.078665 374.6758 199.345219 374.6758 
C 220.611773 374.6758 241.671536 370.486753 261.31927 362.348395 
C 280.967004 354.210037 298.820609 342.280639 313.858334 327.242915 
C 328.896058 312.20519 340.825456 294.351585 348.963814 274.703851 
C 357.102171 255.056117 361.291219 233.996354 361.291219 212.7298 
" style="fill: none; stroke: #000000; stroke-width: 0.8; stroke-linejoin: miter; stroke-linecap: square"/>
   </g>
   <g id="text_10">
    <!-- 多维性能对比（归一化） -->
    <g transform="translate(133.345219 16.6138) scale(0.12 -0.12)">
     <defs>
      <path id="SimSong-Regular-591a" d="M 2765 5203 
C 2490 4787 2182 4442 1837 4173 
C 1408 3834 1011 3571 653 3386 
L 710 3290 
C 1203 3488 1613 3693 1939 3891 
C 2195 3738 2438 3514 2656 3219 
C 2720 3104 2784 3053 2842 3053 
C 2906 3053 2963 3085 3014 3162 
C 3046 3213 3072 3283 3072 3366 
C 3072 3456 2989 3546 2848 3635 
C 2637 3763 2381 3885 2080 3987 
C 2112 4000 2150 4026 2189 4058 
C 2291 4122 2400 4198 2509 4288 
L 4742 4288 
C 4269 3725 3693 3264 3014 2906 
L 3021 2906 
C 2170 2483 1306 2176 422 1965 
L 454 1869 
C 1440 2035 2221 2234 2810 2470 
L 2925 2515 
C 2662 2176 2368 1882 2042 1638 
C 1555 1274 1101 992 672 781 
L 736 698 
C 1402 960 1939 1235 2342 1510 
C 2598 1338 2835 1088 3040 768 
C 3104 634 3174 576 3238 576 
C 3302 576 3354 608 3405 685 
C 3443 742 3469 813 3469 890 
C 3462 992 3386 1101 3245 1203 
C 3027 1357 2771 1485 2477 1594 
C 2656 1709 2835 1843 3014 2010 
L 5037 2010 
C 4691 1517 4378 1158 4096 928 
C 3782 678 3379 422 2880 166 
L 2886 166 
C 2246 -109 1485 -320 576 -480 
L 608 -595 
C 1414 -538 2170 -403 2886 -186 
C 3462 26 3942 282 4320 589 
C 4710 909 5088 1318 5459 1830 
C 5485 1862 5523 1882 5574 1894 
C 5658 1907 5709 1946 5709 2003 
C 5709 2048 5638 2118 5517 2214 
C 5402 2298 5325 2342 5274 2342 
C 5242 2342 5190 2323 5133 2285 
C 5069 2246 5018 2208 4979 2182 
L 3194 2182 
C 3270 2259 3347 2342 3437 2445 
C 3450 2458 3482 2477 3546 2490 
C 3616 2496 3661 2515 3661 2554 
C 3661 2586 3590 2618 3462 2656 
C 3424 2669 3373 2682 3322 2694 
C 3635 2848 3910 3021 4154 3200 
C 4518 3456 4851 3738 5146 4045 
C 5190 4109 5248 4147 5325 4173 
C 5395 4186 5440 4218 5440 4269 
C 5440 4301 5370 4371 5242 4486 
C 5114 4589 5037 4640 5005 4640 
C 4966 4640 4922 4621 4870 4582 
C 4806 4550 4749 4512 4691 4461 
L 2707 4461 
C 2848 4582 2982 4723 3110 4877 
C 3123 4890 3155 4909 3219 4928 
C 3296 4934 3341 4954 3341 4992 
C 3341 5024 3264 5062 3136 5101 
C 3034 5126 2912 5158 2765 5203 
L 2765 5203 
z
" transform="scale(0.015625)"/>
      <path id="SimSong-Regular-7ef4" d="M 3219 5254 
C 3104 4582 2963 4026 2810 3578 
C 2618 3027 2451 2598 2291 2291 
L 2368 2189 
C 2586 2496 2771 2797 2925 3104 
L 2912 3104 
L 2912 38 
C 2912 -154 2899 -339 2886 -518 
C 2893 -576 2944 -608 3014 -621 
C 3066 -621 3123 -608 3213 -582 
C 3251 -557 3283 -531 3283 -499 
L 3283 -134 
L 6010 -134 
C 6067 -134 6106 -102 6106 -45 
C 6106 -19 6048 38 5946 134 
C 5779 288 5677 365 5638 365 
C 5606 365 5542 314 5459 224 
C 5370 122 5306 64 5280 38 
L 4678 38 
L 4678 1267 
L 5786 1267 
C 5843 1267 5882 1293 5882 1357 
C 5882 1370 5824 1427 5728 1523 
C 5562 1664 5466 1741 5440 1741 
C 5408 1741 5344 1696 5267 1613 
C 5184 1523 5126 1466 5101 1440 
L 4678 1440 
L 4678 2541 
L 5760 2541 
C 5818 2541 5856 2566 5856 2630 
C 5856 2650 5798 2707 5702 2797 
C 5542 2938 5446 3014 5414 3014 
C 5382 3014 5318 2970 5242 2886 
C 5158 2797 5101 2739 5075 2714 
L 4678 2714 
L 4678 3718 
L 5914 3718 
C 5971 3718 6010 3744 6010 3802 
C 6010 3827 5946 3885 5843 3987 
C 5677 4141 5574 4218 5536 4218 
C 5504 4218 5440 4166 5357 4070 
C 5267 3974 5210 3917 5184 3891 
L 3283 3891 
L 3283 3898 
C 3386 4179 3494 4518 3597 4909 
C 3603 4928 3635 4947 3699 4960 
C 3782 4966 3834 4992 3834 5030 
C 3834 5069 3750 5101 3610 5139 
C 3501 5165 3373 5203 3219 5254 
L 3219 5254 
z
M 1286 5152 
C 1062 4493 851 3968 646 3578 
C 570 3430 480 3328 390 3270 
C 339 3245 314 3219 314 3194 
C 314 3142 365 3053 461 2918 
C 493 2874 531 2854 570 2854 
C 595 2854 627 2867 666 2906 
C 762 2957 851 2989 934 3014 
L 1626 3174 
C 1459 2848 1286 2554 1120 2285 
C 902 1939 710 1741 531 1696 
C 493 1690 461 1670 461 1638 
C 461 1581 518 1466 627 1299 
C 640 1248 691 1229 742 1229 
C 781 1229 813 1235 845 1261 
C 934 1306 1018 1338 1101 1363 
L 2381 1792 
L 2349 1907 
L 973 1709 
C 1210 2010 1658 2637 2298 3597 
C 2330 3629 2368 3648 2419 3661 
C 2528 3674 2592 3706 2598 3757 
C 2598 3782 2566 3814 2528 3846 
L 2093 4134 
C 1958 3846 1830 3578 1702 3315 
L 755 3277 
C 986 3648 1248 4102 1542 4653 
C 1581 4691 1632 4710 1702 4723 
C 1792 4730 1850 4755 1850 4800 
C 1843 4826 1805 4858 1741 4896 
L 1293 5158 
L 1286 5152 
z
M 4230 5030 
L 4166 4966 
C 4294 4755 4384 4499 4448 4192 
C 4493 4032 4582 3955 4698 3955 
C 4749 3955 4794 3981 4838 4045 
C 4877 4109 4909 4179 4909 4250 
C 4909 4365 4845 4486 4736 4614 
C 4640 4749 4474 4890 4230 5030 
L 4230 5030 
z
M 4326 2714 
L 3283 2714 
L 3283 3718 
L 4314 3718 
L 4314 2714 
L 4326 2714 
z
M 4326 1440 
L 3283 1440 
L 3283 2541 
L 4314 2541 
L 4314 1440 
L 4326 1440 
z
M 4326 38 
L 3283 38 
L 3283 1267 
L 4314 1267 
L 4314 38 
L 4326 38 
z
M 2419 1101 
C 1773 838 1069 621 294 448 
C 371 326 448 218 512 115 
C 602 -26 672 -96 717 -96 
C 749 -96 774 -58 774 13 
L 774 115 
C 774 141 858 186 1043 256 
C 1504 422 1978 685 2477 1030 
L 2419 1101 
L 2419 1101 
z
" transform="scale(0.015625)"/>
      <path id="SimSong-Regular-6027" d="M 1190 5178 
C 1203 5011 1210 4813 1210 4589 
L 1210 115 
C 1210 -64 1203 -256 1190 -474 
C 1190 -538 1242 -570 1312 -570 
C 1376 -570 1446 -557 1530 -538 
C 1574 -512 1606 -486 1606 -454 
C 1587 -243 1581 -51 1581 115 
L 1581 4070 
L 1568 4070 
C 1728 3866 1843 3610 1933 3309 
C 1971 3168 2048 3104 2150 3104 
C 2189 3104 2227 3130 2266 3187 
C 2304 3238 2330 3296 2330 3360 
C 2330 3488 2259 3629 2138 3770 
C 2029 3910 1843 4064 1581 4211 
L 1581 4832 
C 1581 4877 1606 4909 1677 4928 
C 1766 4954 1818 4998 1818 5056 
C 1818 5082 1747 5107 1632 5126 
C 1453 5152 1312 5165 1190 5178 
L 1190 5178 
z
M 3002 4678 
C 2886 4128 2752 3674 2611 3315 
C 2432 2867 2272 2522 2118 2272 
L 2189 2163 
C 2496 2509 2739 2854 2918 3213 
C 2963 3290 3021 3386 3072 3494 
L 3949 3494 
L 3949 1914 
L 3213 1914 
C 2867 1914 2605 1933 2413 1971 
L 2528 1690 
C 2675 1722 2899 1741 3213 1741 
L 3949 1741 
L 3949 -32 
L 2912 -32 
C 2566 -32 2304 -13 2112 26 
L 2234 -256 
C 2374 -224 2598 -211 2912 -211 
L 6086 -211 
C 6144 -211 6182 -179 6182 -122 
C 6182 -90 6112 -6 5997 122 
C 5869 250 5773 320 5722 320 
C 5696 320 5638 269 5549 173 
C 5459 64 5395 0 5363 -32 
L 4346 -32 
L 4346 1741 
L 5875 1741 
C 5926 1741 5958 1766 5958 1830 
C 5958 1856 5894 1920 5792 2035 
C 5683 2144 5606 2202 5555 2202 
C 5536 2202 5485 2157 5414 2080 
C 5331 1990 5280 1939 5254 1914 
L 4346 1914 
L 4346 3494 
L 5862 3494 
C 5920 3494 5958 3520 5958 3578 
C 5958 3603 5894 3661 5792 3763 
C 5626 3917 5523 3994 5485 3994 
C 5459 3994 5395 3942 5306 3846 
C 5216 3750 5158 3693 5133 3667 
L 4346 3667 
L 4346 4806 
C 4346 4858 4371 4890 4448 4915 
C 4557 4947 4621 4992 4621 5050 
C 4621 5082 4544 5107 4410 5120 
C 4218 5146 4064 5165 3923 5178 
C 3936 5018 3949 4838 3949 4640 
L 3949 3667 
L 3149 3667 
C 3226 3859 3309 4077 3386 4326 
C 3392 4339 3430 4358 3501 4371 
C 3578 4384 3629 4410 3629 4448 
C 3629 4486 3546 4525 3405 4563 
C 3290 4589 3162 4627 3002 4678 
L 3002 4678 
z
M 858 3853 
L 762 3827 
C 736 3437 646 3117 474 2861 
C 282 2669 186 2534 186 2451 
C 186 2400 205 2355 243 2317 
C 282 2272 339 2253 403 2253 
C 544 2253 659 2310 742 2426 
C 858 2592 922 2829 922 3136 
C 922 3328 902 3571 864 3853 
L 858 3853 
z
" transform="scale(0.015625)"/>
      <path id="SimSong-Regular-80fd" d="M 1594 5178 
C 1414 4704 1242 4352 1062 4122 
C 896 3885 730 3738 538 3686 
C 461 3661 410 3622 410 3584 
C 410 3526 474 3418 582 3264 
C 621 3206 672 3181 723 3181 
C 749 3181 781 3200 832 3251 
C 909 3290 973 3309 1024 3322 
L 2771 3654 
C 2810 3565 2842 3456 2874 3341 
C 2918 3181 3008 3104 3123 3104 
C 3174 3104 3219 3136 3264 3200 
C 3302 3264 3334 3328 3334 3398 
C 3334 3558 3251 3725 3110 3898 
C 2976 4077 2752 4262 2432 4454 
L 2368 4390 
C 2509 4218 2618 4019 2720 3782 
L 934 3699 
C 1267 3994 1581 4333 1869 4710 
C 1920 4762 1978 4794 2042 4813 
C 2138 4826 2195 4851 2195 4890 
C 2195 4928 2144 4966 2061 5005 
L 1594 5178 
L 1594 5178 
z
M 5581 4365 
L 5722 4346 
C 5798 4346 5843 4365 5856 4403 
C 5856 4435 5792 4493 5690 4557 
C 5549 4627 5414 4698 5267 4781 
C 5075 4608 4826 4448 4531 4294 
C 4339 4186 4154 4096 3968 4019 
L 3968 4806 
C 3968 4858 4000 4896 4077 4922 
C 4166 4954 4224 4998 4224 5056 
C 4224 5082 4154 5107 4026 5120 
C 3840 5146 3686 5165 3552 5178 
C 3565 5050 3578 4915 3578 4781 
L 3578 3034 
C 3578 2893 3597 2797 3635 2746 
C 3680 2669 3763 2624 3872 2598 
C 4019 2566 4365 2554 4902 2554 
C 5210 2554 5459 2566 5651 2592 
C 5754 2605 5837 2630 5894 2656 
L 5894 2656 
C 5965 2694 6010 2758 6010 2848 
C 6010 2906 5939 2950 5818 2989 
C 5754 3014 5728 3066 5715 3136 
C 5702 3206 5696 3392 5683 3680 
L 5574 3706 
C 5517 3373 5478 3174 5453 3110 
C 5440 3021 5402 2957 5325 2925 
C 5216 2893 5075 2880 4902 2880 
C 4538 2880 4269 2893 4096 2918 
C 4006 2938 3968 3008 3968 3136 
L 3968 3904 
C 4666 4058 5203 4211 5581 4365 
z
M 672 3078 
C 685 2835 698 2624 698 2458 
L 698 218 
C 698 19 685 -205 672 -461 
C 672 -531 723 -570 806 -570 
C 864 -570 934 -557 1018 -538 
C 1062 -512 1094 -480 1094 -448 
L 1094 941 
L 2496 941 
L 2496 6 
C 2496 -77 2464 -122 2374 -122 
C 2202 -122 1978 -96 1690 -45 
L 1658 -141 
C 2042 -230 2221 -326 2240 -442 
C 2240 -544 2298 -595 2374 -595 
C 2451 -595 2547 -563 2662 -512 
L 2662 -512 
C 2803 -442 2886 -339 2886 -211 
L 2886 2541 
C 2886 2579 2912 2618 2989 2650 
L 2989 2650 
C 3040 2675 3078 2714 3078 2765 
C 3078 2803 3014 2874 2899 2976 
C 2784 3059 2714 3104 2682 3104 
C 2643 3104 2592 3066 2528 3002 
C 2490 2957 2445 2912 2400 2867 
L 1114 2867 
C 986 2950 838 3021 672 3078 
L 672 3078 
z
M 1094 1990 
L 1094 2694 
L 2496 2694 
L 2496 1990 
L 1094 1990 
z
M 5658 1619 
L 5792 1600 
C 5869 1600 5920 1619 5933 1651 
C 5933 1683 5862 1741 5760 1805 
C 5619 1875 5491 1946 5344 2029 
C 5139 1824 4883 1632 4576 1453 
C 4378 1331 4186 1229 3994 1139 
L 3994 2003 
C 3994 2054 4026 2099 4102 2125 
C 4192 2150 4250 2195 4250 2253 
C 4250 2278 4179 2304 4051 2323 
C 3866 2349 3712 2368 3578 2381 
C 3590 2246 3597 2112 3597 1978 
L 3597 38 
C 3597 -102 3622 -198 3661 -250 
C 3712 -326 3795 -378 3904 -403 
C 4058 -429 4410 -448 4960 -448 
C 5280 -448 5536 -435 5734 -410 
C 5850 -390 5933 -371 6003 -346 
C 6061 -294 6106 -230 6106 -154 
C 6106 -83 6048 -26 5946 19 
L 5946 19 
C 5888 51 5862 109 5862 186 
C 5850 269 5843 486 5830 832 
L 5722 851 
C 5658 461 5613 230 5587 154 
C 5568 45 5523 -26 5434 -77 
C 5318 -102 5152 -122 4960 -122 
C 4589 -122 4307 -109 4128 -83 
C 4032 -58 3994 6 3994 134 
L 3994 1024 
C 4710 1229 5267 1427 5658 1619 
z
M 1094 1114 
L 1094 1818 
L 2496 1818 
L 2496 1114 
L 1094 1114 
z
" transform="scale(0.015625)"/>
      <path id="SimSong-Regular-5bf9" d="M 4550 5178 
C 4563 5018 4576 4832 4576 4627 
L 4576 3616 
L 3590 3616 
C 3245 3616 2982 3635 2790 3674 
L 2906 3392 
C 3046 3424 3270 3443 3590 3443 
L 4576 3443 
L 4576 83 
C 4576 19 4570 -13 4550 -32 
C 4512 -58 4461 -70 4397 -70 
C 4230 -70 3968 -26 3597 51 
L 3565 -51 
C 4000 -166 4205 -288 4224 -410 
C 4224 -550 4288 -621 4378 -621 
C 4454 -621 4570 -582 4736 -512 
C 4883 -448 4966 -307 4966 -83 
L 4966 3443 
L 5971 3443 
C 6022 3443 6054 3469 6054 3526 
C 6054 3552 5990 3622 5882 3750 
C 5773 3866 5690 3930 5638 3930 
C 5613 3930 5562 3885 5485 3795 
C 5402 3699 5344 3642 5318 3616 
L 4966 3616 
L 4966 4806 
C 4966 4864 4992 4902 5069 4928 
C 5165 4954 5222 4992 5222 5056 
C 5222 5082 5146 5107 5018 5126 
L 4550 5178 
L 4550 5178 
z
M 749 3776 
L 691 3744 
C 1062 3194 1357 2630 1600 2048 
C 1472 1734 1338 1446 1184 1184 
C 934 762 614 339 218 -90 
L 275 -179 
C 845 243 1312 762 1690 1382 
C 1722 1434 1754 1498 1786 1549 
C 1901 1210 1997 851 2067 480 
C 2093 314 2182 230 2298 230 
C 2342 230 2381 250 2419 301 
C 2458 339 2483 397 2483 467 
C 2483 877 2355 1350 2112 1888 
L 2035 2048 
C 2266 2586 2458 3251 2624 4032 
C 2637 4064 2675 4096 2752 4128 
C 2816 4154 2854 4186 2854 4224 
C 2854 4262 2771 4346 2630 4461 
C 2502 4550 2426 4602 2400 4602 
C 2362 4602 2310 4576 2259 4531 
L 2106 4390 
L 1222 4390 
C 902 4390 627 4410 384 4448 
L 506 4166 
C 698 4198 928 4218 1222 4218 
L 2189 4218 
C 2106 3616 1971 3066 1792 2566 
C 1779 2534 1779 2509 1766 2490 
C 1517 2874 1178 3302 755 3776 
L 749 3776 
z
M 2982 2752 
L 2912 2688 
C 3066 2381 3174 1997 3251 1542 
C 3296 1382 3386 1306 3501 1306 
C 3552 1306 3597 1331 3648 1395 
C 3680 1446 3706 1517 3706 1600 
C 3706 1792 3642 1984 3539 2170 
C 3424 2362 3245 2554 2982 2752 
L 2982 2752 
z
" transform="scale(0.015625)"/>
      <path id="SimSong-Regular-6bd4" d="M 3424 5178 
C 3437 5050 3450 4915 3450 4781 
L 3450 160 
C 3450 19 3475 -70 3520 -128 
C 3571 -198 3661 -250 3782 -275 
C 3949 -301 4333 -320 4934 -320 
C 5286 -320 5574 -307 5798 -282 
C 5926 -262 6016 -243 6086 -224 
C 6157 -173 6208 -109 6208 -26 
C 6208 58 6131 128 6010 179 
C 5914 243 5882 314 5869 416 
C 5856 525 5843 806 5830 1254 
L 5722 1280 
C 5658 768 5613 461 5587 365 
C 5562 224 5517 122 5414 64 
C 5306 26 5139 6 4934 6 
C 4512 6 4198 13 3994 38 
C 3891 58 3846 134 3846 262 
L 3846 2650 
C 4659 2957 5306 3283 5786 3616 
L 5914 3597 
C 5952 3597 5978 3616 5984 3654 
C 5984 3686 5920 3738 5811 3802 
L 5434 4006 
C 5005 3526 4474 3110 3846 2771 
L 3846 4806 
C 3846 4858 3872 4896 3949 4922 
C 4045 4954 4102 4998 4102 5056 
C 4102 5082 4026 5107 3898 5120 
C 3712 5146 3558 5165 3424 5178 
L 3424 5178 
z
M 979 5107 
C 1005 4979 1024 4794 1024 4550 
L 1024 352 
C 1024 237 1005 147 954 83 
C 915 51 890 19 890 -13 
C 890 -64 966 -154 1114 -294 
C 1165 -346 1216 -371 1261 -371 
C 1306 -365 1344 -326 1376 -256 
C 1434 -154 1530 -77 1645 -32 
L 3098 678 
L 3053 755 
L 1421 192 
L 1421 2867 
L 3162 2867 
C 3219 2867 3258 2893 3258 2957 
C 3258 2976 3194 3034 3091 3136 
C 2925 3290 2822 3366 2790 3366 
C 2758 3366 2694 3315 2605 3226 
C 2515 3123 2458 3066 2432 3040 
L 1421 3040 
L 1421 4710 
C 1427 4787 1446 4832 1510 4858 
C 1606 4890 1670 4934 1670 4992 
C 1670 5024 1626 5043 1555 5056 
L 979 5107 
L 979 5107 
z
" transform="scale(0.015625)"/>
      <path id="SimSong-Regular-ff08" d="M 5382 -704 
L 5382 -576 
C 4979 -262 4685 160 4480 704 
C 4282 1197 4186 1728 4186 2304 
C 4186 2874 4282 3405 4480 3904 
C 4685 4442 4979 4870 5382 5178 
L 5382 5318 
C 4883 5030 4486 4608 4179 4032 
C 3885 3469 3731 2893 3731 2304 
C 3731 1709 3885 1133 4179 576 
C 4486 0 4883 -422 5382 -717 
L 5382 -704 
z
" transform="scale(0.015625)"/>
      <path id="SimSong-Regular-5f52" d="M 2118 5178 
C 2138 5030 2150 4890 2150 4755 
C 2150 2810 2106 1664 2022 1312 
C 1952 966 1862 710 1747 544 
C 1626 352 1478 179 1312 32 
C 1114 -122 813 -294 384 -506 
L 410 -602 
C 947 -467 1344 -314 1606 -134 
C 1830 32 2016 243 2157 486 
C 2272 685 2368 979 2445 1370 
C 2509 1741 2541 2893 2541 4838 
C 2541 4870 2566 4902 2637 4934 
C 2707 4954 2752 4986 2752 5030 
C 2752 5062 2669 5088 2522 5107 
C 2432 5126 2298 5152 2118 5178 
L 2118 5178 
z
M 2662 499 
L 2784 218 
C 2976 250 3206 269 3501 269 
L 5248 269 
L 5248 -230 
C 5254 -288 5299 -320 5357 -320 
C 5421 -320 5498 -301 5594 -275 
C 5632 -250 5670 -211 5670 -173 
L 5658 1286 
C 5645 2067 5645 3008 5645 4096 
C 5645 4128 5670 4166 5747 4205 
L 5747 4205 
C 5811 4230 5856 4262 5856 4301 
C 5856 4339 5779 4422 5645 4550 
C 5523 4653 5440 4704 5389 4704 
C 5357 4704 5299 4659 5229 4570 
L 5075 4378 
L 3872 4378 
C 3526 4378 3238 4390 2989 4429 
L 3085 4186 
C 3251 4218 3507 4230 3872 4230 
L 5248 4230 
L 5248 2438 
L 3898 2438 
C 3578 2438 3302 2458 3059 2496 
L 3181 2214 
C 3373 2246 3603 2266 3898 2266 
L 5248 2266 
L 5248 442 
L 3501 442 
C 3181 442 2906 461 2662 499 
L 2662 499 
z
M 890 4557 
C 902 4384 915 4186 915 3968 
L 915 1664 
C 915 1485 902 1286 890 1082 
C 896 1011 947 979 1011 979 
C 1075 979 1146 986 1222 1011 
C 1274 1030 1306 1062 1306 1101 
C 1286 1306 1280 1491 1280 1664 
L 1280 4205 
C 1280 4256 1306 4288 1376 4301 
C 1466 4326 1517 4371 1517 4429 
C 1517 4454 1446 4480 1331 4506 
C 1152 4531 1011 4544 890 4557 
L 890 4557 
z
" transform="scale(0.015625)"/>
      <path id="SimSong-Regular-4e00" d="M 384 2598 
L 506 2317 
C 646 2349 870 2368 1190 2368 
L 5914 2368 
C 5984 2368 6029 2394 6029 2451 
C 6029 2483 5946 2586 5798 2752 
C 5645 2912 5536 2995 5466 2995 
C 5440 2995 5363 2931 5254 2803 
C 5139 2662 5062 2579 5024 2541 
L 1190 2541 
C 845 2541 576 2560 384 2598 
L 384 2598 
z
" transform="scale(0.015625)"/>
      <path id="SimSong-Regular-5316" d="M 1952 5203 
C 1734 4499 1485 3910 1203 3450 
C 858 2874 538 2426 243 2106 
L 320 1997 
C 704 2323 1030 2656 1299 2989 
L 1286 2989 
L 1286 346 
C 1286 70 1274 -198 1254 -480 
C 1254 -557 1312 -595 1402 -595 
C 1459 -595 1530 -582 1626 -563 
C 1670 -531 1709 -499 1709 -461 
L 1709 3181 
C 1709 3238 1728 3277 1779 3302 
C 1856 3341 1907 3392 1907 3456 
C 1907 3475 1856 3494 1779 3520 
L 1702 3533 
C 1933 3872 2157 4301 2368 4826 
C 2374 4838 2413 4858 2490 4877 
C 2579 4883 2630 4909 2630 4954 
C 2630 4992 2541 5037 2387 5082 
C 2266 5107 2125 5152 1952 5203 
L 1952 5203 
z
M 5562 3565 
L 5709 3539 
C 5747 3539 5773 3565 5779 3603 
C 5779 3642 5709 3693 5594 3770 
L 5158 4006 
C 4736 3507 4243 3040 3706 2611 
L 3706 4755 
C 3706 4806 3738 4851 3821 4877 
C 3917 4909 3974 4954 3974 5018 
C 3974 5050 3898 5075 3763 5094 
C 3565 5120 3398 5139 3258 5152 
C 3277 5011 3290 4870 3290 4730 
L 3290 2304 
C 2931 2054 2541 1811 2118 1581 
L 2182 1498 
C 2579 1683 2950 1869 3290 2048 
L 3290 147 
C 3290 0 3315 -102 3354 -166 
C 3405 -243 3501 -294 3622 -320 
C 3789 -352 4186 -371 4800 -371 
C 5152 -371 5440 -358 5670 -333 
C 5798 -307 5894 -282 5978 -250 
C 6035 -211 6080 -141 6080 -51 
C 6080 19 6022 77 5920 128 
C 5862 166 5837 230 5837 320 
C 5824 410 5818 646 5805 1024 
L 5696 1056 
C 5619 621 5562 365 5536 288 
C 5510 160 5459 77 5363 38 
C 5216 0 5030 -19 4800 -19 
C 4371 -19 4058 -6 3859 19 
C 3750 32 3706 115 3706 256 
L 3706 2278 
C 4435 2694 5056 3123 5562 3558 
L 5562 3565 
z
" transform="scale(0.015625)"/>
      <path id="SimSong-Regular-ff09" d="M 2662 2304 
C 2662 2893 2509 3469 2214 4032 
C 1907 4608 1510 5030 1011 5318 
L 1011 5178 
C 1408 4870 1702 4448 1920 3910 
C 2112 3411 2208 2874 2208 2304 
C 2208 1728 2112 1197 1920 704 
C 1702 160 1408 -262 1011 -576 
L 1011 -717 
C 1510 -422 1907 0 2214 576 
C 2509 1133 2662 1709 2662 2304 
z
" transform="scale(0.015625)"/>
     </defs>
     <use xlink:href="#SimSong-Regular-591a"/>
     <use xlink:href="#SimSong-Regular-7ef4" transform="translate(99.999985 0)"/>
     <use xlink:href="#SimSong-Regular-6027" transform="translate(199.999969 0)"/>
     <use xlink:href="#SimSong-Regular-80fd" transform="translate(299.999954 0)"/>
     <use xlink:href="#SimSong-Regular-5bf9" transform="translate(399.999939 0)"/>
     <use xlink:href="#SimSong-Regular-6bd4" transform="translate(499.999924 0)"/>
     <use xlink:href="#SimSong-Regular-ff08" transform="translate(599.999908 0)"/>
     <use xlink:href="#SimSong-Regular-5f52" transform="translate(699.999893 0)"/>
     <use xlink:href="#SimSong-Regular-4e00" transform="translate(799.999878 0)"/>
     <use xlink:href="#SimSong-Regular-5316" transform="translate(899.999863 0)"/>
     <use xlink:href="#SimSong-Regular-ff09" transform="translate(999.999847 0)"/>
    </g>
   </g>
   <g id="legend_1">
    <g id="patch_8">
     <path d="M 394.526856 66.75625 
L 467.653419 66.75625 
Q 469.653419 66.75625 469.653419 64.75625 
L 469.653419 9.2 
Q 469.653419 7.2 467.653419 7.2 
L 394.526856 7.2 
Q 392.526856 7.2 392.526856 9.2 
L 392.526856 64.75625 
Q 392.526856 66.75625 394.526856 66.75625 
z
" style="fill: #ffffff; opacity: 0.8; stroke: #cccccc; stroke-linejoin: miter"/>
    </g>
    <g id="line2d_14">
     <path d="M 396.526856 14.7 
L 406.526856 14.7 
L 416.526856 14.7 
" style="fill: none; stroke: #ee6f63; stroke-width: 2; stroke-linecap: square"/>
    </g>
    <g id="text_11">
     <!-- BVF -->
     <g transform="translate(424.526856 18.2) scale(0.1 -0.1)">
      <defs>
       <path id="TimesNewRomanPSMT-42" d="M 2956 2163 
Q 3397 2069 3616 1863 
Q 3919 1575 3919 1159 
Q 3919 844 3719 555 
Q 3519 266 3170 133 
Q 2822 0 2106 0 
L 106 0 
L 106 116 
L 266 116 
Q 531 116 647 284 
Q 719 394 719 750 
L 719 3488 
Q 719 3881 628 3984 
Q 506 4122 266 4122 
L 106 4122 
L 106 4238 
L 1938 4238 
Q 2450 4238 2759 4163 
Q 3228 4050 3475 3764 
Q 3722 3478 3722 3106 
Q 3722 2788 3528 2536 
Q 3334 2284 2956 2163 
z
M 1319 2331 
Q 1434 2309 1582 2298 
Q 1731 2288 1909 2288 
Q 2366 2288 2595 2386 
Q 2825 2484 2947 2687 
Q 3069 2891 3069 3131 
Q 3069 3503 2766 3765 
Q 2463 4028 1881 4028 
Q 1569 4028 1319 3959 
L 1319 2331 
z
M 1319 306 
Q 1681 222 2034 222 
Q 2600 222 2897 476 
Q 3194 731 3194 1106 
Q 3194 1353 3059 1581 
Q 2925 1809 2622 1940 
Q 2319 2072 1872 2072 
Q 1678 2072 1540 2065 
Q 1403 2059 1319 2044 
L 1319 306 
z
" transform="scale(0.015625)"/>
       <path id="TimesNewRomanPSMT-56" d="M 4544 4238 
L 4544 4122 
Q 4319 4081 4203 3978 
Q 4038 3825 3909 3509 
L 2431 -97 
L 2316 -97 
L 728 3556 
Q 606 3838 556 3900 
Q 478 3997 364 4051 
Q 250 4106 56 4122 
L 56 4238 
L 1788 4238 
L 1788 4122 
Q 1494 4094 1406 4022 
Q 1319 3950 1319 3838 
Q 1319 3681 1463 3350 
L 2541 866 
L 3541 3319 
Q 3688 3681 3688 3822 
Q 3688 3913 3597 3995 
Q 3506 4078 3291 4113 
Q 3275 4116 3238 4122 
L 3238 4238 
L 4544 4238 
z
" transform="scale(0.015625)"/>
       <path id="TimesNewRomanPSMT-46" d="M 1309 4006 
L 1309 2341 
L 2081 2341 
Q 2347 2341 2470 2458 
Q 2594 2575 2634 2922 
L 2750 2922 
L 2750 1488 
L 2634 1488 
Q 2631 1734 2570 1850 
Q 2509 1966 2401 2023 
Q 2294 2081 2081 2081 
L 1309 2081 
L 1309 750 
Q 1309 428 1350 325 
Q 1381 247 1481 191 
Q 1619 116 1769 116 
L 1922 116 
L 1922 0 
L 103 0 
L 103 116 
L 253 116 
Q 516 116 634 269 
Q 709 369 709 750 
L 709 3488 
Q 709 3809 669 3913 
Q 638 3991 541 4047 
Q 406 4122 253 4122 
L 103 4122 
L 103 4238 
L 3256 4238 
L 3297 3306 
L 3188 3306 
Q 3106 3603 2998 3742 
Q 2891 3881 2733 3943 
Q 2575 4006 2244 4006 
L 1309 4006 
z
" transform="scale(0.015625)"/>
      </defs>
      <use xlink:href="#TimesNewRomanPSMT-42"/>
      <use xlink:href="#TimesNewRomanPSMT-56" transform="translate(66.699219 0)"/>
      <use xlink:href="#TimesNewRomanPSMT-46" transform="translate(138.916016 0)"/>
     </g>
    </g>
    <g id="line2d_15">
     <path d="M 396.526856 28.839063 
L 406.526856 28.839063 
L 416.526856 28.839063 
" style="fill: none; stroke: #5fa8e8; stroke-width: 2; stroke-linecap: square"/>
    </g>
    <g id="text_12">
     <!-- DGA-CF -->
     <g transform="translate(424.526856 32.339063) scale(0.1 -0.1)">
      <defs>
       <path id="TimesNewRomanPSMT-44" d="M 109 0 
L 109 116 
L 269 116 
Q 538 116 650 288 
Q 719 391 719 750 
L 719 3488 
Q 719 3884 631 3984 
Q 509 4122 269 4122 
L 109 4122 
L 109 4238 
L 1834 4238 
Q 2784 4238 3279 4022 
Q 3775 3806 4076 3303 
Q 4378 2800 4378 2141 
Q 4378 1256 3841 663 
Q 3238 0 2003 0 
L 109 0 
z
M 1319 306 
Q 1716 219 1984 219 
Q 2709 219 3187 728 
Q 3666 1238 3666 2109 
Q 3666 2988 3187 3494 
Q 2709 4000 1959 4000 
Q 1678 4000 1319 3909 
L 1319 306 
z
" transform="scale(0.015625)"/>
       <path id="TimesNewRomanPSMT-47" d="M 3928 4334 
L 4038 2997 
L 3928 2997 
Q 3763 3497 3500 3750 
Q 3122 4116 2528 4116 
Q 1719 4116 1297 3475 
Q 944 2934 944 2188 
Q 944 1581 1178 1081 
Q 1413 581 1792 348 
Q 2172 116 2572 116 
Q 2806 116 3025 175 
Q 3244 234 3447 350 
L 3447 1575 
Q 3447 1894 3398 1992 
Q 3350 2091 3248 2142 
Q 3147 2194 2891 2194 
L 2891 2313 
L 4531 2313 
L 4531 2194 
L 4453 2194 
Q 4209 2194 4119 2031 
Q 4056 1916 4056 1575 
L 4056 278 
Q 3697 84 3347 -6 
Q 2997 -97 2569 -97 
Q 1341 -97 703 691 
Q 225 1281 225 2053 
Q 225 2613 494 3125 
Q 813 3734 1369 4063 
Q 1834 4334 2469 4334 
Q 2700 4334 2889 4296 
Q 3078 4259 3425 4131 
Q 3600 4066 3659 4066 
Q 3719 4066 3761 4120 
Q 3803 4175 3813 4334 
L 3928 4334 
z
" transform="scale(0.015625)"/>
       <path id="TimesNewRomanPSMT-41" d="M 2928 1419 
L 1288 1419 
L 1000 750 
Q 894 503 894 381 
Q 894 284 986 211 
Q 1078 138 1384 116 
L 1384 0 
L 50 0 
L 50 116 
Q 316 163 394 238 
Q 553 388 747 847 
L 2238 4334 
L 2347 4334 
L 3822 809 
Q 4000 384 4145 257 
Q 4291 131 4550 116 
L 4550 0 
L 2878 0 
L 2878 116 
Q 3131 128 3220 200 
Q 3309 272 3309 375 
Q 3309 513 3184 809 
L 2928 1419 
z
M 2841 1650 
L 2122 3363 
L 1384 1650 
L 2841 1650 
z
" transform="scale(0.015625)"/>
       <path id="TimesNewRomanPSMT-2d" d="M 259 1672 
L 1875 1672 
L 1875 1200 
L 259 1200 
L 259 1672 
z
" transform="scale(0.015625)"/>
       <path id="TimesNewRomanPSMT-43" d="M 3853 4334 
L 3950 2894 
L 3853 2894 
Q 3659 3541 3300 3825 
Q 2941 4109 2438 4109 
Q 2016 4109 1675 3895 
Q 1334 3681 1139 3212 
Q 944 2744 944 2047 
Q 944 1472 1128 1050 
Q 1313 628 1683 403 
Q 2053 178 2528 178 
Q 2941 178 3256 354 
Q 3572 531 3950 1056 
L 4047 994 
Q 3728 428 3303 165 
Q 2878 -97 2294 -97 
Q 1241 -97 663 684 
Q 231 1266 231 2053 
Q 231 2688 515 3219 
Q 800 3750 1298 4042 
Q 1797 4334 2388 4334 
Q 2847 4334 3294 4109 
Q 3425 4041 3481 4041 
Q 3566 4041 3628 4100 
Q 3709 4184 3744 4334 
L 3853 4334 
z
" transform="scale(0.015625)"/>
      </defs>
      <use xlink:href="#TimesNewRomanPSMT-44"/>
      <use xlink:href="#TimesNewRomanPSMT-47" transform="translate(72.216797 0)"/>
      <use xlink:href="#TimesNewRomanPSMT-41" transform="translate(144.433594 0)"/>
      <use xlink:href="#TimesNewRomanPSMT-2d" transform="translate(216.650391 0)"/>
      <use xlink:href="#TimesNewRomanPSMT-43" transform="translate(249.951172 0)"/>
      <use xlink:href="#TimesNewRomanPSMT-46" transform="translate(316.650391 0)"/>
     </g>
    </g>
    <g id="line2d_16">
     <path d="M 396.526856 42.978125 
L 406.526856 42.978125 
L 416.526856 42.978125 
" style="fill: none; stroke: #63cfa0; stroke-width: 2; stroke-linecap: square"/>
    </g>
    <g id="text_13">
     <!-- DPSO-CF -->
     <g transform="translate(424.526856 46.478125) scale(0.1 -0.1)">
      <defs>
       <path id="TimesNewRomanPSMT-50" d="M 1313 1984 
L 1313 750 
Q 1313 350 1400 253 
Q 1519 116 1759 116 
L 1922 116 
L 1922 0 
L 106 0 
L 106 116 
L 266 116 
Q 534 116 650 291 
Q 713 388 713 750 
L 713 3488 
Q 713 3888 628 3984 
Q 506 4122 266 4122 
L 106 4122 
L 106 4238 
L 1659 4238 
Q 2228 4238 2556 4120 
Q 2884 4003 3109 3725 
Q 3334 3447 3334 3066 
Q 3334 2547 2992 2222 
Q 2650 1897 2025 1897 
Q 1872 1897 1694 1919 
Q 1516 1941 1313 1984 
z
M 1313 2163 
Q 1478 2131 1606 2115 
Q 1734 2100 1825 2100 
Q 2150 2100 2386 2351 
Q 2622 2603 2622 3003 
Q 2622 3278 2509 3514 
Q 2397 3750 2190 3867 
Q 1984 3984 1722 3984 
Q 1563 3984 1313 3925 
L 1313 2163 
z
" transform="scale(0.015625)"/>
       <path id="TimesNewRomanPSMT-4f" d="M 2341 4334 
Q 3166 4334 3770 3707 
Q 4375 3081 4375 2144 
Q 4375 1178 3765 540 
Q 3156 -97 2291 -97 
Q 1416 -97 820 525 
Q 225 1147 225 2134 
Q 225 3144 913 3781 
Q 1509 4334 2341 4334 
z
M 2281 4106 
Q 1713 4106 1369 3684 
Q 941 3159 941 2147 
Q 941 1109 1384 550 
Q 1725 125 2284 125 
Q 2881 125 3270 590 
Q 3659 1056 3659 2059 
Q 3659 3147 3231 3681 
Q 2888 4106 2281 4106 
z
" transform="scale(0.015625)"/>
      </defs>
      <use xlink:href="#TimesNewRomanPSMT-44"/>
      <use xlink:href="#TimesNewRomanPSMT-50" transform="translate(72.216797 0)"/>
      <use xlink:href="#TimesNewRomanPSMT-53" transform="translate(127.832031 0)"/>
      <use xlink:href="#TimesNewRomanPSMT-4f" transform="translate(183.447266 0)"/>
      <use xlink:href="#TimesNewRomanPSMT-2d" transform="translate(255.664062 0)"/>
      <use xlink:href="#TimesNewRomanPSMT-43" transform="translate(288.964844 0)"/>
      <use xlink:href="#TimesNewRomanPSMT-46" transform="translate(355.664062 0)"/>
     </g>
    </g>
    <g id="line2d_17">
     <path d="M 396.526856 57.117188 
L 406.526856 57.117188 
L 416.526856 57.117188 
" style="fill: none; stroke: #b08adf; stroke-width: 2; stroke-linecap: square"/>
    </g>
    <g id="text_14">
     <!-- NSSA-CF -->
     <g transform="translate(424.526856 60.617188) scale(0.1 -0.1)">
      <defs>
       <path id="TimesNewRomanPSMT-4e" d="M -84 4238 
L 1066 4238 
L 3656 1059 
L 3656 3503 
Q 3656 3894 3569 3991 
Q 3453 4122 3203 4122 
L 3056 4122 
L 3056 4238 
L 4531 4238 
L 4531 4122 
L 4381 4122 
Q 4113 4122 4000 3959 
Q 3931 3859 3931 3503 
L 3931 -69 
L 3819 -69 
L 1025 3344 
L 1025 734 
Q 1025 344 1109 247 
Q 1228 116 1475 116 
L 1625 116 
L 1625 0 
L 150 0 
L 150 116 
L 297 116 
Q 569 116 681 278 
Q 750 378 750 734 
L 750 3681 
Q 566 3897 470 3965 
Q 375 4034 191 4094 
Q 100 4122 -84 4122 
L -84 4238 
z
" transform="scale(0.015625)"/>
      </defs>
      <use xlink:href="#TimesNewRomanPSMT-4e"/>
      <use xlink:href="#TimesNewRomanPSMT-53" transform="translate(72.216797 0)"/>
      <use xlink:href="#TimesNewRomanPSMT-53" transform="translate(127.832031 0)"/>
      <use xlink:href="#TimesNewRomanPSMT-41" transform="translate(183.447266 0)"/>
      <use xlink:href="#TimesNewRomanPSMT-2d" transform="translate(255.664062 0)"/>
      <use xlink:href="#TimesNewRomanPSMT-43" transform="translate(288.964844 0)"/>
      <use xlink:href="#TimesNewRomanPSMT-46" transform="translate(355.664062 0)"/>
     </g>
    </g>
   </g>
  </g>
 </g>
 <defs>
  <clipPath id="p8dd1fe7afe">
   <path d="M 361.291219 212.7298 
C 361.291219 191.463246 357.102171 170.403483 348.963814 150.755749 
C 340.825456 131.108015 328.896058 113.25441 313.858334 98.216685 
C 298.820609 83.178961 280.967004 71.249563 261.31927 63.111205 
C 241.671536 54.972847 220.611773 50.7838 199.345219 50.7838 
C 178.078665 50.7838 157.018901 54.972847 137.371168 63.111205 
C 117.723434 71.249563 99.869828 83.178961 84.832104 98.216685 
C 69.79438 113.25441 57.864982 131.108015 49.726624 150.755749 
C 41.588266 170.403483 37.399219 191.463246 37.399219 212.7298 
C 37.399219 233.996354 41.588266 255.056117 49.726624 274.703851 
C 57.864982 294.351585 69.79438 312.20519 84.832104 327.242915 
C 99.869828 342.280639 117.723434 354.210037 137.371168 362.348395 
C 157.018901 370.486753 178.078665 374.6758 199.345219 374.6758 
C 220.611773 374.6758 241.671536 370.486753 261.31927 362.348395 
C 280.967004 354.210037 298.820609 342.280639 313.858334 327.242915 
C 328.896058 312.20519 340.825456 294.351585 348.963814 274.703851 
C 357.102171 255.056117 361.291219 233.996354 361.291219 212.7298 
M 199.345219 212.7298 
C 199.345219 212.7298 199.345219 212.7298 199.345219 212.7298 
C 199.345219 212.7298 199.345219 212.7298 199.345219 212.7298 
C 199.345219 212.7298 199.345219 212.7298 199.345219 212.7298 
C 199.345219 212.7298 199.345219 212.7298 199.345219 212.7298 
C 199.345219 212.7298 199.345219 212.7298 199.345219 212.7298 
C 199.345219 212.7298 199.345219 212.7298 199.345219 212.7298 
C 199.345219 212.7298 199.345219 212.7298 199.345219 212.7298 
C 199.345219 212.7298 199.345219 212.7298 199.345219 212.7298 
C 199.345219 212.7298 199.345219 212.7298 199.345219 212.7298 
C 199.345219 212.7298 199.345219 212.7298 199.345219 212.7298 
C 199.345219 212.7298 199.345219 212.7298 199.345219 212.7298 
C 199.345219 212.7298 199.345219 212.7298 199.345219 212.7298 
C 199.345219 212.7298 199.345219 212.7298 199.345219 212.7298 
C 199.345219 212.7298 199.345219 212.7298 199.345219 212.7298 
C 199.345219 212.7298 199.345219 212.7298 199.345219 212.7298 
C 199.345219 212.7298 199.345219 212.7298 199.345219 212.7298 
z
"/>
  </clipPath>
 </defs>
</svg>
