<?xml version="1.0" encoding="utf-8" standalone="no"?>
<!DOCTYPE svg PUBLIC "-//W3C//DTD SVG 1.1//EN"
  "http://www.w3.org/Graphics/SVG/1.1/DTD/svg11.dtd">
<svg xmlns:xlink="http://www.w3.org/1999/xlink" width="439.12pt" height="351.835614pt" viewBox="0 0 439.12 351.835614" xmlns="http://www.w3.org/2000/svg" version="1.1">
 <metadata>
  <rdf:RDF xmlns:dc="http://purl.org/dc/elements/1.1/" xmlns:cc="http://creativecommons.org/ns#" xmlns:rdf="http://www.w3.org/1999/02/22-rdf-syntax-ns#">
   <cc:Work>
    <dc:type rdf:resource="http://purl.org/dc/dcmitype/StillImage"/>
    <dc:date>2026-04-08T20:43:58.458087</dc:date>
    <dc:format>image/svg+xml</dc:format>
    <dc:creator>
     <cc:Agent>
      <dc:title>Matplotlib v3.10.8, https://matplotlib.org/</dc:title>
     </cc:Agent>
    </dc:creator>
   </cc:Work>
  </rdf:RDF>
 </metadata>
 <defs>
  <style type="text/css">*{stroke-linejoin: round; stroke-linecap: butt}</style>
 </defs>
 <g id="figure_1">
  <g id="patch_1">
   <path d="M 0 351.835614 
L 439.12 351.835614 
L 439.12 0 
L 0 0 
z
" style="fill: #ffffff"/>
  </g>
  <g id="axes_1">
   <g id="patch_2">
    <path d="M 40.71 318.217953 
L 431.92 318.217953 
L 431.92 22.839375 
L 40.71 22.839375 
z
" style="fill: #ffffff"/>
   </g>
   <g id="matplotlib.axis_1">
    <g id="xtick_1">
     <g id="line2d_1">
      <defs>
       <path id="m8ebcffd0a5" d="M 0 0 
L 0 3.5 
" style="stroke: #000000; stroke-width: 0.8"/>
      </defs>
      <g>
       <use xlink:href="#m8ebcffd0a5" x="89.61125" y="318.217953" style="stroke: #000000; stroke-width: 0.8"/>
      </g>
     </g>
     <g id="text_1">
      <!-- BVF -->
      <g transform="translate(80.837884 336.959939) rotate(-15) scale(0.1 -0.1)">
       <defs>
        <path id="TimesNewRomanPSMT-42" d="M 2956 2163 
Q 3397 2069 3616 1863 
Q 3919 1575 3919 1159 
Q 3919 844 3719 555 
Q 3519 266 3170 133 
Q 2822 0 2106 0 
L 106 0 
L 106 116 
L 266 116 
Q 531 116 647 284 
Q 719 394 719 750 
L 719 3488 
Q 719 3881 628 3984 
Q 506 4122 266 4122 
L 106 4122 
L 106 4238 
L 1938 4238 
Q 2450 4238 2759 4163 
Q 3228 4050 3475 3764 
Q 3722 3478 3722 3106 
Q 3722 2788 3528 2536 
Q 3334 2284 2956 2163 
z
M 1319 2331 
Q 1434 2309 1582 2298 
Q 1731 2288 1909 2288 
Q 2366 2288 2595 2386 
Q 2825 2484 2947 2687 
Q 3069 2891 3069 3131 
Q 3069 3503 2766 3765 
Q 2463 4028 1881 4028 
Q 1569 4028 1319 3959 
L 1319 2331 
z
M 1319 306 
Q 1681 222 2034 222 
Q 2600 222 2897 476 
Q 3194 731 3194 1106 
Q 3194 1353 3059 1581 
Q 2925 1809 2622 1940 
Q 2319 2072 1872 2072 
Q 1678 2072 1540 2065 
Q 1403 2059 1319 2044 
L 1319 306 
z
" transform="scale(0.015625)"/>
        <path id="TimesNewRomanPSMT-56" d="M 4544 4238 
L 4544 4122 
Q 4319 4081 4203 3978 
Q 4038 3825 3909 3509 
L 2431 -97 
L 2316 -97 
L 728 3556 
Q 606 3838 556 3900 
Q 478 3997 364 4051 
Q 250 4106 56 4122 
L 56 4238 
L 1788 4238 
L 1788 4122 
Q 1494 4094 1406 4022 
Q 1319 3950 1319 3838 
Q 1319 3681 1463 3350 
L 2541 866 
L 3541 3319 
Q 3688 3681 3688 3822 
Q 3688 3913 3597 3995 
Q 3506 4078 3291 4113 
Q 3275 4116 3238 4122 
L 3238 4238 
L 4544 4238 
z
" transform="scale(0.015625)"/>
        <path id="TimesNewRomanPSMT-46" d="M 1309 4006 
L 1309 2341 
L 2081 2341 
Q 2347 2341 2470 2458 
Q 2594 2575 2634 2922 
L 2750 2922 
L 2750 1488 
L 2634 1488 
Q 2631 1734 2570 1850 
Q 2509 1966 2401 2023 
Q 2294 2081 2081 2081 
L 1309 2081 
L 1309 750 
Q 1309 428 1350 325 
Q 1381 247 1481 191 
Q 1619 116 1769 116 
L 1922 116 
L 1922 0 
L 103 0 
L 103 116 
L 253 116 
Q 516 116 634 269 
Q 709 369 709 750 
L 709 3488 
Q 709 3809 669 3913 
Q 638 3991 541 4047 
Q 406 4122 253 4122 
L 103 4122 
L 103 4238 
L 3256 4238 
L 3297 3306 
L 3188 3306 
Q 3106 3603 2998 3742 
Q 2891 3881 2733 3943 
Q 2575 4006 2244 4006 
L 1309 4006 
z
" transform="scale(0.015625)"/>
       </defs>
       <use xlink:href="#TimesNewRomanPSMT-42"/>
       <use xlink:href="#TimesNewRomanPSMT-56" transform="translate(66.699219 0)"/>
       <use xlink:href="#TimesNewRomanPSMT-46" transform="translate(138.916016 0)"/>
      </g>
     </g>
    </g>
    <g id="xtick_2">
     <g id="line2d_2">
      <g>
       <use xlink:href="#m8ebcffd0a5" x="187.41375" y="318.217953" style="stroke: #000000; stroke-width: 0.8"/>
      </g>
     </g>
     <g id="text_2">
      <!-- DGA-CF -->
      <g transform="translate(170.056473 341.560044) rotate(-15) scale(0.1 -0.1)">
       <defs>
        <path id="TimesNewRomanPSMT-44" d="M 109 0 
L 109 116 
L 269 116 
Q 538 116 650 288 
Q 719 391 719 750 
L 719 3488 
Q 719 3884 631 3984 
Q 509 4122 269 4122 
L 109 4122 
L 109 4238 
L 1834 4238 
Q 2784 4238 3279 4022 
Q 3775 3806 4076 3303 
Q 4378 2800 4378 2141 
Q 4378 1256 3841 663 
Q 3238 0 2003 0 
L 109 0 
z
M 1319 306 
Q 1716 219 1984 219 
Q 2709 219 3187 728 
Q 3666 1238 3666 2109 
Q 3666 2988 3187 3494 
Q 2709 4000 1959 4000 
Q 1678 4000 1319 3909 
L 1319 306 
z
" transform="scale(0.015625)"/>
        <path id="TimesNewRomanPSMT-47" d="M 3928 4334 
L 4038 2997 
L 3928 2997 
Q 3763 3497 3500 3750 
Q 3122 4116 2528 4116 
Q 1719 4116 1297 3475 
Q 944 2934 944 2188 
Q 944 1581 1178 1081 
Q 1413 581 1792 348 
Q 2172 116 2572 116 
Q 2806 116 3025 175 
Q 3244 234 3447 350 
L 3447 1575 
Q 3447 1894 3398 1992 
Q 3350 2091 3248 2142 
Q 3147 2194 2891 2194 
L 2891 2313 
L 4531 2313 
L 4531 2194 
L 4453 2194 
Q 4209 2194 4119 2031 
Q 4056 1916 4056 1575 
L 4056 278 
Q 3697 84 3347 -6 
Q 2997 -97 2569 -97 
Q 1341 -97 703 691 
Q 225 1281 225 2053 
Q 225 2613 494 3125 
Q 813 3734 1369 4063 
Q 1834 4334 2469 4334 
Q 2700 4334 2889 4296 
Q 3078 4259 3425 4131 
Q 3600 4066 3659 4066 
Q 3719 4066 3761 4120 
Q 3803 4175 3813 4334 
L 3928 4334 
z
" transform="scale(0.015625)"/>
        <path id="TimesNewRomanPSMT-41" d="M 2928 1419 
L 1288 1419 
L 1000 750 
Q 894 503 894 381 
Q 894 284 986 211 
Q 1078 138 1384 116 
L 1384 0 
L 50 0 
L 50 116 
Q 316 163 394 238 
Q 553 388 747 847 
L 2238 4334 
L 2347 4334 
L 3822 809 
Q 4000 384 4145 257 
Q 4291 131 4550 116 
L 4550 0 
L 2878 0 
L 2878 116 
Q 3131 128 3220 200 
Q 3309 272 3309 375 
Q 3309 513 3184 809 
L 2928 1419 
z
M 2841 1650 
L 2122 3363 
L 1384 1650 
L 2841 1650 
z
" transform="scale(0.015625)"/>
        <path id="TimesNewRomanPSMT-2d" d="M 259 1672 
L 1875 1672 
L 1875 1200 
L 259 1200 
L 259 1672 
z
" transform="scale(0.015625)"/>
        <path id="TimesNewRomanPSMT-43" d="M 3853 4334 
L 3950 2894 
L 3853 2894 
Q 3659 3541 3300 3825 
Q 2941 4109 2438 4109 
Q 2016 4109 1675 3895 
Q 1334 3681 1139 3212 
Q 944 2744 944 2047 
Q 944 1472 1128 1050 
Q 1313 628 1683 403 
Q 2053 178 2528 178 
Q 2941 178 3256 354 
Q 3572 531 3950 1056 
L 4047 994 
Q 3728 428 3303 165 
Q 2878 -97 2294 -97 
Q 1241 -97 663 684 
Q 231 1266 231 2053 
Q 231 2688 515 3219 
Q 800 3750 1298 4042 
Q 1797 4334 2388 4334 
Q 2847 4334 3294 4109 
Q 3425 4041 3481 4041 
Q 3566 4041 3628 4100 
Q 3709 4184 3744 4334 
L 3853 4334 
z
" transform="scale(0.015625)"/>
       </defs>
       <use xlink:href="#TimesNewRomanPSMT-44"/>
       <use xlink:href="#TimesNewRomanPSMT-47" transform="translate(72.216797 0)"/>
       <use xlink:href="#TimesNewRomanPSMT-41" transform="translate(144.433594 0)"/>
       <use xlink:href="#TimesNewRomanPSMT-2d" transform="translate(216.650391 0)"/>
       <use xlink:href="#TimesNewRomanPSMT-43" transform="translate(249.951172 0)"/>
       <use xlink:href="#TimesNewRomanPSMT-46" transform="translate(316.650391 0)"/>
      </g>
     </g>
    </g>
    <g id="xtick_3">
     <g id="line2d_3">
      <g>
       <use xlink:href="#m8ebcffd0a5" x="285.21625" y="318.217953" style="stroke: #000000; stroke-width: 0.8"/>
      </g>
     </g>
     <g id="text_3">
      <!-- DPSO-CF -->
      <g transform="translate(265.975418 342.569438) rotate(-15) scale(0.1 -0.1)">
       <defs>
        <path id="TimesNewRomanPSMT-50" d="M 1313 1984 
L 1313 750 
Q 1313 350 1400 253 
Q 1519 116 1759 116 
L 1922 116 
L 1922 0 
L 106 0 
L 106 116 
L 266 116 
Q 534 116 650 291 
Q 713 388 713 750 
L 713 3488 
Q 713 3888 628 3984 
Q 506 4122 266 4122 
L 106 4122 
L 106 4238 
L 1659 4238 
Q 2228 4238 2556 4120 
Q 2884 4003 3109 3725 
Q 3334 3447 3334 3066 
Q 3334 2547 2992 2222 
Q 2650 1897 2025 1897 
Q 1872 1897 1694 1919 
Q 1516 1941 1313 1984 
z
M 1313 2163 
Q 1478 2131 1606 2115 
Q 1734 2100 1825 2100 
Q 2150 2100 2386 2351 
Q 2622 2603 2622 3003 
Q 2622 3278 2509 3514 
Q 2397 3750 2190 3867 
Q 1984 3984 1722 3984 
Q 1563 3984 1313 3925 
L 1313 2163 
z
" transform="scale(0.015625)"/>
        <path id="TimesNewRomanPSMT-53" d="M 2934 4334 
L 2934 2869 
L 2819 2869 
Q 2763 3291 2617 3541 
Q 2472 3791 2203 3937 
Q 1934 4084 1647 4084 
Q 1322 4084 1109 3886 
Q 897 3688 897 3434 
Q 897 3241 1031 3081 
Q 1225 2847 1953 2456 
Q 2547 2138 2764 1967 
Q 2981 1797 3098 1565 
Q 3216 1334 3216 1081 
Q 3216 600 2842 251 
Q 2469 -97 1881 -97 
Q 1697 -97 1534 -69 
Q 1438 -53 1133 45 
Q 828 144 747 144 
Q 669 144 623 97 
Q 578 50 556 -97 
L 441 -97 
L 441 1356 
L 556 1356 
Q 638 900 775 673 
Q 913 447 1195 297 
Q 1478 147 1816 147 
Q 2206 147 2432 353 
Q 2659 559 2659 841 
Q 2659 997 2573 1156 
Q 2488 1316 2306 1453 
Q 2184 1547 1640 1851 
Q 1097 2156 867 2337 
Q 638 2519 519 2737 
Q 400 2956 400 3219 
Q 400 3675 750 4004 
Q 1100 4334 1641 4334 
Q 1978 4334 2356 4169 
Q 2531 4091 2603 4091 
Q 2684 4091 2736 4139 
Q 2788 4188 2819 4334 
L 2934 4334 
z
" transform="scale(0.015625)"/>
        <path id="TimesNewRomanPSMT-4f" d="M 2341 4334 
Q 3166 4334 3770 3707 
Q 4375 3081 4375 2144 
Q 4375 1178 3765 540 
Q 3156 -97 2291 -97 
Q 1416 -97 820 525 
Q 225 1147 225 2134 
Q 225 3144 913 3781 
Q 1509 4334 2341 4334 
z
M 2281 4106 
Q 1713 4106 1369 3684 
Q 941 3159 941 2147 
Q 941 1109 1384 550 
Q 1725 125 2284 125 
Q 2881 125 3270 590 
Q 3659 1056 3659 2059 
Q 3659 3147 3231 3681 
Q 2888 4106 2281 4106 
z
" transform="scale(0.015625)"/>
       </defs>
       <use xlink:href="#TimesNewRomanPSMT-44"/>
       <use xlink:href="#TimesNewRomanPSMT-50" transform="translate(72.216797 0)"/>
       <use xlink:href="#TimesNewRomanPSMT-53" transform="translate(127.832031 0)"/>
       <use xlink:href="#TimesNewRomanPSMT-4f" transform="translate(183.447266 0)"/>
       <use xlink:href="#TimesNewRomanPSMT-2d" transform="translate(255.664062 0)"/>
       <use xlink:href="#TimesNewRomanPSMT-43" transform="translate(288.964844 0)"/>
       <use xlink:href="#TimesNewRomanPSMT-46" transform="translate(355.664062 0)"/>
      </g>
     </g>
    </g>
    <g id="xtick_4">
     <g id="line2d_4">
      <g>
       <use xlink:href="#m8ebcffd0a5" x="383.01875" y="318.217953" style="stroke: #000000; stroke-width: 0.8"/>
      </g>
     </g>
     <g id="text_4">
      <!-- NSSA-CF -->
      <g transform="translate(363.777918 342.569438) rotate(-15) scale(0.1 -0.1)">
       <defs>
        <path id="TimesNewRomanPSMT-4e" d="M -84 4238 
L 1066 4238 
L 3656 1059 
L 3656 3503 
Q 3656 3894 3569 3991 
Q 3453 4122 3203 4122 
L 3056 4122 
L 3056 4238 
L 4531 4238 
L 4531 4122 
L 4381 4122 
Q 4113 4122 4000 3959 
Q 3931 3859 3931 3503 
L 3931 -69 
L 3819 -69 
L 1025 3344 
L 1025 734 
Q 1025 344 1109 247 
Q 1228 116 1475 116 
L 1625 116 
L 1625 0 
L 150 0 
L 150 116 
L 297 116 
Q 569 116 681 278 
Q 750 378 750 734 
L 750 3681 
Q 566 3897 470 3965 
Q 375 4034 191 4094 
Q 100 4122 -84 4122 
L -84 4238 
z
" transform="scale(0.015625)"/>
       </defs>
       <use xlink:href="#TimesNewRomanPSMT-4e"/>
       <use xlink:href="#TimesNewRomanPSMT-53" transform="translate(72.216797 0)"/>
       <use xlink:href="#TimesNewRomanPSMT-53" transform="translate(127.832031 0)"/>
       <use xlink:href="#TimesNewRomanPSMT-41" transform="translate(183.447266 0)"/>
       <use xlink:href="#TimesNewRomanPSMT-2d" transform="translate(255.664062 0)"/>
       <use xlink:href="#TimesNewRomanPSMT-43" transform="translate(288.964844 0)"/>
       <use xlink:href="#TimesNewRomanPSMT-46" transform="translate(355.664062 0)"/>
      </g>
     </g>
    </g>
   </g>
   <g id="matplotlib.axis_2">
    <g id="ytick_1">
     <g id="line2d_5">
      <path d="M 40.71 300.025653 
L 431.92 300.025653 
" clip-path="url(#pd7e748ebff)" style="fill: none; stroke: #b0b0b0; stroke-opacity: 0.3; stroke-width: 0.8; stroke-linecap: square"/>
     </g>
     <g id="line2d_6">
      <defs>
       <path id="m5046072f84" d="M 0 0 
L -3.5 0 
" style="stroke: #000000; stroke-width: 0.8"/>
      </defs>
      <g>
       <use xlink:href="#m5046072f84" x="40.71" y="300.025653" style="stroke: #000000; stroke-width: 0.8"/>
      </g>
     </g>
     <g id="text_5">
      <!-- 0.2 -->
      <g transform="translate(21.21 303.497528) scale(0.1 -0.1)">
       <defs>
        <path id="TimesNewRomanPSMT-30" d="M 231 2094 
Q 231 2819 450 3342 
Q 669 3866 1031 4122 
Q 1313 4325 1613 4325 
Q 2100 4325 2488 3828 
Q 2972 3213 2972 2159 
Q 2972 1422 2759 906 
Q 2547 391 2217 158 
Q 1888 -75 1581 -75 
Q 975 -75 572 641 
Q 231 1244 231 2094 
z
M 844 2016 
Q 844 1141 1059 588 
Q 1238 122 1591 122 
Q 1759 122 1940 273 
Q 2122 425 2216 781 
Q 2359 1319 2359 2297 
Q 2359 3022 2209 3506 
Q 2097 3866 1919 4016 
Q 1791 4119 1609 4119 
Q 1397 4119 1231 3928 
Q 1006 3669 925 3112 
Q 844 2556 844 2016 
z
" transform="scale(0.015625)"/>
        <path id="TimesNewRomanPSMT-2e" d="M 800 606 
Q 947 606 1047 504 
Q 1147 403 1147 259 
Q 1147 116 1045 14 
Q 944 -88 800 -88 
Q 656 -88 554 14 
Q 453 116 453 259 
Q 453 406 554 506 
Q 656 606 800 606 
z
" transform="scale(0.015625)"/>
        <path id="TimesNewRomanPSMT-32" d="M 2934 816 
L 2638 0 
L 138 0 
L 138 116 
Q 1241 1122 1691 1759 
Q 2141 2397 2141 2925 
Q 2141 3328 1894 3587 
Q 1647 3847 1303 3847 
Q 991 3847 742 3664 
Q 494 3481 375 3128 
L 259 3128 
Q 338 3706 661 4015 
Q 984 4325 1469 4325 
Q 1984 4325 2329 3994 
Q 2675 3663 2675 3213 
Q 2675 2891 2525 2569 
Q 2294 2063 1775 1497 
Q 997 647 803 472 
L 1909 472 
Q 2247 472 2383 497 
Q 2519 522 2628 598 
Q 2738 675 2819 816 
L 2934 816 
z
" transform="scale(0.015625)"/>
       </defs>
       <use xlink:href="#TimesNewRomanPSMT-30"/>
       <use xlink:href="#TimesNewRomanPSMT-2e" transform="translate(50 0)"/>
       <use xlink:href="#TimesNewRomanPSMT-32" transform="translate(75 0)"/>
      </g>
     </g>
    </g>
    <g id="ytick_2">
     <g id="line2d_7">
      <path d="M 40.71 235.840508 
L 431.92 235.840508 
" clip-path="url(#pd7e748ebff)" style="fill: none; stroke: #b0b0b0; stroke-opacity: 0.3; stroke-width: 0.8; stroke-linecap: square"/>
     </g>
     <g id="line2d_8">
      <g>
       <use xlink:href="#m5046072f84" x="40.71" y="235.840508" style="stroke: #000000; stroke-width: 0.8"/>
      </g>
     </g>
     <g id="text_6">
      <!-- 0.4 -->
      <g transform="translate(21.21 239.312383) scale(0.1 -0.1)">
       <defs>
        <path id="TimesNewRomanPSMT-34" d="M 2978 1563 
L 2978 1119 
L 2409 1119 
L 2409 0 
L 1894 0 
L 1894 1119 
L 100 1119 
L 100 1519 
L 2066 4325 
L 2409 4325 
L 2409 1563 
L 2978 1563 
z
M 1894 1563 
L 1894 3666 
L 406 1563 
L 1894 1563 
z
" transform="scale(0.015625)"/>
       </defs>
       <use xlink:href="#TimesNewRomanPSMT-30"/>
       <use xlink:href="#TimesNewRomanPSMT-2e" transform="translate(50 0)"/>
       <use xlink:href="#TimesNewRomanPSMT-34" transform="translate(75 0)"/>
      </g>
     </g>
    </g>
    <g id="ytick_3">
     <g id="line2d_9">
      <path d="M 40.71 171.655363 
L 431.92 171.655363 
" clip-path="url(#pd7e748ebff)" style="fill: none; stroke: #b0b0b0; stroke-opacity: 0.3; stroke-width: 0.8; stroke-linecap: square"/>
     </g>
     <g id="line2d_10">
      <g>
       <use xlink:href="#m5046072f84" x="40.71" y="171.655363" style="stroke: #000000; stroke-width: 0.8"/>
      </g>
     </g>
     <g id="text_7">
      <!-- 0.6 -->
      <g transform="translate(21.21 175.127238) scale(0.1 -0.1)">
       <defs>
        <path id="TimesNewRomanPSMT-36" d="M 2869 4325 
L 2869 4209 
Q 2456 4169 2195 4045 
Q 1934 3922 1679 3669 
Q 1425 3416 1258 3105 
Q 1091 2794 978 2366 
Q 1428 2675 1881 2675 
Q 2316 2675 2634 2325 
Q 2953 1975 2953 1425 
Q 2953 894 2631 456 
Q 2244 -75 1606 -75 
Q 1172 -75 869 213 
Q 275 772 275 1663 
Q 275 2231 503 2743 
Q 731 3256 1154 3653 
Q 1578 4050 1965 4187 
Q 2353 4325 2688 4325 
L 2869 4325 
z
M 925 2138 
Q 869 1716 869 1456 
Q 869 1156 980 804 
Q 1091 453 1309 247 
Q 1469 100 1697 100 
Q 1969 100 2183 356 
Q 2397 613 2397 1088 
Q 2397 1622 2184 2012 
Q 1972 2403 1581 2403 
Q 1463 2403 1327 2353 
Q 1191 2303 925 2138 
z
" transform="scale(0.015625)"/>
       </defs>
       <use xlink:href="#TimesNewRomanPSMT-30"/>
       <use xlink:href="#TimesNewRomanPSMT-2e" transform="translate(50 0)"/>
       <use xlink:href="#TimesNewRomanPSMT-36" transform="translate(75 0)"/>
      </g>
     </g>
    </g>
    <g id="ytick_4">
     <g id="line2d_11">
      <path d="M 40.71 107.470219 
L 431.92 107.470219 
" clip-path="url(#pd7e748ebff)" style="fill: none; stroke: #b0b0b0; stroke-opacity: 0.3; stroke-width: 0.8; stroke-linecap: square"/>
     </g>
     <g id="line2d_12">
      <g>
       <use xlink:href="#m5046072f84" x="40.71" y="107.470219" style="stroke: #000000; stroke-width: 0.8"/>
      </g>
     </g>
     <g id="text_8">
      <!-- 0.8 -->
      <g transform="translate(21.21 110.942094) scale(0.1 -0.1)">
       <defs>
        <path id="TimesNewRomanPSMT-38" d="M 1228 2134 
Q 725 2547 579 2797 
Q 434 3047 434 3316 
Q 434 3728 753 4026 
Q 1072 4325 1600 4325 
Q 2113 4325 2425 4047 
Q 2738 3769 2738 3413 
Q 2738 3175 2569 2928 
Q 2400 2681 1866 2347 
Q 2416 1922 2594 1678 
Q 2831 1359 2831 1006 
Q 2831 559 2490 242 
Q 2150 -75 1597 -75 
Q 994 -75 656 303 
Q 388 606 388 966 
Q 388 1247 577 1523 
Q 766 1800 1228 2134 
z
M 1719 2469 
Q 2094 2806 2194 3001 
Q 2294 3197 2294 3444 
Q 2294 3772 2109 3958 
Q 1925 4144 1606 4144 
Q 1288 4144 1088 3959 
Q 888 3775 888 3528 
Q 888 3366 970 3203 
Q 1053 3041 1206 2894 
L 1719 2469 
z
M 1375 2016 
Q 1116 1797 991 1539 
Q 866 1281 866 981 
Q 866 578 1086 336 
Q 1306 94 1647 94 
Q 1984 94 2187 284 
Q 2391 475 2391 747 
Q 2391 972 2272 1150 
Q 2050 1481 1375 2016 
z
" transform="scale(0.015625)"/>
       </defs>
       <use xlink:href="#TimesNewRomanPSMT-30"/>
       <use xlink:href="#TimesNewRomanPSMT-2e" transform="translate(50 0)"/>
       <use xlink:href="#TimesNewRomanPSMT-38" transform="translate(75 0)"/>
      </g>
     </g>
    </g>
    <g id="ytick_5">
     <g id="line2d_13">
      <path d="M 40.71 43.285074 
L 431.92 43.285074 
" clip-path="url(#pd7e748ebff)" style="fill: none; stroke: #b0b0b0; stroke-opacity: 0.3; stroke-width: 0.8; stroke-linecap: square"/>
     </g>
     <g id="line2d_14">
      <g>
       <use xlink:href="#m5046072f84" x="40.71" y="43.285074" style="stroke: #000000; stroke-width: 0.8"/>
      </g>
     </g>
     <g id="text_9">
      <!-- 1.0 -->
      <g transform="translate(21.21 46.756949) scale(0.1 -0.1)">
       <defs>
        <path id="TimesNewRomanPSMT-31" d="M 750 3822 
L 1781 4325 
L 1884 4325 
L 1884 747 
Q 1884 391 1914 303 
Q 1944 216 2037 169 
Q 2131 122 2419 116 
L 2419 0 
L 825 0 
L 825 116 
Q 1125 122 1212 167 
Q 1300 213 1334 289 
Q 1369 366 1369 747 
L 1369 3034 
Q 1369 3497 1338 3628 
Q 1316 3728 1258 3775 
Q 1200 3822 1119 3822 
Q 1003 3822 797 3725 
L 750 3822 
z
" transform="scale(0.015625)"/>
       </defs>
       <use xlink:href="#TimesNewRomanPSMT-31"/>
       <use xlink:href="#TimesNewRomanPSMT-2e" transform="translate(50 0)"/>
       <use xlink:href="#TimesNewRomanPSMT-30" transform="translate(75 0)"/>
      </g>
     </g>
    </g>
    <g id="text_10">
     <!-- 综合JS -->
     <g transform="translate(14.857031 186.727883) rotate(-90) scale(0.11 -0.11)">
      <defs>
       <path id="SimSong-Regular-7efc" d="M 3021 4557 
L 2938 4531 
C 2918 4250 2842 4013 2701 3821 
C 2547 3680 2464 3584 2464 3526 
C 2464 3488 2483 3450 2515 3411 
C 2547 3373 2598 3354 2656 3354 
C 2765 3354 2854 3392 2931 3482 
C 3021 3610 3072 3789 3072 4019 
L 3072 4115 
L 5549 4115 
C 5485 3885 5414 3680 5338 3507 
L 5421 3450 
C 5587 3584 5747 3718 5901 3866 
C 5952 3910 6010 3942 6086 3955 
C 6163 3955 6208 3987 6208 4038 
C 6208 4090 6138 4179 6016 4301 
C 5901 4416 5818 4480 5773 4480 
C 5747 4480 5702 4461 5658 4422 
C 5606 4378 5549 4333 5498 4294 
L 4506 4294 
L 4512 4301 
C 4550 4365 4582 4429 4582 4499 
C 4582 4602 4512 4717 4384 4838 
C 4256 4954 4051 5075 3757 5203 
L 3693 5139 
C 3885 4947 4026 4717 4122 4442 
C 4134 4378 4166 4333 4198 4294 
L 3059 4294 
C 3046 4371 3040 4454 3027 4557 
L 3021 4557 
z
M 1261 5152 
C 1043 4493 845 3968 640 3578 
C 563 3430 480 3328 390 3270 
C 339 3245 314 3219 314 3194 
C 314 3142 365 3053 461 2918 
C 493 2874 531 2854 570 2854 
C 595 2854 627 2867 666 2906 
C 762 2957 851 2989 934 3014 
L 1594 3174 
C 1434 2848 1267 2554 1101 2285 
C 890 1939 704 1741 531 1696 
C 493 1690 461 1670 461 1638 
C 461 1581 518 1466 627 1299 
C 640 1248 691 1229 742 1229 
C 781 1229 813 1235 845 1261 
C 934 1306 1018 1338 1101 1363 
L 2406 1792 
L 2374 1907 
L 973 1709 
C 1203 2010 1632 2637 2253 3597 
C 2278 3629 2317 3648 2368 3661 
C 2477 3674 2541 3706 2547 3757 
C 2547 3782 2515 3814 2477 3846 
L 2042 4134 
C 1907 3846 1786 3578 1664 3315 
L 755 3277 
C 973 3648 1229 4102 1517 4653 
C 1555 4691 1606 4710 1677 4723 
C 1766 4730 1824 4755 1824 4800 
C 1818 4826 1779 4858 1722 4896 
L 1261 5158 
L 1261 5152 
z
M 3110 3296 
L 3232 3014 
C 3373 3046 3597 3066 3910 3066 
L 5453 3066 
C 5498 3066 5530 3091 5530 3155 
C 5530 3181 5472 3245 5370 3360 
C 5254 3469 5178 3526 5133 3526 
C 5114 3526 5062 3482 4986 3405 
C 4909 3315 4858 3264 4832 3238 
L 3910 3238 
C 3565 3238 3302 3258 3110 3296 
L 3110 3296 
z
M 4115 1990 
L 4115 45 
C 4115 -32 4038 -70 3872 -70 
C 3795 -70 3603 -51 3283 -19 
L 3264 -115 
C 3610 -192 3776 -282 3802 -384 
C 3808 -486 3859 -544 3923 -544 
C 3987 -544 4090 -525 4218 -486 
C 4384 -410 4480 -307 4480 -173 
L 4480 1990 
L 5946 1990 
C 5997 1990 6029 2016 6029 2080 
C 6029 2106 5965 2176 5856 2298 
C 5747 2413 5664 2477 5613 2477 
C 5587 2477 5536 2432 5459 2349 
C 5376 2246 5318 2189 5293 2170 
L 3437 2170 
C 3091 2170 2829 2182 2637 2221 
L 2758 1939 
C 2899 1971 3123 1990 3437 1990 
L 4115 1990 
z
M 4909 1632 
L 4845 1587 
C 5171 1165 5382 730 5485 269 
C 5517 77 5613 -19 5747 -19 
C 5798 -19 5850 0 5888 51 
C 5926 102 5958 173 5958 250 
C 5958 416 5875 614 5734 838 
C 5574 1069 5299 1331 4915 1632 
L 4909 1632 
z
M 3219 1606 
C 3091 1216 2950 890 2790 634 
C 2586 314 2394 70 2221 -109 
L 2278 -205 
C 2618 32 2880 269 3072 518 
C 3251 710 3418 960 3578 1280 
C 3590 1293 3622 1312 3680 1331 
C 3757 1338 3808 1357 3808 1389 
C 3808 1421 3731 1459 3597 1498 
C 3494 1523 3373 1562 3219 1606 
L 3219 1606 
z
M 2445 1126 
C 1792 858 1075 634 294 448 
C 371 326 448 218 512 115 
C 602 -26 672 -96 717 -96 
C 749 -96 774 -58 774 13 
L 774 115 
C 774 141 858 192 1043 256 
C 1504 435 1990 698 2502 1056 
L 2445 1126 
L 2445 1126 
z
" transform="scale(0.015625)"/>
       <path id="SimSong-Regular-5408" d="M 3078 5229 
C 2707 4563 2291 4006 1830 3571 
C 1254 3021 717 2598 218 2298 
L 288 2195 
C 1101 2618 1747 3046 2234 3488 
C 2618 3802 2982 4205 3322 4678 
C 3501 4358 3744 4026 4051 3699 
C 4384 3341 4736 3040 5114 2810 
C 5472 2566 5709 2451 5805 2451 
C 5837 2451 5875 2490 5907 2579 
C 5958 2688 6054 2765 6202 2803 
L 6234 2874 
C 5722 3002 5216 3219 4710 3539 
C 4269 3795 3840 4224 3424 4826 
C 3430 4832 3443 4845 3456 4870 
C 3469 4890 3507 4909 3578 4922 
C 3654 4934 3706 4960 3706 4998 
C 3706 5037 3622 5069 3482 5107 
L 3078 5229 
L 3078 5229 
z
M 1587 2874 
L 1709 2592 
C 1850 2624 2074 2643 2387 2643 
L 4614 2643 
C 4666 2643 4704 2669 4704 2726 
C 4704 2752 4634 2835 4518 2970 
C 4390 3104 4301 3174 4243 3174 
C 4218 3174 4160 3123 4077 3021 
C 3981 2912 3917 2842 3885 2816 
L 2387 2816 
C 2042 2816 1779 2835 1587 2874 
L 1587 2874 
z
M 1376 1926 
C 1389 1760 1402 1600 1402 1434 
L 1402 -122 
C 1402 -237 1389 -358 1376 -486 
C 1376 -557 1427 -595 1504 -595 
C 1562 -595 1632 -582 1728 -563 
C 1760 -538 1792 -512 1792 -486 
L 1792 -186 
L 4474 -186 
L 4474 -467 
C 4474 -531 4518 -570 4582 -570 
C 4646 -570 4723 -557 4819 -538 
C 4864 -512 4902 -486 4902 -454 
C 4877 -275 4870 -128 4870 -19 
L 4870 1389 
C 4870 1434 4890 1472 4947 1510 
C 5011 1549 5056 1594 5056 1632 
C 5056 1664 4992 1728 4890 1818 
C 4774 1907 4698 1952 4666 1952 
C 4634 1952 4589 1926 4544 1882 
C 4493 1824 4448 1766 4397 1715 
L 1830 1715 
C 1677 1798 1530 1869 1376 1926 
L 1376 1926 
z
M 1792 -6 
L 1792 1542 
L 4474 1542 
L 4474 -6 
L 1792 -6 
z
" transform="scale(0.015625)"/>
       <path id="TimesNewRomanPSMT-4a" d="M 638 4122 
L 638 4238 
L 2453 4238 
L 2453 4122 
L 2300 4122 
Q 2041 4122 1922 3969 
Q 1847 3869 1847 3488 
L 1847 1416 
Q 1847 938 1742 641 
Q 1638 344 1381 123 
Q 1125 -97 763 -97 
Q 469 -97 300 48 
Q 131 194 131 381 
Q 131 534 209 613 
Q 313 709 450 709 
Q 550 709 629 643 
Q 709 578 831 294 
Q 903 125 1016 125 
Q 1100 125 1173 228 
Q 1247 331 1247 594 
L 1247 3488 
Q 1247 3809 1206 3913 
Q 1175 3991 1075 4047 
Q 941 4122 791 4122 
L 638 4122 
z
" transform="scale(0.015625)"/>
      </defs>
      <use xlink:href="#SimSong-Regular-7efc"/>
      <use xlink:href="#SimSong-Regular-5408" transform="translate(99.999985 0)"/>
      <use xlink:href="#TimesNewRomanPSMT-4a" transform="translate(199.999969 0)"/>
      <use xlink:href="#TimesNewRomanPSMT-53" transform="translate(238.915985 0)"/>
     </g>
    </g>
   </g>
   <g id="patch_3">
    <path d="M 67.605688 68.119834 
L 111.616813 68.119834 
L 111.616813 53.558894 
L 67.605688 53.558894 
L 67.605688 68.119834 
z
" clip-path="url(#pd7e748ebff)" style="fill: #ee6f63; opacity: 0.75; stroke: #000000; stroke-linejoin: miter"/>
   </g>
   <g id="line2d_15">
    <path d="M 89.61125 68.119834 
L 89.61125 86.948938 
" clip-path="url(#pd7e748ebff)" style="fill: none; stroke: #000000; stroke-width: 1.5; stroke-linecap: square"/>
   </g>
   <g id="line2d_16">
    <path d="M 89.61125 53.558894 
L 89.61125 36.265674 
" clip-path="url(#pd7e748ebff)" style="fill: none; stroke: #000000; stroke-width: 1.5; stroke-linecap: square"/>
   </g>
   <g id="line2d_17">
    <path d="M 78.608469 86.948938 
L 100.614031 86.948938 
" clip-path="url(#pd7e748ebff)" style="fill: none; stroke: #000000; stroke-width: 1.5; stroke-linecap: square"/>
   </g>
   <g id="line2d_18">
    <path d="M 78.608469 36.265674 
L 100.614031 36.265674 
" clip-path="url(#pd7e748ebff)" style="fill: none; stroke: #000000; stroke-width: 1.5; stroke-linecap: square"/>
   </g>
   <g id="line2d_19"/>
   <g id="patch_4">
    <path d="M 165.408187 168.816948 
L 209.419313 168.816948 
L 209.419313 113.946389 
L 165.408187 113.946389 
L 165.408187 168.816948 
z
" clip-path="url(#pd7e748ebff)" style="fill: #5fa8e8; opacity: 0.75; stroke: #000000; stroke-linejoin: miter"/>
   </g>
   <g id="line2d_20">
    <path d="M 187.41375 168.816948 
L 187.41375 247.551695 
" clip-path="url(#pd7e748ebff)" style="fill: none; stroke: #000000; stroke-width: 1.5; stroke-linecap: square"/>
   </g>
   <g id="line2d_21">
    <path d="M 187.41375 113.946389 
L 187.41375 58.093769 
" clip-path="url(#pd7e748ebff)" style="fill: none; stroke: #000000; stroke-width: 1.5; stroke-linecap: square"/>
   </g>
   <g id="line2d_22">
    <path d="M 176.410969 247.551695 
L 198.416531 247.551695 
" clip-path="url(#pd7e748ebff)" style="fill: none; stroke: #000000; stroke-width: 1.5; stroke-linecap: square"/>
   </g>
   <g id="line2d_23">
    <path d="M 176.410969 58.093769 
L 198.416531 58.093769 
" clip-path="url(#pd7e748ebff)" style="fill: none; stroke: #000000; stroke-width: 1.5; stroke-linecap: square"/>
   </g>
   <g id="line2d_24"/>
   <g id="patch_5">
    <path d="M 263.210688 199.358321 
L 307.221812 199.358321 
L 307.221812 131.595593 
L 263.210688 131.595593 
L 263.210688 199.358321 
z
" clip-path="url(#pd7e748ebff)" style="fill: #63cfa0; opacity: 0.75; stroke: #000000; stroke-linejoin: miter"/>
   </g>
   <g id="line2d_25">
    <path d="M 285.21625 199.358321 
L 285.21625 292.284452 
" clip-path="url(#pd7e748ebff)" style="fill: none; stroke: #000000; stroke-width: 1.5; stroke-linecap: square"/>
   </g>
   <g id="line2d_26">
    <path d="M 285.21625 131.595593 
L 285.21625 76.675514 
" clip-path="url(#pd7e748ebff)" style="fill: none; stroke: #000000; stroke-width: 1.5; stroke-linecap: square"/>
   </g>
   <g id="line2d_27">
    <path d="M 274.213469 292.284452 
L 296.219031 292.284452 
" clip-path="url(#pd7e748ebff)" style="fill: none; stroke: #000000; stroke-width: 1.5; stroke-linecap: square"/>
   </g>
   <g id="line2d_28">
    <path d="M 274.213469 76.675514 
L 296.219031 76.675514 
" clip-path="url(#pd7e748ebff)" style="fill: none; stroke: #000000; stroke-width: 1.5; stroke-linecap: square"/>
   </g>
   <g id="line2d_29"/>
   <g id="patch_6">
    <path d="M 361.013188 206.224679 
L 405.024312 206.224679 
L 405.024312 146.126678 
L 361.013188 146.126678 
L 361.013188 206.224679 
z
" clip-path="url(#pd7e748ebff)" style="fill: #b08adf; opacity: 0.75; stroke: #000000; stroke-linejoin: miter"/>
   </g>
   <g id="line2d_30">
    <path d="M 383.01875 206.224679 
L 383.01875 289.494299 
" clip-path="url(#pd7e748ebff)" style="fill: none; stroke: #000000; stroke-width: 1.5; stroke-linecap: square"/>
   </g>
   <g id="line2d_31">
    <path d="M 383.01875 146.126678 
L 383.01875 76.186465 
" clip-path="url(#pd7e748ebff)" style="fill: none; stroke: #000000; stroke-width: 1.5; stroke-linecap: square"/>
   </g>
   <g id="line2d_32">
    <path d="M 372.015969 289.494299 
L 394.021531 289.494299 
" clip-path="url(#pd7e748ebff)" style="fill: none; stroke: #000000; stroke-width: 1.5; stroke-linecap: square"/>
   </g>
   <g id="line2d_33">
    <path d="M 372.015969 76.186465 
L 394.021531 76.186465 
" clip-path="url(#pd7e748ebff)" style="fill: none; stroke: #000000; stroke-width: 1.5; stroke-linecap: square"/>
   </g>
   <g id="line2d_34">
    <defs>
     <path id="m1ae4ad6577" d="M 0 3 
C 0.795609 3 1.55874 2.683901 2.12132 2.12132 
C 2.683901 1.55874 3 0.795609 3 0 
C 3 -0.795609 2.683901 -1.55874 2.12132 -2.12132 
C 1.55874 -2.683901 0.795609 -3 0 -3 
C -0.795609 -3 -1.55874 -2.683901 -2.12132 -2.12132 
C -2.683901 -1.55874 -3 -0.795609 -3 0 
C -3 0.795609 -2.683901 1.55874 -2.12132 2.12132 
C -1.55874 2.683901 -0.795609 3 0 3 
z
" style="stroke: #000000"/>
    </defs>
    <g clip-path="url(#pd7e748ebff)">
     <use xlink:href="#m1ae4ad6577" x="383.01875" y="296.667088" style="fill-opacity: 0; stroke: #000000"/>
     <use xlink:href="#m1ae4ad6577" x="383.01875" y="304.791654" style="fill-opacity: 0; stroke: #000000"/>
    </g>
   </g>
   <g id="line2d_35">
    <path d="M 67.605688 60.689275 
L 111.616813 60.689275 
" clip-path="url(#pd7e748ebff)" style="fill: none; stroke: #000000; stroke-width: 2"/>
   </g>
   <g id="line2d_36">
    <path d="M 165.408187 137.342604 
L 209.419313 137.342604 
" clip-path="url(#pd7e748ebff)" style="fill: none; stroke: #000000; stroke-width: 2"/>
   </g>
   <g id="line2d_37">
    <path d="M 263.210688 169.166079 
L 307.221812 169.166079 
" clip-path="url(#pd7e748ebff)" style="fill: none; stroke: #000000; stroke-width: 2"/>
   </g>
   <g id="line2d_38">
    <path d="M 361.013188 175.459601 
L 405.024312 175.459601 
" clip-path="url(#pd7e748ebff)" style="fill: none; stroke: #000000; stroke-width: 2"/>
   </g>
   <g id="patch_7">
    <path d="M 40.71 318.217953 
L 40.71 22.839375 
" style="fill: none; stroke: #000000; stroke-width: 0.8; stroke-linejoin: miter; stroke-linecap: square"/>
   </g>
   <g id="patch_8">
    <path d="M 431.92 318.217953 
L 431.92 22.839375 
" style="fill: none; stroke: #000000; stroke-width: 0.8; stroke-linejoin: miter; stroke-linecap: square"/>
   </g>
   <g id="patch_9">
    <path d="M 40.71 318.217953 
L 431.92 318.217953 
" style="fill: none; stroke: #000000; stroke-width: 0.8; stroke-linejoin: miter; stroke-linecap: square"/>
   </g>
   <g id="patch_10">
    <path d="M 40.71 22.839375 
L 431.92 22.839375 
" style="fill: none; stroke: #000000; stroke-width: 0.8; stroke-linejoin: miter; stroke-linecap: square"/>
   </g>
   <g id="text_11">
    <!-- (b) 综合JS 分布 -->
    <g transform="translate(195.64625 16.839375) scale(0.12 -0.12)">
     <defs>
      <path id="TimesNewRomanPS-BoldMT-28" d="M 2056 4334 
L 2056 4191 
Q 1731 3978 1578 3775 
Q 1366 3494 1247 3053 
Q 1097 2506 1097 1525 
Q 1097 600 1233 87 
Q 1369 -425 1603 -741 
Q 1766 -959 2056 -1125 
L 2056 -1281 
Q 1303 -1028 779 -248 
Q 256 531 256 1544 
Q 256 2544 778 3314 
Q 1300 4084 2056 4334 
z
" transform="scale(0.015625)"/>
      <path id="TimesNewRomanPS-BoldMT-62" d="M 1347 4238 
L 1347 2628 
Q 1716 3009 2153 3009 
Q 2453 3009 2718 2832 
Q 2984 2656 3134 2331 
Q 3284 2006 3284 1581 
Q 3284 1103 3093 712 
Q 2903 322 2584 117 
Q 2266 -88 1856 -88 
Q 1619 -88 1434 -12 
Q 1250 63 1072 231 
L 588 -84 
L 481 -84 
L 481 3631 
Q 481 3884 459 3944 
Q 428 4031 361 4073 
Q 294 4116 134 4122 
L 134 4238 
L 1347 4238 
z
M 1347 2350 
L 1347 1050 
Q 1347 653 1366 544 
Q 1397 359 1515 245 
Q 1634 131 1819 131 
Q 1978 131 2092 222 
Q 2206 313 2282 581 
Q 2359 850 2359 1550 
Q 2359 2222 2191 2472 
Q 2069 2653 1863 2653 
Q 1594 2653 1347 2350 
z
" transform="scale(0.015625)"/>
      <path id="TimesNewRomanPS-BoldMT-29" d="M 78 -1281 
L 78 -1138 
Q 403 -922 556 -719 
Q 766 -438 888 0 
Q 1038 550 1038 1531 
Q 1038 2456 902 2967 
Q 766 3478 531 3794 
Q 369 4013 78 4178 
L 78 4334 
Q 831 4081 1354 3301 
Q 1878 2522 1878 1509 
Q 1878 513 1354 -257 
Q 831 -1028 78 -1281 
z
" transform="scale(0.015625)"/>
      <path id="TimesNewRomanPS-BoldMT-20" transform="scale(0.015625)"/>
      <path id="TimesNewRomanPS-BoldMT-4a" d="M 909 4122 
L 909 4238 
L 3163 4238 
L 3163 4122 
L 3025 4122 
Q 2838 4122 2725 4056 
Q 2647 4013 2600 3906 
Q 2566 3831 2566 3513 
L 2566 1438 
Q 2566 828 2444 551 
Q 2322 275 2011 89 
Q 1700 -97 1263 -97 
Q 728 -97 398 184 
Q 69 466 69 806 
Q 69 1025 203 1161 
Q 338 1297 531 1297 
Q 722 1297 851 1175 
Q 981 1053 981 875 
Q 981 788 959 722 
Q 947 691 861 564 
Q 775 438 775 384 
Q 775 303 856 244 
Q 975 156 1166 156 
Q 1300 156 1387 225 
Q 1475 294 1511 439 
Q 1547 584 1547 1247 
L 1547 3513 
Q 1547 3838 1511 3919 
Q 1475 4000 1370 4061 
Q 1266 4122 1088 4122 
L 909 4122 
z
" transform="scale(0.015625)"/>
      <path id="TimesNewRomanPS-BoldMT-53" d="M 3006 4334 
L 3041 2922 
L 2913 2922 
Q 2822 3453 2467 3776 
Q 2113 4100 1700 4100 
Q 1381 4100 1195 3929 
Q 1009 3759 1009 3538 
Q 1009 3397 1075 3288 
Q 1166 3141 1366 2997 
Q 1513 2894 2044 2631 
Q 2788 2266 3047 1941 
Q 3303 1616 3303 1197 
Q 3303 666 2889 283 
Q 2475 -100 1838 -100 
Q 1638 -100 1459 -59 
Q 1281 -19 1013 94 
Q 863 156 766 156 
Q 684 156 593 93 
Q 503 31 447 -97 
L 331 -97 
L 331 1503 
L 447 1503 
Q 584 828 976 473 
Q 1369 119 1822 119 
Q 2172 119 2380 309 
Q 2588 500 2588 753 
Q 2588 903 2508 1043 
Q 2428 1184 2265 1311 
Q 2103 1438 1691 1641 
Q 1113 1925 859 2125 
Q 606 2325 470 2572 
Q 334 2819 334 3116 
Q 334 3622 706 3978 
Q 1078 4334 1644 4334 
Q 1850 4334 2044 4284 
Q 2191 4247 2402 4145 
Q 2613 4044 2697 4044 
Q 2778 4044 2825 4094 
Q 2872 4144 2913 4334 
L 3006 4334 
z
" transform="scale(0.015625)"/>
      <path id="SimSong-Regular-5206" d="M 3520 5203 
C 3622 5037 3706 4813 3789 4525 
C 3955 4083 4166 3699 4422 3379 
C 4691 3021 5024 2701 5434 2406 
C 5594 2304 5702 2253 5747 2253 
C 5786 2253 5824 2285 5862 2362 
C 5907 2451 5990 2515 6118 2554 
L 6157 2662 
C 5728 2784 5325 3002 4941 3309 
C 4672 3533 4442 3802 4243 4115 
C 4064 4358 3981 4557 3981 4704 
C 3981 4736 3994 4781 4038 4832 
C 4179 4922 4262 4979 4262 5018 
C 4262 5062 4218 5094 4147 5120 
L 3514 5203 
L 3520 5203 
z
M 2074 5030 
C 1843 4378 1594 3834 1312 3411 
C 954 2880 627 2464 320 2170 
L 390 2074 
C 922 2483 1338 2899 1658 3328 
C 1939 3667 2214 4115 2470 4678 
C 2470 4691 2509 4710 2573 4723 
C 2656 4736 2707 4762 2707 4800 
C 2707 4832 2624 4870 2483 4909 
C 2368 4941 2234 4979 2074 5030 
L 2074 5030 
z
M 1235 2771 
L 1357 2490 
C 1530 2522 1734 2541 1990 2541 
L 2445 2541 
C 2374 2118 2266 1709 2118 1318 
C 1997 1030 1888 813 1786 672 
C 1619 429 1427 230 1216 70 
C 966 -128 666 -314 320 -486 
L 365 -576 
C 704 -454 1024 -314 1318 -147 
C 1594 19 1824 198 2016 390 
C 2208 589 2387 864 2541 1216 
C 2701 1626 2822 2067 2912 2541 
L 4314 2541 
C 4314 1760 4262 1146 4173 710 
C 4083 262 4013 26 3942 -6 
L 3936 -6 
C 3859 -45 3763 -70 3622 -70 
C 3430 -70 3194 -13 2886 102 
L 2861 6 
C 3290 -134 3494 -256 3514 -358 
C 3520 -499 3565 -570 3622 -570 
C 3763 -570 3930 -538 4122 -480 
C 4320 -384 4448 -224 4499 0 
C 4640 512 4717 1299 4730 2349 
C 4730 2381 4749 2419 4813 2464 
C 4870 2502 4909 2547 4909 2586 
C 4909 2624 4845 2694 4742 2797 
C 4627 2899 4544 2957 4499 2957 
C 4461 2957 4416 2925 4365 2874 
C 4307 2810 4256 2758 4211 2714 
L 1990 2714 
C 1818 2714 1568 2733 1235 2771 
L 1235 2771 
z
" transform="scale(0.015625)"/>
      <path id="SimSong-Regular-5e03" d="M 339 4224 
L 454 3942 
C 595 3974 819 3994 1139 3994 
L 1984 3994 
C 1856 3686 1728 3405 1587 3149 
C 1267 2566 806 1971 218 1370 
L 294 1274 
C 781 1638 1146 1971 1389 2278 
L 1472 2368 
L 1472 589 
C 1472 416 1466 250 1453 90 
C 1453 13 1504 -19 1581 -19 
C 1638 -19 1709 -6 1792 19 
C 1837 38 1869 70 1869 109 
L 1869 2515 
L 3123 2515 
L 3123 109 
C 3123 -83 3110 -288 3098 -512 
C 3104 -582 3155 -621 3232 -621 
C 3296 -621 3373 -608 3469 -589 
C 3514 -563 3552 -538 3552 -499 
C 3526 -269 3520 -70 3520 109 
L 3520 2515 
L 4794 2515 
L 4794 685 
C 4794 595 4755 557 4653 557 
C 4480 557 4256 576 3962 627 
L 3930 531 
C 4314 429 4493 326 4512 218 
C 4512 102 4570 51 4653 51 
C 4730 51 4832 77 4954 141 
C 5107 218 5190 326 5190 467 
L 5190 2368 
C 5190 2406 5216 2445 5286 2470 
C 5344 2496 5382 2541 5382 2592 
C 5382 2630 5312 2701 5197 2803 
C 5082 2886 5011 2931 4979 2931 
C 4947 2931 4890 2893 4826 2829 
C 4787 2778 4742 2733 4698 2694 
L 3520 2694 
L 3520 3328 
C 3520 3379 3546 3418 3616 3443 
C 3718 3469 3776 3514 3776 3571 
C 3776 3597 3706 3622 3578 3648 
C 3386 3674 3232 3693 3098 3706 
C 3110 3526 3123 3315 3123 3072 
L 3123 2694 
L 1888 2694 
C 1856 2720 1824 2746 1786 2771 
C 1837 2842 1882 2918 1933 3002 
C 2112 3290 2291 3622 2464 3994 
L 5958 3994 
C 6016 3994 6054 4019 6054 4077 
C 6054 4102 5984 4192 5856 4333 
C 5728 4474 5632 4544 5568 4544 
C 5542 4544 5485 4486 5395 4378 
L 5197 4166 
L 2541 4166 
C 2630 4371 2726 4595 2816 4838 
C 2816 4864 2854 4883 2944 4896 
C 3014 4896 3059 4928 3059 4986 
C 3059 5018 2976 5056 2822 5107 
C 2688 5146 2554 5190 2413 5229 
C 2310 4851 2189 4499 2054 4166 
L 1139 4166 
C 794 4166 531 4186 339 4224 
L 339 4224 
z
" transform="scale(0.015625)"/>
     </defs>
     <use xlink:href="#TimesNewRomanPS-BoldMT-28"/>
     <use xlink:href="#TimesNewRomanPS-BoldMT-62" transform="translate(33.300781 0)"/>
     <use xlink:href="#TimesNewRomanPS-BoldMT-29" transform="translate(88.916016 0)"/>
     <use xlink:href="#TimesNewRomanPS-BoldMT-20" transform="translate(122.216797 0)"/>
     <use xlink:href="#SimSong-Regular-7efc" transform="translate(147.216797 0)"/>
     <use xlink:href="#SimSong-Regular-5408" transform="translate(247.216782 0)"/>
     <use xlink:href="#TimesNewRomanPS-BoldMT-4a" transform="translate(347.216766 0)"/>
     <use xlink:href="#TimesNewRomanPS-BoldMT-53" transform="translate(397.216766 0)"/>
     <use xlink:href="#TimesNewRomanPS-BoldMT-20" transform="translate(452.832001 0)"/>
     <use xlink:href="#SimSong-Regular-5206" transform="translate(477.832001 0)"/>
     <use xlink:href="#SimSong-Regular-5e03" transform="translate(577.831985 0)"/>
    </g>
   </g>
  </g>
 </g>
 <defs>
  <clipPath id="pd7e748ebff">
   <rect x="40.71" y="22.839375" width="391.21" height="295.378578"/>
  </clipPath>
 </defs>
</svg>
