<?xml version="1.0" encoding="utf-8" standalone="no"?>
<!DOCTYPE svg PUBLIC "-//W3C//DTD SVG 1.1//EN"
  "http://www.w3.org/Graphics/SVG/1.1/DTD/svg11.dtd">
<svg xmlns:xlink="http://www.w3.org/1999/xlink" width="482.307031pt" height="337.669453pt" viewBox="0 0 482.307031 337.669453" xmlns="http://www.w3.org/2000/svg" version="1.1">
 <metadata>
  <rdf:RDF xmlns:dc="http://purl.org/dc/elements/1.1/" xmlns:cc="http://creativecommons.org/ns#" xmlns:rdf="http://www.w3.org/1999/02/22-rdf-syntax-ns#">
   <cc:Work>
    <dc:type rdf:resource="http://purl.org/dc/dcmitype/StillImage"/>
    <dc:date>2026-04-08T20:27:47.543778</dc:date>
    <dc:format>image/svg+xml</dc:format>
    <dc:creator>
     <cc:Agent>
      <dc:title>Matplotlib v3.10.8, https://matplotlib.org/</dc:title>
     </cc:Agent>
    </dc:creator>
   </cc:Work>
  </rdf:RDF>
 </metadata>
 <defs>
  <style type="text/css">*{stroke-linejoin: round; stroke-linecap: butt}</style>
 </defs>
 <g id="figure_1">
  <g id="patch_1">
   <path d="M 0 337.669453 
L 482.307031 337.669453 
L 482.307031 0 
L 0 0 
z
" style="fill: #ffffff"/>
  </g>
  <g id="axes_1">
   <g id="patch_2">
    <path d="M 39.583281 313.9325 
L 475.107031 313.9325 
L 475.107031 23.70875 
L 39.583281 23.70875 
z
" style="fill: #ffffff"/>
   </g>
   <g id="matplotlib.axis_1">
    <g id="xtick_1">
     <g id="line2d_1">
      <defs>
       <path id="meecb61f63c" d="M 0 0 
L 0 3.5 
" style="stroke: #000000; stroke-width: 0.8"/>
      </defs>
      <g>
       <use xlink:href="#meecb61f63c" x="91.452412" y="313.9325" style="stroke: #000000; stroke-width: 0.8"/>
      </g>
     </g>
     <g id="text_1">
      <!-- BVF -->
      <g transform="translate(81.239522 328.223438) scale(0.105 -0.105)">
       <defs>
        <path id="TimesNewRomanPSMT-42" d="M 2956 2163 
Q 3397 2069 3616 1863 
Q 3919 1575 3919 1159 
Q 3919 844 3719 555 
Q 3519 266 3170 133 
Q 2822 0 2106 0 
L 106 0 
L 106 116 
L 266 116 
Q 531 116 647 284 
Q 719 394 719 750 
L 719 3488 
Q 719 3881 628 3984 
Q 506 4122 266 4122 
L 106 4122 
L 106 4238 
L 1938 4238 
Q 2450 4238 2759 4163 
Q 3228 4050 3475 3764 
Q 3722 3478 3722 3106 
Q 3722 2788 3528 2536 
Q 3334 2284 2956 2163 
z
M 1319 2331 
Q 1434 2309 1582 2298 
Q 1731 2288 1909 2288 
Q 2366 2288 2595 2386 
Q 2825 2484 2947 2687 
Q 3069 2891 3069 3131 
Q 3069 3503 2766 3765 
Q 2463 4028 1881 4028 
Q 1569 4028 1319 3959 
L 1319 2331 
z
M 1319 306 
Q 1681 222 2034 222 
Q 2600 222 2897 476 
Q 3194 731 3194 1106 
Q 3194 1353 3059 1581 
Q 2925 1809 2622 1940 
Q 2319 2072 1872 2072 
Q 1678 2072 1540 2065 
Q 1403 2059 1319 2044 
L 1319 306 
z
" transform="scale(0.015625)"/>
        <path id="TimesNewRomanPSMT-56" d="M 4544 4238 
L 4544 4122 
Q 4319 4081 4203 3978 
Q 4038 3825 3909 3509 
L 2431 -97 
L 2316 -97 
L 728 3556 
Q 606 3838 556 3900 
Q 478 3997 364 4051 
Q 250 4106 56 4122 
L 56 4238 
L 1788 4238 
L 1788 4122 
Q 1494 4094 1406 4022 
Q 1319 3950 1319 3838 
Q 1319 3681 1463 3350 
L 2541 866 
L 3541 3319 
Q 3688 3681 3688 3822 
Q 3688 3913 3597 3995 
Q 3506 4078 3291 4113 
Q 3275 4116 3238 4122 
L 3238 4238 
L 4544 4238 
z
" transform="scale(0.015625)"/>
        <path id="TimesNewRomanPSMT-46" d="M 1309 4006 
L 1309 2341 
L 2081 2341 
Q 2347 2341 2470 2458 
Q 2594 2575 2634 2922 
L 2750 2922 
L 2750 1488 
L 2634 1488 
Q 2631 1734 2570 1850 
Q 2509 1966 2401 2023 
Q 2294 2081 2081 2081 
L 1309 2081 
L 1309 750 
Q 1309 428 1350 325 
Q 1381 247 1481 191 
Q 1619 116 1769 116 
L 1922 116 
L 1922 0 
L 103 0 
L 103 116 
L 253 116 
Q 516 116 634 269 
Q 709 369 709 750 
L 709 3488 
Q 709 3809 669 3913 
Q 638 3991 541 4047 
Q 406 4122 253 4122 
L 103 4122 
L 103 4238 
L 3256 4238 
L 3297 3306 
L 3188 3306 
Q 3106 3603 2998 3742 
Q 2891 3881 2733 3943 
Q 2575 4006 2244 4006 
L 1309 4006 
z
" transform="scale(0.015625)"/>
       </defs>
       <use xlink:href="#TimesNewRomanPSMT-42"/>
       <use xlink:href="#TimesNewRomanPSMT-56" transform="translate(66.699219 0)"/>
       <use xlink:href="#TimesNewRomanPSMT-46" transform="translate(138.916016 0)"/>
      </g>
     </g>
    </g>
    <g id="xtick_2">
     <g id="line2d_2">
      <g>
       <use xlink:href="#meecb61f63c" x="202.047575" y="313.9325" style="stroke: #000000; stroke-width: 0.8"/>
      </g>
     </g>
     <g id="text_2">
      <!-- DGA-CF -->
      <g transform="translate(182.50363 328.223438) scale(0.105 -0.105)">
       <defs>
        <path id="TimesNewRomanPSMT-44" d="M 109 0 
L 109 116 
L 269 116 
Q 538 116 650 288 
Q 719 391 719 750 
L 719 3488 
Q 719 3884 631 3984 
Q 509 4122 269 4122 
L 109 4122 
L 109 4238 
L 1834 4238 
Q 2784 4238 3279 4022 
Q 3775 3806 4076 3303 
Q 4378 2800 4378 2141 
Q 4378 1256 3841 663 
Q 3238 0 2003 0 
L 109 0 
z
M 1319 306 
Q 1716 219 1984 219 
Q 2709 219 3187 728 
Q 3666 1238 3666 2109 
Q 3666 2988 3187 3494 
Q 2709 4000 1959 4000 
Q 1678 4000 1319 3909 
L 1319 306 
z
" transform="scale(0.015625)"/>
        <path id="TimesNewRomanPSMT-47" d="M 3928 4334 
L 4038 2997 
L 3928 2997 
Q 3763 3497 3500 3750 
Q 3122 4116 2528 4116 
Q 1719 4116 1297 3475 
Q 944 2934 944 2188 
Q 944 1581 1178 1081 
Q 1413 581 1792 348 
Q 2172 116 2572 116 
Q 2806 116 3025 175 
Q 3244 234 3447 350 
L 3447 1575 
Q 3447 1894 3398 1992 
Q 3350 2091 3248 2142 
Q 3147 2194 2891 2194 
L 2891 2313 
L 4531 2313 
L 4531 2194 
L 4453 2194 
Q 4209 2194 4119 2031 
Q 4056 1916 4056 1575 
L 4056 278 
Q 3697 84 3347 -6 
Q 2997 -97 2569 -97 
Q 1341 -97 703 691 
Q 225 1281 225 2053 
Q 225 2613 494 3125 
Q 813 3734 1369 4063 
Q 1834 4334 2469 4334 
Q 2700 4334 2889 4296 
Q 3078 4259 3425 4131 
Q 3600 4066 3659 4066 
Q 3719 4066 3761 4120 
Q 3803 4175 3813 4334 
L 3928 4334 
z
" transform="scale(0.015625)"/>
        <path id="TimesNewRomanPSMT-41" d="M 2928 1419 
L 1288 1419 
L 1000 750 
Q 894 503 894 381 
Q 894 284 986 211 
Q 1078 138 1384 116 
L 1384 0 
L 50 0 
L 50 116 
Q 316 163 394 238 
Q 553 388 747 847 
L 2238 4334 
L 2347 4334 
L 3822 809 
Q 4000 384 4145 257 
Q 4291 131 4550 116 
L 4550 0 
L 2878 0 
L 2878 116 
Q 3131 128 3220 200 
Q 3309 272 3309 375 
Q 3309 513 3184 809 
L 2928 1419 
z
M 2841 1650 
L 2122 3363 
L 1384 1650 
L 2841 1650 
z
" transform="scale(0.015625)"/>
        <path id="TimesNewRomanPSMT-2d" d="M 259 1672 
L 1875 1672 
L 1875 1200 
L 259 1200 
L 259 1672 
z
" transform="scale(0.015625)"/>
        <path id="TimesNewRomanPSMT-43" d="M 3853 4334 
L 3950 2894 
L 3853 2894 
Q 3659 3541 3300 3825 
Q 2941 4109 2438 4109 
Q 2016 4109 1675 3895 
Q 1334 3681 1139 3212 
Q 944 2744 944 2047 
Q 944 1472 1128 1050 
Q 1313 628 1683 403 
Q 2053 178 2528 178 
Q 2941 178 3256 354 
Q 3572 531 3950 1056 
L 4047 994 
Q 3728 428 3303 165 
Q 2878 -97 2294 -97 
Q 1241 -97 663 684 
Q 231 1266 231 2053 
Q 231 2688 515 3219 
Q 800 3750 1298 4042 
Q 1797 4334 2388 4334 
Q 2847 4334 3294 4109 
Q 3425 4041 3481 4041 
Q 3566 4041 3628 4100 
Q 3709 4184 3744 4334 
L 3853 4334 
z
" transform="scale(0.015625)"/>
       </defs>
       <use xlink:href="#TimesNewRomanPSMT-44"/>
       <use xlink:href="#TimesNewRomanPSMT-47" transform="translate(72.216797 0)"/>
       <use xlink:href="#TimesNewRomanPSMT-41" transform="translate(144.433594 0)"/>
       <use xlink:href="#TimesNewRomanPSMT-2d" transform="translate(216.650391 0)"/>
       <use xlink:href="#TimesNewRomanPSMT-43" transform="translate(249.951172 0)"/>
       <use xlink:href="#TimesNewRomanPSMT-46" transform="translate(316.650391 0)"/>
      </g>
     </g>
    </g>
    <g id="xtick_3">
     <g id="line2d_3">
      <g>
       <use xlink:href="#meecb61f63c" x="312.642738" y="313.9325" style="stroke: #000000; stroke-width: 0.8"/>
      </g>
     </g>
     <g id="text_3">
      <!-- DPSO-CF -->
      <g transform="translate(291.051292 328.223438) scale(0.105 -0.105)">
       <defs>
        <path id="TimesNewRomanPSMT-50" d="M 1313 1984 
L 1313 750 
Q 1313 350 1400 253 
Q 1519 116 1759 116 
L 1922 116 
L 1922 0 
L 106 0 
L 106 116 
L 266 116 
Q 534 116 650 291 
Q 713 388 713 750 
L 713 3488 
Q 713 3888 628 3984 
Q 506 4122 266 4122 
L 106 4122 
L 106 4238 
L 1659 4238 
Q 2228 4238 2556 4120 
Q 2884 4003 3109 3725 
Q 3334 3447 3334 3066 
Q 3334 2547 2992 2222 
Q 2650 1897 2025 1897 
Q 1872 1897 1694 1919 
Q 1516 1941 1313 1984 
z
M 1313 2163 
Q 1478 2131 1606 2115 
Q 1734 2100 1825 2100 
Q 2150 2100 2386 2351 
Q 2622 2603 2622 3003 
Q 2622 3278 2509 3514 
Q 2397 3750 2190 3867 
Q 1984 3984 1722 3984 
Q 1563 3984 1313 3925 
L 1313 2163 
z
" transform="scale(0.015625)"/>
        <path id="TimesNewRomanPSMT-53" d="M 2934 4334 
L 2934 2869 
L 2819 2869 
Q 2763 3291 2617 3541 
Q 2472 3791 2203 3937 
Q 1934 4084 1647 4084 
Q 1322 4084 1109 3886 
Q 897 3688 897 3434 
Q 897 3241 1031 3081 
Q 1225 2847 1953 2456 
Q 2547 2138 2764 1967 
Q 2981 1797 3098 1565 
Q 3216 1334 3216 1081 
Q 3216 600 2842 251 
Q 2469 -97 1881 -97 
Q 1697 -97 1534 -69 
Q 1438 -53 1133 45 
Q 828 144 747 144 
Q 669 144 623 97 
Q 578 50 556 -97 
L 441 -97 
L 441 1356 
L 556 1356 
Q 638 900 775 673 
Q 913 447 1195 297 
Q 1478 147 1816 147 
Q 2206 147 2432 353 
Q 2659 559 2659 841 
Q 2659 997 2573 1156 
Q 2488 1316 2306 1453 
Q 2184 1547 1640 1851 
Q 1097 2156 867 2337 
Q 638 2519 519 2737 
Q 400 2956 400 3219 
Q 400 3675 750 4004 
Q 1100 4334 1641 4334 
Q 1978 4334 2356 4169 
Q 2531 4091 2603 4091 
Q 2684 4091 2736 4139 
Q 2788 4188 2819 4334 
L 2934 4334 
z
" transform="scale(0.015625)"/>
        <path id="TimesNewRomanPSMT-4f" d="M 2341 4334 
Q 3166 4334 3770 3707 
Q 4375 3081 4375 2144 
Q 4375 1178 3765 540 
Q 3156 -97 2291 -97 
Q 1416 -97 820 525 
Q 225 1147 225 2134 
Q 225 3144 913 3781 
Q 1509 4334 2341 4334 
z
M 2281 4106 
Q 1713 4106 1369 3684 
Q 941 3159 941 2147 
Q 941 1109 1384 550 
Q 1725 125 2284 125 
Q 2881 125 3270 590 
Q 3659 1056 3659 2059 
Q 3659 3147 3231 3681 
Q 2888 4106 2281 4106 
z
" transform="scale(0.015625)"/>
       </defs>
       <use xlink:href="#TimesNewRomanPSMT-44"/>
       <use xlink:href="#TimesNewRomanPSMT-50" transform="translate(72.216797 0)"/>
       <use xlink:href="#TimesNewRomanPSMT-53" transform="translate(127.832031 0)"/>
       <use xlink:href="#TimesNewRomanPSMT-4f" transform="translate(183.447266 0)"/>
       <use xlink:href="#TimesNewRomanPSMT-2d" transform="translate(255.664062 0)"/>
       <use xlink:href="#TimesNewRomanPSMT-43" transform="translate(288.964844 0)"/>
       <use xlink:href="#TimesNewRomanPSMT-46" transform="translate(355.664062 0)"/>
      </g>
     </g>
    </g>
    <g id="xtick_4">
     <g id="line2d_4">
      <g>
       <use xlink:href="#meecb61f63c" x="423.2379" y="313.9325" style="stroke: #000000; stroke-width: 0.8"/>
      </g>
     </g>
     <g id="text_4">
      <!-- NSSA-CF -->
      <g transform="translate(401.646455 328.223438) scale(0.105 -0.105)">
       <defs>
        <path id="TimesNewRomanPSMT-4e" d="M -84 4238 
L 1066 4238 
L 3656 1059 
L 3656 3503 
Q 3656 3894 3569 3991 
Q 3453 4122 3203 4122 
L 3056 4122 
L 3056 4238 
L 4531 4238 
L 4531 4122 
L 4381 4122 
Q 4113 4122 4000 3959 
Q 3931 3859 3931 3503 
L 3931 -69 
L 3819 -69 
L 1025 3344 
L 1025 734 
Q 1025 344 1109 247 
Q 1228 116 1475 116 
L 1625 116 
L 1625 0 
L 150 0 
L 150 116 
L 297 116 
Q 569 116 681 278 
Q 750 378 750 734 
L 750 3681 
Q 566 3897 470 3965 
Q 375 4034 191 4094 
Q 100 4122 -84 4122 
L -84 4238 
z
" transform="scale(0.015625)"/>
       </defs>
       <use xlink:href="#TimesNewRomanPSMT-4e"/>
       <use xlink:href="#TimesNewRomanPSMT-53" transform="translate(72.216797 0)"/>
       <use xlink:href="#TimesNewRomanPSMT-53" transform="translate(127.832031 0)"/>
       <use xlink:href="#TimesNewRomanPSMT-41" transform="translate(183.447266 0)"/>
       <use xlink:href="#TimesNewRomanPSMT-2d" transform="translate(255.664062 0)"/>
       <use xlink:href="#TimesNewRomanPSMT-43" transform="translate(288.964844 0)"/>
       <use xlink:href="#TimesNewRomanPSMT-46" transform="translate(355.664062 0)"/>
      </g>
     </g>
    </g>
   </g>
   <g id="matplotlib.axis_2">
    <g id="ytick_1">
     <g id="line2d_5">
      <path d="M 39.583281 313.9325 
L 475.107031 313.9325 
" clip-path="url(#pce25ec6a3e)" style="fill: none; stroke-dasharray: 2.96,1.28; stroke-dashoffset: 0; stroke: #b0b0b0; stroke-opacity: 0.5; stroke-width: 0.8"/>
     </g>
     <g id="line2d_6">
      <defs>
       <path id="ma1b900fe8a" d="M 0 0 
L -3.5 0 
" style="stroke: #000000; stroke-width: 0.8"/>
      </defs>
      <g>
       <use xlink:href="#ma1b900fe8a" x="39.583281" y="313.9325" style="stroke: #000000; stroke-width: 0.8"/>
      </g>
     </g>
     <g id="text_5">
      <!-- 0 -->
      <g transform="translate(27.583281 317.404375) scale(0.1 -0.1)">
       <defs>
        <path id="TimesNewRomanPSMT-30" d="M 231 2094 
Q 231 2819 450 3342 
Q 669 3866 1031 4122 
Q 1313 4325 1613 4325 
Q 2100 4325 2488 3828 
Q 2972 3213 2972 2159 
Q 2972 1422 2759 906 
Q 2547 391 2217 158 
Q 1888 -75 1581 -75 
Q 975 -75 572 641 
Q 231 1244 231 2094 
z
M 844 2016 
Q 844 1141 1059 588 
Q 1238 122 1591 122 
Q 1759 122 1940 273 
Q 2122 425 2216 781 
Q 2359 1319 2359 2297 
Q 2359 3022 2209 3506 
Q 2097 3866 1919 4016 
Q 1791 4119 1609 4119 
Q 1397 4119 1231 3928 
Q 1006 3669 925 3112 
Q 844 2556 844 2016 
z
" transform="scale(0.015625)"/>
       </defs>
       <use xlink:href="#TimesNewRomanPSMT-30"/>
      </g>
     </g>
    </g>
    <g id="ytick_2">
     <g id="line2d_7">
      <path d="M 39.583281 275.144871 
L 475.107031 275.144871 
" clip-path="url(#pce25ec6a3e)" style="fill: none; stroke-dasharray: 2.96,1.28; stroke-dashoffset: 0; stroke: #b0b0b0; stroke-opacity: 0.5; stroke-width: 0.8"/>
     </g>
     <g id="line2d_8">
      <g>
       <use xlink:href="#ma1b900fe8a" x="39.583281" y="275.144871" style="stroke: #000000; stroke-width: 0.8"/>
      </g>
     </g>
     <g id="text_6">
      <!-- 2 -->
      <g transform="translate(27.583281 278.616746) scale(0.1 -0.1)">
       <defs>
        <path id="TimesNewRomanPSMT-32" d="M 2934 816 
L 2638 0 
L 138 0 
L 138 116 
Q 1241 1122 1691 1759 
Q 2141 2397 2141 2925 
Q 2141 3328 1894 3587 
Q 1647 3847 1303 3847 
Q 991 3847 742 3664 
Q 494 3481 375 3128 
L 259 3128 
Q 338 3706 661 4015 
Q 984 4325 1469 4325 
Q 1984 4325 2329 3994 
Q 2675 3663 2675 3213 
Q 2675 2891 2525 2569 
Q 2294 2063 1775 1497 
Q 997 647 803 472 
L 1909 472 
Q 2247 472 2383 497 
Q 2519 522 2628 598 
Q 2738 675 2819 816 
L 2934 816 
z
" transform="scale(0.015625)"/>
       </defs>
       <use xlink:href="#TimesNewRomanPSMT-32"/>
      </g>
     </g>
    </g>
    <g id="ytick_3">
     <g id="line2d_9">
      <path d="M 39.583281 236.357242 
L 475.107031 236.357242 
" clip-path="url(#pce25ec6a3e)" style="fill: none; stroke-dasharray: 2.96,1.28; stroke-dashoffset: 0; stroke: #b0b0b0; stroke-opacity: 0.5; stroke-width: 0.8"/>
     </g>
     <g id="line2d_10">
      <g>
       <use xlink:href="#ma1b900fe8a" x="39.583281" y="236.357242" style="stroke: #000000; stroke-width: 0.8"/>
      </g>
     </g>
     <g id="text_7">
      <!-- 4 -->
      <g transform="translate(27.583281 239.829117) scale(0.1 -0.1)">
       <defs>
        <path id="TimesNewRomanPSMT-34" d="M 2978 1563 
L 2978 1119 
L 2409 1119 
L 2409 0 
L 1894 0 
L 1894 1119 
L 100 1119 
L 100 1519 
L 2066 4325 
L 2409 4325 
L 2409 1563 
L 2978 1563 
z
M 1894 1563 
L 1894 3666 
L 406 1563 
L 1894 1563 
z
" transform="scale(0.015625)"/>
       </defs>
       <use xlink:href="#TimesNewRomanPSMT-34"/>
      </g>
     </g>
    </g>
    <g id="ytick_4">
     <g id="line2d_11">
      <path d="M 39.583281 197.569613 
L 475.107031 197.569613 
" clip-path="url(#pce25ec6a3e)" style="fill: none; stroke-dasharray: 2.96,1.28; stroke-dashoffset: 0; stroke: #b0b0b0; stroke-opacity: 0.5; stroke-width: 0.8"/>
     </g>
     <g id="line2d_12">
      <g>
       <use xlink:href="#ma1b900fe8a" x="39.583281" y="197.569613" style="stroke: #000000; stroke-width: 0.8"/>
      </g>
     </g>
     <g id="text_8">
      <!-- 6 -->
      <g transform="translate(27.583281 201.041488) scale(0.1 -0.1)">
       <defs>
        <path id="TimesNewRomanPSMT-36" d="M 2869 4325 
L 2869 4209 
Q 2456 4169 2195 4045 
Q 1934 3922 1679 3669 
Q 1425 3416 1258 3105 
Q 1091 2794 978 2366 
Q 1428 2675 1881 2675 
Q 2316 2675 2634 2325 
Q 2953 1975 2953 1425 
Q 2953 894 2631 456 
Q 2244 -75 1606 -75 
Q 1172 -75 869 213 
Q 275 772 275 1663 
Q 275 2231 503 2743 
Q 731 3256 1154 3653 
Q 1578 4050 1965 4187 
Q 2353 4325 2688 4325 
L 2869 4325 
z
M 925 2138 
Q 869 1716 869 1456 
Q 869 1156 980 804 
Q 1091 453 1309 247 
Q 1469 100 1697 100 
Q 1969 100 2183 356 
Q 2397 613 2397 1088 
Q 2397 1622 2184 2012 
Q 1972 2403 1581 2403 
Q 1463 2403 1327 2353 
Q 1191 2303 925 2138 
z
" transform="scale(0.015625)"/>
       </defs>
       <use xlink:href="#TimesNewRomanPSMT-36"/>
      </g>
     </g>
    </g>
    <g id="ytick_5">
     <g id="line2d_13">
      <path d="M 39.583281 158.781984 
L 475.107031 158.781984 
" clip-path="url(#pce25ec6a3e)" style="fill: none; stroke-dasharray: 2.96,1.28; stroke-dashoffset: 0; stroke: #b0b0b0; stroke-opacity: 0.5; stroke-width: 0.8"/>
     </g>
     <g id="line2d_14">
      <g>
       <use xlink:href="#ma1b900fe8a" x="39.583281" y="158.781984" style="stroke: #000000; stroke-width: 0.8"/>
      </g>
     </g>
     <g id="text_9">
      <!-- 8 -->
      <g transform="translate(27.583281 162.253859) scale(0.1 -0.1)">
       <defs>
        <path id="TimesNewRomanPSMT-38" d="M 1228 2134 
Q 725 2547 579 2797 
Q 434 3047 434 3316 
Q 434 3728 753 4026 
Q 1072 4325 1600 4325 
Q 2113 4325 2425 4047 
Q 2738 3769 2738 3413 
Q 2738 3175 2569 2928 
Q 2400 2681 1866 2347 
Q 2416 1922 2594 1678 
Q 2831 1359 2831 1006 
Q 2831 559 2490 242 
Q 2150 -75 1597 -75 
Q 994 -75 656 303 
Q 388 606 388 966 
Q 388 1247 577 1523 
Q 766 1800 1228 2134 
z
M 1719 2469 
Q 2094 2806 2194 3001 
Q 2294 3197 2294 3444 
Q 2294 3772 2109 3958 
Q 1925 4144 1606 4144 
Q 1288 4144 1088 3959 
Q 888 3775 888 3528 
Q 888 3366 970 3203 
Q 1053 3041 1206 2894 
L 1719 2469 
z
M 1375 2016 
Q 1116 1797 991 1539 
Q 866 1281 866 981 
Q 866 578 1086 336 
Q 1306 94 1647 94 
Q 1984 94 2187 284 
Q 2391 475 2391 747 
Q 2391 972 2272 1150 
Q 2050 1481 1375 2016 
z
" transform="scale(0.015625)"/>
       </defs>
       <use xlink:href="#TimesNewRomanPSMT-38"/>
      </g>
     </g>
    </g>
    <g id="ytick_6">
     <g id="line2d_15">
      <path d="M 39.583281 119.994354 
L 475.107031 119.994354 
" clip-path="url(#pce25ec6a3e)" style="fill: none; stroke-dasharray: 2.96,1.28; stroke-dashoffset: 0; stroke: #b0b0b0; stroke-opacity: 0.5; stroke-width: 0.8"/>
     </g>
     <g id="line2d_16">
      <g>
       <use xlink:href="#ma1b900fe8a" x="39.583281" y="119.994354" style="stroke: #000000; stroke-width: 0.8"/>
      </g>
     </g>
     <g id="text_10">
      <!-- 10 -->
      <g transform="translate(22.583281 123.466229) scale(0.1 -0.1)">
       <defs>
        <path id="TimesNewRomanPSMT-31" d="M 750 3822 
L 1781 4325 
L 1884 4325 
L 1884 747 
Q 1884 391 1914 303 
Q 1944 216 2037 169 
Q 2131 122 2419 116 
L 2419 0 
L 825 0 
L 825 116 
Q 1125 122 1212 167 
Q 1300 213 1334 289 
Q 1369 366 1369 747 
L 1369 3034 
Q 1369 3497 1338 3628 
Q 1316 3728 1258 3775 
Q 1200 3822 1119 3822 
Q 1003 3822 797 3725 
L 750 3822 
z
" transform="scale(0.015625)"/>
       </defs>
       <use xlink:href="#TimesNewRomanPSMT-31"/>
       <use xlink:href="#TimesNewRomanPSMT-30" transform="translate(50 0)"/>
      </g>
     </g>
    </g>
    <g id="ytick_7">
     <g id="line2d_17">
      <path d="M 39.583281 81.206725 
L 475.107031 81.206725 
" clip-path="url(#pce25ec6a3e)" style="fill: none; stroke-dasharray: 2.96,1.28; stroke-dashoffset: 0; stroke: #b0b0b0; stroke-opacity: 0.5; stroke-width: 0.8"/>
     </g>
     <g id="line2d_18">
      <g>
       <use xlink:href="#ma1b900fe8a" x="39.583281" y="81.206725" style="stroke: #000000; stroke-width: 0.8"/>
      </g>
     </g>
     <g id="text_11">
      <!-- 12 -->
      <g transform="translate(22.583281 84.6786) scale(0.1 -0.1)">
       <use xlink:href="#TimesNewRomanPSMT-31"/>
       <use xlink:href="#TimesNewRomanPSMT-32" transform="translate(50 0)"/>
      </g>
     </g>
    </g>
    <g id="ytick_8">
     <g id="line2d_19">
      <path d="M 39.583281 42.419096 
L 475.107031 42.419096 
" clip-path="url(#pce25ec6a3e)" style="fill: none; stroke-dasharray: 2.96,1.28; stroke-dashoffset: 0; stroke: #b0b0b0; stroke-opacity: 0.5; stroke-width: 0.8"/>
     </g>
     <g id="line2d_20">
      <g>
       <use xlink:href="#ma1b900fe8a" x="39.583281" y="42.419096" style="stroke: #000000; stroke-width: 0.8"/>
      </g>
     </g>
     <g id="text_12">
      <!-- 14 -->
      <g transform="translate(22.583281 45.890971) scale(0.1 -0.1)">
       <use xlink:href="#TimesNewRomanPSMT-31"/>
       <use xlink:href="#TimesNewRomanPSMT-34" transform="translate(50 0)"/>
      </g>
     </g>
    </g>
    <g id="text_13">
     <!-- 计算时间 (s) -->
     <g transform="translate(16.230312 197.998984) rotate(-90) scale(0.11 -0.11)">
      <defs>
       <path id="SimSong-Regular-8ba1" d="M 2413 3123 
L 2528 2842 
C 2675 2874 2899 2893 3213 2893 
L 4115 2893 
L 4115 115 
C 4115 -64 4102 -256 4090 -474 
C 4096 -538 4147 -570 4211 -570 
C 4275 -570 4346 -557 4429 -538 
C 4474 -512 4506 -486 4506 -454 
C 4486 -243 4480 -51 4480 115 
L 4480 2893 
L 6061 2893 
C 6118 2893 6157 2918 6157 2976 
C 6157 3002 6086 3085 5971 3226 
C 5843 3354 5747 3424 5696 3424 
C 5670 3424 5613 3373 5523 3270 
C 5434 3162 5370 3091 5338 3066 
L 4480 3066 
L 4480 4877 
C 4480 4928 4506 4960 4576 4979 
C 4666 5005 4717 5050 4717 5107 
C 4717 5133 4646 5152 4531 5178 
C 4352 5203 4211 5216 4090 5229 
C 4102 5062 4115 4864 4115 4640 
L 4115 3066 
L 3213 3066 
C 2867 3066 2605 3085 2413 3123 
L 2413 3123 
z
M 928 5082 
L 870 5018 
C 1222 4768 1478 4461 1651 4090 
C 1696 3930 1786 3853 1901 3853 
C 1952 3853 1997 3885 2035 3949 
C 2074 4013 2106 4077 2106 4147 
C 2106 4288 2003 4435 1818 4589 
C 1645 4749 1350 4915 928 5082 
L 928 5082 
z
M 243 3213 
L 403 2931 
C 499 2957 602 2970 710 2982 
L 1325 2982 
L 1325 384 
C 1318 294 1286 218 1210 141 
C 1165 90 1139 51 1139 26 
C 1139 -6 1229 -90 1408 -230 
C 1466 -269 1523 -294 1574 -294 
C 1626 -294 1664 -269 1696 -211 
C 1728 -102 1766 -19 1818 26 
L 2752 1248 
L 2701 1338 
L 1722 416 
L 1722 2784 
C 1722 2861 1747 2918 1824 2970 
C 1888 2995 1933 3034 1933 3085 
C 1933 3123 1894 3162 1843 3206 
C 1677 3334 1562 3405 1498 3405 
C 1446 3405 1350 3322 1222 3162 
L 698 3162 
C 563 3162 416 3174 237 3213 
L 243 3213 
z
" transform="scale(0.015625)"/>
       <path id="SimSong-Regular-7b97" d="M 1491 5254 
C 1344 4858 1184 4531 1005 4275 
C 774 3942 563 3693 371 3514 
L 429 3424 
C 794 3661 1082 3898 1299 4147 
C 1376 4224 1453 4314 1530 4416 
L 1728 4416 
C 1875 4288 1978 4128 2054 3936 
C 2093 3795 2176 3731 2272 3731 
C 2310 3731 2355 3757 2394 3808 
C 2432 3866 2458 3923 2458 3987 
C 2458 4064 2394 4141 2278 4230 
C 2214 4288 2112 4352 1971 4416 
L 3373 4416 
C 3424 4416 3456 4442 3456 4506 
C 3456 4525 3405 4576 3322 4659 
C 3174 4787 3085 4851 3059 4851 
C 3034 4851 2976 4813 2899 4736 
C 2829 4659 2784 4608 2758 4589 
L 1651 4589 
C 1715 4691 1786 4800 1850 4928 
C 1862 4941 1894 4960 1958 4979 
C 2035 4986 2080 5005 2080 5043 
C 2080 5075 2003 5107 1875 5146 
L 1491 5254 
L 1491 5254 
z
M 3917 5254 
C 3789 4909 3654 4627 3494 4397 
C 3296 4115 3110 3898 2944 3744 
L 3008 3648 
C 3334 3853 3590 4058 3789 4269 
C 3840 4320 3891 4378 3949 4442 
L 4282 4442 
C 4435 4326 4557 4179 4634 4019 
C 4672 3872 4749 3802 4851 3802 
C 4890 3802 4928 3827 4966 3885 
C 5005 3942 5030 4000 5030 4058 
C 5030 4128 4966 4205 4851 4288 
C 4781 4333 4678 4384 4550 4442 
L 6003 4442 
C 6048 4442 6080 4467 6080 4531 
C 6080 4544 6029 4595 5952 4672 
C 5811 4787 5734 4851 5709 4851 
C 5683 4851 5626 4813 5562 4749 
C 5491 4672 5446 4627 5421 4614 
L 4077 4614 
C 4141 4704 4211 4806 4275 4928 
C 4288 4941 4320 4960 4384 4979 
C 4461 4986 4506 5005 4506 5043 
C 4506 5075 4429 5107 4301 5146 
C 4192 5171 4070 5210 3917 5254 
L 3917 5254 
z
M 1139 3802 
C 1152 3578 1165 3386 1165 3232 
L 1165 1939 
C 1165 1754 1152 1542 1139 1306 
C 1139 1235 1184 1203 1261 1203 
C 1312 1203 1376 1210 1466 1235 
C 1498 1261 1530 1286 1530 1325 
L 1530 1440 
L 4762 1440 
L 4762 1306 
C 4762 1235 4800 1203 4864 1203 
C 4922 1203 4992 1210 5094 1235 
C 5133 1261 5165 1286 5165 1325 
L 5133 1939 
L 5133 3296 
C 5133 3328 5152 3360 5216 3398 
C 5286 3437 5331 3469 5331 3501 
C 5331 3526 5267 3590 5165 3693 
C 5062 3763 4998 3802 4966 3802 
C 4941 3802 4896 3776 4838 3738 
L 4672 3616 
L 1542 3616 
C 1421 3693 1293 3750 1139 3802 
L 1139 3802 
z
M 1530 2944 
L 1530 3443 
L 4762 3443 
L 4762 2944 
L 1530 2944 
z
M 1530 2291 
L 1530 2765 
L 4762 2765 
L 4762 2291 
L 1530 2291 
z
M 1530 1619 
L 1530 2118 
L 4762 2118 
L 4762 1619 
L 1530 1619 
z
M 262 922 
L 384 640 
C 525 672 749 691 1062 691 
L 1997 691 
C 1958 576 1926 480 1875 397 
C 1773 211 1613 58 1408 -58 
C 1203 -192 858 -346 339 -518 
L 358 -602 
C 755 -570 1165 -467 1606 -282 
L 1606 -282 
C 1882 -128 2080 32 2208 218 
C 2298 352 2374 512 2432 691 
L 3827 691 
L 3827 -314 
C 3827 -365 3814 -442 3802 -544 
C 3808 -595 3859 -621 3930 -621 
C 3994 -621 4070 -608 4166 -589 
C 4211 -563 4243 -538 4243 -506 
C 4224 -365 4218 -275 4218 -230 
L 4218 691 
L 6035 691 
C 6093 691 6131 717 6131 781 
C 6131 806 6061 890 5946 1024 
C 5818 1152 5722 1222 5670 1222 
C 5645 1222 5587 1171 5498 1075 
C 5408 960 5344 890 5312 864 
L 4218 864 
L 4218 954 
C 4218 1005 4243 1050 4307 1075 
C 4397 1094 4448 1133 4448 1197 
C 4448 1229 4365 1254 4224 1267 
L 3802 1331 
C 3814 1254 3827 1171 3827 1075 
L 3827 864 
L 2483 864 
C 2490 902 2496 954 2509 1011 
C 2509 1043 2534 1062 2598 1069 
C 2682 1069 2733 1088 2733 1126 
C 2733 1158 2662 1197 2534 1242 
C 2406 1280 2266 1318 2112 1357 
C 2093 1178 2067 1011 2042 864 
L 1062 864 
C 717 864 454 883 262 922 
L 262 922 
z
" transform="scale(0.015625)"/>
       <path id="SimSong-Regular-65f6" d="M 2534 3674 
L 2656 3392 
C 2797 3424 3021 3443 3334 3443 
L 4672 3443 
L 4672 134 
C 4672 70 4666 32 4653 19 
C 4614 -6 4563 -19 4493 -19 
C 4301 -19 3987 13 3552 77 
L 3514 -26 
C 4064 -141 4339 -256 4365 -371 
C 4371 -499 4442 -570 4550 -570 
C 4621 -570 4723 -531 4864 -467 
L 4864 -467 
C 4992 -403 5069 -256 5069 -32 
L 5069 3443 
L 6061 3443 
C 6118 3443 6157 3469 6157 3526 
C 6157 3552 6086 3635 5971 3770 
C 5843 3904 5747 3974 5696 3974 
C 5670 3974 5613 3923 5523 3821 
C 5434 3712 5370 3642 5338 3616 
L 5069 3616 
L 5069 4832 
C 5069 4890 5094 4928 5171 4954 
C 5267 4979 5325 5018 5325 5082 
C 5325 5107 5248 5126 5120 5152 
L 4653 5203 
C 4666 5043 4672 4858 4672 4653 
L 4672 3616 
L 3334 3616 
C 2989 3616 2726 3635 2534 3674 
L 2534 3674 
z
M 659 4678 
C 672 4448 685 4256 685 4102 
L 685 742 
C 685 557 672 346 659 102 
C 659 38 710 6 787 6 
C 838 6 902 13 973 38 
C 1024 58 1056 83 1056 122 
L 1056 717 
L 1984 717 
L 1984 256 
C 1984 186 2022 154 2086 154 
C 2150 154 2221 160 2317 186 
C 2355 211 2387 237 2387 275 
L 2355 890 
L 2355 4224 
C 2355 4256 2362 4288 2394 4320 
C 2432 4358 2458 4390 2458 4422 
C 2458 4454 2394 4518 2285 4614 
C 2189 4691 2125 4730 2093 4730 
C 2067 4730 2016 4704 1965 4653 
C 1914 4608 1862 4563 1798 4518 
L 1018 4518 
C 909 4582 794 4634 659 4678 
L 659 4678 
z
M 1056 2765 
L 1056 4339 
L 1984 4339 
L 1984 2765 
L 1056 2765 
z
M 3008 2829 
L 2944 2765 
C 3213 2419 3411 1984 3552 1466 
C 3590 1306 3686 1229 3802 1229 
C 3846 1229 3891 1261 3936 1325 
C 3974 1389 4006 1453 4006 1523 
C 4006 1722 3917 1926 3763 2144 
C 3616 2362 3366 2586 3008 2829 
L 3008 2829 
z
M 1056 890 
L 1056 2592 
L 1984 2592 
L 1984 890 
L 1056 890 
z
" transform="scale(0.015625)"/>
       <path id="SimSong-Regular-95f4" d="M 1280 5152 
L 1216 5094 
C 1434 4902 1594 4659 1702 4365 
C 1741 4205 1837 4128 1952 4128 
C 1997 4128 2048 4160 2099 4224 
C 2131 4275 2157 4339 2157 4422 
C 2157 4544 2086 4666 1958 4787 
C 1818 4902 1594 5024 1280 5152 
L 1280 5152 
z
M 2464 4621 
L 2579 4339 
C 2771 4371 2995 4390 3264 4390 
L 5197 4390 
L 5197 102 
C 5197 58 5184 13 5139 -45 
C 5088 -58 5024 -70 4947 -70 
C 4877 -70 4672 -45 4314 6 
L 4282 -96 
C 4653 -211 4832 -314 4845 -410 
C 4858 -531 4902 -595 4947 -595 
C 5050 -595 5178 -550 5331 -474 
C 5498 -384 5594 -224 5594 6 
L 5594 4243 
C 5594 4282 5619 4314 5683 4346 
L 5683 4346 
C 5741 4371 5779 4416 5779 4467 
C 5779 4499 5709 4570 5587 4672 
C 5485 4762 5414 4806 5370 4806 
C 5338 4806 5280 4762 5210 4678 
C 5184 4646 5146 4608 5107 4570 
L 3264 4570 
C 2950 4570 2688 4582 2464 4621 
L 2464 4621 
z
M 774 4429 
C 787 4250 800 4038 800 3795 
L 800 211 
C 800 19 787 -186 774 -416 
C 781 -480 832 -518 909 -518 
C 973 -518 1050 -506 1146 -493 
C 1190 -467 1222 -435 1222 -397 
C 1203 -166 1197 32 1197 211 
L 1197 4051 
C 1197 4102 1222 4141 1293 4166 
C 1395 4192 1453 4237 1453 4301 
C 1453 4326 1376 4346 1248 4371 
L 774 4429 
L 774 4429 
z
M 2061 3654 
C 2074 3501 2086 3347 2086 3194 
L 2086 845 
C 2086 730 2074 614 2061 506 
C 2061 435 2112 403 2189 403 
C 2240 403 2304 410 2381 435 
C 2426 448 2458 474 2458 506 
L 2458 819 
L 3962 819 
L 3962 506 
C 3962 435 4000 403 4064 403 
C 4122 403 4192 410 4282 435 
C 4333 454 4365 480 4365 518 
C 4339 685 4333 819 4333 922 
L 4333 3155 
C 4333 3194 4352 3232 4403 3264 
C 4467 3302 4506 3334 4506 3373 
C 4506 3405 4448 3462 4352 3546 
C 4237 3635 4166 3680 4134 3680 
C 4109 3680 4064 3654 4026 3603 
C 3974 3546 3930 3494 3878 3443 
L 2509 3443 
C 2355 3533 2214 3603 2061 3654 
L 2061 3654 
z
M 2458 2240 
L 2458 3264 
L 3962 3264 
L 3962 2240 
L 2458 2240 
z
M 2458 992 
L 2458 2067 
L 3962 2067 
L 3962 992 
L 2458 992 
z
" transform="scale(0.015625)"/>
       <path id="TimesNewRomanPSMT-20" transform="scale(0.015625)"/>
       <path id="TimesNewRomanPSMT-28" d="M 1988 -1253 
L 1988 -1369 
Q 1516 -1131 1200 -813 
Q 750 -359 506 256 
Q 263 872 263 1534 
Q 263 2503 741 3301 
Q 1219 4100 1988 4444 
L 1988 4313 
Q 1603 4100 1356 3731 
Q 1109 3363 987 2797 
Q 866 2231 866 1616 
Q 866 947 969 400 
Q 1050 -31 1165 -292 
Q 1281 -553 1476 -793 
Q 1672 -1034 1988 -1253 
z
" transform="scale(0.015625)"/>
       <path id="TimesNewRomanPSMT-73" d="M 2050 2947 
L 2050 1972 
L 1947 1972 
Q 1828 2431 1642 2597 
Q 1456 2763 1169 2763 
Q 950 2763 815 2647 
Q 681 2531 681 2391 
Q 681 2216 781 2091 
Q 878 1963 1175 1819 
L 1631 1597 
Q 2266 1288 2266 781 
Q 2266 391 1970 151 
Q 1675 -88 1309 -88 
Q 1047 -88 709 6 
Q 606 38 541 38 
Q 469 38 428 -44 
L 325 -44 
L 325 978 
L 428 978 
Q 516 541 762 319 
Q 1009 97 1316 97 
Q 1531 97 1667 223 
Q 1803 350 1803 528 
Q 1803 744 1651 891 
Q 1500 1038 1047 1263 
Q 594 1488 453 1669 
Q 313 1847 313 2119 
Q 313 2472 555 2709 
Q 797 2947 1181 2947 
Q 1350 2947 1591 2875 
Q 1750 2828 1803 2828 
Q 1853 2828 1881 2850 
Q 1909 2872 1947 2947 
L 2050 2947 
z
" transform="scale(0.015625)"/>
       <path id="TimesNewRomanPSMT-29" d="M 144 4313 
L 144 4444 
Q 619 4209 934 3891 
Q 1381 3434 1625 2820 
Q 1869 2206 1869 1541 
Q 1869 572 1392 -226 
Q 916 -1025 144 -1369 
L 144 -1253 
Q 528 -1038 776 -670 
Q 1025 -303 1145 264 
Q 1266 831 1266 1447 
Q 1266 2113 1163 2663 
Q 1084 3094 967 3353 
Q 850 3613 656 3853 
Q 463 4094 144 4313 
z
" transform="scale(0.015625)"/>
      </defs>
      <use xlink:href="#SimSong-Regular-8ba1"/>
      <use xlink:href="#SimSong-Regular-7b97" transform="translate(99.999985 0)"/>
      <use xlink:href="#SimSong-Regular-65f6" transform="translate(199.999969 0)"/>
      <use xlink:href="#SimSong-Regular-95f4" transform="translate(299.999954 0)"/>
      <use xlink:href="#TimesNewRomanPSMT-20" transform="translate(399.999939 0)"/>
      <use xlink:href="#TimesNewRomanPSMT-28" transform="translate(424.999939 0)"/>
      <use xlink:href="#TimesNewRomanPSMT-73" transform="translate(458.30072 0)"/>
      <use xlink:href="#TimesNewRomanPSMT-29" transform="translate(497.216736 0)"/>
     </g>
    </g>
   </g>
   <g id="patch_3">
    <path d="M 39.583281 313.9325 
L 39.583281 23.70875 
" style="fill: none; stroke: #000000; stroke-width: 0.8; stroke-linejoin: miter; stroke-linecap: square"/>
   </g>
   <g id="patch_4">
    <path d="M 39.583281 313.9325 
L 475.107031 313.9325 
" style="fill: none; stroke: #000000; stroke-width: 0.8; stroke-linejoin: miter; stroke-linecap: square"/>
   </g>
   <g id="patch_5">
    <path d="M 59.379815 313.9325 
L 123.52501 313.9325 
L 123.52501 299.622716 
L 59.379815 299.622716 
z
" clip-path="url(#pce25ec6a3e)" style="fill: #ee6f63; stroke: #ffffff; stroke-width: 0.9; stroke-linejoin: miter"/>
   </g>
   <g id="patch_6">
    <path d="M 169.974978 313.9325 
L 234.120172 313.9325 
L 234.120172 126.644966 
L 169.974978 126.644966 
z
" clip-path="url(#pce25ec6a3e)" style="fill: #5fa8e8; stroke: #ffffff; stroke-width: 0.9; stroke-linejoin: miter"/>
   </g>
   <g id="patch_7">
    <path d="M 280.57014 313.9325 
L 344.715335 313.9325 
L 344.715335 61.454374 
L 280.57014 61.454374 
z
" clip-path="url(#pce25ec6a3e)" style="fill: #63cfa0; stroke: #ffffff; stroke-width: 0.9; stroke-linejoin: miter"/>
   </g>
   <g id="patch_8">
    <path d="M 391.165303 313.9325 
L 455.310497 313.9325 
L 455.310497 90.346043 
L 391.165303 90.346043 
z
" clip-path="url(#pce25ec6a3e)" style="fill: #b08adf; stroke: #ffffff; stroke-width: 0.9; stroke-linejoin: miter"/>
   </g>
   <g id="text_14">
    <!-- 0.74s -->
    <g style="fill: #333333" transform="translate(81.291123 291.57638) scale(0.095 -0.095)">
     <defs>
      <path id="TimesNewRomanPS-BoldMT-30" d="M 2966 2119 
Q 2966 1484 2788 934 
Q 2681 597 2501 381 
Q 2322 166 2094 39 
Q 1866 -88 1597 -88 
Q 1291 -88 1044 68 
Q 797 225 606 516 
Q 469 728 366 1081 
Q 231 1559 231 2069 
Q 231 2759 425 3338 
Q 584 3816 909 4070 
Q 1234 4325 1597 4325 
Q 1966 4325 2286 4073 
Q 2606 3822 2756 3397 
Q 2966 2813 2966 2119 
z
M 2003 2125 
Q 2003 3238 1991 3422 
Q 1959 3856 1841 4009 
Q 1763 4109 1588 4109 
Q 1453 4109 1375 4034 
Q 1259 3925 1218 3648 
Q 1178 3372 1178 1719 
Q 1178 819 1241 513 
Q 1288 291 1375 216 
Q 1463 141 1606 141 
Q 1763 141 1841 241 
Q 1972 416 1991 781 
L 2003 2125 
z
" transform="scale(0.015625)"/>
      <path id="TimesNewRomanPS-BoldMT-2e" d="M 800 963 
Q 1019 963 1170 809 
Q 1322 656 1322 441 
Q 1322 225 1169 73 
Q 1016 -78 800 -78 
Q 584 -78 432 73 
Q 281 225 281 441 
Q 281 656 432 809 
Q 584 963 800 963 
z
" transform="scale(0.015625)"/>
      <path id="TimesNewRomanPS-BoldMT-37" d="M 1134 -88 
L 2288 3409 
L 1409 3409 
Q 894 3409 634 3275 
Q 453 3181 334 2922 
L 216 2922 
L 522 4238 
L 3047 4238 
L 1625 -88 
L 1134 -88 
z
" transform="scale(0.015625)"/>
      <path id="TimesNewRomanPS-BoldMT-34" d="M 159 1597 
L 2172 4325 
L 2553 4325 
L 2553 1597 
L 2941 1597 
L 2941 950 
L 2553 950 
L 2553 0 
L 1694 0 
L 1694 950 
L 159 950 
L 159 1597 
z
M 463 1597 
L 1694 1597 
L 1694 3269 
L 463 1597 
z
" transform="scale(0.015625)"/>
      <path id="TimesNewRomanPS-BoldMT-73" d="M 2063 3003 
L 2109 2006 
L 2003 2006 
Q 1813 2450 1608 2612 
Q 1403 2775 1200 2775 
Q 1072 2775 981 2689 
Q 891 2603 891 2491 
Q 891 2406 953 2328 
Q 1053 2200 1512 1889 
Q 1972 1578 2117 1361 
Q 2263 1144 2263 875 
Q 2263 631 2141 397 
Q 2019 163 1797 37 
Q 1575 -88 1306 -88 
Q 1097 -88 747 44 
Q 653 78 619 78 
Q 516 78 447 -78 
L 344 -78 
L 294 972 
L 400 972 
Q 541 559 786 353 
Q 1031 147 1250 147 
Q 1400 147 1495 239 
Q 1591 331 1591 463 
Q 1591 613 1497 722 
Q 1403 831 1078 1053 
Q 600 1384 459 1559 
Q 253 1816 253 2125 
Q 253 2463 486 2736 
Q 719 3009 1159 3009 
Q 1397 3009 1619 2894 
Q 1703 2847 1756 2847 
Q 1813 2847 1847 2870 
Q 1881 2894 1956 3003 
L 2063 3003 
z
" transform="scale(0.015625)"/>
     </defs>
     <use xlink:href="#TimesNewRomanPS-BoldMT-30"/>
     <use xlink:href="#TimesNewRomanPS-BoldMT-2e" transform="translate(50 0)"/>
     <use xlink:href="#TimesNewRomanPS-BoldMT-37" transform="translate(75 0)"/>
     <use xlink:href="#TimesNewRomanPS-BoldMT-34" transform="translate(125 0)"/>
     <use xlink:href="#TimesNewRomanPS-BoldMT-73" transform="translate(175 0)"/>
    </g>
   </g>
   <g id="text_15">
    <!-- 9.66s -->
    <g style="fill: #333333" transform="translate(191.886286 104.702079) scale(0.095 -0.095)">
     <defs>
      <path id="TimesNewRomanPS-BoldMT-39" d="M 197 -88 
L 197 0 
Q 716 119 1077 350 
Q 1438 581 1648 922 
Q 1859 1263 1944 1706 
Q 1750 1606 1614 1567 
Q 1478 1528 1328 1528 
Q 847 1528 526 1875 
Q 206 2222 206 2825 
Q 206 3244 379 3592 
Q 553 3941 875 4133 
Q 1197 4325 1544 4325 
Q 1916 4325 2247 4112 
Q 2578 3900 2775 3497 
Q 2972 3094 2972 2578 
Q 2972 1909 2651 1296 
Q 2331 684 1697 314 
Q 1063 -56 197 -88 
z
M 1991 1969 
Q 2022 2319 2022 2584 
Q 2022 3153 1891 3644 
Q 1816 3916 1669 4044 
Q 1591 4113 1466 4113 
Q 1309 4113 1222 3978 
Q 1100 3794 1100 3275 
Q 1100 2409 1306 2081 
Q 1441 1869 1669 1869 
Q 1791 1869 1991 1969 
z
" transform="scale(0.015625)"/>
      <path id="TimesNewRomanPS-BoldMT-36" d="M 3006 4325 
L 3006 4238 
Q 2441 4094 2098 3867 
Q 1756 3641 1557 3317 
Q 1359 2994 1250 2516 
Q 1388 2609 1478 2638 
Q 1681 2700 1888 2700 
Q 2363 2700 2680 2354 
Q 2997 2009 2997 1413 
Q 2997 994 2825 644 
Q 2653 294 2337 103 
Q 2022 -88 1663 -88 
Q 1272 -88 940 126 
Q 609 341 423 753 
Q 238 1166 238 1650 
Q 238 2363 580 2977 
Q 922 3591 1551 3955 
Q 2181 4319 3006 4325 
z
M 1209 2263 
Q 1184 1831 1184 1631 
Q 1184 1200 1267 797 
Q 1350 394 1494 231 
Q 1597 116 1738 116 
Q 1881 116 1993 283 
Q 2106 450 2106 963 
Q 2106 1825 1897 2153 
Q 1763 2366 1534 2366 
Q 1409 2366 1209 2263 
z
" transform="scale(0.015625)"/>
     </defs>
     <use xlink:href="#TimesNewRomanPS-BoldMT-39"/>
     <use xlink:href="#TimesNewRomanPS-BoldMT-2e" transform="translate(50 0)"/>
     <use xlink:href="#TimesNewRomanPS-BoldMT-36" transform="translate(75 0)"/>
     <use xlink:href="#TimesNewRomanPS-BoldMT-36" transform="translate(125 0)"/>
     <use xlink:href="#TimesNewRomanPS-BoldMT-73" transform="translate(175 0)"/>
    </g>
   </g>
   <g id="text_16">
    <!-- 13.02s -->
    <g style="fill: #333333" transform="translate(300.106448 32.467082) scale(0.095 -0.095)">
     <defs>
      <path id="TimesNewRomanPS-BoldMT-31" d="M 2084 4325 
L 2084 859 
Q 2084 469 2118 361 
Q 2153 253 2262 184 
Q 2372 116 2613 116 
L 2709 116 
L 2709 0 
L 478 0 
L 478 116 
L 591 116 
Q 863 116 978 178 
Q 1094 241 1134 350 
Q 1175 459 1175 859 
L 1175 3056 
Q 1175 3350 1147 3423 
Q 1119 3497 1042 3548 
Q 966 3600 866 3600 
Q 706 3600 478 3500 
L 422 3613 
L 1981 4325 
L 2084 4325 
z
" transform="scale(0.015625)"/>
      <path id="TimesNewRomanPS-BoldMT-33" d="M 947 2125 
L 947 2234 
Q 1303 2338 1440 2427 
Q 1578 2516 1678 2698 
Q 1778 2881 1778 3069 
Q 1778 3328 1589 3514 
Q 1400 3700 1119 3700 
Q 681 3700 375 3238 
L 259 3278 
Q 484 3800 836 4062 
Q 1188 4325 1619 4325 
Q 2059 4325 2345 4056 
Q 2631 3788 2631 3428 
Q 2631 3194 2498 2976 
Q 2366 2759 2081 2594 
Q 2447 2416 2639 2155 
Q 2831 1894 2831 1500 
Q 2831 838 2351 373 
Q 1872 -91 1066 -91 
Q 528 -91 281 88 
Q 103 213 103 409 
Q 103 553 206 654 
Q 309 756 444 756 
Q 547 756 638 713 
Q 688 688 992 439 
Q 1297 191 1563 191 
Q 1794 191 1959 373 
Q 2125 556 2125 838 
Q 2125 1266 1825 1627 
Q 1525 1988 947 2125 
z
" transform="scale(0.015625)"/>
      <path id="TimesNewRomanPS-BoldMT-32" d="M 2650 0 
L 156 0 
L 156 69 
Q 1303 1434 1548 1906 
Q 1794 2378 1794 2828 
Q 1794 3156 1591 3373 
Q 1388 3591 1094 3591 
Q 613 3591 347 3109 
L 231 3150 
Q 400 3750 744 4037 
Q 1088 4325 1538 4325 
Q 1859 4325 2125 4175 
Q 2391 4025 2541 3764 
Q 2691 3503 2691 3275 
Q 2691 2859 2459 2431 
Q 2144 1853 1081 819 
L 1997 819 
Q 2334 819 2436 847 
Q 2538 875 2603 942 
Q 2669 1009 2775 1225 
L 2888 1225 
L 2650 0 
z
" transform="scale(0.015625)"/>
     </defs>
     <use xlink:href="#TimesNewRomanPS-BoldMT-31"/>
     <use xlink:href="#TimesNewRomanPS-BoldMT-33" transform="translate(50 0)"/>
     <use xlink:href="#TimesNewRomanPS-BoldMT-2e" transform="translate(100 0)"/>
     <use xlink:href="#TimesNewRomanPS-BoldMT-30" transform="translate(125 0)"/>
     <use xlink:href="#TimesNewRomanPS-BoldMT-32" transform="translate(175 0)"/>
     <use xlink:href="#TimesNewRomanPS-BoldMT-73" transform="translate(225 0)"/>
    </g>
   </g>
   <g id="text_17">
    <!-- 11.53s -->
    <g style="fill: #333333" transform="translate(410.962861 60.870873) scale(0.095 -0.095)">
     <defs>
      <path id="TimesNewRomanPS-BoldMT-35" d="M 975 4238 
L 2959 4238 
L 2644 3431 
L 975 3431 
L 816 3009 
Q 1894 2969 2475 2472 
Q 2953 2063 2953 1453 
Q 2953 1063 2731 689 
Q 2509 316 2106 114 
Q 1703 -88 1222 -88 
Q 703 -88 425 106 
Q 231 244 231 419 
Q 231 553 332 656 
Q 434 759 569 759 
Q 691 759 816 709 
Q 941 659 1244 447 
Q 1434 316 1572 266 
Q 1669 228 1791 228 
Q 2047 228 2226 415 
Q 2406 603 2406 866 
Q 2406 1416 1856 1759 
Q 1306 2103 469 2103 
Q 384 2103 216 2100 
L 975 4238 
z
" transform="scale(0.015625)"/>
     </defs>
     <use xlink:href="#TimesNewRomanPS-BoldMT-31"/>
     <use xlink:href="#TimesNewRomanPS-BoldMT-31" transform="translate(44.5 0)"/>
     <use xlink:href="#TimesNewRomanPS-BoldMT-2e" transform="translate(94.5 0)"/>
     <use xlink:href="#TimesNewRomanPS-BoldMT-35" transform="translate(119.5 0)"/>
     <use xlink:href="#TimesNewRomanPS-BoldMT-33" transform="translate(169.5 0)"/>
     <use xlink:href="#TimesNewRomanPS-BoldMT-73" transform="translate(219.5 0)"/>
    </g>
   </g>
   <g id="text_18">
    <!-- 真实场景计算时间对比 -->
    <g transform="translate(197.345156 15.70875) scale(0.12 -0.12)">
     <defs>
      <path id="SimSong-Regular-771f" d="M 486 4550 
L 608 4269 
C 749 4301 973 4314 1286 4314 
L 2931 4314 
C 2906 4141 2880 3949 2848 3744 
L 1760 3744 
C 1632 3814 1523 3866 1414 3904 
C 1427 3789 1440 3616 1440 3392 
L 1440 864 
L 1062 864 
C 717 864 454 883 262 922 
L 384 640 
C 525 672 749 691 1062 691 
L 6035 691 
C 6093 691 6131 717 6131 781 
C 6131 806 6061 890 5946 1024 
C 5818 1152 5722 1222 5670 1222 
C 5645 1222 5587 1171 5498 1075 
C 5408 960 5344 890 5312 864 
L 4896 864 
L 4896 3373 
C 4896 3405 4915 3443 4973 3482 
C 5037 3520 5082 3552 5082 3590 
C 5082 3635 4992 3718 4832 3840 
C 4742 3917 4678 3955 4653 3955 
C 4627 3955 4582 3923 4525 3872 
C 4474 3834 4429 3795 4378 3744 
L 3219 3744 
L 3296 4314 
L 5786 4314 
C 5843 4314 5882 4339 5882 4403 
C 5882 4429 5818 4506 5702 4634 
C 5581 4762 5491 4826 5440 4826 
C 5414 4826 5357 4774 5280 4678 
L 5107 4493 
L 3322 4493 
L 3379 4890 
C 3386 4928 3411 4960 3462 4973 
C 3546 4992 3597 5024 3597 5069 
C 3597 5094 3533 5114 3418 5133 
C 3251 5171 3130 5190 3027 5203 
C 3014 5024 2995 4787 2957 4493 
L 1286 4493 
C 941 4493 678 4512 486 4550 
L 486 4550 
z
M 1805 3040 
L 1805 3565 
L 4499 3565 
L 4499 3040 
L 1805 3040 
z
M 1805 2291 
L 1805 2867 
L 4499 2867 
L 4499 2291 
L 1805 2291 
z
M 1805 1568 
L 1805 2118 
L 4499 2118 
L 4499 1568 
L 1805 1568 
z
M 1805 864 
L 1805 1389 
L 4499 1389 
L 4499 864 
L 1805 864 
z
M 2195 576 
C 2054 384 1811 186 1466 -26 
C 1158 -205 819 -371 416 -531 
L 480 -627 
C 1037 -486 1472 -346 1792 -205 
C 2035 -96 2266 26 2483 166 
C 2496 186 2547 198 2637 198 
C 2714 205 2758 224 2758 262 
C 2758 288 2682 339 2547 403 
L 2547 403 
L 2195 576 
L 2195 576 
z
M 3827 506 
L 3770 416 
C 4256 224 4685 -51 5075 -435 
C 5171 -557 5274 -621 5376 -621 
C 5434 -621 5491 -582 5542 -512 
C 5581 -454 5606 -384 5606 -307 
C 5594 -192 5478 -83 5267 19 
C 4870 211 4397 371 3827 506 
L 3827 506 
z
" transform="scale(0.015625)"/>
      <path id="SimSong-Regular-5b9e" d="M 2739 5229 
L 2669 5158 
C 2886 4966 3040 4730 3142 4448 
C 3162 4371 3200 4314 3238 4269 
L 1203 4269 
C 1203 4346 1210 4429 1210 4525 
L 1094 4557 
C 1050 4307 998 4128 934 4013 
L 928 4013 
C 864 3872 774 3757 659 3661 
C 544 3558 486 3469 486 3398 
C 486 3341 512 3296 550 3258 
C 595 3219 646 3206 698 3206 
C 768 3206 832 3219 896 3258 
C 1005 3334 1088 3469 1139 3661 
C 1165 3763 1184 3910 1197 4090 
L 5325 4090 
C 5235 3789 5139 3520 5037 3290 
L 5126 3226 
C 5331 3430 5523 3642 5715 3872 
C 5766 3923 5837 3955 5926 3968 
C 6003 3974 6054 4006 6054 4058 
C 6054 4122 5978 4224 5850 4352 
C 5715 4486 5626 4557 5574 4557 
C 5542 4557 5498 4525 5446 4461 
L 5267 4269 
L 3578 4269 
L 3597 4288 
C 3629 4346 3654 4422 3654 4512 
C 3654 4627 3578 4749 3443 4864 
C 3302 4986 3072 5107 2739 5229 
L 2739 5229 
z
M 1728 3731 
L 1670 3642 
C 1965 3469 2240 3213 2477 2880 
C 2534 2758 2611 2701 2675 2701 
C 2739 2701 2790 2733 2842 2810 
C 2880 2867 2906 2938 2906 3014 
C 2899 3110 2822 3206 2682 3302 
C 2419 3469 2106 3616 1728 3731 
L 1728 3731 
z
M 3405 787 
C 4045 544 4621 179 5152 -294 
C 5312 -461 5459 -544 5587 -544 
C 5626 -544 5658 -525 5683 -499 
C 5709 -467 5734 -435 5734 -397 
C 5722 -166 5542 38 5222 243 
C 4800 493 4211 704 3469 864 
C 3552 986 3629 1114 3693 1267 
L 5907 1267 
C 5971 1267 6010 1293 6010 1357 
C 6010 1382 5933 1466 5805 1613 
C 5677 1747 5581 1818 5517 1818 
C 5491 1818 5434 1760 5344 1651 
C 5242 1542 5178 1472 5152 1440 
L 3757 1440 
C 3846 1722 3891 2355 3891 3354 
C 3891 3386 3923 3418 3994 3443 
C 4070 3469 4115 3501 4115 3539 
C 4115 3571 4026 3603 3859 3642 
L 3456 3706 
C 3482 3488 3501 3315 3501 3181 
C 3501 2387 3437 1811 3322 1440 
L 1210 1440 
C 864 1440 602 1459 410 1498 
L 531 1216 
C 672 1248 896 1267 1210 1267 
L 3264 1267 
L 3226 1197 
C 3021 826 2726 518 2330 282 
C 1843 -32 1235 -307 493 -557 
L 544 -653 
C 1312 -448 1882 -262 2253 -83 
L 2253 -83 
C 2624 102 2938 314 3181 544 
C 3258 614 3334 698 3405 781 
L 3405 787 
z
M 1402 2803 
L 1344 2714 
C 1638 2534 1901 2266 2131 1920 
C 2195 1786 2266 1728 2323 1728 
C 2387 1728 2445 1760 2496 1837 
C 2528 1888 2554 1958 2554 2042 
C 2547 2144 2470 2246 2336 2349 
C 2080 2528 1773 2682 1402 2803 
L 1402 2803 
z
" transform="scale(0.015625)"/>
      <path id="SimSong-Regular-573a" d="M 288 3597 
L 403 3315 
C 550 3347 774 3366 1088 3366 
L 1274 3366 
L 1274 1222 
C 966 1152 634 1082 288 1024 
L 448 627 
C 499 493 557 429 608 429 
C 621 429 646 454 672 518 
C 672 557 678 582 685 608 
C 685 653 736 691 864 717 
C 1555 947 2176 1235 2726 1574 
L 2694 1632 
C 2362 1517 2016 1408 1670 1318 
L 1670 3366 
L 2618 3366 
C 2669 3366 2707 3392 2707 3456 
C 2707 3482 2643 3552 2534 3674 
C 2419 3789 2336 3853 2285 3853 
C 2266 3853 2214 3808 2138 3725 
C 2048 3622 1997 3565 1971 3539 
L 1670 3539 
L 1670 4851 
C 1670 4902 1696 4941 1773 4966 
C 1882 4998 1946 5043 1946 5101 
C 1946 5126 1869 5152 1734 5171 
C 1542 5197 1389 5216 1248 5229 
C 1261 5069 1274 4890 1274 4691 
L 1274 3539 
L 1088 3539 
C 742 3539 480 3558 288 3597 
L 288 3597 
z
M 2522 4749 
L 2669 4448 
C 2816 4493 2963 4518 3117 4518 
L 4621 4518 
L 3162 3168 
C 3059 3059 2912 2950 2720 2835 
C 2630 2784 2586 2739 2586 2701 
C 2586 2650 2643 2586 2746 2509 
C 2797 2470 2854 2451 2906 2451 
C 2950 2451 3040 2502 3174 2618 
L 3635 2618 
C 3392 2074 3104 1600 2758 1190 
C 2406 787 2029 461 1613 205 
L 1651 122 
C 1997 269 2298 435 2573 640 
C 2854 845 3098 1088 3315 1357 
C 3558 1658 3808 2080 4051 2618 
L 4595 2618 
C 4442 2093 4269 1670 4064 1338 
C 3846 992 3590 685 3296 422 
C 2912 77 2502 -224 2067 -480 
L 2112 -550 
C 2592 -352 3002 -134 3354 109 
C 3680 326 3942 557 4134 806 
C 4339 1043 4518 1312 4659 1613 
L 4653 1613 
C 4781 1856 4902 2189 5011 2618 
L 5382 2618 
C 5344 1088 5274 262 5158 147 
C 5094 58 5018 19 4915 19 
C 4698 19 4390 51 3994 128 
L 3962 6 
L 4429 -109 
C 4544 -147 4608 -230 4634 -358 
C 4672 -480 4762 -544 4877 -544 
C 5082 -544 5261 -467 5402 -314 
C 5542 -141 5638 141 5683 550 
L 5811 2355 
C 5818 2406 5843 2445 5894 2477 
C 6010 2534 6080 2592 6080 2643 
C 6080 2694 6042 2746 5984 2790 
C 5754 2931 5606 3002 5530 3002 
C 5504 3002 5414 2918 5286 2765 
L 3238 2765 
L 4845 4179 
C 4902 4237 4986 4288 5094 4326 
C 5261 4358 5357 4403 5357 4467 
C 5357 4506 5318 4557 5267 4621 
C 5088 4787 4966 4877 4896 4877 
C 4838 4877 4742 4813 4621 4691 
L 3053 4691 
C 2899 4691 2726 4710 2515 4749 
L 2522 4749 
z
" transform="scale(0.015625)"/>
      <path id="SimSong-Regular-666f" d="M 1126 5126 
C 1139 4960 1152 4800 1152 4634 
L 1152 3603 
C 1152 3482 1139 3360 1126 3238 
C 1126 3162 1178 3130 1254 3130 
C 1312 3130 1382 3136 1466 3162 
C 1510 3181 1542 3206 1542 3238 
L 1542 3341 
L 2797 3341 
C 2912 3232 2989 3098 3053 2944 
C 3066 2880 3098 2829 3130 2790 
L 1062 2790 
C 717 2790 454 2810 262 2848 
L 384 2566 
C 525 2598 749 2618 1062 2618 
L 6086 2618 
C 6144 2618 6182 2643 6182 2701 
C 6182 2726 6112 2810 5997 2950 
C 5869 3078 5773 3149 5722 3149 
C 5696 3149 5638 3098 5549 2995 
C 5459 2886 5395 2816 5363 2790 
L 3443 2790 
L 3450 2797 
C 3482 2848 3507 2918 3507 2995 
C 3507 3072 3450 3142 3347 3213 
C 3283 3251 3200 3290 3091 3341 
L 4698 3341 
L 4698 3238 
C 4698 3162 4742 3130 4806 3130 
C 4870 3130 4947 3136 5037 3162 
C 5088 3181 5126 3206 5126 3245 
C 5101 3424 5094 3565 5094 3680 
L 5094 4589 
C 5094 4634 5114 4672 5165 4710 
C 5216 4749 5254 4794 5254 4832 
C 5254 4864 5190 4928 5088 5018 
C 4973 5107 4902 5152 4864 5152 
C 4832 5152 4787 5126 4742 5082 
C 4691 5024 4646 4966 4595 4915 
L 1581 4915 
C 1427 4998 1280 5069 1126 5126 
L 1126 5126 
z
M 1542 4243 
L 1542 4742 
L 4698 4742 
L 4698 4243 
L 1542 4243 
z
M 1542 3514 
L 1542 4064 
L 4698 4064 
L 4698 3514 
L 1542 3514 
z
M 1286 2304 
C 1299 2150 1312 1997 1312 1843 
L 1312 1325 
C 1312 1203 1299 1088 1286 979 
C 1286 909 1338 877 1414 877 
C 1466 877 1530 883 1606 909 
C 1651 922 1683 947 1683 979 
L 1683 1069 
L 2938 1069 
L 2938 32 
C 2938 -51 2893 -96 2778 -96 
C 2675 -96 2438 -83 2054 -70 
L 2035 -173 
C 2445 -250 2650 -339 2682 -435 
C 2688 -538 2746 -595 2822 -595 
C 2886 -595 2976 -570 3104 -525 
C 3264 -454 3354 -346 3354 -205 
L 3354 1069 
L 4589 1069 
L 4589 954 
C 4589 883 4627 851 4685 851 
C 4749 851 4819 858 4909 883 
C 4954 902 4986 928 4986 966 
C 4960 1133 4954 1267 4954 1370 
L 4954 1805 
C 4954 1843 4966 1882 5005 1914 
C 5050 1952 5082 1984 5082 2022 
C 5082 2054 5024 2112 4928 2195 
C 4813 2285 4742 2330 4710 2330 
C 4678 2330 4640 2304 4602 2259 
C 4550 2208 4506 2163 4454 2118 
L 1690 2118 
C 1562 2195 1427 2253 1286 2304 
L 1286 2304 
z
M 1683 1242 
L 1683 1939 
L 4589 1939 
L 4589 1242 
L 1683 1242 
z
M 1869 781 
C 1536 397 998 45 243 -275 
L 301 -352 
C 742 -230 1094 -109 1363 6 
C 1664 134 1939 275 2195 435 
C 2208 454 2246 467 2310 467 
C 2368 474 2406 493 2406 525 
C 2406 550 2336 589 2214 640 
C 2112 678 1997 723 1869 781 
L 1869 781 
z
M 3853 678 
L 3795 589 
C 4326 416 4787 160 5210 -179 
C 5338 -288 5453 -346 5542 -346 
C 5594 -346 5632 -320 5670 -282 
C 5709 -243 5734 -198 5734 -147 
C 5722 -6 5587 128 5338 262 
L 5338 262 
C 4979 429 4486 570 3853 678 
L 3853 678 
z
" transform="scale(0.015625)"/>
      <path id="SimSong-Regular-5bf9" d="M 4550 5178 
C 4563 5018 4576 4832 4576 4627 
L 4576 3616 
L 3590 3616 
C 3245 3616 2982 3635 2790 3674 
L 2906 3392 
C 3046 3424 3270 3443 3590 3443 
L 4576 3443 
L 4576 83 
C 4576 19 4570 -13 4550 -32 
C 4512 -58 4461 -70 4397 -70 
C 4230 -70 3968 -26 3597 51 
L 3565 -51 
C 4000 -166 4205 -288 4224 -410 
C 4224 -550 4288 -621 4378 -621 
C 4454 -621 4570 -582 4736 -512 
C 4883 -448 4966 -307 4966 -83 
L 4966 3443 
L 5971 3443 
C 6022 3443 6054 3469 6054 3526 
C 6054 3552 5990 3622 5882 3750 
C 5773 3866 5690 3930 5638 3930 
C 5613 3930 5562 3885 5485 3795 
C 5402 3699 5344 3642 5318 3616 
L 4966 3616 
L 4966 4806 
C 4966 4864 4992 4902 5069 4928 
C 5165 4954 5222 4992 5222 5056 
C 5222 5082 5146 5107 5018 5126 
L 4550 5178 
L 4550 5178 
z
M 749 3776 
L 691 3744 
C 1062 3194 1357 2630 1600 2048 
C 1472 1734 1338 1446 1184 1184 
C 934 762 614 339 218 -90 
L 275 -179 
C 845 243 1312 762 1690 1382 
C 1722 1434 1754 1498 1786 1549 
C 1901 1210 1997 851 2067 480 
C 2093 314 2182 230 2298 230 
C 2342 230 2381 250 2419 301 
C 2458 339 2483 397 2483 467 
C 2483 877 2355 1350 2112 1888 
L 2035 2048 
C 2266 2586 2458 3251 2624 4032 
C 2637 4064 2675 4096 2752 4128 
C 2816 4154 2854 4186 2854 4224 
C 2854 4262 2771 4346 2630 4461 
C 2502 4550 2426 4602 2400 4602 
C 2362 4602 2310 4576 2259 4531 
L 2106 4390 
L 1222 4390 
C 902 4390 627 4410 384 4448 
L 506 4166 
C 698 4198 928 4218 1222 4218 
L 2189 4218 
C 2106 3616 1971 3066 1792 2566 
C 1779 2534 1779 2509 1766 2490 
C 1517 2874 1178 3302 755 3776 
L 749 3776 
z
M 2982 2752 
L 2912 2688 
C 3066 2381 3174 1997 3251 1542 
C 3296 1382 3386 1306 3501 1306 
C 3552 1306 3597 1331 3648 1395 
C 3680 1446 3706 1517 3706 1600 
C 3706 1792 3642 1984 3539 2170 
C 3424 2362 3245 2554 2982 2752 
L 2982 2752 
z
" transform="scale(0.015625)"/>
      <path id="SimSong-Regular-6bd4" d="M 3424 5178 
C 3437 5050 3450 4915 3450 4781 
L 3450 160 
C 3450 19 3475 -70 3520 -128 
C 3571 -198 3661 -250 3782 -275 
C 3949 -301 4333 -320 4934 -320 
C 5286 -320 5574 -307 5798 -282 
C 5926 -262 6016 -243 6086 -224 
C 6157 -173 6208 -109 6208 -26 
C 6208 58 6131 128 6010 179 
C 5914 243 5882 314 5869 416 
C 5856 525 5843 806 5830 1254 
L 5722 1280 
C 5658 768 5613 461 5587 365 
C 5562 224 5517 122 5414 64 
C 5306 26 5139 6 4934 6 
C 4512 6 4198 13 3994 38 
C 3891 58 3846 134 3846 262 
L 3846 2650 
C 4659 2957 5306 3283 5786 3616 
L 5914 3597 
C 5952 3597 5978 3616 5984 3654 
C 5984 3686 5920 3738 5811 3802 
L 5434 4006 
C 5005 3526 4474 3110 3846 2771 
L 3846 4806 
C 3846 4858 3872 4896 3949 4922 
C 4045 4954 4102 4998 4102 5056 
C 4102 5082 4026 5107 3898 5120 
C 3712 5146 3558 5165 3424 5178 
L 3424 5178 
z
M 979 5107 
C 1005 4979 1024 4794 1024 4550 
L 1024 352 
C 1024 237 1005 147 954 83 
C 915 51 890 19 890 -13 
C 890 -64 966 -154 1114 -294 
C 1165 -346 1216 -371 1261 -371 
C 1306 -365 1344 -326 1376 -256 
C 1434 -154 1530 -77 1645 -32 
L 3098 678 
L 3053 755 
L 1421 192 
L 1421 2867 
L 3162 2867 
C 3219 2867 3258 2893 3258 2957 
C 3258 2976 3194 3034 3091 3136 
C 2925 3290 2822 3366 2790 3366 
C 2758 3366 2694 3315 2605 3226 
C 2515 3123 2458 3066 2432 3040 
L 1421 3040 
L 1421 4710 
C 1427 4787 1446 4832 1510 4858 
C 1606 4890 1670 4934 1670 4992 
C 1670 5024 1626 5043 1555 5056 
L 979 5107 
L 979 5107 
z
" transform="scale(0.015625)"/>
     </defs>
     <use xlink:href="#SimSong-Regular-771f"/>
     <use xlink:href="#SimSong-Regular-5b9e" transform="translate(99.999985 0)"/>
     <use xlink:href="#SimSong-Regular-573a" transform="translate(199.999969 0)"/>
     <use xlink:href="#SimSong-Regular-666f" transform="translate(299.999954 0)"/>
     <use xlink:href="#SimSong-Regular-8ba1" transform="translate(399.999939 0)"/>
     <use xlink:href="#SimSong-Regular-7b97" transform="translate(499.999924 0)"/>
     <use xlink:href="#SimSong-Regular-65f6" transform="translate(599.999908 0)"/>
     <use xlink:href="#SimSong-Regular-95f4" transform="translate(699.999893 0)"/>
     <use xlink:href="#SimSong-Regular-5bf9" transform="translate(799.999878 0)"/>
     <use xlink:href="#SimSong-Regular-6bd4" transform="translate(899.999863 0)"/>
    </g>
   </g>
   <g id="LineCollection_1">
    <path d="M 91.452412 302.607205 
L 91.452412 296.638227 
" clip-path="url(#pce25ec6a3e)" style="fill: none; stroke: #555555; stroke-width: 1.2"/>
    <path d="M 202.047575 143.526006 
L 202.047575 109.763926 
" clip-path="url(#pce25ec6a3e)" style="fill: none; stroke: #555555; stroke-width: 1.2"/>
    <path d="M 312.642738 85.379819 
L 312.642738 37.528929 
" clip-path="url(#pce25ec6a3e)" style="fill: none; stroke: #555555; stroke-width: 1.2"/>
    <path d="M 423.2379 114.759365 
L 423.2379 65.93272 
" clip-path="url(#pce25ec6a3e)" style="fill: none; stroke: #555555; stroke-width: 1.2"/>
   </g>
   <g id="line2d_21">
    <defs>
     <path id="m7adda621e0" d="M 5 0 
L -5 -0 
" style="stroke: #555555; stroke-width: 1.2"/>
    </defs>
    <g clip-path="url(#pce25ec6a3e)">
     <use xlink:href="#m7adda621e0" x="91.452412" y="302.607205" style="fill: #1f77b4; stroke: #555555; stroke-width: 1.2"/>
     <use xlink:href="#m7adda621e0" x="202.047575" y="143.526006" style="fill: #1f77b4; stroke: #555555; stroke-width: 1.2"/>
     <use xlink:href="#m7adda621e0" x="312.642738" y="85.379819" style="fill: #1f77b4; stroke: #555555; stroke-width: 1.2"/>
     <use xlink:href="#m7adda621e0" x="423.2379" y="114.759365" style="fill: #1f77b4; stroke: #555555; stroke-width: 1.2"/>
    </g>
   </g>
   <g id="line2d_22">
    <g clip-path="url(#pce25ec6a3e)">
     <use xlink:href="#m7adda621e0" x="91.452412" y="296.638227" style="fill: #1f77b4; stroke: #555555; stroke-width: 1.2"/>
     <use xlink:href="#m7adda621e0" x="202.047575" y="109.763926" style="fill: #1f77b4; stroke: #555555; stroke-width: 1.2"/>
     <use xlink:href="#m7adda621e0" x="312.642738" y="37.528929" style="fill: #1f77b4; stroke: #555555; stroke-width: 1.2"/>
     <use xlink:href="#m7adda621e0" x="423.2379" y="65.93272" style="fill: #1f77b4; stroke: #555555; stroke-width: 1.2"/>
    </g>
   </g>
  </g>
 </g>
 <defs>
  <clipPath id="pce25ec6a3e">
   <rect x="39.583281" y="23.70875" width="435.52375" height="290.22375"/>
  </clipPath>
 </defs>
</svg>
