<?xml version="1.0" encoding="utf-8" standalone="no"?>
<!DOCTYPE svg PUBLIC "-//W3C//DTD SVG 1.1//EN"
  "http://www.w3.org/Graphics/SVG/1.1/DTD/svg11.dtd">
<svg xmlns:xlink="http://www.w3.org/1999/xlink" width="510.808125pt" height="380.078437pt" viewBox="0 0 510.808125 380.078437" xmlns="http://www.w3.org/2000/svg" version="1.1">
 <metadata>
  <rdf:RDF xmlns:dc="http://purl.org/dc/elements/1.1/" xmlns:cc="http://creativecommons.org/ns#" xmlns:rdf="http://www.w3.org/1999/02/22-rdf-syntax-ns#">
   <cc:Work>
    <dc:type rdf:resource="http://purl.org/dc/dcmitype/StillImage"/>
    <dc:date>2026-04-09T00:44:13.688554</dc:date>
    <dc:format>image/svg+xml</dc:format>
    <dc:creator>
     <cc:Agent>
      <dc:title>Matplotlib v3.10.8, https://matplotlib.org/</dc:title>
     </cc:Agent>
    </dc:creator>
   </cc:Work>
  </rdf:RDF>
 </metadata>
 <defs>
  <style type="text/css">*{stroke-linejoin: round; stroke-linecap: butt}</style>
 </defs>
 <g id="figure_1">
  <g id="patch_1">
   <path d="M 0 380.078437 
L 510.808125 380.078437 
L 510.808125 0 
L 0 0 
z
" style="fill: #ffffff"/>
  </g>
  <g id="axes_1">
   <g id="patch_2">
    <path d="M 48.509375 342.526875 
L 503.608125 342.526875 
L 503.608125 10.671875 
L 48.509375 10.671875 
z
" style="fill: #ffffff"/>
   </g>
   <g id="matplotlib.axis_1">
    <g id="xtick_1">
     <g id="line2d_1">
      <path d="M 69.195682 342.526875 
L 69.195682 10.671875 
" clip-path="url(#p781349c875)" style="fill: none; stroke: #b0b0b0; stroke-opacity: 0.3; stroke-width: 0.8; stroke-linecap: square"/>
     </g>
     <g id="line2d_2">
      <defs>
       <path id="md324460ad0" d="M 0 0 
L 0 3.5 
" style="stroke: #000000; stroke-width: 0.8"/>
      </defs>
      <g>
       <use xlink:href="#md324460ad0" x="69.195682" y="342.526875" style="stroke: #000000; stroke-width: 0.8"/>
      </g>
     </g>
     <g id="text_1">
      <!-- 0 -->
      <g transform="translate(66.695682 356.470625) scale(0.1 -0.1)">
       <defs>
        <path id="TimesNewRomanPSMT-30" d="M 231 2094 
Q 231 2819 450 3342 
Q 669 3866 1031 4122 
Q 1313 4325 1613 4325 
Q 2100 4325 2488 3828 
Q 2972 3213 2972 2159 
Q 2972 1422 2759 906 
Q 2547 391 2217 158 
Q 1888 -75 1581 -75 
Q 975 -75 572 641 
Q 231 1244 231 2094 
z
M 844 2016 
Q 844 1141 1059 588 
Q 1238 122 1591 122 
Q 1759 122 1940 273 
Q 2122 425 2216 781 
Q 2359 1319 2359 2297 
Q 2359 3022 2209 3506 
Q 2097 3866 1919 4016 
Q 1791 4119 1609 4119 
Q 1397 4119 1231 3928 
Q 1006 3669 925 3112 
Q 844 2556 844 2016 
z
" transform="scale(0.015625)"/>
       </defs>
       <use xlink:href="#TimesNewRomanPSMT-30"/>
      </g>
     </g>
    </g>
    <g id="xtick_2">
     <g id="line2d_3">
      <path d="M 151.940909 342.526875 
L 151.940909 10.671875 
" clip-path="url(#p781349c875)" style="fill: none; stroke: #b0b0b0; stroke-opacity: 0.3; stroke-width: 0.8; stroke-linecap: square"/>
     </g>
     <g id="line2d_4">
      <g>
       <use xlink:href="#md324460ad0" x="151.940909" y="342.526875" style="stroke: #000000; stroke-width: 0.8"/>
      </g>
     </g>
     <g id="text_2">
      <!-- 10 -->
      <g transform="translate(146.940909 356.470625) scale(0.1 -0.1)">
       <defs>
        <path id="TimesNewRomanPSMT-31" d="M 750 3822 
L 1781 4325 
L 1884 4325 
L 1884 747 
Q 1884 391 1914 303 
Q 1944 216 2037 169 
Q 2131 122 2419 116 
L 2419 0 
L 825 0 
L 825 116 
Q 1125 122 1212 167 
Q 1300 213 1334 289 
Q 1369 366 1369 747 
L 1369 3034 
Q 1369 3497 1338 3628 
Q 1316 3728 1258 3775 
Q 1200 3822 1119 3822 
Q 1003 3822 797 3725 
L 750 3822 
z
" transform="scale(0.015625)"/>
       </defs>
       <use xlink:href="#TimesNewRomanPSMT-31"/>
       <use xlink:href="#TimesNewRomanPSMT-30" transform="translate(50 0)"/>
      </g>
     </g>
    </g>
    <g id="xtick_3">
     <g id="line2d_5">
      <path d="M 234.686136 342.526875 
L 234.686136 10.671875 
" clip-path="url(#p781349c875)" style="fill: none; stroke: #b0b0b0; stroke-opacity: 0.3; stroke-width: 0.8; stroke-linecap: square"/>
     </g>
     <g id="line2d_6">
      <g>
       <use xlink:href="#md324460ad0" x="234.686136" y="342.526875" style="stroke: #000000; stroke-width: 0.8"/>
      </g>
     </g>
     <g id="text_3">
      <!-- 20 -->
      <g transform="translate(229.686136 356.470625) scale(0.1 -0.1)">
       <defs>
        <path id="TimesNewRomanPSMT-32" d="M 2934 816 
L 2638 0 
L 138 0 
L 138 116 
Q 1241 1122 1691 1759 
Q 2141 2397 2141 2925 
Q 2141 3328 1894 3587 
Q 1647 3847 1303 3847 
Q 991 3847 742 3664 
Q 494 3481 375 3128 
L 259 3128 
Q 338 3706 661 4015 
Q 984 4325 1469 4325 
Q 1984 4325 2329 3994 
Q 2675 3663 2675 3213 
Q 2675 2891 2525 2569 
Q 2294 2063 1775 1497 
Q 997 647 803 472 
L 1909 472 
Q 2247 472 2383 497 
Q 2519 522 2628 598 
Q 2738 675 2819 816 
L 2934 816 
z
" transform="scale(0.015625)"/>
       </defs>
       <use xlink:href="#TimesNewRomanPSMT-32"/>
       <use xlink:href="#TimesNewRomanPSMT-30" transform="translate(50 0)"/>
      </g>
     </g>
    </g>
    <g id="xtick_4">
     <g id="line2d_7">
      <path d="M 317.431364 342.526875 
L 317.431364 10.671875 
" clip-path="url(#p781349c875)" style="fill: none; stroke: #b0b0b0; stroke-opacity: 0.3; stroke-width: 0.8; stroke-linecap: square"/>
     </g>
     <g id="line2d_8">
      <g>
       <use xlink:href="#md324460ad0" x="317.431364" y="342.526875" style="stroke: #000000; stroke-width: 0.8"/>
      </g>
     </g>
     <g id="text_4">
      <!-- 30 -->
      <g transform="translate(312.431364 356.470625) scale(0.1 -0.1)">
       <defs>
        <path id="TimesNewRomanPSMT-33" d="M 325 3431 
Q 506 3859 782 4092 
Q 1059 4325 1472 4325 
Q 1981 4325 2253 3994 
Q 2459 3747 2459 3466 
Q 2459 3003 1878 2509 
Q 2269 2356 2469 2072 
Q 2669 1788 2669 1403 
Q 2669 853 2319 450 
Q 1863 -75 997 -75 
Q 569 -75 414 31 
Q 259 138 259 259 
Q 259 350 332 419 
Q 406 488 509 488 
Q 588 488 669 463 
Q 722 447 909 348 
Q 1097 250 1169 231 
Q 1284 197 1416 197 
Q 1734 197 1970 444 
Q 2206 691 2206 1028 
Q 2206 1275 2097 1509 
Q 2016 1684 1919 1775 
Q 1784 1900 1550 2001 
Q 1316 2103 1072 2103 
L 972 2103 
L 972 2197 
Q 1219 2228 1467 2375 
Q 1716 2522 1828 2728 
Q 1941 2934 1941 3181 
Q 1941 3503 1739 3701 
Q 1538 3900 1238 3900 
Q 753 3900 428 3381 
L 325 3431 
z
" transform="scale(0.015625)"/>
       </defs>
       <use xlink:href="#TimesNewRomanPSMT-33"/>
       <use xlink:href="#TimesNewRomanPSMT-30" transform="translate(50 0)"/>
      </g>
     </g>
    </g>
    <g id="xtick_5">
     <g id="line2d_9">
      <path d="M 400.176591 342.526875 
L 400.176591 10.671875 
" clip-path="url(#p781349c875)" style="fill: none; stroke: #b0b0b0; stroke-opacity: 0.3; stroke-width: 0.8; stroke-linecap: square"/>
     </g>
     <g id="line2d_10">
      <g>
       <use xlink:href="#md324460ad0" x="400.176591" y="342.526875" style="stroke: #000000; stroke-width: 0.8"/>
      </g>
     </g>
     <g id="text_5">
      <!-- 40 -->
      <g transform="translate(395.176591 356.470625) scale(0.1 -0.1)">
       <defs>
        <path id="TimesNewRomanPSMT-34" d="M 2978 1563 
L 2978 1119 
L 2409 1119 
L 2409 0 
L 1894 0 
L 1894 1119 
L 100 1119 
L 100 1519 
L 2066 4325 
L 2409 4325 
L 2409 1563 
L 2978 1563 
z
M 1894 1563 
L 1894 3666 
L 406 1563 
L 1894 1563 
z
" transform="scale(0.015625)"/>
       </defs>
       <use xlink:href="#TimesNewRomanPSMT-34"/>
       <use xlink:href="#TimesNewRomanPSMT-30" transform="translate(50 0)"/>
      </g>
     </g>
    </g>
    <g id="xtick_6">
     <g id="line2d_11">
      <path d="M 482.921818 342.526875 
L 482.921818 10.671875 
" clip-path="url(#p781349c875)" style="fill: none; stroke: #b0b0b0; stroke-opacity: 0.3; stroke-width: 0.8; stroke-linecap: square"/>
     </g>
     <g id="line2d_12">
      <g>
       <use xlink:href="#md324460ad0" x="482.921818" y="342.526875" style="stroke: #000000; stroke-width: 0.8"/>
      </g>
     </g>
     <g id="text_6">
      <!-- 50 -->
      <g transform="translate(477.921818 356.470625) scale(0.1 -0.1)">
       <defs>
        <path id="TimesNewRomanPSMT-35" d="M 2778 4238 
L 2534 3706 
L 1259 3706 
L 981 3138 
Q 1809 3016 2294 2522 
Q 2709 2097 2709 1522 
Q 2709 1188 2573 903 
Q 2438 619 2231 419 
Q 2025 219 1772 97 
Q 1413 -75 1034 -75 
Q 653 -75 479 54 
Q 306 184 306 341 
Q 306 428 378 495 
Q 450 563 559 563 
Q 641 563 702 538 
Q 763 513 909 409 
Q 1144 247 1384 247 
Q 1750 247 2026 523 
Q 2303 800 2303 1197 
Q 2303 1581 2056 1914 
Q 1809 2247 1375 2428 
Q 1034 2569 447 2591 
L 1259 4238 
L 2778 4238 
z
" transform="scale(0.015625)"/>
       </defs>
       <use xlink:href="#TimesNewRomanPSMT-35"/>
       <use xlink:href="#TimesNewRomanPSMT-30" transform="translate(50 0)"/>
      </g>
     </g>
    </g>
    <g id="text_7">
     <!-- 时间 (s) -->
     <g transform="translate(259.532969 370.739375) scale(0.1 -0.1)">
      <defs>
       <path id="SimSong-Regular-65f6" d="M 2534 3674 
L 2656 3392 
C 2797 3424 3021 3443 3334 3443 
L 4672 3443 
L 4672 134 
C 4672 70 4666 32 4653 19 
C 4614 -6 4563 -19 4493 -19 
C 4301 -19 3987 13 3552 77 
L 3514 -26 
C 4064 -141 4339 -256 4365 -371 
C 4371 -499 4442 -570 4550 -570 
C 4621 -570 4723 -531 4864 -467 
L 4864 -467 
C 4992 -403 5069 -256 5069 -32 
L 5069 3443 
L 6061 3443 
C 6118 3443 6157 3469 6157 3526 
C 6157 3552 6086 3635 5971 3770 
C 5843 3904 5747 3974 5696 3974 
C 5670 3974 5613 3923 5523 3821 
C 5434 3712 5370 3642 5338 3616 
L 5069 3616 
L 5069 4832 
C 5069 4890 5094 4928 5171 4954 
C 5267 4979 5325 5018 5325 5082 
C 5325 5107 5248 5126 5120 5152 
L 4653 5203 
C 4666 5043 4672 4858 4672 4653 
L 4672 3616 
L 3334 3616 
C 2989 3616 2726 3635 2534 3674 
L 2534 3674 
z
M 659 4678 
C 672 4448 685 4256 685 4102 
L 685 742 
C 685 557 672 346 659 102 
C 659 38 710 6 787 6 
C 838 6 902 13 973 38 
C 1024 58 1056 83 1056 122 
L 1056 717 
L 1984 717 
L 1984 256 
C 1984 186 2022 154 2086 154 
C 2150 154 2221 160 2317 186 
C 2355 211 2387 237 2387 275 
L 2355 890 
L 2355 4224 
C 2355 4256 2362 4288 2394 4320 
C 2432 4358 2458 4390 2458 4422 
C 2458 4454 2394 4518 2285 4614 
C 2189 4691 2125 4730 2093 4730 
C 2067 4730 2016 4704 1965 4653 
C 1914 4608 1862 4563 1798 4518 
L 1018 4518 
C 909 4582 794 4634 659 4678 
L 659 4678 
z
M 1056 2765 
L 1056 4339 
L 1984 4339 
L 1984 2765 
L 1056 2765 
z
M 3008 2829 
L 2944 2765 
C 3213 2419 3411 1984 3552 1466 
C 3590 1306 3686 1229 3802 1229 
C 3846 1229 3891 1261 3936 1325 
C 3974 1389 4006 1453 4006 1523 
C 4006 1722 3917 1926 3763 2144 
C 3616 2362 3366 2586 3008 2829 
L 3008 2829 
z
M 1056 890 
L 1056 2592 
L 1984 2592 
L 1984 890 
L 1056 890 
z
" transform="scale(0.015625)"/>
       <path id="SimSong-Regular-95f4" d="M 1280 5152 
L 1216 5094 
C 1434 4902 1594 4659 1702 4365 
C 1741 4205 1837 4128 1952 4128 
C 1997 4128 2048 4160 2099 4224 
C 2131 4275 2157 4339 2157 4422 
C 2157 4544 2086 4666 1958 4787 
C 1818 4902 1594 5024 1280 5152 
L 1280 5152 
z
M 2464 4621 
L 2579 4339 
C 2771 4371 2995 4390 3264 4390 
L 5197 4390 
L 5197 102 
C 5197 58 5184 13 5139 -45 
C 5088 -58 5024 -70 4947 -70 
C 4877 -70 4672 -45 4314 6 
L 4282 -96 
C 4653 -211 4832 -314 4845 -410 
C 4858 -531 4902 -595 4947 -595 
C 5050 -595 5178 -550 5331 -474 
C 5498 -384 5594 -224 5594 6 
L 5594 4243 
C 5594 4282 5619 4314 5683 4346 
L 5683 4346 
C 5741 4371 5779 4416 5779 4467 
C 5779 4499 5709 4570 5587 4672 
C 5485 4762 5414 4806 5370 4806 
C 5338 4806 5280 4762 5210 4678 
C 5184 4646 5146 4608 5107 4570 
L 3264 4570 
C 2950 4570 2688 4582 2464 4621 
L 2464 4621 
z
M 774 4429 
C 787 4250 800 4038 800 3795 
L 800 211 
C 800 19 787 -186 774 -416 
C 781 -480 832 -518 909 -518 
C 973 -518 1050 -506 1146 -493 
C 1190 -467 1222 -435 1222 -397 
C 1203 -166 1197 32 1197 211 
L 1197 4051 
C 1197 4102 1222 4141 1293 4166 
C 1395 4192 1453 4237 1453 4301 
C 1453 4326 1376 4346 1248 4371 
L 774 4429 
L 774 4429 
z
M 2061 3654 
C 2074 3501 2086 3347 2086 3194 
L 2086 845 
C 2086 730 2074 614 2061 506 
C 2061 435 2112 403 2189 403 
C 2240 403 2304 410 2381 435 
C 2426 448 2458 474 2458 506 
L 2458 819 
L 3962 819 
L 3962 506 
C 3962 435 4000 403 4064 403 
C 4122 403 4192 410 4282 435 
C 4333 454 4365 480 4365 518 
C 4339 685 4333 819 4333 922 
L 4333 3155 
C 4333 3194 4352 3232 4403 3264 
C 4467 3302 4506 3334 4506 3373 
C 4506 3405 4448 3462 4352 3546 
C 4237 3635 4166 3680 4134 3680 
C 4109 3680 4064 3654 4026 3603 
C 3974 3546 3930 3494 3878 3443 
L 2509 3443 
C 2355 3533 2214 3603 2061 3654 
L 2061 3654 
z
M 2458 2240 
L 2458 3264 
L 3962 3264 
L 3962 2240 
L 2458 2240 
z
M 2458 992 
L 2458 2067 
L 3962 2067 
L 3962 992 
L 2458 992 
z
" transform="scale(0.015625)"/>
       <path id="TimesNewRomanPSMT-20" transform="scale(0.015625)"/>
       <path id="TimesNewRomanPSMT-28" d="M 1988 -1253 
L 1988 -1369 
Q 1516 -1131 1200 -813 
Q 750 -359 506 256 
Q 263 872 263 1534 
Q 263 2503 741 3301 
Q 1219 4100 1988 4444 
L 1988 4313 
Q 1603 4100 1356 3731 
Q 1109 3363 987 2797 
Q 866 2231 866 1616 
Q 866 947 969 400 
Q 1050 -31 1165 -292 
Q 1281 -553 1476 -793 
Q 1672 -1034 1988 -1253 
z
" transform="scale(0.015625)"/>
       <path id="TimesNewRomanPSMT-73" d="M 2050 2947 
L 2050 1972 
L 1947 1972 
Q 1828 2431 1642 2597 
Q 1456 2763 1169 2763 
Q 950 2763 815 2647 
Q 681 2531 681 2391 
Q 681 2216 781 2091 
Q 878 1963 1175 1819 
L 1631 1597 
Q 2266 1288 2266 781 
Q 2266 391 1970 151 
Q 1675 -88 1309 -88 
Q 1047 -88 709 6 
Q 606 38 541 38 
Q 469 38 428 -44 
L 325 -44 
L 325 978 
L 428 978 
Q 516 541 762 319 
Q 1009 97 1316 97 
Q 1531 97 1667 223 
Q 1803 350 1803 528 
Q 1803 744 1651 891 
Q 1500 1038 1047 1263 
Q 594 1488 453 1669 
Q 313 1847 313 2119 
Q 313 2472 555 2709 
Q 797 2947 1181 2947 
Q 1350 2947 1591 2875 
Q 1750 2828 1803 2828 
Q 1853 2828 1881 2850 
Q 1909 2872 1947 2947 
L 2050 2947 
z
" transform="scale(0.015625)"/>
       <path id="TimesNewRomanPSMT-29" d="M 144 4313 
L 144 4444 
Q 619 4209 934 3891 
Q 1381 3434 1625 2820 
Q 1869 2206 1869 1541 
Q 1869 572 1392 -226 
Q 916 -1025 144 -1369 
L 144 -1253 
Q 528 -1038 776 -670 
Q 1025 -303 1145 264 
Q 1266 831 1266 1447 
Q 1266 2113 1163 2663 
Q 1084 3094 967 3353 
Q 850 3613 656 3853 
Q 463 4094 144 4313 
z
" transform="scale(0.015625)"/>
      </defs>
      <use xlink:href="#SimSong-Regular-65f6"/>
      <use xlink:href="#SimSong-Regular-95f4" transform="translate(99.999985 0)"/>
      <use xlink:href="#TimesNewRomanPSMT-20" transform="translate(199.999969 0)"/>
      <use xlink:href="#TimesNewRomanPSMT-28" transform="translate(224.999969 0)"/>
      <use xlink:href="#TimesNewRomanPSMT-73" transform="translate(258.300751 0)"/>
      <use xlink:href="#TimesNewRomanPSMT-29" transform="translate(297.216766 0)"/>
     </g>
    </g>
   </g>
   <g id="matplotlib.axis_2">
    <g id="ytick_1">
     <g id="line2d_13">
      <path d="M 48.509375 342.526875 
L 503.608125 342.526875 
" clip-path="url(#p781349c875)" style="fill: none; stroke: #b0b0b0; stroke-opacity: 0.3; stroke-width: 0.8; stroke-linecap: square"/>
     </g>
     <g id="line2d_14">
      <defs>
       <path id="mc028aa9404" d="M 0 0 
L -3.5 0 
" style="stroke: #000000; stroke-width: 0.8"/>
      </defs>
      <g>
       <use xlink:href="#mc028aa9404" x="48.509375" y="342.526875" style="stroke: #000000; stroke-width: 0.8"/>
      </g>
     </g>
     <g id="text_8">
      <!-- 0 -->
      <g transform="translate(36.509375 345.99875) scale(0.1 -0.1)">
       <use xlink:href="#TimesNewRomanPSMT-30"/>
      </g>
     </g>
    </g>
    <g id="ytick_2">
     <g id="line2d_15">
      <path d="M 48.509375 276.155875 
L 503.608125 276.155875 
" clip-path="url(#p781349c875)" style="fill: none; stroke: #b0b0b0; stroke-opacity: 0.3; stroke-width: 0.8; stroke-linecap: square"/>
     </g>
     <g id="line2d_16">
      <g>
       <use xlink:href="#mc028aa9404" x="48.509375" y="276.155875" style="stroke: #000000; stroke-width: 0.8"/>
      </g>
     </g>
     <g id="text_9">
      <!-- 1000 -->
      <g transform="translate(21.509375 279.62775) scale(0.1 -0.1)">
       <use xlink:href="#TimesNewRomanPSMT-31"/>
       <use xlink:href="#TimesNewRomanPSMT-30" transform="translate(50 0)"/>
       <use xlink:href="#TimesNewRomanPSMT-30" transform="translate(100 0)"/>
       <use xlink:href="#TimesNewRomanPSMT-30" transform="translate(150 0)"/>
      </g>
     </g>
    </g>
    <g id="ytick_3">
     <g id="line2d_17">
      <path d="M 48.509375 209.784875 
L 503.608125 209.784875 
" clip-path="url(#p781349c875)" style="fill: none; stroke: #b0b0b0; stroke-opacity: 0.3; stroke-width: 0.8; stroke-linecap: square"/>
     </g>
     <g id="line2d_18">
      <g>
       <use xlink:href="#mc028aa9404" x="48.509375" y="209.784875" style="stroke: #000000; stroke-width: 0.8"/>
      </g>
     </g>
     <g id="text_10">
      <!-- 2000 -->
      <g transform="translate(21.509375 213.25675) scale(0.1 -0.1)">
       <use xlink:href="#TimesNewRomanPSMT-32"/>
       <use xlink:href="#TimesNewRomanPSMT-30" transform="translate(50 0)"/>
       <use xlink:href="#TimesNewRomanPSMT-30" transform="translate(100 0)"/>
       <use xlink:href="#TimesNewRomanPSMT-30" transform="translate(150 0)"/>
      </g>
     </g>
    </g>
    <g id="ytick_4">
     <g id="line2d_19">
      <path d="M 48.509375 143.413875 
L 503.608125 143.413875 
" clip-path="url(#p781349c875)" style="fill: none; stroke: #b0b0b0; stroke-opacity: 0.3; stroke-width: 0.8; stroke-linecap: square"/>
     </g>
     <g id="line2d_20">
      <g>
       <use xlink:href="#mc028aa9404" x="48.509375" y="143.413875" style="stroke: #000000; stroke-width: 0.8"/>
      </g>
     </g>
     <g id="text_11">
      <!-- 3000 -->
      <g transform="translate(21.509375 146.88575) scale(0.1 -0.1)">
       <use xlink:href="#TimesNewRomanPSMT-33"/>
       <use xlink:href="#TimesNewRomanPSMT-30" transform="translate(50 0)"/>
       <use xlink:href="#TimesNewRomanPSMT-30" transform="translate(100 0)"/>
       <use xlink:href="#TimesNewRomanPSMT-30" transform="translate(150 0)"/>
      </g>
     </g>
    </g>
    <g id="ytick_5">
     <g id="line2d_21">
      <path d="M 48.509375 77.042875 
L 503.608125 77.042875 
" clip-path="url(#p781349c875)" style="fill: none; stroke: #b0b0b0; stroke-opacity: 0.3; stroke-width: 0.8; stroke-linecap: square"/>
     </g>
     <g id="line2d_22">
      <g>
       <use xlink:href="#mc028aa9404" x="48.509375" y="77.042875" style="stroke: #000000; stroke-width: 0.8"/>
      </g>
     </g>
     <g id="text_12">
      <!-- 4000 -->
      <g transform="translate(21.509375 80.51475) scale(0.1 -0.1)">
       <use xlink:href="#TimesNewRomanPSMT-34"/>
       <use xlink:href="#TimesNewRomanPSMT-30" transform="translate(50 0)"/>
       <use xlink:href="#TimesNewRomanPSMT-30" transform="translate(100 0)"/>
       <use xlink:href="#TimesNewRomanPSMT-30" transform="translate(150 0)"/>
      </g>
     </g>
    </g>
    <g id="ytick_6">
     <g id="line2d_23">
      <path d="M 48.509375 10.671875 
L 503.608125 10.671875 
" clip-path="url(#p781349c875)" style="fill: none; stroke: #b0b0b0; stroke-opacity: 0.3; stroke-width: 0.8; stroke-linecap: square"/>
     </g>
     <g id="line2d_24">
      <g>
       <use xlink:href="#mc028aa9404" x="48.509375" y="10.671875" style="stroke: #000000; stroke-width: 0.8"/>
      </g>
     </g>
     <g id="text_13">
      <!-- 5000 -->
      <g transform="translate(21.509375 14.14375) scale(0.1 -0.1)">
       <use xlink:href="#TimesNewRomanPSMT-35"/>
       <use xlink:href="#TimesNewRomanPSMT-30" transform="translate(50 0)"/>
       <use xlink:href="#TimesNewRomanPSMT-30" transform="translate(100 0)"/>
       <use xlink:href="#TimesNewRomanPSMT-30" transform="translate(150 0)"/>
      </g>
     </g>
    </g>
    <g id="text_14">
     <!-- 累计能耗 (kJ) -->
     <g transform="translate(15.370313 205.625156) rotate(-90) scale(0.1 -0.1)">
      <defs>
       <path id="SimSong-Regular-7d2f" d="M 998 5082 
C 1011 4915 1024 4749 1024 4582 
L 1024 3232 
C 1024 3104 1011 2982 998 2867 
C 998 2790 1050 2752 1133 2752 
C 1184 2752 1254 2758 1344 2784 
C 1389 2803 1421 2829 1421 2867 
L 1421 2989 
L 2349 2989 
C 2208 2816 2010 2637 1760 2458 
C 1658 2368 1504 2291 1274 2214 
C 1210 2195 1165 2163 1165 2118 
C 1197 2042 1248 1958 1299 1856 
C 1338 1786 1389 1754 1440 1754 
C 1478 1754 1523 1779 1562 1830 
C 1613 1882 1677 1920 1760 1933 
L 3526 2157 
C 3264 1990 2982 1830 2662 1690 
C 2163 1446 1664 1293 1152 1216 
C 1101 1210 1069 1184 1069 1139 
C 1069 1094 1114 998 1190 851 
C 1242 774 1293 736 1344 736 
C 1382 736 1414 749 1440 774 
C 1536 864 1613 915 1670 915 
L 3027 1069 
L 3027 -38 
C 3027 -109 2957 -147 2803 -147 
C 2720 -147 2528 -122 2208 -70 
L 2189 -154 
C 2534 -250 2701 -339 2726 -422 
C 2733 -518 2784 -570 2848 -570 
C 2912 -570 3014 -544 3149 -499 
C 3322 -422 3418 -301 3418 -147 
L 3418 1120 
L 4762 1267 
C 4845 1171 4928 1050 4998 934 
C 5062 794 5133 730 5197 730 
C 5248 730 5299 762 5350 826 
C 5382 870 5408 928 5408 1005 
C 5402 1120 5325 1242 5184 1357 
C 4928 1562 4621 1741 4243 1882 
L 4192 1805 
C 4358 1696 4518 1555 4672 1376 
L 1734 1216 
C 2797 1587 3661 1926 4333 2227 
L 4333 2227 
C 4410 2266 4499 2291 4602 2310 
C 4723 2317 4794 2342 4794 2381 
C 4794 2413 4749 2445 4678 2483 
L 4262 2701 
C 4102 2560 3930 2419 3731 2285 
L 1536 2202 
C 1856 2291 2195 2432 2541 2618 
L 2541 2618 
C 2605 2643 2662 2669 2720 2682 
C 2835 2682 2899 2701 2899 2726 
C 2899 2758 2861 2797 2797 2835 
L 2528 2989 
L 4877 2989 
L 4877 2810 
C 4877 2733 4915 2701 4979 2701 
C 5043 2701 5120 2707 5210 2733 
C 5261 2752 5299 2784 5299 2822 
C 5274 3002 5267 3142 5267 3251 
L 5267 4467 
C 5267 4512 5299 4550 5376 4582 
L 5376 4582 
C 5453 4621 5504 4666 5504 4704 
C 5504 4742 5440 4800 5338 4890 
C 5222 4979 5152 5030 5114 5030 
C 5082 5030 5037 5011 4992 4979 
C 4947 4941 4896 4902 4845 4864 
L 1453 4864 
C 1299 4954 1152 5024 998 5082 
L 998 5082 
z
M 1421 4019 
L 1421 4691 
L 2989 4691 
L 2989 4019 
L 1421 4019 
z
M 3347 4691 
L 4877 4691 
L 4877 4019 
L 3354 4019 
L 3354 4691 
L 3347 4691 
z
M 1421 3168 
L 1421 3840 
L 2989 3840 
L 2989 3168 
L 1421 3168 
z
M 3347 3840 
L 4877 3840 
L 4877 3168 
L 3354 3168 
L 3354 3840 
L 3347 3840 
z
M 2042 781 
C 1914 627 1690 467 1370 301 
C 1088 147 768 13 390 -109 
L 454 -205 
C 973 -96 1382 6 1683 109 
C 1901 186 2112 282 2317 384 
C 2330 403 2381 416 2470 416 
C 2534 416 2579 435 2579 474 
C 2579 506 2509 550 2381 608 
L 2381 608 
C 2291 659 2176 717 2042 781 
L 2042 781 
z
M 3795 755 
L 3744 678 
C 4301 499 4787 243 5235 -102 
C 5344 -211 5459 -269 5574 -269 
C 5626 -269 5677 -237 5728 -179 
C 5754 -128 5779 -64 5779 6 
C 5766 109 5638 205 5402 307 
C 4966 480 4429 627 3795 755 
L 3795 755 
z
" transform="scale(0.015625)"/>
       <path id="SimSong-Regular-8ba1" d="M 2413 3123 
L 2528 2842 
C 2675 2874 2899 2893 3213 2893 
L 4115 2893 
L 4115 115 
C 4115 -64 4102 -256 4090 -474 
C 4096 -538 4147 -570 4211 -570 
C 4275 -570 4346 -557 4429 -538 
C 4474 -512 4506 -486 4506 -454 
C 4486 -243 4480 -51 4480 115 
L 4480 2893 
L 6061 2893 
C 6118 2893 6157 2918 6157 2976 
C 6157 3002 6086 3085 5971 3226 
C 5843 3354 5747 3424 5696 3424 
C 5670 3424 5613 3373 5523 3270 
C 5434 3162 5370 3091 5338 3066 
L 4480 3066 
L 4480 4877 
C 4480 4928 4506 4960 4576 4979 
C 4666 5005 4717 5050 4717 5107 
C 4717 5133 4646 5152 4531 5178 
C 4352 5203 4211 5216 4090 5229 
C 4102 5062 4115 4864 4115 4640 
L 4115 3066 
L 3213 3066 
C 2867 3066 2605 3085 2413 3123 
L 2413 3123 
z
M 928 5082 
L 870 5018 
C 1222 4768 1478 4461 1651 4090 
C 1696 3930 1786 3853 1901 3853 
C 1952 3853 1997 3885 2035 3949 
C 2074 4013 2106 4077 2106 4147 
C 2106 4288 2003 4435 1818 4589 
C 1645 4749 1350 4915 928 5082 
L 928 5082 
z
M 243 3213 
L 403 2931 
C 499 2957 602 2970 710 2982 
L 1325 2982 
L 1325 384 
C 1318 294 1286 218 1210 141 
C 1165 90 1139 51 1139 26 
C 1139 -6 1229 -90 1408 -230 
C 1466 -269 1523 -294 1574 -294 
C 1626 -294 1664 -269 1696 -211 
C 1728 -102 1766 -19 1818 26 
L 2752 1248 
L 2701 1338 
L 1722 416 
L 1722 2784 
C 1722 2861 1747 2918 1824 2970 
C 1888 2995 1933 3034 1933 3085 
C 1933 3123 1894 3162 1843 3206 
C 1677 3334 1562 3405 1498 3405 
C 1446 3405 1350 3322 1222 3162 
L 698 3162 
C 563 3162 416 3174 237 3213 
L 243 3213 
z
" transform="scale(0.015625)"/>
       <path id="SimSong-Regular-80fd" d="M 1594 5178 
C 1414 4704 1242 4352 1062 4122 
C 896 3885 730 3738 538 3686 
C 461 3661 410 3622 410 3584 
C 410 3526 474 3418 582 3264 
C 621 3206 672 3181 723 3181 
C 749 3181 781 3200 832 3251 
C 909 3290 973 3309 1024 3322 
L 2771 3654 
C 2810 3565 2842 3456 2874 3341 
C 2918 3181 3008 3104 3123 3104 
C 3174 3104 3219 3136 3264 3200 
C 3302 3264 3334 3328 3334 3398 
C 3334 3558 3251 3725 3110 3898 
C 2976 4077 2752 4262 2432 4454 
L 2368 4390 
C 2509 4218 2618 4019 2720 3782 
L 934 3699 
C 1267 3994 1581 4333 1869 4710 
C 1920 4762 1978 4794 2042 4813 
C 2138 4826 2195 4851 2195 4890 
C 2195 4928 2144 4966 2061 5005 
L 1594 5178 
L 1594 5178 
z
M 5581 4365 
L 5722 4346 
C 5798 4346 5843 4365 5856 4403 
C 5856 4435 5792 4493 5690 4557 
C 5549 4627 5414 4698 5267 4781 
C 5075 4608 4826 4448 4531 4294 
C 4339 4186 4154 4096 3968 4019 
L 3968 4806 
C 3968 4858 4000 4896 4077 4922 
C 4166 4954 4224 4998 4224 5056 
C 4224 5082 4154 5107 4026 5120 
C 3840 5146 3686 5165 3552 5178 
C 3565 5050 3578 4915 3578 4781 
L 3578 3034 
C 3578 2893 3597 2797 3635 2746 
C 3680 2669 3763 2624 3872 2598 
C 4019 2566 4365 2554 4902 2554 
C 5210 2554 5459 2566 5651 2592 
C 5754 2605 5837 2630 5894 2656 
L 5894 2656 
C 5965 2694 6010 2758 6010 2848 
C 6010 2906 5939 2950 5818 2989 
C 5754 3014 5728 3066 5715 3136 
C 5702 3206 5696 3392 5683 3680 
L 5574 3706 
C 5517 3373 5478 3174 5453 3110 
C 5440 3021 5402 2957 5325 2925 
C 5216 2893 5075 2880 4902 2880 
C 4538 2880 4269 2893 4096 2918 
C 4006 2938 3968 3008 3968 3136 
L 3968 3904 
C 4666 4058 5203 4211 5581 4365 
z
M 672 3078 
C 685 2835 698 2624 698 2458 
L 698 218 
C 698 19 685 -205 672 -461 
C 672 -531 723 -570 806 -570 
C 864 -570 934 -557 1018 -538 
C 1062 -512 1094 -480 1094 -448 
L 1094 941 
L 2496 941 
L 2496 6 
C 2496 -77 2464 -122 2374 -122 
C 2202 -122 1978 -96 1690 -45 
L 1658 -141 
C 2042 -230 2221 -326 2240 -442 
C 2240 -544 2298 -595 2374 -595 
C 2451 -595 2547 -563 2662 -512 
L 2662 -512 
C 2803 -442 2886 -339 2886 -211 
L 2886 2541 
C 2886 2579 2912 2618 2989 2650 
L 2989 2650 
C 3040 2675 3078 2714 3078 2765 
C 3078 2803 3014 2874 2899 2976 
C 2784 3059 2714 3104 2682 3104 
C 2643 3104 2592 3066 2528 3002 
C 2490 2957 2445 2912 2400 2867 
L 1114 2867 
C 986 2950 838 3021 672 3078 
L 672 3078 
z
M 1094 1990 
L 1094 2694 
L 2496 2694 
L 2496 1990 
L 1094 1990 
z
M 5658 1619 
L 5792 1600 
C 5869 1600 5920 1619 5933 1651 
C 5933 1683 5862 1741 5760 1805 
C 5619 1875 5491 1946 5344 2029 
C 5139 1824 4883 1632 4576 1453 
C 4378 1331 4186 1229 3994 1139 
L 3994 2003 
C 3994 2054 4026 2099 4102 2125 
C 4192 2150 4250 2195 4250 2253 
C 4250 2278 4179 2304 4051 2323 
C 3866 2349 3712 2368 3578 2381 
C 3590 2246 3597 2112 3597 1978 
L 3597 38 
C 3597 -102 3622 -198 3661 -250 
C 3712 -326 3795 -378 3904 -403 
C 4058 -429 4410 -448 4960 -448 
C 5280 -448 5536 -435 5734 -410 
C 5850 -390 5933 -371 6003 -346 
C 6061 -294 6106 -230 6106 -154 
C 6106 -83 6048 -26 5946 19 
L 5946 19 
C 5888 51 5862 109 5862 186 
C 5850 269 5843 486 5830 832 
L 5722 851 
C 5658 461 5613 230 5587 154 
C 5568 45 5523 -26 5434 -77 
C 5318 -102 5152 -122 4960 -122 
C 4589 -122 4307 -109 4128 -83 
C 4032 -58 3994 6 3994 134 
L 3994 1024 
C 4710 1229 5267 1427 5658 1619 
z
M 1094 1114 
L 1094 1818 
L 2496 1818 
L 2496 1114 
L 1094 1114 
z
" transform="scale(0.015625)"/>
       <path id="SimSong-Regular-8017" d="M 384 4346 
L 506 4064 
C 646 4096 870 4115 1190 4115 
L 1389 4115 
L 1389 3341 
L 1286 3341 
C 941 3341 678 3360 486 3398 
L 608 3117 
C 749 3149 973 3168 1286 3168 
L 1389 3168 
L 1389 2368 
L 1037 2368 
C 691 2368 429 2387 237 2426 
L 358 2144 
C 499 2176 723 2189 1037 2189 
L 1318 2189 
C 1114 1536 742 851 192 141 
L 256 70 
C 736 474 1114 922 1402 1427 
L 1389 1427 
L 1389 90 
C 1389 -90 1376 -282 1363 -499 
C 1370 -563 1421 -595 1485 -595 
C 1549 -595 1619 -582 1709 -563 
C 1747 -538 1779 -512 1779 -480 
C 1760 -269 1754 -77 1754 90 
L 1754 1619 
C 1971 1434 2150 1190 2278 909 
C 2317 768 2400 704 2502 704 
C 2541 704 2579 730 2618 787 
C 2656 838 2682 896 2682 960 
C 2682 1088 2592 1229 2426 1370 
C 2285 1498 2061 1638 1754 1773 
L 1754 2189 
L 2848 2189 
C 2899 2189 2931 2214 2931 2278 
C 2931 2304 2874 2368 2771 2483 
C 2656 2598 2579 2656 2534 2656 
C 2515 2656 2464 2611 2387 2528 
C 2304 2445 2253 2394 2234 2368 
L 1754 2368 
L 1754 3168 
L 2650 3168 
C 2701 3168 2733 3194 2733 3251 
C 2733 3270 2675 3334 2573 3450 
C 2477 3552 2406 3610 2355 3610 
C 2336 3610 2285 3571 2221 3501 
C 2144 3418 2093 3366 2067 3341 
L 1754 3341 
L 1754 4115 
L 2778 4115 
C 2822 4115 2854 4141 2854 4205 
C 2854 4224 2797 4288 2701 4397 
C 2598 4506 2528 4563 2483 4563 
C 2464 4563 2413 4525 2342 4448 
C 2266 4365 2221 4314 2195 4294 
L 1754 4294 
L 1754 4877 
C 1754 4928 1779 4960 1850 4979 
C 1939 5005 1997 5050 1997 5107 
C 1997 5133 1926 5152 1805 5178 
C 1626 5203 1485 5216 1363 5229 
C 1376 5062 1389 4864 1389 4640 
L 1389 4294 
L 1190 4294 
C 845 4294 576 4307 384 4346 
L 384 4346 
z
M 5414 4646 
L 5632 4595 
C 5690 4595 5728 4614 5734 4653 
C 5734 4691 5664 4755 5542 4851 
C 5466 4909 5363 4992 5222 5107 
C 4883 4934 4570 4800 4262 4704 
C 3968 4589 3514 4467 2886 4333 
L 2938 4224 
C 3277 4256 3603 4301 3923 4352 
L 3923 3168 
C 3424 3066 3008 3002 2694 2970 
L 2880 2733 
C 3040 2790 3386 2880 3923 2989 
L 3923 1741 
C 3373 1613 2918 1530 2566 1498 
L 2758 1261 
C 2931 1331 3322 1434 3923 1568 
L 3923 19 
C 3923 -147 3968 -269 4045 -333 
C 4083 -371 4173 -397 4301 -422 
C 4442 -435 4678 -448 5011 -448 
C 5261 -448 5466 -435 5632 -410 
C 5798 -397 5933 -365 6048 -326 
C 6112 -275 6157 -211 6157 -128 
C 6157 -51 6093 6 5978 58 
L 5978 58 
C 5926 83 5901 128 5894 179 
C 5875 218 5869 467 5856 928 
L 5754 954 
C 5690 384 5632 70 5581 13 
C 5542 -26 5498 -51 5434 -64 
C 5318 -83 5178 -96 5011 -96 
C 4678 -96 4480 -83 4416 -77 
C 4346 -38 4320 19 4320 122 
L 4320 1664 
L 5933 2022 
C 6010 2022 6054 2054 6054 2131 
C 6054 2163 5971 2221 5830 2310 
C 5677 2387 5581 2432 5530 2432 
C 5485 2432 5427 2381 5389 2278 
L 5395 2278 
C 5357 2202 5312 2131 5286 2061 
C 4966 1984 4640 1907 4320 1830 
L 4320 3072 
C 4832 3181 5318 3283 5766 3373 
C 5837 3373 5882 3405 5882 3482 
C 5882 3514 5805 3571 5677 3648 
C 5536 3725 5440 3763 5402 3763 
C 5357 3763 5299 3712 5261 3622 
L 5184 3437 
C 4902 3379 4608 3315 4320 3258 
L 4320 4416 
C 4672 4480 5043 4557 5414 4646 
z
" transform="scale(0.015625)"/>
       <path id="TimesNewRomanPSMT-6b" d="M 1047 4444 
L 1047 1594 
L 1775 2259 
Q 2006 2472 2044 2528 
Q 2069 2566 2069 2603 
Q 2069 2666 2017 2711 
Q 1966 2756 1847 2763 
L 1847 2863 
L 3091 2863 
L 3091 2763 
Q 2834 2756 2664 2684 
Q 2494 2613 2291 2428 
L 1556 1750 
L 2291 822 
Q 2597 438 2703 334 
Q 2853 188 2966 144 
Q 3044 113 3238 113 
L 3238 0 
L 1847 0 
L 1847 113 
Q 1966 116 2008 148 
Q 2050 181 2050 241 
Q 2050 313 1925 472 
L 1047 1594 
L 1047 644 
Q 1047 366 1086 278 
Q 1125 191 1197 153 
Q 1269 116 1509 113 
L 1509 0 
L 53 0 
L 53 113 
Q 272 113 381 166 
Q 447 200 481 272 
Q 528 375 528 628 
L 528 3234 
Q 528 3731 506 3842 
Q 484 3953 434 3995 
Q 384 4038 303 4038 
Q 238 4038 106 3984 
L 53 4094 
L 903 4444 
L 1047 4444 
z
" transform="scale(0.015625)"/>
       <path id="TimesNewRomanPSMT-4a" d="M 638 4122 
L 638 4238 
L 2453 4238 
L 2453 4122 
L 2300 4122 
Q 2041 4122 1922 3969 
Q 1847 3869 1847 3488 
L 1847 1416 
Q 1847 938 1742 641 
Q 1638 344 1381 123 
Q 1125 -97 763 -97 
Q 469 -97 300 48 
Q 131 194 131 381 
Q 131 534 209 613 
Q 313 709 450 709 
Q 550 709 629 643 
Q 709 578 831 294 
Q 903 125 1016 125 
Q 1100 125 1173 228 
Q 1247 331 1247 594 
L 1247 3488 
Q 1247 3809 1206 3913 
Q 1175 3991 1075 4047 
Q 941 4122 791 4122 
L 638 4122 
z
" transform="scale(0.015625)"/>
      </defs>
      <use xlink:href="#SimSong-Regular-7d2f"/>
      <use xlink:href="#SimSong-Regular-8ba1" transform="translate(99.999985 0)"/>
      <use xlink:href="#SimSong-Regular-80fd" transform="translate(199.999969 0)"/>
      <use xlink:href="#SimSong-Regular-8017" transform="translate(299.999954 0)"/>
      <use xlink:href="#TimesNewRomanPSMT-20" transform="translate(399.999939 0)"/>
      <use xlink:href="#TimesNewRomanPSMT-28" transform="translate(424.999939 0)"/>
      <use xlink:href="#TimesNewRomanPSMT-6b" transform="translate(458.30072 0)"/>
      <use xlink:href="#TimesNewRomanPSMT-4a" transform="translate(508.30072 0)"/>
      <use xlink:href="#TimesNewRomanPSMT-29" transform="translate(547.216736 0)"/>
     </g>
    </g>
   </g>
   <g id="line2d_25">
    <path d="M 69.195682 342.526875 
L 110.568295 335.099085 
L 151.940909 328.174922 
L 193.313523 321.453226 
L 234.686136 314.780607 
L 276.05875 307.973396 
L 317.431364 300.948612 
L 358.803977 294.343552 
L 400.176591 287.71142 
L 441.549205 281.003565 
L 482.921818 274.409402 
" clip-path="url(#p781349c875)" style="fill: none; stroke: #ee6f63; stroke-width: 2.3; stroke-linecap: square"/>
    <defs>
     <path id="mb543b574aa" d="M -1.5 3 
L 0 1.5 
L 1.5 3 
L 3 1.5 
L 1.5 0 
L 3 -1.5 
L 1.5 -3 
L 0 -1.5 
L -1.5 -3 
L -3 -1.5 
L -1.5 0 
L -3 1.5 
z
" style="stroke: #ee6f63; stroke-linejoin: miter"/>
    </defs>
    <g clip-path="url(#p781349c875)">
     <use xlink:href="#mb543b574aa" x="69.195682" y="342.526875" style="fill: #ee6f63; stroke: #ee6f63; stroke-linejoin: miter"/>
     <use xlink:href="#mb543b574aa" x="110.568295" y="335.099085" style="fill: #ee6f63; stroke: #ee6f63; stroke-linejoin: miter"/>
     <use xlink:href="#mb543b574aa" x="151.940909" y="328.174922" style="fill: #ee6f63; stroke: #ee6f63; stroke-linejoin: miter"/>
     <use xlink:href="#mb543b574aa" x="193.313523" y="321.453226" style="fill: #ee6f63; stroke: #ee6f63; stroke-linejoin: miter"/>
     <use xlink:href="#mb543b574aa" x="234.686136" y="314.780607" style="fill: #ee6f63; stroke: #ee6f63; stroke-linejoin: miter"/>
     <use xlink:href="#mb543b574aa" x="276.05875" y="307.973396" style="fill: #ee6f63; stroke: #ee6f63; stroke-linejoin: miter"/>
     <use xlink:href="#mb543b574aa" x="317.431364" y="300.948612" style="fill: #ee6f63; stroke: #ee6f63; stroke-linejoin: miter"/>
     <use xlink:href="#mb543b574aa" x="358.803977" y="294.343552" style="fill: #ee6f63; stroke: #ee6f63; stroke-linejoin: miter"/>
     <use xlink:href="#mb543b574aa" x="400.176591" y="287.71142" style="fill: #ee6f63; stroke: #ee6f63; stroke-linejoin: miter"/>
     <use xlink:href="#mb543b574aa" x="441.549205" y="281.003565" style="fill: #ee6f63; stroke: #ee6f63; stroke-linejoin: miter"/>
     <use xlink:href="#mb543b574aa" x="482.921818" y="274.409402" style="fill: #ee6f63; stroke: #ee6f63; stroke-linejoin: miter"/>
    </g>
   </g>
   <g id="line2d_26">
    <path d="M 69.195682 342.526875 
L 110.568295 312.966178 
L 151.940909 285.248051 
L 193.313523 257.388711 
L 234.686136 229.363094 
L 276.05875 201.174563 
L 317.431364 173.103654 
L 358.803977 145.218471 
L 400.176591 118.634984 
L 441.549205 91.081731 
L 482.921818 65.960047 
" clip-path="url(#p781349c875)" style="fill: none; stroke: #5fa8e8; stroke-width: 2.3; stroke-linecap: square"/>
    <defs>
     <path id="m7602c5c13a" d="M -3 3 
L 3 3 
L 3 -3 
L -3 -3 
z
" style="stroke: #5fa8e8; stroke-linejoin: miter"/>
    </defs>
    <g clip-path="url(#p781349c875)">
     <use xlink:href="#m7602c5c13a" x="69.195682" y="342.526875" style="fill: #5fa8e8; stroke: #5fa8e8; stroke-linejoin: miter"/>
     <use xlink:href="#m7602c5c13a" x="110.568295" y="312.966178" style="fill: #5fa8e8; stroke: #5fa8e8; stroke-linejoin: miter"/>
     <use xlink:href="#m7602c5c13a" x="151.940909" y="285.248051" style="fill: #5fa8e8; stroke: #5fa8e8; stroke-linejoin: miter"/>
     <use xlink:href="#m7602c5c13a" x="193.313523" y="257.388711" style="fill: #5fa8e8; stroke: #5fa8e8; stroke-linejoin: miter"/>
     <use xlink:href="#m7602c5c13a" x="234.686136" y="229.363094" style="fill: #5fa8e8; stroke: #5fa8e8; stroke-linejoin: miter"/>
     <use xlink:href="#m7602c5c13a" x="276.05875" y="201.174563" style="fill: #5fa8e8; stroke: #5fa8e8; stroke-linejoin: miter"/>
     <use xlink:href="#m7602c5c13a" x="317.431364" y="173.103654" style="fill: #5fa8e8; stroke: #5fa8e8; stroke-linejoin: miter"/>
     <use xlink:href="#m7602c5c13a" x="358.803977" y="145.218471" style="fill: #5fa8e8; stroke: #5fa8e8; stroke-linejoin: miter"/>
     <use xlink:href="#m7602c5c13a" x="400.176591" y="118.634984" style="fill: #5fa8e8; stroke: #5fa8e8; stroke-linejoin: miter"/>
     <use xlink:href="#m7602c5c13a" x="441.549205" y="91.081731" style="fill: #5fa8e8; stroke: #5fa8e8; stroke-linejoin: miter"/>
     <use xlink:href="#m7602c5c13a" x="482.921818" y="65.960047" style="fill: #5fa8e8; stroke: #5fa8e8; stroke-linejoin: miter"/>
    </g>
   </g>
   <g id="line2d_27">
    <path d="M 69.195682 342.526875 
L 110.568295 314.747244 
L 151.940909 288.419459 
L 193.313523 260.407191 
L 234.686136 231.51391 
L 276.05875 201.059732 
L 317.431364 170.194841 
L 358.803977 141.897473 
L 400.176591 113.369047 
L 441.549205 86.045528 
L 482.921818 56.791156 
" clip-path="url(#p781349c875)" style="fill: none; stroke: #63cfa0; stroke-width: 2.3; stroke-linecap: square"/>
    <defs>
     <path id="m2a7294b1f9" d="M 0 -3 
L -3 3 
L 3 3 
z
" style="stroke: #63cfa0; stroke-linejoin: miter"/>
    </defs>
    <g clip-path="url(#p781349c875)">
     <use xlink:href="#m2a7294b1f9" x="69.195682" y="342.526875" style="fill: #63cfa0; stroke: #63cfa0; stroke-linejoin: miter"/>
     <use xlink:href="#m2a7294b1f9" x="110.568295" y="314.747244" style="fill: #63cfa0; stroke: #63cfa0; stroke-linejoin: miter"/>
     <use xlink:href="#m2a7294b1f9" x="151.940909" y="288.419459" style="fill: #63cfa0; stroke: #63cfa0; stroke-linejoin: miter"/>
     <use xlink:href="#m2a7294b1f9" x="193.313523" y="260.407191" style="fill: #63cfa0; stroke: #63cfa0; stroke-linejoin: miter"/>
     <use xlink:href="#m2a7294b1f9" x="234.686136" y="231.51391" style="fill: #63cfa0; stroke: #63cfa0; stroke-linejoin: miter"/>
     <use xlink:href="#m2a7294b1f9" x="276.05875" y="201.059732" style="fill: #63cfa0; stroke: #63cfa0; stroke-linejoin: miter"/>
     <use xlink:href="#m2a7294b1f9" x="317.431364" y="170.194841" style="fill: #63cfa0; stroke: #63cfa0; stroke-linejoin: miter"/>
     <use xlink:href="#m2a7294b1f9" x="358.803977" y="141.897473" style="fill: #63cfa0; stroke: #63cfa0; stroke-linejoin: miter"/>
     <use xlink:href="#m2a7294b1f9" x="400.176591" y="113.369047" style="fill: #63cfa0; stroke: #63cfa0; stroke-linejoin: miter"/>
     <use xlink:href="#m2a7294b1f9" x="441.549205" y="86.045528" style="fill: #63cfa0; stroke: #63cfa0; stroke-linejoin: miter"/>
     <use xlink:href="#m2a7294b1f9" x="482.921818" y="56.791156" style="fill: #63cfa0; stroke: #63cfa0; stroke-linejoin: miter"/>
    </g>
   </g>
   <g id="line2d_28">
    <path d="M 69.195682 342.526875 
L 110.568295 313.016442 
L 151.940909 284.14495 
L 193.313523 254.404467 
L 234.686136 223.129174 
L 276.05875 190.566384 
L 317.431364 158.313163 
L 358.803977 127.807278 
L 400.176591 94.832722 
L 441.549205 66.380718 
L 482.921818 31.801939 
" clip-path="url(#p781349c875)" style="fill: none; stroke: #b08adf; stroke-width: 2.3; stroke-linecap: square"/>
    <defs>
     <path id="mf1c0a4455c" d="M -0 4.242641 
L 4.242641 0 
L 0 -4.242641 
L -4.242641 -0 
z
" style="stroke: #b08adf; stroke-linejoin: miter"/>
    </defs>
    <g clip-path="url(#p781349c875)">
     <use xlink:href="#mf1c0a4455c" x="69.195682" y="342.526875" style="fill: #b08adf; stroke: #b08adf; stroke-linejoin: miter"/>
     <use xlink:href="#mf1c0a4455c" x="110.568295" y="313.016442" style="fill: #b08adf; stroke: #b08adf; stroke-linejoin: miter"/>
     <use xlink:href="#mf1c0a4455c" x="151.940909" y="284.14495" style="fill: #b08adf; stroke: #b08adf; stroke-linejoin: miter"/>
     <use xlink:href="#mf1c0a4455c" x="193.313523" y="254.404467" style="fill: #b08adf; stroke: #b08adf; stroke-linejoin: miter"/>
     <use xlink:href="#mf1c0a4455c" x="234.686136" y="223.129174" style="fill: #b08adf; stroke: #b08adf; stroke-linejoin: miter"/>
     <use xlink:href="#mf1c0a4455c" x="276.05875" y="190.566384" style="fill: #b08adf; stroke: #b08adf; stroke-linejoin: miter"/>
     <use xlink:href="#mf1c0a4455c" x="317.431364" y="158.313163" style="fill: #b08adf; stroke: #b08adf; stroke-linejoin: miter"/>
     <use xlink:href="#mf1c0a4455c" x="358.803977" y="127.807278" style="fill: #b08adf; stroke: #b08adf; stroke-linejoin: miter"/>
     <use xlink:href="#mf1c0a4455c" x="400.176591" y="94.832722" style="fill: #b08adf; stroke: #b08adf; stroke-linejoin: miter"/>
     <use xlink:href="#mf1c0a4455c" x="441.549205" y="66.380718" style="fill: #b08adf; stroke: #b08adf; stroke-linejoin: miter"/>
     <use xlink:href="#mf1c0a4455c" x="482.921818" y="31.801939" style="fill: #b08adf; stroke: #b08adf; stroke-linejoin: miter"/>
    </g>
   </g>
   <g id="patch_3">
    <path d="M 48.509375 342.526875 
L 48.509375 10.671875 
" style="fill: none; stroke: #000000; stroke-width: 0.8; stroke-linejoin: miter; stroke-linecap: square"/>
   </g>
   <g id="patch_4">
    <path d="M 503.608125 342.526875 
L 503.608125 10.671875 
" style="fill: none; stroke: #000000; stroke-width: 0.8; stroke-linejoin: miter; stroke-linecap: square"/>
   </g>
   <g id="patch_5">
    <path d="M 48.509375 342.526875 
L 503.608125 342.526875 
" style="fill: none; stroke: #000000; stroke-width: 0.8; stroke-linejoin: miter; stroke-linecap: square"/>
   </g>
   <g id="patch_6">
    <path d="M 48.509375 10.671875 
L 503.608125 10.671875 
" style="fill: none; stroke: #000000; stroke-width: 0.8; stroke-linejoin: miter; stroke-linecap: square"/>
   </g>
   <g id="legend_1">
    <g id="patch_7">
     <path d="M 55.509375 75.228125 
L 128.635938 75.228125 
Q 130.635938 75.228125 130.635938 73.228125 
L 130.635938 17.671875 
Q 130.635938 15.671875 128.635938 15.671875 
L 55.509375 15.671875 
Q 53.509375 15.671875 53.509375 17.671875 
L 53.509375 73.228125 
Q 53.509375 75.228125 55.509375 75.228125 
z
" style="fill: #ffffff; opacity: 0.8; stroke: #cccccc; stroke-linejoin: miter"/>
    </g>
    <g id="line2d_29">
     <path d="M 57.509375 23.171875 
L 67.509375 23.171875 
L 77.509375 23.171875 
" style="fill: none; stroke: #ee6f63; stroke-width: 2.3; stroke-linecap: square"/>
     <g>
      <use xlink:href="#mb543b574aa" x="67.509375" y="23.171875" style="fill: #ee6f63; stroke: #ee6f63; stroke-linejoin: miter"/>
     </g>
    </g>
    <g id="text_15">
     <!-- DE2VF -->
     <g transform="translate(85.509375 26.671875) scale(0.1 -0.1)">
      <defs>
       <path id="TimesNewRomanPSMT-44" d="M 109 0 
L 109 116 
L 269 116 
Q 538 116 650 288 
Q 719 391 719 750 
L 719 3488 
Q 719 3884 631 3984 
Q 509 4122 269 4122 
L 109 4122 
L 109 4238 
L 1834 4238 
Q 2784 4238 3279 4022 
Q 3775 3806 4076 3303 
Q 4378 2800 4378 2141 
Q 4378 1256 3841 663 
Q 3238 0 2003 0 
L 109 0 
z
M 1319 306 
Q 1716 219 1984 219 
Q 2709 219 3187 728 
Q 3666 1238 3666 2109 
Q 3666 2988 3187 3494 
Q 2709 4000 1959 4000 
Q 1678 4000 1319 3909 
L 1319 306 
z
" transform="scale(0.015625)"/>
       <path id="TimesNewRomanPSMT-45" d="M 1338 4006 
L 1338 2331 
L 2269 2331 
Q 2631 2331 2753 2441 
Q 2916 2584 2934 2947 
L 3050 2947 
L 3050 1472 
L 2934 1472 
Q 2891 1781 2847 1869 
Q 2791 1978 2662 2040 
Q 2534 2103 2269 2103 
L 1338 2103 
L 1338 706 
Q 1338 425 1363 364 
Q 1388 303 1450 267 
Q 1513 231 1688 231 
L 2406 231 
Q 2766 231 2928 281 
Q 3091 331 3241 478 
Q 3434 672 3638 1063 
L 3763 1063 
L 3397 0 
L 131 0 
L 131 116 
L 281 116 
Q 431 116 566 188 
Q 666 238 702 338 
Q 738 438 738 747 
L 738 3500 
Q 738 3903 656 3997 
Q 544 4122 281 4122 
L 131 4122 
L 131 4238 
L 3397 4238 
L 3444 3309 
L 3322 3309 
Q 3256 3644 3176 3769 
Q 3097 3894 2941 3959 
Q 2816 4006 2500 4006 
L 1338 4006 
z
" transform="scale(0.015625)"/>
       <path id="TimesNewRomanPSMT-56" d="M 4544 4238 
L 4544 4122 
Q 4319 4081 4203 3978 
Q 4038 3825 3909 3509 
L 2431 -97 
L 2316 -97 
L 728 3556 
Q 606 3838 556 3900 
Q 478 3997 364 4051 
Q 250 4106 56 4122 
L 56 4238 
L 1788 4238 
L 1788 4122 
Q 1494 4094 1406 4022 
Q 1319 3950 1319 3838 
Q 1319 3681 1463 3350 
L 2541 866 
L 3541 3319 
Q 3688 3681 3688 3822 
Q 3688 3913 3597 3995 
Q 3506 4078 3291 4113 
Q 3275 4116 3238 4122 
L 3238 4238 
L 4544 4238 
z
" transform="scale(0.015625)"/>
       <path id="TimesNewRomanPSMT-46" d="M 1309 4006 
L 1309 2341 
L 2081 2341 
Q 2347 2341 2470 2458 
Q 2594 2575 2634 2922 
L 2750 2922 
L 2750 1488 
L 2634 1488 
Q 2631 1734 2570 1850 
Q 2509 1966 2401 2023 
Q 2294 2081 2081 2081 
L 1309 2081 
L 1309 750 
Q 1309 428 1350 325 
Q 1381 247 1481 191 
Q 1619 116 1769 116 
L 1922 116 
L 1922 0 
L 103 0 
L 103 116 
L 253 116 
Q 516 116 634 269 
Q 709 369 709 750 
L 709 3488 
Q 709 3809 669 3913 
Q 638 3991 541 4047 
Q 406 4122 253 4122 
L 103 4122 
L 103 4238 
L 3256 4238 
L 3297 3306 
L 3188 3306 
Q 3106 3603 2998 3742 
Q 2891 3881 2733 3943 
Q 2575 4006 2244 4006 
L 1309 4006 
z
" transform="scale(0.015625)"/>
      </defs>
      <use xlink:href="#TimesNewRomanPSMT-44"/>
      <use xlink:href="#TimesNewRomanPSMT-45" transform="translate(72.216797 0)"/>
      <use xlink:href="#TimesNewRomanPSMT-32" transform="translate(133.300781 0)"/>
      <use xlink:href="#TimesNewRomanPSMT-56" transform="translate(183.300781 0)"/>
      <use xlink:href="#TimesNewRomanPSMT-46" transform="translate(255.517578 0)"/>
     </g>
    </g>
    <g id="line2d_30">
     <path d="M 57.509375 37.310938 
L 67.509375 37.310938 
L 77.509375 37.310938 
" style="fill: none; stroke: #5fa8e8; stroke-width: 2.3; stroke-linecap: square"/>
     <g>
      <use xlink:href="#m7602c5c13a" x="67.509375" y="37.310938" style="fill: #5fa8e8; stroke: #5fa8e8; stroke-linejoin: miter"/>
     </g>
    </g>
    <g id="text_16">
     <!-- DGA-CF -->
     <g transform="translate(85.509375 40.810938) scale(0.1 -0.1)">
      <defs>
       <path id="TimesNewRomanPSMT-47" d="M 3928 4334 
L 4038 2997 
L 3928 2997 
Q 3763 3497 3500 3750 
Q 3122 4116 2528 4116 
Q 1719 4116 1297 3475 
Q 944 2934 944 2188 
Q 944 1581 1178 1081 
Q 1413 581 1792 348 
Q 2172 116 2572 116 
Q 2806 116 3025 175 
Q 3244 234 3447 350 
L 3447 1575 
Q 3447 1894 3398 1992 
Q 3350 2091 3248 2142 
Q 3147 2194 2891 2194 
L 2891 2313 
L 4531 2313 
L 4531 2194 
L 4453 2194 
Q 4209 2194 4119 2031 
Q 4056 1916 4056 1575 
L 4056 278 
Q 3697 84 3347 -6 
Q 2997 -97 2569 -97 
Q 1341 -97 703 691 
Q 225 1281 225 2053 
Q 225 2613 494 3125 
Q 813 3734 1369 4063 
Q 1834 4334 2469 4334 
Q 2700 4334 2889 4296 
Q 3078 4259 3425 4131 
Q 3600 4066 3659 4066 
Q 3719 4066 3761 4120 
Q 3803 4175 3813 4334 
L 3928 4334 
z
" transform="scale(0.015625)"/>
       <path id="TimesNewRomanPSMT-41" d="M 2928 1419 
L 1288 1419 
L 1000 750 
Q 894 503 894 381 
Q 894 284 986 211 
Q 1078 138 1384 116 
L 1384 0 
L 50 0 
L 50 116 
Q 316 163 394 238 
Q 553 388 747 847 
L 2238 4334 
L 2347 4334 
L 3822 809 
Q 4000 384 4145 257 
Q 4291 131 4550 116 
L 4550 0 
L 2878 0 
L 2878 116 
Q 3131 128 3220 200 
Q 3309 272 3309 375 
Q 3309 513 3184 809 
L 2928 1419 
z
M 2841 1650 
L 2122 3363 
L 1384 1650 
L 2841 1650 
z
" transform="scale(0.015625)"/>
       <path id="TimesNewRomanPSMT-2d" d="M 259 1672 
L 1875 1672 
L 1875 1200 
L 259 1200 
L 259 1672 
z
" transform="scale(0.015625)"/>
       <path id="TimesNewRomanPSMT-43" d="M 3853 4334 
L 3950 2894 
L 3853 2894 
Q 3659 3541 3300 3825 
Q 2941 4109 2438 4109 
Q 2016 4109 1675 3895 
Q 1334 3681 1139 3212 
Q 944 2744 944 2047 
Q 944 1472 1128 1050 
Q 1313 628 1683 403 
Q 2053 178 2528 178 
Q 2941 178 3256 354 
Q 3572 531 3950 1056 
L 4047 994 
Q 3728 428 3303 165 
Q 2878 -97 2294 -97 
Q 1241 -97 663 684 
Q 231 1266 231 2053 
Q 231 2688 515 3219 
Q 800 3750 1298 4042 
Q 1797 4334 2388 4334 
Q 2847 4334 3294 4109 
Q 3425 4041 3481 4041 
Q 3566 4041 3628 4100 
Q 3709 4184 3744 4334 
L 3853 4334 
z
" transform="scale(0.015625)"/>
      </defs>
      <use xlink:href="#TimesNewRomanPSMT-44"/>
      <use xlink:href="#TimesNewRomanPSMT-47" transform="translate(72.216797 0)"/>
      <use xlink:href="#TimesNewRomanPSMT-41" transform="translate(144.433594 0)"/>
      <use xlink:href="#TimesNewRomanPSMT-2d" transform="translate(216.650391 0)"/>
      <use xlink:href="#TimesNewRomanPSMT-43" transform="translate(249.951172 0)"/>
      <use xlink:href="#TimesNewRomanPSMT-46" transform="translate(316.650391 0)"/>
     </g>
    </g>
    <g id="line2d_31">
     <path d="M 57.509375 51.45 
L 67.509375 51.45 
L 77.509375 51.45 
" style="fill: none; stroke: #63cfa0; stroke-width: 2.3; stroke-linecap: square"/>
     <g>
      <use xlink:href="#m2a7294b1f9" x="67.509375" y="51.45" style="fill: #63cfa0; stroke: #63cfa0; stroke-linejoin: miter"/>
     </g>
    </g>
    <g id="text_17">
     <!-- DPSO-CF -->
     <g transform="translate(85.509375 54.95) scale(0.1 -0.1)">
      <defs>
       <path id="TimesNewRomanPSMT-50" d="M 1313 1984 
L 1313 750 
Q 1313 350 1400 253 
Q 1519 116 1759 116 
L 1922 116 
L 1922 0 
L 106 0 
L 106 116 
L 266 116 
Q 534 116 650 291 
Q 713 388 713 750 
L 713 3488 
Q 713 3888 628 3984 
Q 506 4122 266 4122 
L 106 4122 
L 106 4238 
L 1659 4238 
Q 2228 4238 2556 4120 
Q 2884 4003 3109 3725 
Q 3334 3447 3334 3066 
Q 3334 2547 2992 2222 
Q 2650 1897 2025 1897 
Q 1872 1897 1694 1919 
Q 1516 1941 1313 1984 
z
M 1313 2163 
Q 1478 2131 1606 2115 
Q 1734 2100 1825 2100 
Q 2150 2100 2386 2351 
Q 2622 2603 2622 3003 
Q 2622 3278 2509 3514 
Q 2397 3750 2190 3867 
Q 1984 3984 1722 3984 
Q 1563 3984 1313 3925 
L 1313 2163 
z
" transform="scale(0.015625)"/>
       <path id="TimesNewRomanPSMT-53" d="M 2934 4334 
L 2934 2869 
L 2819 2869 
Q 2763 3291 2617 3541 
Q 2472 3791 2203 3937 
Q 1934 4084 1647 4084 
Q 1322 4084 1109 3886 
Q 897 3688 897 3434 
Q 897 3241 1031 3081 
Q 1225 2847 1953 2456 
Q 2547 2138 2764 1967 
Q 2981 1797 3098 1565 
Q 3216 1334 3216 1081 
Q 3216 600 2842 251 
Q 2469 -97 1881 -97 
Q 1697 -97 1534 -69 
Q 1438 -53 1133 45 
Q 828 144 747 144 
Q 669 144 623 97 
Q 578 50 556 -97 
L 441 -97 
L 441 1356 
L 556 1356 
Q 638 900 775 673 
Q 913 447 1195 297 
Q 1478 147 1816 147 
Q 2206 147 2432 353 
Q 2659 559 2659 841 
Q 2659 997 2573 1156 
Q 2488 1316 2306 1453 
Q 2184 1547 1640 1851 
Q 1097 2156 867 2337 
Q 638 2519 519 2737 
Q 400 2956 400 3219 
Q 400 3675 750 4004 
Q 1100 4334 1641 4334 
Q 1978 4334 2356 4169 
Q 2531 4091 2603 4091 
Q 2684 4091 2736 4139 
Q 2788 4188 2819 4334 
L 2934 4334 
z
" transform="scale(0.015625)"/>
       <path id="TimesNewRomanPSMT-4f" d="M 2341 4334 
Q 3166 4334 3770 3707 
Q 4375 3081 4375 2144 
Q 4375 1178 3765 540 
Q 3156 -97 2291 -97 
Q 1416 -97 820 525 
Q 225 1147 225 2134 
Q 225 3144 913 3781 
Q 1509 4334 2341 4334 
z
M 2281 4106 
Q 1713 4106 1369 3684 
Q 941 3159 941 2147 
Q 941 1109 1384 550 
Q 1725 125 2284 125 
Q 2881 125 3270 590 
Q 3659 1056 3659 2059 
Q 3659 3147 3231 3681 
Q 2888 4106 2281 4106 
z
" transform="scale(0.015625)"/>
      </defs>
      <use xlink:href="#TimesNewRomanPSMT-44"/>
      <use xlink:href="#TimesNewRomanPSMT-50" transform="translate(72.216797 0)"/>
      <use xlink:href="#TimesNewRomanPSMT-53" transform="translate(127.832031 0)"/>
      <use xlink:href="#TimesNewRomanPSMT-4f" transform="translate(183.447266 0)"/>
      <use xlink:href="#TimesNewRomanPSMT-2d" transform="translate(255.664062 0)"/>
      <use xlink:href="#TimesNewRomanPSMT-43" transform="translate(288.964844 0)"/>
      <use xlink:href="#TimesNewRomanPSMT-46" transform="translate(355.664062 0)"/>
     </g>
    </g>
    <g id="line2d_32">
     <path d="M 57.509375 65.589063 
L 67.509375 65.589063 
L 77.509375 65.589063 
" style="fill: none; stroke: #b08adf; stroke-width: 2.3; stroke-linecap: square"/>
     <g>
      <use xlink:href="#mf1c0a4455c" x="67.509375" y="65.589063" style="fill: #b08adf; stroke: #b08adf; stroke-linejoin: miter"/>
     </g>
    </g>
    <g id="text_18">
     <!-- NSSA-CF -->
     <g transform="translate(85.509375 69.089063) scale(0.1 -0.1)">
      <defs>
       <path id="TimesNewRomanPSMT-4e" d="M -84 4238 
L 1066 4238 
L 3656 1059 
L 3656 3503 
Q 3656 3894 3569 3991 
Q 3453 4122 3203 4122 
L 3056 4122 
L 3056 4238 
L 4531 4238 
L 4531 4122 
L 4381 4122 
Q 4113 4122 4000 3959 
Q 3931 3859 3931 3503 
L 3931 -69 
L 3819 -69 
L 1025 3344 
L 1025 734 
Q 1025 344 1109 247 
Q 1228 116 1475 116 
L 1625 116 
L 1625 0 
L 150 0 
L 150 116 
L 297 116 
Q 569 116 681 278 
Q 750 378 750 734 
L 750 3681 
Q 566 3897 470 3965 
Q 375 4034 191 4094 
Q 100 4122 -84 4122 
L -84 4238 
z
" transform="scale(0.015625)"/>
      </defs>
      <use xlink:href="#TimesNewRomanPSMT-4e"/>
      <use xlink:href="#TimesNewRomanPSMT-53" transform="translate(72.216797 0)"/>
      <use xlink:href="#TimesNewRomanPSMT-53" transform="translate(127.832031 0)"/>
      <use xlink:href="#TimesNewRomanPSMT-41" transform="translate(183.447266 0)"/>
      <use xlink:href="#TimesNewRomanPSMT-2d" transform="translate(255.664062 0)"/>
      <use xlink:href="#TimesNewRomanPSMT-43" transform="translate(288.964844 0)"/>
      <use xlink:href="#TimesNewRomanPSMT-46" transform="translate(355.664062 0)"/>
     </g>
    </g>
   </g>
  </g>
 </g>
 <defs>
  <clipPath id="p781349c875">
   <rect x="48.509375" y="10.671875" width="455.09875" height="331.855"/>
  </clipPath>
 </defs>
</svg>
