<?xml version="1.0" encoding="utf-8" standalone="no"?>
<!DOCTYPE svg PUBLIC "-//W3C//DTD SVG 1.1//EN"
  "http://www.w3.org/Graphics/SVG/1.1/DTD/svg11.dtd">
<svg xmlns:xlink="http://www.w3.org/1999/xlink" width="508.27pt" height="380.078437pt" viewBox="0 0 508.27 380.078437" xmlns="http://www.w3.org/2000/svg" version="1.1">
 <metadata>
  <rdf:RDF xmlns:dc="http://purl.org/dc/elements/1.1/" xmlns:cc="http://creativecommons.org/ns#" xmlns:rdf="http://www.w3.org/1999/02/22-rdf-syntax-ns#">
   <cc:Work>
    <dc:type rdf:resource="http://purl.org/dc/dcmitype/StillImage"/>
    <dc:date>2026-04-09T00:44:13.142781</dc:date>
    <dc:format>image/svg+xml</dc:format>
    <dc:creator>
     <cc:Agent>
      <dc:title>Matplotlib v3.10.8, https://matplotlib.org/</dc:title>
     </cc:Agent>
    </dc:creator>
   </cc:Work>
  </rdf:RDF>
 </metadata>
 <defs>
  <style type="text/css">*{stroke-linejoin: round; stroke-linecap: butt}</style>
 </defs>
 <g id="figure_1">
  <g id="patch_1">
   <path d="M 0 380.078437 
L 508.27 380.078437 
L 508.27 0 
L 0 0 
z
" style="fill: #ffffff"/>
  </g>
  <g id="axes_1">
   <g id="patch_2">
    <path d="M 50.1 342.526875 
L 501.07 342.526875 
L 501.07 10.671875 
L 50.1 10.671875 
z
" style="fill: #ffffff"/>
   </g>
   <g id="matplotlib.axis_1">
    <g id="xtick_1">
     <g id="line2d_1">
      <path d="M 70.598636 342.526875 
L 70.598636 10.671875 
" clip-path="url(#p822a680a92)" style="fill: none; stroke: #b0b0b0; stroke-opacity: 0.3; stroke-width: 0.8; stroke-linecap: square"/>
     </g>
     <g id="line2d_2">
      <defs>
       <path id="m8a6f0e3586" d="M 0 0 
L 0 3.5 
" style="stroke: #000000; stroke-width: 0.8"/>
      </defs>
      <g>
       <use xlink:href="#m8a6f0e3586" x="70.598636" y="342.526875" style="stroke: #000000; stroke-width: 0.8"/>
      </g>
     </g>
     <g id="text_1">
      <!-- 0 -->
      <g transform="translate(68.098636 356.470625) scale(0.1 -0.1)">
       <defs>
        <path id="TimesNewRomanPSMT-30" d="M 231 2094 
Q 231 2819 450 3342 
Q 669 3866 1031 4122 
Q 1313 4325 1613 4325 
Q 2100 4325 2488 3828 
Q 2972 3213 2972 2159 
Q 2972 1422 2759 906 
Q 2547 391 2217 158 
Q 1888 -75 1581 -75 
Q 975 -75 572 641 
Q 231 1244 231 2094 
z
M 844 2016 
Q 844 1141 1059 588 
Q 1238 122 1591 122 
Q 1759 122 1940 273 
Q 2122 425 2216 781 
Q 2359 1319 2359 2297 
Q 2359 3022 2209 3506 
Q 2097 3866 1919 4016 
Q 1791 4119 1609 4119 
Q 1397 4119 1231 3928 
Q 1006 3669 925 3112 
Q 844 2556 844 2016 
z
" transform="scale(0.015625)"/>
       </defs>
       <use xlink:href="#TimesNewRomanPSMT-30"/>
      </g>
     </g>
    </g>
    <g id="xtick_2">
     <g id="line2d_3">
      <path d="M 152.593182 342.526875 
L 152.593182 10.671875 
" clip-path="url(#p822a680a92)" style="fill: none; stroke: #b0b0b0; stroke-opacity: 0.3; stroke-width: 0.8; stroke-linecap: square"/>
     </g>
     <g id="line2d_4">
      <g>
       <use xlink:href="#m8a6f0e3586" x="152.593182" y="342.526875" style="stroke: #000000; stroke-width: 0.8"/>
      </g>
     </g>
     <g id="text_2">
      <!-- 10 -->
      <g transform="translate(147.593182 356.470625) scale(0.1 -0.1)">
       <defs>
        <path id="TimesNewRomanPSMT-31" d="M 750 3822 
L 1781 4325 
L 1884 4325 
L 1884 747 
Q 1884 391 1914 303 
Q 1944 216 2037 169 
Q 2131 122 2419 116 
L 2419 0 
L 825 0 
L 825 116 
Q 1125 122 1212 167 
Q 1300 213 1334 289 
Q 1369 366 1369 747 
L 1369 3034 
Q 1369 3497 1338 3628 
Q 1316 3728 1258 3775 
Q 1200 3822 1119 3822 
Q 1003 3822 797 3725 
L 750 3822 
z
" transform="scale(0.015625)"/>
       </defs>
       <use xlink:href="#TimesNewRomanPSMT-31"/>
       <use xlink:href="#TimesNewRomanPSMT-30" transform="translate(50 0)"/>
      </g>
     </g>
    </g>
    <g id="xtick_3">
     <g id="line2d_5">
      <path d="M 234.587727 342.526875 
L 234.587727 10.671875 
" clip-path="url(#p822a680a92)" style="fill: none; stroke: #b0b0b0; stroke-opacity: 0.3; stroke-width: 0.8; stroke-linecap: square"/>
     </g>
     <g id="line2d_6">
      <g>
       <use xlink:href="#m8a6f0e3586" x="234.587727" y="342.526875" style="stroke: #000000; stroke-width: 0.8"/>
      </g>
     </g>
     <g id="text_3">
      <!-- 20 -->
      <g transform="translate(229.587727 356.470625) scale(0.1 -0.1)">
       <defs>
        <path id="TimesNewRomanPSMT-32" d="M 2934 816 
L 2638 0 
L 138 0 
L 138 116 
Q 1241 1122 1691 1759 
Q 2141 2397 2141 2925 
Q 2141 3328 1894 3587 
Q 1647 3847 1303 3847 
Q 991 3847 742 3664 
Q 494 3481 375 3128 
L 259 3128 
Q 338 3706 661 4015 
Q 984 4325 1469 4325 
Q 1984 4325 2329 3994 
Q 2675 3663 2675 3213 
Q 2675 2891 2525 2569 
Q 2294 2063 1775 1497 
Q 997 647 803 472 
L 1909 472 
Q 2247 472 2383 497 
Q 2519 522 2628 598 
Q 2738 675 2819 816 
L 2934 816 
z
" transform="scale(0.015625)"/>
       </defs>
       <use xlink:href="#TimesNewRomanPSMT-32"/>
       <use xlink:href="#TimesNewRomanPSMT-30" transform="translate(50 0)"/>
      </g>
     </g>
    </g>
    <g id="xtick_4">
     <g id="line2d_7">
      <path d="M 316.582273 342.526875 
L 316.582273 10.671875 
" clip-path="url(#p822a680a92)" style="fill: none; stroke: #b0b0b0; stroke-opacity: 0.3; stroke-width: 0.8; stroke-linecap: square"/>
     </g>
     <g id="line2d_8">
      <g>
       <use xlink:href="#m8a6f0e3586" x="316.582273" y="342.526875" style="stroke: #000000; stroke-width: 0.8"/>
      </g>
     </g>
     <g id="text_4">
      <!-- 30 -->
      <g transform="translate(311.582273 356.470625) scale(0.1 -0.1)">
       <defs>
        <path id="TimesNewRomanPSMT-33" d="M 325 3431 
Q 506 3859 782 4092 
Q 1059 4325 1472 4325 
Q 1981 4325 2253 3994 
Q 2459 3747 2459 3466 
Q 2459 3003 1878 2509 
Q 2269 2356 2469 2072 
Q 2669 1788 2669 1403 
Q 2669 853 2319 450 
Q 1863 -75 997 -75 
Q 569 -75 414 31 
Q 259 138 259 259 
Q 259 350 332 419 
Q 406 488 509 488 
Q 588 488 669 463 
Q 722 447 909 348 
Q 1097 250 1169 231 
Q 1284 197 1416 197 
Q 1734 197 1970 444 
Q 2206 691 2206 1028 
Q 2206 1275 2097 1509 
Q 2016 1684 1919 1775 
Q 1784 1900 1550 2001 
Q 1316 2103 1072 2103 
L 972 2103 
L 972 2197 
Q 1219 2228 1467 2375 
Q 1716 2522 1828 2728 
Q 1941 2934 1941 3181 
Q 1941 3503 1739 3701 
Q 1538 3900 1238 3900 
Q 753 3900 428 3381 
L 325 3431 
z
" transform="scale(0.015625)"/>
       </defs>
       <use xlink:href="#TimesNewRomanPSMT-33"/>
       <use xlink:href="#TimesNewRomanPSMT-30" transform="translate(50 0)"/>
      </g>
     </g>
    </g>
    <g id="xtick_5">
     <g id="line2d_9">
      <path d="M 398.576818 342.526875 
L 398.576818 10.671875 
" clip-path="url(#p822a680a92)" style="fill: none; stroke: #b0b0b0; stroke-opacity: 0.3; stroke-width: 0.8; stroke-linecap: square"/>
     </g>
     <g id="line2d_10">
      <g>
       <use xlink:href="#m8a6f0e3586" x="398.576818" y="342.526875" style="stroke: #000000; stroke-width: 0.8"/>
      </g>
     </g>
     <g id="text_5">
      <!-- 40 -->
      <g transform="translate(393.576818 356.470625) scale(0.1 -0.1)">
       <defs>
        <path id="TimesNewRomanPSMT-34" d="M 2978 1563 
L 2978 1119 
L 2409 1119 
L 2409 0 
L 1894 0 
L 1894 1119 
L 100 1119 
L 100 1519 
L 2066 4325 
L 2409 4325 
L 2409 1563 
L 2978 1563 
z
M 1894 1563 
L 1894 3666 
L 406 1563 
L 1894 1563 
z
" transform="scale(0.015625)"/>
       </defs>
       <use xlink:href="#TimesNewRomanPSMT-34"/>
       <use xlink:href="#TimesNewRomanPSMT-30" transform="translate(50 0)"/>
      </g>
     </g>
    </g>
    <g id="xtick_6">
     <g id="line2d_11">
      <path d="M 480.571364 342.526875 
L 480.571364 10.671875 
" clip-path="url(#p822a680a92)" style="fill: none; stroke: #b0b0b0; stroke-opacity: 0.3; stroke-width: 0.8; stroke-linecap: square"/>
     </g>
     <g id="line2d_12">
      <g>
       <use xlink:href="#m8a6f0e3586" x="480.571364" y="342.526875" style="stroke: #000000; stroke-width: 0.8"/>
      </g>
     </g>
     <g id="text_6">
      <!-- 50 -->
      <g transform="translate(475.571364 356.470625) scale(0.1 -0.1)">
       <defs>
        <path id="TimesNewRomanPSMT-35" d="M 2778 4238 
L 2534 3706 
L 1259 3706 
L 981 3138 
Q 1809 3016 2294 2522 
Q 2709 2097 2709 1522 
Q 2709 1188 2573 903 
Q 2438 619 2231 419 
Q 2025 219 1772 97 
Q 1413 -75 1034 -75 
Q 653 -75 479 54 
Q 306 184 306 341 
Q 306 428 378 495 
Q 450 563 559 563 
Q 641 563 702 538 
Q 763 513 909 409 
Q 1144 247 1384 247 
Q 1750 247 2026 523 
Q 2303 800 2303 1197 
Q 2303 1581 2056 1914 
Q 1809 2247 1375 2428 
Q 1034 2569 447 2591 
L 1259 4238 
L 2778 4238 
z
" transform="scale(0.015625)"/>
       </defs>
       <use xlink:href="#TimesNewRomanPSMT-35"/>
       <use xlink:href="#TimesNewRomanPSMT-30" transform="translate(50 0)"/>
      </g>
     </g>
    </g>
    <g id="text_7">
     <!-- 时间 (s) -->
     <g transform="translate(259.059219 370.739375) scale(0.1 -0.1)">
      <defs>
       <path id="SimSong-Regular-65f6" d="M 2534 3674 
L 2656 3392 
C 2797 3424 3021 3443 3334 3443 
L 4672 3443 
L 4672 134 
C 4672 70 4666 32 4653 19 
C 4614 -6 4563 -19 4493 -19 
C 4301 -19 3987 13 3552 77 
L 3514 -26 
C 4064 -141 4339 -256 4365 -371 
C 4371 -499 4442 -570 4550 -570 
C 4621 -570 4723 -531 4864 -467 
L 4864 -467 
C 4992 -403 5069 -256 5069 -32 
L 5069 3443 
L 6061 3443 
C 6118 3443 6157 3469 6157 3526 
C 6157 3552 6086 3635 5971 3770 
C 5843 3904 5747 3974 5696 3974 
C 5670 3974 5613 3923 5523 3821 
C 5434 3712 5370 3642 5338 3616 
L 5069 3616 
L 5069 4832 
C 5069 4890 5094 4928 5171 4954 
C 5267 4979 5325 5018 5325 5082 
C 5325 5107 5248 5126 5120 5152 
L 4653 5203 
C 4666 5043 4672 4858 4672 4653 
L 4672 3616 
L 3334 3616 
C 2989 3616 2726 3635 2534 3674 
L 2534 3674 
z
M 659 4678 
C 672 4448 685 4256 685 4102 
L 685 742 
C 685 557 672 346 659 102 
C 659 38 710 6 787 6 
C 838 6 902 13 973 38 
C 1024 58 1056 83 1056 122 
L 1056 717 
L 1984 717 
L 1984 256 
C 1984 186 2022 154 2086 154 
C 2150 154 2221 160 2317 186 
C 2355 211 2387 237 2387 275 
L 2355 890 
L 2355 4224 
C 2355 4256 2362 4288 2394 4320 
C 2432 4358 2458 4390 2458 4422 
C 2458 4454 2394 4518 2285 4614 
C 2189 4691 2125 4730 2093 4730 
C 2067 4730 2016 4704 1965 4653 
C 1914 4608 1862 4563 1798 4518 
L 1018 4518 
C 909 4582 794 4634 659 4678 
L 659 4678 
z
M 1056 2765 
L 1056 4339 
L 1984 4339 
L 1984 2765 
L 1056 2765 
z
M 3008 2829 
L 2944 2765 
C 3213 2419 3411 1984 3552 1466 
C 3590 1306 3686 1229 3802 1229 
C 3846 1229 3891 1261 3936 1325 
C 3974 1389 4006 1453 4006 1523 
C 4006 1722 3917 1926 3763 2144 
C 3616 2362 3366 2586 3008 2829 
L 3008 2829 
z
M 1056 890 
L 1056 2592 
L 1984 2592 
L 1984 890 
L 1056 890 
z
" transform="scale(0.015625)"/>
       <path id="SimSong-Regular-95f4" d="M 1280 5152 
L 1216 5094 
C 1434 4902 1594 4659 1702 4365 
C 1741 4205 1837 4128 1952 4128 
C 1997 4128 2048 4160 2099 4224 
C 2131 4275 2157 4339 2157 4422 
C 2157 4544 2086 4666 1958 4787 
C 1818 4902 1594 5024 1280 5152 
L 1280 5152 
z
M 2464 4621 
L 2579 4339 
C 2771 4371 2995 4390 3264 4390 
L 5197 4390 
L 5197 102 
C 5197 58 5184 13 5139 -45 
C 5088 -58 5024 -70 4947 -70 
C 4877 -70 4672 -45 4314 6 
L 4282 -96 
C 4653 -211 4832 -314 4845 -410 
C 4858 -531 4902 -595 4947 -595 
C 5050 -595 5178 -550 5331 -474 
C 5498 -384 5594 -224 5594 6 
L 5594 4243 
C 5594 4282 5619 4314 5683 4346 
L 5683 4346 
C 5741 4371 5779 4416 5779 4467 
C 5779 4499 5709 4570 5587 4672 
C 5485 4762 5414 4806 5370 4806 
C 5338 4806 5280 4762 5210 4678 
C 5184 4646 5146 4608 5107 4570 
L 3264 4570 
C 2950 4570 2688 4582 2464 4621 
L 2464 4621 
z
M 774 4429 
C 787 4250 800 4038 800 3795 
L 800 211 
C 800 19 787 -186 774 -416 
C 781 -480 832 -518 909 -518 
C 973 -518 1050 -506 1146 -493 
C 1190 -467 1222 -435 1222 -397 
C 1203 -166 1197 32 1197 211 
L 1197 4051 
C 1197 4102 1222 4141 1293 4166 
C 1395 4192 1453 4237 1453 4301 
C 1453 4326 1376 4346 1248 4371 
L 774 4429 
L 774 4429 
z
M 2061 3654 
C 2074 3501 2086 3347 2086 3194 
L 2086 845 
C 2086 730 2074 614 2061 506 
C 2061 435 2112 403 2189 403 
C 2240 403 2304 410 2381 435 
C 2426 448 2458 474 2458 506 
L 2458 819 
L 3962 819 
L 3962 506 
C 3962 435 4000 403 4064 403 
C 4122 403 4192 410 4282 435 
C 4333 454 4365 480 4365 518 
C 4339 685 4333 819 4333 922 
L 4333 3155 
C 4333 3194 4352 3232 4403 3264 
C 4467 3302 4506 3334 4506 3373 
C 4506 3405 4448 3462 4352 3546 
C 4237 3635 4166 3680 4134 3680 
C 4109 3680 4064 3654 4026 3603 
C 3974 3546 3930 3494 3878 3443 
L 2509 3443 
C 2355 3533 2214 3603 2061 3654 
L 2061 3654 
z
M 2458 2240 
L 2458 3264 
L 3962 3264 
L 3962 2240 
L 2458 2240 
z
M 2458 992 
L 2458 2067 
L 3962 2067 
L 3962 992 
L 2458 992 
z
" transform="scale(0.015625)"/>
       <path id="TimesNewRomanPSMT-20" transform="scale(0.015625)"/>
       <path id="TimesNewRomanPSMT-28" d="M 1988 -1253 
L 1988 -1369 
Q 1516 -1131 1200 -813 
Q 750 -359 506 256 
Q 263 872 263 1534 
Q 263 2503 741 3301 
Q 1219 4100 1988 4444 
L 1988 4313 
Q 1603 4100 1356 3731 
Q 1109 3363 987 2797 
Q 866 2231 866 1616 
Q 866 947 969 400 
Q 1050 -31 1165 -292 
Q 1281 -553 1476 -793 
Q 1672 -1034 1988 -1253 
z
" transform="scale(0.015625)"/>
       <path id="TimesNewRomanPSMT-73" d="M 2050 2947 
L 2050 1972 
L 1947 1972 
Q 1828 2431 1642 2597 
Q 1456 2763 1169 2763 
Q 950 2763 815 2647 
Q 681 2531 681 2391 
Q 681 2216 781 2091 
Q 878 1963 1175 1819 
L 1631 1597 
Q 2266 1288 2266 781 
Q 2266 391 1970 151 
Q 1675 -88 1309 -88 
Q 1047 -88 709 6 
Q 606 38 541 38 
Q 469 38 428 -44 
L 325 -44 
L 325 978 
L 428 978 
Q 516 541 762 319 
Q 1009 97 1316 97 
Q 1531 97 1667 223 
Q 1803 350 1803 528 
Q 1803 744 1651 891 
Q 1500 1038 1047 1263 
Q 594 1488 453 1669 
Q 313 1847 313 2119 
Q 313 2472 555 2709 
Q 797 2947 1181 2947 
Q 1350 2947 1591 2875 
Q 1750 2828 1803 2828 
Q 1853 2828 1881 2850 
Q 1909 2872 1947 2947 
L 2050 2947 
z
" transform="scale(0.015625)"/>
       <path id="TimesNewRomanPSMT-29" d="M 144 4313 
L 144 4444 
Q 619 4209 934 3891 
Q 1381 3434 1625 2820 
Q 1869 2206 1869 1541 
Q 1869 572 1392 -226 
Q 916 -1025 144 -1369 
L 144 -1253 
Q 528 -1038 776 -670 
Q 1025 -303 1145 264 
Q 1266 831 1266 1447 
Q 1266 2113 1163 2663 
Q 1084 3094 967 3353 
Q 850 3613 656 3853 
Q 463 4094 144 4313 
z
" transform="scale(0.015625)"/>
      </defs>
      <use xlink:href="#SimSong-Regular-65f6"/>
      <use xlink:href="#SimSong-Regular-95f4" transform="translate(99.999985 0)"/>
      <use xlink:href="#TimesNewRomanPSMT-20" transform="translate(199.999969 0)"/>
      <use xlink:href="#TimesNewRomanPSMT-28" transform="translate(224.999969 0)"/>
      <use xlink:href="#TimesNewRomanPSMT-73" transform="translate(258.300751 0)"/>
      <use xlink:href="#TimesNewRomanPSMT-29" transform="translate(297.216766 0)"/>
     </g>
    </g>
   </g>
   <g id="matplotlib.axis_2">
    <g id="ytick_1">
     <g id="line2d_13">
      <path d="M 50.1 342.526875 
L 501.07 342.526875 
" clip-path="url(#p822a680a92)" style="fill: none; stroke: #b0b0b0; stroke-opacity: 0.3; stroke-width: 0.8; stroke-linecap: square"/>
     </g>
     <g id="line2d_14">
      <defs>
       <path id="mfcefeb2ca8" d="M 0 0 
L -3.5 0 
" style="stroke: #000000; stroke-width: 0.8"/>
      </defs>
      <g>
       <use xlink:href="#mfcefeb2ca8" x="50.1" y="342.526875" style="stroke: #000000; stroke-width: 0.8"/>
      </g>
     </g>
     <g id="text_8">
      <!-- 0.750 -->
      <g transform="translate(20.6 345.99875) scale(0.1 -0.1)">
       <defs>
        <path id="TimesNewRomanPSMT-2e" d="M 800 606 
Q 947 606 1047 504 
Q 1147 403 1147 259 
Q 1147 116 1045 14 
Q 944 -88 800 -88 
Q 656 -88 554 14 
Q 453 116 453 259 
Q 453 406 554 506 
Q 656 606 800 606 
z
" transform="scale(0.015625)"/>
        <path id="TimesNewRomanPSMT-37" d="M 644 4238 
L 2916 4238 
L 2916 4119 
L 1503 -88 
L 1153 -88 
L 2419 3728 
L 1253 3728 
Q 900 3728 750 3644 
Q 488 3500 328 3200 
L 238 3234 
L 644 4238 
z
" transform="scale(0.015625)"/>
       </defs>
       <use xlink:href="#TimesNewRomanPSMT-30"/>
       <use xlink:href="#TimesNewRomanPSMT-2e" transform="translate(50 0)"/>
       <use xlink:href="#TimesNewRomanPSMT-37" transform="translate(75 0)"/>
       <use xlink:href="#TimesNewRomanPSMT-35" transform="translate(125 0)"/>
       <use xlink:href="#TimesNewRomanPSMT-30" transform="translate(175 0)"/>
      </g>
     </g>
    </g>
    <g id="ytick_2">
     <g id="line2d_15">
      <path d="M 50.1 301.045 
L 501.07 301.045 
" clip-path="url(#p822a680a92)" style="fill: none; stroke: #b0b0b0; stroke-opacity: 0.3; stroke-width: 0.8; stroke-linecap: square"/>
     </g>
     <g id="line2d_16">
      <g>
       <use xlink:href="#mfcefeb2ca8" x="50.1" y="301.045" style="stroke: #000000; stroke-width: 0.8"/>
      </g>
     </g>
     <g id="text_9">
      <!-- 0.775 -->
      <g transform="translate(20.6 304.516875) scale(0.1 -0.1)">
       <use xlink:href="#TimesNewRomanPSMT-30"/>
       <use xlink:href="#TimesNewRomanPSMT-2e" transform="translate(50 0)"/>
       <use xlink:href="#TimesNewRomanPSMT-37" transform="translate(75 0)"/>
       <use xlink:href="#TimesNewRomanPSMT-37" transform="translate(125 0)"/>
       <use xlink:href="#TimesNewRomanPSMT-35" transform="translate(175 0)"/>
      </g>
     </g>
    </g>
    <g id="ytick_3">
     <g id="line2d_17">
      <path d="M 50.1 259.563125 
L 501.07 259.563125 
" clip-path="url(#p822a680a92)" style="fill: none; stroke: #b0b0b0; stroke-opacity: 0.3; stroke-width: 0.8; stroke-linecap: square"/>
     </g>
     <g id="line2d_18">
      <g>
       <use xlink:href="#mfcefeb2ca8" x="50.1" y="259.563125" style="stroke: #000000; stroke-width: 0.8"/>
      </g>
     </g>
     <g id="text_10">
      <!-- 0.800 -->
      <g transform="translate(20.6 263.035) scale(0.1 -0.1)">
       <defs>
        <path id="TimesNewRomanPSMT-38" d="M 1228 2134 
Q 725 2547 579 2797 
Q 434 3047 434 3316 
Q 434 3728 753 4026 
Q 1072 4325 1600 4325 
Q 2113 4325 2425 4047 
Q 2738 3769 2738 3413 
Q 2738 3175 2569 2928 
Q 2400 2681 1866 2347 
Q 2416 1922 2594 1678 
Q 2831 1359 2831 1006 
Q 2831 559 2490 242 
Q 2150 -75 1597 -75 
Q 994 -75 656 303 
Q 388 606 388 966 
Q 388 1247 577 1523 
Q 766 1800 1228 2134 
z
M 1719 2469 
Q 2094 2806 2194 3001 
Q 2294 3197 2294 3444 
Q 2294 3772 2109 3958 
Q 1925 4144 1606 4144 
Q 1288 4144 1088 3959 
Q 888 3775 888 3528 
Q 888 3366 970 3203 
Q 1053 3041 1206 2894 
L 1719 2469 
z
M 1375 2016 
Q 1116 1797 991 1539 
Q 866 1281 866 981 
Q 866 578 1086 336 
Q 1306 94 1647 94 
Q 1984 94 2187 284 
Q 2391 475 2391 747 
Q 2391 972 2272 1150 
Q 2050 1481 1375 2016 
z
" transform="scale(0.015625)"/>
       </defs>
       <use xlink:href="#TimesNewRomanPSMT-30"/>
       <use xlink:href="#TimesNewRomanPSMT-2e" transform="translate(50 0)"/>
       <use xlink:href="#TimesNewRomanPSMT-38" transform="translate(75 0)"/>
       <use xlink:href="#TimesNewRomanPSMT-30" transform="translate(125 0)"/>
       <use xlink:href="#TimesNewRomanPSMT-30" transform="translate(175 0)"/>
      </g>
     </g>
    </g>
    <g id="ytick_4">
     <g id="line2d_19">
      <path d="M 50.1 218.08125 
L 501.07 218.08125 
" clip-path="url(#p822a680a92)" style="fill: none; stroke: #b0b0b0; stroke-opacity: 0.3; stroke-width: 0.8; stroke-linecap: square"/>
     </g>
     <g id="line2d_20">
      <g>
       <use xlink:href="#mfcefeb2ca8" x="50.1" y="218.08125" style="stroke: #000000; stroke-width: 0.8"/>
      </g>
     </g>
     <g id="text_11">
      <!-- 0.825 -->
      <g transform="translate(20.6 221.553125) scale(0.1 -0.1)">
       <use xlink:href="#TimesNewRomanPSMT-30"/>
       <use xlink:href="#TimesNewRomanPSMT-2e" transform="translate(50 0)"/>
       <use xlink:href="#TimesNewRomanPSMT-38" transform="translate(75 0)"/>
       <use xlink:href="#TimesNewRomanPSMT-32" transform="translate(125 0)"/>
       <use xlink:href="#TimesNewRomanPSMT-35" transform="translate(175 0)"/>
      </g>
     </g>
    </g>
    <g id="ytick_5">
     <g id="line2d_21">
      <path d="M 50.1 176.599375 
L 501.07 176.599375 
" clip-path="url(#p822a680a92)" style="fill: none; stroke: #b0b0b0; stroke-opacity: 0.3; stroke-width: 0.8; stroke-linecap: square"/>
     </g>
     <g id="line2d_22">
      <g>
       <use xlink:href="#mfcefeb2ca8" x="50.1" y="176.599375" style="stroke: #000000; stroke-width: 0.8"/>
      </g>
     </g>
     <g id="text_12">
      <!-- 0.850 -->
      <g transform="translate(20.6 180.07125) scale(0.1 -0.1)">
       <use xlink:href="#TimesNewRomanPSMT-30"/>
       <use xlink:href="#TimesNewRomanPSMT-2e" transform="translate(50 0)"/>
       <use xlink:href="#TimesNewRomanPSMT-38" transform="translate(75 0)"/>
       <use xlink:href="#TimesNewRomanPSMT-35" transform="translate(125 0)"/>
       <use xlink:href="#TimesNewRomanPSMT-30" transform="translate(175 0)"/>
      </g>
     </g>
    </g>
    <g id="ytick_6">
     <g id="line2d_23">
      <path d="M 50.1 135.1175 
L 501.07 135.1175 
" clip-path="url(#p822a680a92)" style="fill: none; stroke: #b0b0b0; stroke-opacity: 0.3; stroke-width: 0.8; stroke-linecap: square"/>
     </g>
     <g id="line2d_24">
      <g>
       <use xlink:href="#mfcefeb2ca8" x="50.1" y="135.1175" style="stroke: #000000; stroke-width: 0.8"/>
      </g>
     </g>
     <g id="text_13">
      <!-- 0.875 -->
      <g transform="translate(20.6 138.589375) scale(0.1 -0.1)">
       <use xlink:href="#TimesNewRomanPSMT-30"/>
       <use xlink:href="#TimesNewRomanPSMT-2e" transform="translate(50 0)"/>
       <use xlink:href="#TimesNewRomanPSMT-38" transform="translate(75 0)"/>
       <use xlink:href="#TimesNewRomanPSMT-37" transform="translate(125 0)"/>
       <use xlink:href="#TimesNewRomanPSMT-35" transform="translate(175 0)"/>
      </g>
     </g>
    </g>
    <g id="ytick_7">
     <g id="line2d_25">
      <path d="M 50.1 93.635625 
L 501.07 93.635625 
" clip-path="url(#p822a680a92)" style="fill: none; stroke: #b0b0b0; stroke-opacity: 0.3; stroke-width: 0.8; stroke-linecap: square"/>
     </g>
     <g id="line2d_26">
      <g>
       <use xlink:href="#mfcefeb2ca8" x="50.1" y="93.635625" style="stroke: #000000; stroke-width: 0.8"/>
      </g>
     </g>
     <g id="text_14">
      <!-- 0.900 -->
      <g transform="translate(20.6 97.1075) scale(0.1 -0.1)">
       <defs>
        <path id="TimesNewRomanPSMT-39" d="M 338 -88 
L 338 28 
Q 744 34 1094 217 
Q 1444 400 1770 856 
Q 2097 1313 2225 1859 
Q 1734 1544 1338 1544 
Q 891 1544 572 1889 
Q 253 2234 253 2806 
Q 253 3363 572 3797 
Q 956 4325 1575 4325 
Q 2097 4325 2469 3894 
Q 2925 3359 2925 2575 
Q 2925 1869 2578 1258 
Q 2231 647 1613 244 
Q 1109 -88 516 -88 
L 338 -88 
z
M 2275 2091 
Q 2331 2497 2331 2741 
Q 2331 3044 2228 3395 
Q 2125 3747 1936 3934 
Q 1747 4122 1506 4122 
Q 1228 4122 1018 3872 
Q 809 3622 809 3128 
Q 809 2469 1088 2097 
Q 1291 1828 1588 1828 
Q 1731 1828 1928 1897 
Q 2125 1966 2275 2091 
z
" transform="scale(0.015625)"/>
       </defs>
       <use xlink:href="#TimesNewRomanPSMT-30"/>
       <use xlink:href="#TimesNewRomanPSMT-2e" transform="translate(50 0)"/>
       <use xlink:href="#TimesNewRomanPSMT-39" transform="translate(75 0)"/>
       <use xlink:href="#TimesNewRomanPSMT-30" transform="translate(125 0)"/>
       <use xlink:href="#TimesNewRomanPSMT-30" transform="translate(175 0)"/>
      </g>
     </g>
    </g>
    <g id="ytick_8">
     <g id="line2d_27">
      <path d="M 50.1 52.15375 
L 501.07 52.15375 
" clip-path="url(#p822a680a92)" style="fill: none; stroke: #b0b0b0; stroke-opacity: 0.3; stroke-width: 0.8; stroke-linecap: square"/>
     </g>
     <g id="line2d_28">
      <g>
       <use xlink:href="#mfcefeb2ca8" x="50.1" y="52.15375" style="stroke: #000000; stroke-width: 0.8"/>
      </g>
     </g>
     <g id="text_15">
      <!-- 0.925 -->
      <g transform="translate(20.6 55.625625) scale(0.1 -0.1)">
       <use xlink:href="#TimesNewRomanPSMT-30"/>
       <use xlink:href="#TimesNewRomanPSMT-2e" transform="translate(50 0)"/>
       <use xlink:href="#TimesNewRomanPSMT-39" transform="translate(75 0)"/>
       <use xlink:href="#TimesNewRomanPSMT-32" transform="translate(125 0)"/>
       <use xlink:href="#TimesNewRomanPSMT-35" transform="translate(175 0)"/>
      </g>
     </g>
    </g>
    <g id="ytick_9">
     <g id="line2d_29">
      <path d="M 50.1 10.671875 
L 501.07 10.671875 
" clip-path="url(#p822a680a92)" style="fill: none; stroke: #b0b0b0; stroke-opacity: 0.3; stroke-width: 0.8; stroke-linecap: square"/>
     </g>
     <g id="line2d_30">
      <g>
       <use xlink:href="#mfcefeb2ca8" x="50.1" y="10.671875" style="stroke: #000000; stroke-width: 0.8"/>
      </g>
     </g>
     <g id="text_16">
      <!-- 0.950 -->
      <g transform="translate(20.6 14.14375) scale(0.1 -0.1)">
       <use xlink:href="#TimesNewRomanPSMT-30"/>
       <use xlink:href="#TimesNewRomanPSMT-2e" transform="translate(50 0)"/>
       <use xlink:href="#TimesNewRomanPSMT-39" transform="translate(75 0)"/>
       <use xlink:href="#TimesNewRomanPSMT-35" transform="translate(125 0)"/>
       <use xlink:href="#TimesNewRomanPSMT-30" transform="translate(175 0)"/>
      </g>
     </g>
    </g>
    <g id="text_17">
     <!-- $JFI_{\mathrm{eff}}$ -->
     <g transform="translate(14.460938 187.199375) rotate(-90) scale(0.1 -0.1)">
      <defs>
       <path id="DejaVuSans-Oblique-4a" d="M 1069 4666 
L 1703 4666 
L 856 325 
Q 691 -522 298 -901 
Q -94 -1281 -800 -1281 
L -1050 -1281 
L -947 -750 
L -750 -750 
Q -328 -750 -109 -509 
Q 109 -269 225 325 
L 1069 4666 
z
" transform="scale(0.015625)"/>
       <path id="DejaVuSans-Oblique-46" d="M 1081 4666 
L 3756 4666 
L 3653 4134 
L 1606 4134 
L 1338 2759 
L 3188 2759 
L 3084 2228 
L 1234 2228 
L 800 0 
L 172 0 
L 1081 4666 
z
" transform="scale(0.015625)"/>
       <path id="DejaVuSans-Oblique-49" d="M 1081 4666 
L 1716 4666 
L 806 0 
L 172 0 
L 1081 4666 
z
" transform="scale(0.015625)"/>
       <path id="DejaVuSans-65" d="M 3597 1894 
L 3597 1613 
L 953 1613 
Q 991 1019 1311 708 
Q 1631 397 2203 397 
Q 2534 397 2845 478 
Q 3156 559 3463 722 
L 3463 178 
Q 3153 47 2828 -22 
Q 2503 -91 2169 -91 
Q 1331 -91 842 396 
Q 353 884 353 1716 
Q 353 2575 817 3079 
Q 1281 3584 2069 3584 
Q 2775 3584 3186 3129 
Q 3597 2675 3597 1894 
z
M 3022 2063 
Q 3016 2534 2758 2815 
Q 2500 3097 2075 3097 
Q 1594 3097 1305 2825 
Q 1016 2553 972 2059 
L 3022 2063 
z
" transform="scale(0.015625)"/>
       <path id="DejaVuSans-66" d="M 2375 4863 
L 2375 4384 
L 1825 4384 
Q 1516 4384 1395 4259 
Q 1275 4134 1275 3809 
L 1275 3500 
L 2222 3500 
L 2222 3053 
L 1275 3053 
L 1275 0 
L 697 0 
L 697 3053 
L 147 3053 
L 147 3500 
L 697 3500 
L 697 3744 
Q 697 4328 969 4595 
Q 1241 4863 1831 4863 
L 2375 4863 
z
" transform="scale(0.015625)"/>
      </defs>
      <use xlink:href="#DejaVuSans-Oblique-4a" transform="translate(0 0.09375)"/>
      <use xlink:href="#DejaVuSans-Oblique-46" transform="translate(29.492188 0.09375)"/>
      <use xlink:href="#DejaVuSans-Oblique-49" transform="translate(87.011719 0.09375)"/>
      <use xlink:href="#DejaVuSans-65" transform="translate(116.503906 -16.3125) scale(0.7)"/>
      <use xlink:href="#DejaVuSans-66" transform="translate(159.570312 -16.3125) scale(0.7)"/>
      <use xlink:href="#DejaVuSans-66" transform="translate(184.213867 -16.3125) scale(0.7)"/>
     </g>
    </g>
   </g>
   <g id="line2d_31">
    <path d="M 70.598636 193.328 
L 111.595909 170.727573 
L 152.593182 153.929023 
L 193.590455 149.780883 
L 234.587727 144.375752 
L 275.585 132.52681 
L 316.582273 123.431559 
L 357.579545 116.321121 
L 398.576818 115.74067 
L 439.574091 103.678651 
L 480.571364 95.010551 
" clip-path="url(#p822a680a92)" style="fill: none; stroke: #ee6f63; stroke-width: 2.3; stroke-linecap: square"/>
    <defs>
     <path id="m01106ac480" d="M -1.5 3 
L 0 1.5 
L 1.5 3 
L 3 1.5 
L 1.5 0 
L 3 -1.5 
L 1.5 -3 
L 0 -1.5 
L -1.5 -3 
L -3 -1.5 
L -1.5 0 
L -3 1.5 
z
" style="stroke: #ee6f63; stroke-linejoin: miter"/>
    </defs>
    <g clip-path="url(#p822a680a92)">
     <use xlink:href="#m01106ac480" x="70.598636" y="193.328" style="fill: #ee6f63; stroke: #ee6f63; stroke-linejoin: miter"/>
     <use xlink:href="#m01106ac480" x="111.595909" y="170.727573" style="fill: #ee6f63; stroke: #ee6f63; stroke-linejoin: miter"/>
     <use xlink:href="#m01106ac480" x="152.593182" y="153.929023" style="fill: #ee6f63; stroke: #ee6f63; stroke-linejoin: miter"/>
     <use xlink:href="#m01106ac480" x="193.590455" y="149.780883" style="fill: #ee6f63; stroke: #ee6f63; stroke-linejoin: miter"/>
     <use xlink:href="#m01106ac480" x="234.587727" y="144.375752" style="fill: #ee6f63; stroke: #ee6f63; stroke-linejoin: miter"/>
     <use xlink:href="#m01106ac480" x="275.585" y="132.52681" style="fill: #ee6f63; stroke: #ee6f63; stroke-linejoin: miter"/>
     <use xlink:href="#m01106ac480" x="316.582273" y="123.431559" style="fill: #ee6f63; stroke: #ee6f63; stroke-linejoin: miter"/>
     <use xlink:href="#m01106ac480" x="357.579545" y="116.321121" style="fill: #ee6f63; stroke: #ee6f63; stroke-linejoin: miter"/>
     <use xlink:href="#m01106ac480" x="398.576818" y="115.74067" style="fill: #ee6f63; stroke: #ee6f63; stroke-linejoin: miter"/>
     <use xlink:href="#m01106ac480" x="439.574091" y="103.678651" style="fill: #ee6f63; stroke: #ee6f63; stroke-linejoin: miter"/>
     <use xlink:href="#m01106ac480" x="480.571364" y="95.010551" style="fill: #ee6f63; stroke: #ee6f63; stroke-linejoin: miter"/>
    </g>
   </g>
   <g id="line2d_32">
    <path d="M 70.598636 193.328 
L 111.595909 172.030426 
L 152.593182 168.643995 
L 193.590455 163.885433 
L 234.587727 166.812039 
L 275.585 158.847054 
L 316.582273 161.689087 
L 357.579545 156.106592 
L 398.576818 155.768359 
L 439.574091 157.041284 
L 480.571364 163.031698 
" clip-path="url(#p822a680a92)" style="fill: none; stroke: #5fa8e8; stroke-width: 2.3; stroke-linecap: square"/>
    <defs>
     <path id="m87681d185c" d="M -3 3 
L 3 3 
L 3 -3 
L -3 -3 
z
" style="stroke: #5fa8e8; stroke-linejoin: miter"/>
    </defs>
    <g clip-path="url(#p822a680a92)">
     <use xlink:href="#m87681d185c" x="70.598636" y="193.328" style="fill: #5fa8e8; stroke: #5fa8e8; stroke-linejoin: miter"/>
     <use xlink:href="#m87681d185c" x="111.595909" y="172.030426" style="fill: #5fa8e8; stroke: #5fa8e8; stroke-linejoin: miter"/>
     <use xlink:href="#m87681d185c" x="152.593182" y="168.643995" style="fill: #5fa8e8; stroke: #5fa8e8; stroke-linejoin: miter"/>
     <use xlink:href="#m87681d185c" x="193.590455" y="163.885433" style="fill: #5fa8e8; stroke: #5fa8e8; stroke-linejoin: miter"/>
     <use xlink:href="#m87681d185c" x="234.587727" y="166.812039" style="fill: #5fa8e8; stroke: #5fa8e8; stroke-linejoin: miter"/>
     <use xlink:href="#m87681d185c" x="275.585" y="158.847054" style="fill: #5fa8e8; stroke: #5fa8e8; stroke-linejoin: miter"/>
     <use xlink:href="#m87681d185c" x="316.582273" y="161.689087" style="fill: #5fa8e8; stroke: #5fa8e8; stroke-linejoin: miter"/>
     <use xlink:href="#m87681d185c" x="357.579545" y="156.106592" style="fill: #5fa8e8; stroke: #5fa8e8; stroke-linejoin: miter"/>
     <use xlink:href="#m87681d185c" x="398.576818" y="155.768359" style="fill: #5fa8e8; stroke: #5fa8e8; stroke-linejoin: miter"/>
     <use xlink:href="#m87681d185c" x="439.574091" y="157.041284" style="fill: #5fa8e8; stroke: #5fa8e8; stroke-linejoin: miter"/>
     <use xlink:href="#m87681d185c" x="480.571364" y="163.031698" style="fill: #5fa8e8; stroke: #5fa8e8; stroke-linejoin: miter"/>
    </g>
   </g>
   <g id="line2d_33">
    <path d="M 70.598636 193.328 
L 111.595909 178.945727 
L 152.593182 186.04718 
L 193.590455 187.540016 
L 234.587727 198.791117 
L 275.585 186.100777 
L 316.582273 184.089565 
L 357.579545 166.017194 
L 398.576818 177.109791 
L 439.574091 193.451204 
L 480.571364 192.528029 
" clip-path="url(#p822a680a92)" style="fill: none; stroke: #63cfa0; stroke-width: 2.3; stroke-linecap: square"/>
    <defs>
     <path id="m2d49ab47d3" d="M 0 -3 
L -3 3 
L 3 3 
z
" style="stroke: #63cfa0; stroke-linejoin: miter"/>
    </defs>
    <g clip-path="url(#p822a680a92)">
     <use xlink:href="#m2d49ab47d3" x="70.598636" y="193.328" style="fill: #63cfa0; stroke: #63cfa0; stroke-linejoin: miter"/>
     <use xlink:href="#m2d49ab47d3" x="111.595909" y="178.945727" style="fill: #63cfa0; stroke: #63cfa0; stroke-linejoin: miter"/>
     <use xlink:href="#m2d49ab47d3" x="152.593182" y="186.04718" style="fill: #63cfa0; stroke: #63cfa0; stroke-linejoin: miter"/>
     <use xlink:href="#m2d49ab47d3" x="193.590455" y="187.540016" style="fill: #63cfa0; stroke: #63cfa0; stroke-linejoin: miter"/>
     <use xlink:href="#m2d49ab47d3" x="234.587727" y="198.791117" style="fill: #63cfa0; stroke: #63cfa0; stroke-linejoin: miter"/>
     <use xlink:href="#m2d49ab47d3" x="275.585" y="186.100777" style="fill: #63cfa0; stroke: #63cfa0; stroke-linejoin: miter"/>
     <use xlink:href="#m2d49ab47d3" x="316.582273" y="184.089565" style="fill: #63cfa0; stroke: #63cfa0; stroke-linejoin: miter"/>
     <use xlink:href="#m2d49ab47d3" x="357.579545" y="166.017194" style="fill: #63cfa0; stroke: #63cfa0; stroke-linejoin: miter"/>
     <use xlink:href="#m2d49ab47d3" x="398.576818" y="177.109791" style="fill: #63cfa0; stroke: #63cfa0; stroke-linejoin: miter"/>
     <use xlink:href="#m2d49ab47d3" x="439.574091" y="193.451204" style="fill: #63cfa0; stroke: #63cfa0; stroke-linejoin: miter"/>
     <use xlink:href="#m2d49ab47d3" x="480.571364" y="192.528029" style="fill: #63cfa0; stroke: #63cfa0; stroke-linejoin: miter"/>
    </g>
   </g>
   <g id="line2d_34">
    <path d="M 70.598636 193.328 
L 111.595909 201.580024 
L 152.593182 204.676862 
L 193.590455 170.862162 
L 234.587727 185.648916 
L 275.585 174.623748 
L 316.582273 195.308129 
L 357.579545 184.000715 
L 398.576818 197.177964 
L 439.574091 179.93218 
L 480.571364 201.406932 
" clip-path="url(#p822a680a92)" style="fill: none; stroke: #b08adf; stroke-width: 2.3; stroke-linecap: square"/>
    <defs>
     <path id="m8452945abd" d="M -0 4.242641 
L 4.242641 0 
L 0 -4.242641 
L -4.242641 -0 
z
" style="stroke: #b08adf; stroke-linejoin: miter"/>
    </defs>
    <g clip-path="url(#p822a680a92)">
     <use xlink:href="#m8452945abd" x="70.598636" y="193.328" style="fill: #b08adf; stroke: #b08adf; stroke-linejoin: miter"/>
     <use xlink:href="#m8452945abd" x="111.595909" y="201.580024" style="fill: #b08adf; stroke: #b08adf; stroke-linejoin: miter"/>
     <use xlink:href="#m8452945abd" x="152.593182" y="204.676862" style="fill: #b08adf; stroke: #b08adf; stroke-linejoin: miter"/>
     <use xlink:href="#m8452945abd" x="193.590455" y="170.862162" style="fill: #b08adf; stroke: #b08adf; stroke-linejoin: miter"/>
     <use xlink:href="#m8452945abd" x="234.587727" y="185.648916" style="fill: #b08adf; stroke: #b08adf; stroke-linejoin: miter"/>
     <use xlink:href="#m8452945abd" x="275.585" y="174.623748" style="fill: #b08adf; stroke: #b08adf; stroke-linejoin: miter"/>
     <use xlink:href="#m8452945abd" x="316.582273" y="195.308129" style="fill: #b08adf; stroke: #b08adf; stroke-linejoin: miter"/>
     <use xlink:href="#m8452945abd" x="357.579545" y="184.000715" style="fill: #b08adf; stroke: #b08adf; stroke-linejoin: miter"/>
     <use xlink:href="#m8452945abd" x="398.576818" y="197.177964" style="fill: #b08adf; stroke: #b08adf; stroke-linejoin: miter"/>
     <use xlink:href="#m8452945abd" x="439.574091" y="179.93218" style="fill: #b08adf; stroke: #b08adf; stroke-linejoin: miter"/>
     <use xlink:href="#m8452945abd" x="480.571364" y="201.406932" style="fill: #b08adf; stroke: #b08adf; stroke-linejoin: miter"/>
    </g>
   </g>
   <g id="patch_3">
    <path d="M 50.1 342.526875 
L 50.1 10.671875 
" style="fill: none; stroke: #000000; stroke-width: 0.8; stroke-linejoin: miter; stroke-linecap: square"/>
   </g>
   <g id="patch_4">
    <path d="M 501.07 342.526875 
L 501.07 10.671875 
" style="fill: none; stroke: #000000; stroke-width: 0.8; stroke-linejoin: miter; stroke-linecap: square"/>
   </g>
   <g id="patch_5">
    <path d="M 50.1 342.526875 
L 501.07 342.526875 
" style="fill: none; stroke: #000000; stroke-width: 0.8; stroke-linejoin: miter; stroke-linecap: square"/>
   </g>
   <g id="patch_6">
    <path d="M 50.1 10.671875 
L 501.07 10.671875 
" style="fill: none; stroke: #000000; stroke-width: 0.8; stroke-linejoin: miter; stroke-linecap: square"/>
   </g>
   <g id="legend_1">
    <g id="patch_7">
     <path d="M 57.1 75.228125 
L 130.226562 75.228125 
Q 132.226562 75.228125 132.226562 73.228125 
L 132.226562 17.671875 
Q 132.226562 15.671875 130.226562 15.671875 
L 57.1 15.671875 
Q 55.1 15.671875 55.1 17.671875 
L 55.1 73.228125 
Q 55.1 75.228125 57.1 75.228125 
z
" style="fill: #ffffff; opacity: 0.8; stroke: #cccccc; stroke-linejoin: miter"/>
    </g>
    <g id="line2d_35">
     <path d="M 59.1 23.171875 
L 69.1 23.171875 
L 79.1 23.171875 
" style="fill: none; stroke: #ee6f63; stroke-width: 2.3; stroke-linecap: square"/>
     <g>
      <use xlink:href="#m01106ac480" x="69.1" y="23.171875" style="fill: #ee6f63; stroke: #ee6f63; stroke-linejoin: miter"/>
     </g>
    </g>
    <g id="text_18">
     <!-- DE2VF -->
     <g transform="translate(87.1 26.671875) scale(0.1 -0.1)">
      <defs>
       <path id="TimesNewRomanPSMT-44" d="M 109 0 
L 109 116 
L 269 116 
Q 538 116 650 288 
Q 719 391 719 750 
L 719 3488 
Q 719 3884 631 3984 
Q 509 4122 269 4122 
L 109 4122 
L 109 4238 
L 1834 4238 
Q 2784 4238 3279 4022 
Q 3775 3806 4076 3303 
Q 4378 2800 4378 2141 
Q 4378 1256 3841 663 
Q 3238 0 2003 0 
L 109 0 
z
M 1319 306 
Q 1716 219 1984 219 
Q 2709 219 3187 728 
Q 3666 1238 3666 2109 
Q 3666 2988 3187 3494 
Q 2709 4000 1959 4000 
Q 1678 4000 1319 3909 
L 1319 306 
z
" transform="scale(0.015625)"/>
       <path id="TimesNewRomanPSMT-45" d="M 1338 4006 
L 1338 2331 
L 2269 2331 
Q 2631 2331 2753 2441 
Q 2916 2584 2934 2947 
L 3050 2947 
L 3050 1472 
L 2934 1472 
Q 2891 1781 2847 1869 
Q 2791 1978 2662 2040 
Q 2534 2103 2269 2103 
L 1338 2103 
L 1338 706 
Q 1338 425 1363 364 
Q 1388 303 1450 267 
Q 1513 231 1688 231 
L 2406 231 
Q 2766 231 2928 281 
Q 3091 331 3241 478 
Q 3434 672 3638 1063 
L 3763 1063 
L 3397 0 
L 131 0 
L 131 116 
L 281 116 
Q 431 116 566 188 
Q 666 238 702 338 
Q 738 438 738 747 
L 738 3500 
Q 738 3903 656 3997 
Q 544 4122 281 4122 
L 131 4122 
L 131 4238 
L 3397 4238 
L 3444 3309 
L 3322 3309 
Q 3256 3644 3176 3769 
Q 3097 3894 2941 3959 
Q 2816 4006 2500 4006 
L 1338 4006 
z
" transform="scale(0.015625)"/>
       <path id="TimesNewRomanPSMT-56" d="M 4544 4238 
L 4544 4122 
Q 4319 4081 4203 3978 
Q 4038 3825 3909 3509 
L 2431 -97 
L 2316 -97 
L 728 3556 
Q 606 3838 556 3900 
Q 478 3997 364 4051 
Q 250 4106 56 4122 
L 56 4238 
L 1788 4238 
L 1788 4122 
Q 1494 4094 1406 4022 
Q 1319 3950 1319 3838 
Q 1319 3681 1463 3350 
L 2541 866 
L 3541 3319 
Q 3688 3681 3688 3822 
Q 3688 3913 3597 3995 
Q 3506 4078 3291 4113 
Q 3275 4116 3238 4122 
L 3238 4238 
L 4544 4238 
z
" transform="scale(0.015625)"/>
       <path id="TimesNewRomanPSMT-46" d="M 1309 4006 
L 1309 2341 
L 2081 2341 
Q 2347 2341 2470 2458 
Q 2594 2575 2634 2922 
L 2750 2922 
L 2750 1488 
L 2634 1488 
Q 2631 1734 2570 1850 
Q 2509 1966 2401 2023 
Q 2294 2081 2081 2081 
L 1309 2081 
L 1309 750 
Q 1309 428 1350 325 
Q 1381 247 1481 191 
Q 1619 116 1769 116 
L 1922 116 
L 1922 0 
L 103 0 
L 103 116 
L 253 116 
Q 516 116 634 269 
Q 709 369 709 750 
L 709 3488 
Q 709 3809 669 3913 
Q 638 3991 541 4047 
Q 406 4122 253 4122 
L 103 4122 
L 103 4238 
L 3256 4238 
L 3297 3306 
L 3188 3306 
Q 3106 3603 2998 3742 
Q 2891 3881 2733 3943 
Q 2575 4006 2244 4006 
L 1309 4006 
z
" transform="scale(0.015625)"/>
      </defs>
      <use xlink:href="#TimesNewRomanPSMT-44"/>
      <use xlink:href="#TimesNewRomanPSMT-45" transform="translate(72.216797 0)"/>
      <use xlink:href="#TimesNewRomanPSMT-32" transform="translate(133.300781 0)"/>
      <use xlink:href="#TimesNewRomanPSMT-56" transform="translate(183.300781 0)"/>
      <use xlink:href="#TimesNewRomanPSMT-46" transform="translate(255.517578 0)"/>
     </g>
    </g>
    <g id="line2d_36">
     <path d="M 59.1 37.310937 
L 69.1 37.310937 
L 79.1 37.310937 
" style="fill: none; stroke: #5fa8e8; stroke-width: 2.3; stroke-linecap: square"/>
     <g>
      <use xlink:href="#m87681d185c" x="69.1" y="37.310937" style="fill: #5fa8e8; stroke: #5fa8e8; stroke-linejoin: miter"/>
     </g>
    </g>
    <g id="text_19">
     <!-- DGA-CF -->
     <g transform="translate(87.1 40.810937) scale(0.1 -0.1)">
      <defs>
       <path id="TimesNewRomanPSMT-47" d="M 3928 4334 
L 4038 2997 
L 3928 2997 
Q 3763 3497 3500 3750 
Q 3122 4116 2528 4116 
Q 1719 4116 1297 3475 
Q 944 2934 944 2188 
Q 944 1581 1178 1081 
Q 1413 581 1792 348 
Q 2172 116 2572 116 
Q 2806 116 3025 175 
Q 3244 234 3447 350 
L 3447 1575 
Q 3447 1894 3398 1992 
Q 3350 2091 3248 2142 
Q 3147 2194 2891 2194 
L 2891 2313 
L 4531 2313 
L 4531 2194 
L 4453 2194 
Q 4209 2194 4119 2031 
Q 4056 1916 4056 1575 
L 4056 278 
Q 3697 84 3347 -6 
Q 2997 -97 2569 -97 
Q 1341 -97 703 691 
Q 225 1281 225 2053 
Q 225 2613 494 3125 
Q 813 3734 1369 4063 
Q 1834 4334 2469 4334 
Q 2700 4334 2889 4296 
Q 3078 4259 3425 4131 
Q 3600 4066 3659 4066 
Q 3719 4066 3761 4120 
Q 3803 4175 3813 4334 
L 3928 4334 
z
" transform="scale(0.015625)"/>
       <path id="TimesNewRomanPSMT-41" d="M 2928 1419 
L 1288 1419 
L 1000 750 
Q 894 503 894 381 
Q 894 284 986 211 
Q 1078 138 1384 116 
L 1384 0 
L 50 0 
L 50 116 
Q 316 163 394 238 
Q 553 388 747 847 
L 2238 4334 
L 2347 4334 
L 3822 809 
Q 4000 384 4145 257 
Q 4291 131 4550 116 
L 4550 0 
L 2878 0 
L 2878 116 
Q 3131 128 3220 200 
Q 3309 272 3309 375 
Q 3309 513 3184 809 
L 2928 1419 
z
M 2841 1650 
L 2122 3363 
L 1384 1650 
L 2841 1650 
z
" transform="scale(0.015625)"/>
       <path id="TimesNewRomanPSMT-2d" d="M 259 1672 
L 1875 1672 
L 1875 1200 
L 259 1200 
L 259 1672 
z
" transform="scale(0.015625)"/>
       <path id="TimesNewRomanPSMT-43" d="M 3853 4334 
L 3950 2894 
L 3853 2894 
Q 3659 3541 3300 3825 
Q 2941 4109 2438 4109 
Q 2016 4109 1675 3895 
Q 1334 3681 1139 3212 
Q 944 2744 944 2047 
Q 944 1472 1128 1050 
Q 1313 628 1683 403 
Q 2053 178 2528 178 
Q 2941 178 3256 354 
Q 3572 531 3950 1056 
L 4047 994 
Q 3728 428 3303 165 
Q 2878 -97 2294 -97 
Q 1241 -97 663 684 
Q 231 1266 231 2053 
Q 231 2688 515 3219 
Q 800 3750 1298 4042 
Q 1797 4334 2388 4334 
Q 2847 4334 3294 4109 
Q 3425 4041 3481 4041 
Q 3566 4041 3628 4100 
Q 3709 4184 3744 4334 
L 3853 4334 
z
" transform="scale(0.015625)"/>
      </defs>
      <use xlink:href="#TimesNewRomanPSMT-44"/>
      <use xlink:href="#TimesNewRomanPSMT-47" transform="translate(72.216797 0)"/>
      <use xlink:href="#TimesNewRomanPSMT-41" transform="translate(144.433594 0)"/>
      <use xlink:href="#TimesNewRomanPSMT-2d" transform="translate(216.650391 0)"/>
      <use xlink:href="#TimesNewRomanPSMT-43" transform="translate(249.951172 0)"/>
      <use xlink:href="#TimesNewRomanPSMT-46" transform="translate(316.650391 0)"/>
     </g>
    </g>
    <g id="line2d_37">
     <path d="M 59.1 51.45 
L 69.1 51.45 
L 79.1 51.45 
" style="fill: none; stroke: #63cfa0; stroke-width: 2.3; stroke-linecap: square"/>
     <g>
      <use xlink:href="#m2d49ab47d3" x="69.1" y="51.45" style="fill: #63cfa0; stroke: #63cfa0; stroke-linejoin: miter"/>
     </g>
    </g>
    <g id="text_20">
     <!-- DPSO-CF -->
     <g transform="translate(87.1 54.95) scale(0.1 -0.1)">
      <defs>
       <path id="TimesNewRomanPSMT-50" d="M 1313 1984 
L 1313 750 
Q 1313 350 1400 253 
Q 1519 116 1759 116 
L 1922 116 
L 1922 0 
L 106 0 
L 106 116 
L 266 116 
Q 534 116 650 291 
Q 713 388 713 750 
L 713 3488 
Q 713 3888 628 3984 
Q 506 4122 266 4122 
L 106 4122 
L 106 4238 
L 1659 4238 
Q 2228 4238 2556 4120 
Q 2884 4003 3109 3725 
Q 3334 3447 3334 3066 
Q 3334 2547 2992 2222 
Q 2650 1897 2025 1897 
Q 1872 1897 1694 1919 
Q 1516 1941 1313 1984 
z
M 1313 2163 
Q 1478 2131 1606 2115 
Q 1734 2100 1825 2100 
Q 2150 2100 2386 2351 
Q 2622 2603 2622 3003 
Q 2622 3278 2509 3514 
Q 2397 3750 2190 3867 
Q 1984 3984 1722 3984 
Q 1563 3984 1313 3925 
L 1313 2163 
z
" transform="scale(0.015625)"/>
       <path id="TimesNewRomanPSMT-53" d="M 2934 4334 
L 2934 2869 
L 2819 2869 
Q 2763 3291 2617 3541 
Q 2472 3791 2203 3937 
Q 1934 4084 1647 4084 
Q 1322 4084 1109 3886 
Q 897 3688 897 3434 
Q 897 3241 1031 3081 
Q 1225 2847 1953 2456 
Q 2547 2138 2764 1967 
Q 2981 1797 3098 1565 
Q 3216 1334 3216 1081 
Q 3216 600 2842 251 
Q 2469 -97 1881 -97 
Q 1697 -97 1534 -69 
Q 1438 -53 1133 45 
Q 828 144 747 144 
Q 669 144 623 97 
Q 578 50 556 -97 
L 441 -97 
L 441 1356 
L 556 1356 
Q 638 900 775 673 
Q 913 447 1195 297 
Q 1478 147 1816 147 
Q 2206 147 2432 353 
Q 2659 559 2659 841 
Q 2659 997 2573 1156 
Q 2488 1316 2306 1453 
Q 2184 1547 1640 1851 
Q 1097 2156 867 2337 
Q 638 2519 519 2737 
Q 400 2956 400 3219 
Q 400 3675 750 4004 
Q 1100 4334 1641 4334 
Q 1978 4334 2356 4169 
Q 2531 4091 2603 4091 
Q 2684 4091 2736 4139 
Q 2788 4188 2819 4334 
L 2934 4334 
z
" transform="scale(0.015625)"/>
       <path id="TimesNewRomanPSMT-4f" d="M 2341 4334 
Q 3166 4334 3770 3707 
Q 4375 3081 4375 2144 
Q 4375 1178 3765 540 
Q 3156 -97 2291 -97 
Q 1416 -97 820 525 
Q 225 1147 225 2134 
Q 225 3144 913 3781 
Q 1509 4334 2341 4334 
z
M 2281 4106 
Q 1713 4106 1369 3684 
Q 941 3159 941 2147 
Q 941 1109 1384 550 
Q 1725 125 2284 125 
Q 2881 125 3270 590 
Q 3659 1056 3659 2059 
Q 3659 3147 3231 3681 
Q 2888 4106 2281 4106 
z
" transform="scale(0.015625)"/>
      </defs>
      <use xlink:href="#TimesNewRomanPSMT-44"/>
      <use xlink:href="#TimesNewRomanPSMT-50" transform="translate(72.216797 0)"/>
      <use xlink:href="#TimesNewRomanPSMT-53" transform="translate(127.832031 0)"/>
      <use xlink:href="#TimesNewRomanPSMT-4f" transform="translate(183.447266 0)"/>
      <use xlink:href="#TimesNewRomanPSMT-2d" transform="translate(255.664062 0)"/>
      <use xlink:href="#TimesNewRomanPSMT-43" transform="translate(288.964844 0)"/>
      <use xlink:href="#TimesNewRomanPSMT-46" transform="translate(355.664062 0)"/>
     </g>
    </g>
    <g id="line2d_38">
     <path d="M 59.1 65.589062 
L 69.1 65.589062 
L 79.1 65.589062 
" style="fill: none; stroke: #b08adf; stroke-width: 2.3; stroke-linecap: square"/>
     <g>
      <use xlink:href="#m8452945abd" x="69.1" y="65.589062" style="fill: #b08adf; stroke: #b08adf; stroke-linejoin: miter"/>
     </g>
    </g>
    <g id="text_21">
     <!-- NSSA-CF -->
     <g transform="translate(87.1 69.089062) scale(0.1 -0.1)">
      <defs>
       <path id="TimesNewRomanPSMT-4e" d="M -84 4238 
L 1066 4238 
L 3656 1059 
L 3656 3503 
Q 3656 3894 3569 3991 
Q 3453 4122 3203 4122 
L 3056 4122 
L 3056 4238 
L 4531 4238 
L 4531 4122 
L 4381 4122 
Q 4113 4122 4000 3959 
Q 3931 3859 3931 3503 
L 3931 -69 
L 3819 -69 
L 1025 3344 
L 1025 734 
Q 1025 344 1109 247 
Q 1228 116 1475 116 
L 1625 116 
L 1625 0 
L 150 0 
L 150 116 
L 297 116 
Q 569 116 681 278 
Q 750 378 750 734 
L 750 3681 
Q 566 3897 470 3965 
Q 375 4034 191 4094 
Q 100 4122 -84 4122 
L -84 4238 
z
" transform="scale(0.015625)"/>
      </defs>
      <use xlink:href="#TimesNewRomanPSMT-4e"/>
      <use xlink:href="#TimesNewRomanPSMT-53" transform="translate(72.216797 0)"/>
      <use xlink:href="#TimesNewRomanPSMT-53" transform="translate(127.832031 0)"/>
      <use xlink:href="#TimesNewRomanPSMT-41" transform="translate(183.447266 0)"/>
      <use xlink:href="#TimesNewRomanPSMT-2d" transform="translate(255.664062 0)"/>
      <use xlink:href="#TimesNewRomanPSMT-43" transform="translate(288.964844 0)"/>
      <use xlink:href="#TimesNewRomanPSMT-46" transform="translate(355.664062 0)"/>
     </g>
    </g>
   </g>
  </g>
 </g>
 <defs>
  <clipPath id="p822a680a92">
   <rect x="50.1" y="10.671875" width="450.97" height="331.855"/>
  </clipPath>
 </defs>
</svg>
