<?xml version="1.0" encoding="utf-8" standalone="no"?>
<!DOCTYPE svg PUBLIC "-//W3C//DTD SVG 1.1//EN"
  "http://www.w3.org/Graphics/SVG/1.1/DTD/svg11.dtd">
<svg xmlns:xlink="http://www.w3.org/1999/xlink" width="510.162812pt" height="379.764535pt" viewBox="0 0 510.162812 379.764535" xmlns="http://www.w3.org/2000/svg" version="1.1">
 <metadata>
  <rdf:RDF xmlns:dc="http://purl.org/dc/elements/1.1/" xmlns:cc="http://creativecommons.org/ns#" xmlns:rdf="http://www.w3.org/1999/02/22-rdf-syntax-ns#">
   <cc:Work>
    <dc:type rdf:resource="http://purl.org/dc/dcmitype/StillImage"/>
    <dc:date>2026-04-09T00:44:14.736617</dc:date>
    <dc:format>image/svg+xml</dc:format>
    <dc:creator>
     <cc:Agent>
      <dc:title>Matplotlib v3.10.8, https://matplotlib.org/</dc:title>
     </cc:Agent>
    </dc:creator>
   </cc:Work>
  </rdf:RDF>
 </metadata>
 <defs>
  <style type="text/css">*{stroke-linejoin: round; stroke-linecap: butt}</style>
 </defs>
 <g id="figure_1">
  <g id="patch_1">
   <path d="M 0 379.764535 
L 510.162812 379.764535 
L 510.162812 0 
L 0 0 
z
" style="fill: #ffffff"/>
  </g>
  <g id="axes_1">
   <g id="patch_2">
    <path d="M 32.282813 342.212972 
L 502.962813 342.212972 
L 502.962813 7.2 
L 32.282813 7.2 
z
" style="fill: #ffffff"/>
   </g>
   <g id="matplotlib.axis_1">
    <g id="xtick_1">
     <g id="line2d_1">
      <path d="M 101.220792 342.212972 
L 101.220792 7.2 
" clip-path="url(#peae0428b77)" style="fill: none; stroke: #b0b0b0; stroke-opacity: 0.3; stroke-width: 0.8; stroke-linecap: square"/>
     </g>
     <g id="line2d_2">
      <defs>
       <path id="m9fba71e4e0" d="M 0 0 
L 0 3.5 
" style="stroke: #000000; stroke-width: 0.8"/>
      </defs>
      <g>
       <use xlink:href="#m9fba71e4e0" x="101.220792" y="342.212972" style="stroke: #000000; stroke-width: 0.8"/>
      </g>
     </g>
     <g id="text_1">
      <!-- 10 -->
      <g transform="translate(96.220792 356.156722) scale(0.1 -0.1)">
       <defs>
        <path id="TimesNewRomanPSMT-31" d="M 750 3822 
L 1781 4325 
L 1884 4325 
L 1884 747 
Q 1884 391 1914 303 
Q 1944 216 2037 169 
Q 2131 122 2419 116 
L 2419 0 
L 825 0 
L 825 116 
Q 1125 122 1212 167 
Q 1300 213 1334 289 
Q 1369 366 1369 747 
L 1369 3034 
Q 1369 3497 1338 3628 
Q 1316 3728 1258 3775 
Q 1200 3822 1119 3822 
Q 1003 3822 797 3725 
L 750 3822 
z
" transform="scale(0.015625)"/>
        <path id="TimesNewRomanPSMT-30" d="M 231 2094 
Q 231 2819 450 3342 
Q 669 3866 1031 4122 
Q 1313 4325 1613 4325 
Q 2100 4325 2488 3828 
Q 2972 3213 2972 2159 
Q 2972 1422 2759 906 
Q 2547 391 2217 158 
Q 1888 -75 1581 -75 
Q 975 -75 572 641 
Q 231 1244 231 2094 
z
M 844 2016 
Q 844 1141 1059 588 
Q 1238 122 1591 122 
Q 1759 122 1940 273 
Q 2122 425 2216 781 
Q 2359 1319 2359 2297 
Q 2359 3022 2209 3506 
Q 2097 3866 1919 4016 
Q 1791 4119 1609 4119 
Q 1397 4119 1231 3928 
Q 1006 3669 925 3112 
Q 844 2556 844 2016 
z
" transform="scale(0.015625)"/>
       </defs>
       <use xlink:href="#TimesNewRomanPSMT-31"/>
       <use xlink:href="#TimesNewRomanPSMT-30" transform="translate(50 0)"/>
      </g>
     </g>
    </g>
    <g id="xtick_2">
     <g id="line2d_3">
      <path d="M 196.307661 342.212972 
L 196.307661 7.2 
" clip-path="url(#peae0428b77)" style="fill: none; stroke: #b0b0b0; stroke-opacity: 0.3; stroke-width: 0.8; stroke-linecap: square"/>
     </g>
     <g id="line2d_4">
      <g>
       <use xlink:href="#m9fba71e4e0" x="196.307661" y="342.212972" style="stroke: #000000; stroke-width: 0.8"/>
      </g>
     </g>
     <g id="text_2">
      <!-- 20 -->
      <g transform="translate(191.307661 356.156722) scale(0.1 -0.1)">
       <defs>
        <path id="TimesNewRomanPSMT-32" d="M 2934 816 
L 2638 0 
L 138 0 
L 138 116 
Q 1241 1122 1691 1759 
Q 2141 2397 2141 2925 
Q 2141 3328 1894 3587 
Q 1647 3847 1303 3847 
Q 991 3847 742 3664 
Q 494 3481 375 3128 
L 259 3128 
Q 338 3706 661 4015 
Q 984 4325 1469 4325 
Q 1984 4325 2329 3994 
Q 2675 3663 2675 3213 
Q 2675 2891 2525 2569 
Q 2294 2063 1775 1497 
Q 997 647 803 472 
L 1909 472 
Q 2247 472 2383 497 
Q 2519 522 2628 598 
Q 2738 675 2819 816 
L 2934 816 
z
" transform="scale(0.015625)"/>
       </defs>
       <use xlink:href="#TimesNewRomanPSMT-32"/>
       <use xlink:href="#TimesNewRomanPSMT-30" transform="translate(50 0)"/>
      </g>
     </g>
    </g>
    <g id="xtick_3">
     <g id="line2d_5">
      <path d="M 291.39453 342.212972 
L 291.39453 7.2 
" clip-path="url(#peae0428b77)" style="fill: none; stroke: #b0b0b0; stroke-opacity: 0.3; stroke-width: 0.8; stroke-linecap: square"/>
     </g>
     <g id="line2d_6">
      <g>
       <use xlink:href="#m9fba71e4e0" x="291.39453" y="342.212972" style="stroke: #000000; stroke-width: 0.8"/>
      </g>
     </g>
     <g id="text_3">
      <!-- 30 -->
      <g transform="translate(286.39453 356.156722) scale(0.1 -0.1)">
       <defs>
        <path id="TimesNewRomanPSMT-33" d="M 325 3431 
Q 506 3859 782 4092 
Q 1059 4325 1472 4325 
Q 1981 4325 2253 3994 
Q 2459 3747 2459 3466 
Q 2459 3003 1878 2509 
Q 2269 2356 2469 2072 
Q 2669 1788 2669 1403 
Q 2669 853 2319 450 
Q 1863 -75 997 -75 
Q 569 -75 414 31 
Q 259 138 259 259 
Q 259 350 332 419 
Q 406 488 509 488 
Q 588 488 669 463 
Q 722 447 909 348 
Q 1097 250 1169 231 
Q 1284 197 1416 197 
Q 1734 197 1970 444 
Q 2206 691 2206 1028 
Q 2206 1275 2097 1509 
Q 2016 1684 1919 1775 
Q 1784 1900 1550 2001 
Q 1316 2103 1072 2103 
L 972 2103 
L 972 2197 
Q 1219 2228 1467 2375 
Q 1716 2522 1828 2728 
Q 1941 2934 1941 3181 
Q 1941 3503 1739 3701 
Q 1538 3900 1238 3900 
Q 753 3900 428 3381 
L 325 3431 
z
" transform="scale(0.015625)"/>
       </defs>
       <use xlink:href="#TimesNewRomanPSMT-33"/>
       <use xlink:href="#TimesNewRomanPSMT-30" transform="translate(50 0)"/>
      </g>
     </g>
    </g>
    <g id="xtick_4">
     <g id="line2d_7">
      <path d="M 386.481398 342.212972 
L 386.481398 7.2 
" clip-path="url(#peae0428b77)" style="fill: none; stroke: #b0b0b0; stroke-opacity: 0.3; stroke-width: 0.8; stroke-linecap: square"/>
     </g>
     <g id="line2d_8">
      <g>
       <use xlink:href="#m9fba71e4e0" x="386.481398" y="342.212972" style="stroke: #000000; stroke-width: 0.8"/>
      </g>
     </g>
     <g id="text_4">
      <!-- 40 -->
      <g transform="translate(381.481398 356.156722) scale(0.1 -0.1)">
       <defs>
        <path id="TimesNewRomanPSMT-34" d="M 2978 1563 
L 2978 1119 
L 2409 1119 
L 2409 0 
L 1894 0 
L 1894 1119 
L 100 1119 
L 100 1519 
L 2066 4325 
L 2409 4325 
L 2409 1563 
L 2978 1563 
z
M 1894 1563 
L 1894 3666 
L 406 1563 
L 1894 1563 
z
" transform="scale(0.015625)"/>
       </defs>
       <use xlink:href="#TimesNewRomanPSMT-34"/>
       <use xlink:href="#TimesNewRomanPSMT-30" transform="translate(50 0)"/>
      </g>
     </g>
    </g>
    <g id="xtick_5">
     <g id="line2d_9">
      <path d="M 481.568267 342.212972 
L 481.568267 7.2 
" clip-path="url(#peae0428b77)" style="fill: none; stroke: #b0b0b0; stroke-opacity: 0.3; stroke-width: 0.8; stroke-linecap: square"/>
     </g>
     <g id="line2d_10">
      <g>
       <use xlink:href="#m9fba71e4e0" x="481.568267" y="342.212972" style="stroke: #000000; stroke-width: 0.8"/>
      </g>
     </g>
     <g id="text_5">
      <!-- 50 -->
      <g transform="translate(476.568267 356.156722) scale(0.1 -0.1)">
       <defs>
        <path id="TimesNewRomanPSMT-35" d="M 2778 4238 
L 2534 3706 
L 1259 3706 
L 981 3138 
Q 1809 3016 2294 2522 
Q 2709 2097 2709 1522 
Q 2709 1188 2573 903 
Q 2438 619 2231 419 
Q 2025 219 1772 97 
Q 1413 -75 1034 -75 
Q 653 -75 479 54 
Q 306 184 306 341 
Q 306 428 378 495 
Q 450 563 559 563 
Q 641 563 702 538 
Q 763 513 909 409 
Q 1144 247 1384 247 
Q 1750 247 2026 523 
Q 2303 800 2303 1197 
Q 2303 1581 2056 1914 
Q 1809 2247 1375 2428 
Q 1034 2569 447 2591 
L 1259 4238 
L 2778 4238 
z
" transform="scale(0.015625)"/>
       </defs>
       <use xlink:href="#TimesNewRomanPSMT-35"/>
       <use xlink:href="#TimesNewRomanPSMT-30" transform="translate(50 0)"/>
      </g>
     </g>
    </g>
    <g id="text_6">
     <!-- 时间 (s) -->
     <g transform="translate(251.097031 370.425472) scale(0.1 -0.1)">
      <defs>
       <path id="SimSong-Regular-65f6" d="M 2534 3674 
L 2656 3392 
C 2797 3424 3021 3443 3334 3443 
L 4672 3443 
L 4672 134 
C 4672 70 4666 32 4653 19 
C 4614 -6 4563 -19 4493 -19 
C 4301 -19 3987 13 3552 77 
L 3514 -26 
C 4064 -141 4339 -256 4365 -371 
C 4371 -499 4442 -570 4550 -570 
C 4621 -570 4723 -531 4864 -467 
L 4864 -467 
C 4992 -403 5069 -256 5069 -32 
L 5069 3443 
L 6061 3443 
C 6118 3443 6157 3469 6157 3526 
C 6157 3552 6086 3635 5971 3770 
C 5843 3904 5747 3974 5696 3974 
C 5670 3974 5613 3923 5523 3821 
C 5434 3712 5370 3642 5338 3616 
L 5069 3616 
L 5069 4832 
C 5069 4890 5094 4928 5171 4954 
C 5267 4979 5325 5018 5325 5082 
C 5325 5107 5248 5126 5120 5152 
L 4653 5203 
C 4666 5043 4672 4858 4672 4653 
L 4672 3616 
L 3334 3616 
C 2989 3616 2726 3635 2534 3674 
L 2534 3674 
z
M 659 4678 
C 672 4448 685 4256 685 4102 
L 685 742 
C 685 557 672 346 659 102 
C 659 38 710 6 787 6 
C 838 6 902 13 973 38 
C 1024 58 1056 83 1056 122 
L 1056 717 
L 1984 717 
L 1984 256 
C 1984 186 2022 154 2086 154 
C 2150 154 2221 160 2317 186 
C 2355 211 2387 237 2387 275 
L 2355 890 
L 2355 4224 
C 2355 4256 2362 4288 2394 4320 
C 2432 4358 2458 4390 2458 4422 
C 2458 4454 2394 4518 2285 4614 
C 2189 4691 2125 4730 2093 4730 
C 2067 4730 2016 4704 1965 4653 
C 1914 4608 1862 4563 1798 4518 
L 1018 4518 
C 909 4582 794 4634 659 4678 
L 659 4678 
z
M 1056 2765 
L 1056 4339 
L 1984 4339 
L 1984 2765 
L 1056 2765 
z
M 3008 2829 
L 2944 2765 
C 3213 2419 3411 1984 3552 1466 
C 3590 1306 3686 1229 3802 1229 
C 3846 1229 3891 1261 3936 1325 
C 3974 1389 4006 1453 4006 1523 
C 4006 1722 3917 1926 3763 2144 
C 3616 2362 3366 2586 3008 2829 
L 3008 2829 
z
M 1056 890 
L 1056 2592 
L 1984 2592 
L 1984 890 
L 1056 890 
z
" transform="scale(0.015625)"/>
       <path id="SimSong-Regular-95f4" d="M 1280 5152 
L 1216 5094 
C 1434 4902 1594 4659 1702 4365 
C 1741 4205 1837 4128 1952 4128 
C 1997 4128 2048 4160 2099 4224 
C 2131 4275 2157 4339 2157 4422 
C 2157 4544 2086 4666 1958 4787 
C 1818 4902 1594 5024 1280 5152 
L 1280 5152 
z
M 2464 4621 
L 2579 4339 
C 2771 4371 2995 4390 3264 4390 
L 5197 4390 
L 5197 102 
C 5197 58 5184 13 5139 -45 
C 5088 -58 5024 -70 4947 -70 
C 4877 -70 4672 -45 4314 6 
L 4282 -96 
C 4653 -211 4832 -314 4845 -410 
C 4858 -531 4902 -595 4947 -595 
C 5050 -595 5178 -550 5331 -474 
C 5498 -384 5594 -224 5594 6 
L 5594 4243 
C 5594 4282 5619 4314 5683 4346 
L 5683 4346 
C 5741 4371 5779 4416 5779 4467 
C 5779 4499 5709 4570 5587 4672 
C 5485 4762 5414 4806 5370 4806 
C 5338 4806 5280 4762 5210 4678 
C 5184 4646 5146 4608 5107 4570 
L 3264 4570 
C 2950 4570 2688 4582 2464 4621 
L 2464 4621 
z
M 774 4429 
C 787 4250 800 4038 800 3795 
L 800 211 
C 800 19 787 -186 774 -416 
C 781 -480 832 -518 909 -518 
C 973 -518 1050 -506 1146 -493 
C 1190 -467 1222 -435 1222 -397 
C 1203 -166 1197 32 1197 211 
L 1197 4051 
C 1197 4102 1222 4141 1293 4166 
C 1395 4192 1453 4237 1453 4301 
C 1453 4326 1376 4346 1248 4371 
L 774 4429 
L 774 4429 
z
M 2061 3654 
C 2074 3501 2086 3347 2086 3194 
L 2086 845 
C 2086 730 2074 614 2061 506 
C 2061 435 2112 403 2189 403 
C 2240 403 2304 410 2381 435 
C 2426 448 2458 474 2458 506 
L 2458 819 
L 3962 819 
L 3962 506 
C 3962 435 4000 403 4064 403 
C 4122 403 4192 410 4282 435 
C 4333 454 4365 480 4365 518 
C 4339 685 4333 819 4333 922 
L 4333 3155 
C 4333 3194 4352 3232 4403 3264 
C 4467 3302 4506 3334 4506 3373 
C 4506 3405 4448 3462 4352 3546 
C 4237 3635 4166 3680 4134 3680 
C 4109 3680 4064 3654 4026 3603 
C 3974 3546 3930 3494 3878 3443 
L 2509 3443 
C 2355 3533 2214 3603 2061 3654 
L 2061 3654 
z
M 2458 2240 
L 2458 3264 
L 3962 3264 
L 3962 2240 
L 2458 2240 
z
M 2458 992 
L 2458 2067 
L 3962 2067 
L 3962 992 
L 2458 992 
z
" transform="scale(0.015625)"/>
       <path id="TimesNewRomanPSMT-20" transform="scale(0.015625)"/>
       <path id="TimesNewRomanPSMT-28" d="M 1988 -1253 
L 1988 -1369 
Q 1516 -1131 1200 -813 
Q 750 -359 506 256 
Q 263 872 263 1534 
Q 263 2503 741 3301 
Q 1219 4100 1988 4444 
L 1988 4313 
Q 1603 4100 1356 3731 
Q 1109 3363 987 2797 
Q 866 2231 866 1616 
Q 866 947 969 400 
Q 1050 -31 1165 -292 
Q 1281 -553 1476 -793 
Q 1672 -1034 1988 -1253 
z
" transform="scale(0.015625)"/>
       <path id="TimesNewRomanPSMT-73" d="M 2050 2947 
L 2050 1972 
L 1947 1972 
Q 1828 2431 1642 2597 
Q 1456 2763 1169 2763 
Q 950 2763 815 2647 
Q 681 2531 681 2391 
Q 681 2216 781 2091 
Q 878 1963 1175 1819 
L 1631 1597 
Q 2266 1288 2266 781 
Q 2266 391 1970 151 
Q 1675 -88 1309 -88 
Q 1047 -88 709 6 
Q 606 38 541 38 
Q 469 38 428 -44 
L 325 -44 
L 325 978 
L 428 978 
Q 516 541 762 319 
Q 1009 97 1316 97 
Q 1531 97 1667 223 
Q 1803 350 1803 528 
Q 1803 744 1651 891 
Q 1500 1038 1047 1263 
Q 594 1488 453 1669 
Q 313 1847 313 2119 
Q 313 2472 555 2709 
Q 797 2947 1181 2947 
Q 1350 2947 1591 2875 
Q 1750 2828 1803 2828 
Q 1853 2828 1881 2850 
Q 1909 2872 1947 2947 
L 2050 2947 
z
" transform="scale(0.015625)"/>
       <path id="TimesNewRomanPSMT-29" d="M 144 4313 
L 144 4444 
Q 619 4209 934 3891 
Q 1381 3434 1625 2820 
Q 1869 2206 1869 1541 
Q 1869 572 1392 -226 
Q 916 -1025 144 -1369 
L 144 -1253 
Q 528 -1038 776 -670 
Q 1025 -303 1145 264 
Q 1266 831 1266 1447 
Q 1266 2113 1163 2663 
Q 1084 3094 967 3353 
Q 850 3613 656 3853 
Q 463 4094 144 4313 
z
" transform="scale(0.015625)"/>
      </defs>
      <use xlink:href="#SimSong-Regular-65f6"/>
      <use xlink:href="#SimSong-Regular-95f4" transform="translate(99.999985 0)"/>
      <use xlink:href="#TimesNewRomanPSMT-20" transform="translate(199.999969 0)"/>
      <use xlink:href="#TimesNewRomanPSMT-28" transform="translate(224.999969 0)"/>
      <use xlink:href="#TimesNewRomanPSMT-73" transform="translate(258.300751 0)"/>
      <use xlink:href="#TimesNewRomanPSMT-29" transform="translate(297.216766 0)"/>
     </g>
    </g>
   </g>
   <g id="matplotlib.axis_2">
    <g id="ytick_1">
     <g id="line2d_11">
      <path d="M 32.282813 330.83578 
L 502.962813 330.83578 
" clip-path="url(#peae0428b77)" style="fill: none; stroke: #b0b0b0; stroke-opacity: 0.3; stroke-width: 0.8; stroke-linecap: square"/>
     </g>
     <g id="line2d_12">
      <defs>
       <path id="md3a0579e7d" d="M 0 0 
L -3.5 0 
" style="stroke: #000000; stroke-width: 0.8"/>
      </defs>
      <g>
       <use xlink:href="#md3a0579e7d" x="32.282813" y="330.83578" style="stroke: #000000; stroke-width: 0.8"/>
      </g>
     </g>
     <g id="text_7">
      <!-- 0 -->
      <g transform="translate(20.282813 334.307655) scale(0.1 -0.1)">
       <use xlink:href="#TimesNewRomanPSMT-30"/>
      </g>
     </g>
    </g>
    <g id="ytick_2">
     <g id="line2d_13">
      <path d="M 32.282813 277.485465 
L 502.962813 277.485465 
" clip-path="url(#peae0428b77)" style="fill: none; stroke: #b0b0b0; stroke-opacity: 0.3; stroke-width: 0.8; stroke-linecap: square"/>
     </g>
     <g id="line2d_14">
      <g>
       <use xlink:href="#md3a0579e7d" x="32.282813" y="277.485465" style="stroke: #000000; stroke-width: 0.8"/>
      </g>
     </g>
     <g id="text_8">
      <!-- 1 -->
      <g transform="translate(20.282813 280.95734) scale(0.1 -0.1)">
       <use xlink:href="#TimesNewRomanPSMT-31"/>
      </g>
     </g>
    </g>
    <g id="ytick_3">
     <g id="line2d_15">
      <path d="M 32.282813 224.13515 
L 502.962813 224.13515 
" clip-path="url(#peae0428b77)" style="fill: none; stroke: #b0b0b0; stroke-opacity: 0.3; stroke-width: 0.8; stroke-linecap: square"/>
     </g>
     <g id="line2d_16">
      <g>
       <use xlink:href="#md3a0579e7d" x="32.282813" y="224.13515" style="stroke: #000000; stroke-width: 0.8"/>
      </g>
     </g>
     <g id="text_9">
      <!-- 2 -->
      <g transform="translate(20.282813 227.607025) scale(0.1 -0.1)">
       <use xlink:href="#TimesNewRomanPSMT-32"/>
      </g>
     </g>
    </g>
    <g id="ytick_4">
     <g id="line2d_17">
      <path d="M 32.282813 170.784835 
L 502.962813 170.784835 
" clip-path="url(#peae0428b77)" style="fill: none; stroke: #b0b0b0; stroke-opacity: 0.3; stroke-width: 0.8; stroke-linecap: square"/>
     </g>
     <g id="line2d_18">
      <g>
       <use xlink:href="#md3a0579e7d" x="32.282813" y="170.784835" style="stroke: #000000; stroke-width: 0.8"/>
      </g>
     </g>
     <g id="text_10">
      <!-- 3 -->
      <g transform="translate(20.282813 174.25671) scale(0.1 -0.1)">
       <use xlink:href="#TimesNewRomanPSMT-33"/>
      </g>
     </g>
    </g>
    <g id="ytick_5">
     <g id="line2d_19">
      <path d="M 32.282813 117.43452 
L 502.962813 117.43452 
" clip-path="url(#peae0428b77)" style="fill: none; stroke: #b0b0b0; stroke-opacity: 0.3; stroke-width: 0.8; stroke-linecap: square"/>
     </g>
     <g id="line2d_20">
      <g>
       <use xlink:href="#md3a0579e7d" x="32.282813" y="117.43452" style="stroke: #000000; stroke-width: 0.8"/>
      </g>
     </g>
     <g id="text_11">
      <!-- 4 -->
      <g transform="translate(20.282813 120.906395) scale(0.1 -0.1)">
       <use xlink:href="#TimesNewRomanPSMT-34"/>
      </g>
     </g>
    </g>
    <g id="ytick_6">
     <g id="line2d_21">
      <path d="M 32.282813 64.084205 
L 502.962813 64.084205 
" clip-path="url(#peae0428b77)" style="fill: none; stroke: #b0b0b0; stroke-opacity: 0.3; stroke-width: 0.8; stroke-linecap: square"/>
     </g>
     <g id="line2d_22">
      <g>
       <use xlink:href="#md3a0579e7d" x="32.282813" y="64.084205" style="stroke: #000000; stroke-width: 0.8"/>
      </g>
     </g>
     <g id="text_12">
      <!-- 5 -->
      <g transform="translate(20.282813 67.55608) scale(0.1 -0.1)">
       <use xlink:href="#TimesNewRomanPSMT-35"/>
      </g>
     </g>
    </g>
    <g id="ytick_7">
     <g id="line2d_23">
      <path d="M 32.282813 10.73389 
L 502.962813 10.73389 
" clip-path="url(#peae0428b77)" style="fill: none; stroke: #b0b0b0; stroke-opacity: 0.3; stroke-width: 0.8; stroke-linecap: square"/>
     </g>
     <g id="line2d_24">
      <g>
       <use xlink:href="#md3a0579e7d" x="32.282813" y="10.73389" style="stroke: #000000; stroke-width: 0.8"/>
      </g>
     </g>
     <g id="text_13">
      <!-- 6 -->
      <g transform="translate(20.282813 14.205765) scale(0.1 -0.1)">
       <defs>
        <path id="TimesNewRomanPSMT-36" d="M 2869 4325 
L 2869 4209 
Q 2456 4169 2195 4045 
Q 1934 3922 1679 3669 
Q 1425 3416 1258 3105 
Q 1091 2794 978 2366 
Q 1428 2675 1881 2675 
Q 2316 2675 2634 2325 
Q 2953 1975 2953 1425 
Q 2953 894 2631 456 
Q 2244 -75 1606 -75 
Q 1172 -75 869 213 
Q 275 772 275 1663 
Q 275 2231 503 2743 
Q 731 3256 1154 3653 
Q 1578 4050 1965 4187 
Q 2353 4325 2688 4325 
L 2869 4325 
z
M 925 2138 
Q 869 1716 869 1456 
Q 869 1156 980 804 
Q 1091 453 1309 247 
Q 1469 100 1697 100 
Q 1969 100 2183 356 
Q 2397 613 2397 1088 
Q 2397 1622 2184 2012 
Q 1972 2403 1581 2403 
Q 1463 2403 1327 2353 
Q 1191 2303 925 2138 
z
" transform="scale(0.015625)"/>
       </defs>
       <use xlink:href="#TimesNewRomanPSMT-36"/>
      </g>
     </g>
    </g>
    <g id="text_14">
     <!-- 能效比 -->
     <g transform="translate(14.14375 189.706486) rotate(-90) scale(0.1 -0.1)">
      <defs>
       <path id="SimSong-Regular-80fd" d="M 1594 5178 
C 1414 4704 1242 4352 1062 4122 
C 896 3885 730 3738 538 3686 
C 461 3661 410 3622 410 3584 
C 410 3526 474 3418 582 3264 
C 621 3206 672 3181 723 3181 
C 749 3181 781 3200 832 3251 
C 909 3290 973 3309 1024 3322 
L 2771 3654 
C 2810 3565 2842 3456 2874 3341 
C 2918 3181 3008 3104 3123 3104 
C 3174 3104 3219 3136 3264 3200 
C 3302 3264 3334 3328 3334 3398 
C 3334 3558 3251 3725 3110 3898 
C 2976 4077 2752 4262 2432 4454 
L 2368 4390 
C 2509 4218 2618 4019 2720 3782 
L 934 3699 
C 1267 3994 1581 4333 1869 4710 
C 1920 4762 1978 4794 2042 4813 
C 2138 4826 2195 4851 2195 4890 
C 2195 4928 2144 4966 2061 5005 
L 1594 5178 
L 1594 5178 
z
M 5581 4365 
L 5722 4346 
C 5798 4346 5843 4365 5856 4403 
C 5856 4435 5792 4493 5690 4557 
C 5549 4627 5414 4698 5267 4781 
C 5075 4608 4826 4448 4531 4294 
C 4339 4186 4154 4096 3968 4019 
L 3968 4806 
C 3968 4858 4000 4896 4077 4922 
C 4166 4954 4224 4998 4224 5056 
C 4224 5082 4154 5107 4026 5120 
C 3840 5146 3686 5165 3552 5178 
C 3565 5050 3578 4915 3578 4781 
L 3578 3034 
C 3578 2893 3597 2797 3635 2746 
C 3680 2669 3763 2624 3872 2598 
C 4019 2566 4365 2554 4902 2554 
C 5210 2554 5459 2566 5651 2592 
C 5754 2605 5837 2630 5894 2656 
L 5894 2656 
C 5965 2694 6010 2758 6010 2848 
C 6010 2906 5939 2950 5818 2989 
C 5754 3014 5728 3066 5715 3136 
C 5702 3206 5696 3392 5683 3680 
L 5574 3706 
C 5517 3373 5478 3174 5453 3110 
C 5440 3021 5402 2957 5325 2925 
C 5216 2893 5075 2880 4902 2880 
C 4538 2880 4269 2893 4096 2918 
C 4006 2938 3968 3008 3968 3136 
L 3968 3904 
C 4666 4058 5203 4211 5581 4365 
z
M 672 3078 
C 685 2835 698 2624 698 2458 
L 698 218 
C 698 19 685 -205 672 -461 
C 672 -531 723 -570 806 -570 
C 864 -570 934 -557 1018 -538 
C 1062 -512 1094 -480 1094 -448 
L 1094 941 
L 2496 941 
L 2496 6 
C 2496 -77 2464 -122 2374 -122 
C 2202 -122 1978 -96 1690 -45 
L 1658 -141 
C 2042 -230 2221 -326 2240 -442 
C 2240 -544 2298 -595 2374 -595 
C 2451 -595 2547 -563 2662 -512 
L 2662 -512 
C 2803 -442 2886 -339 2886 -211 
L 2886 2541 
C 2886 2579 2912 2618 2989 2650 
L 2989 2650 
C 3040 2675 3078 2714 3078 2765 
C 3078 2803 3014 2874 2899 2976 
C 2784 3059 2714 3104 2682 3104 
C 2643 3104 2592 3066 2528 3002 
C 2490 2957 2445 2912 2400 2867 
L 1114 2867 
C 986 2950 838 3021 672 3078 
L 672 3078 
z
M 1094 1990 
L 1094 2694 
L 2496 2694 
L 2496 1990 
L 1094 1990 
z
M 5658 1619 
L 5792 1600 
C 5869 1600 5920 1619 5933 1651 
C 5933 1683 5862 1741 5760 1805 
C 5619 1875 5491 1946 5344 2029 
C 5139 1824 4883 1632 4576 1453 
C 4378 1331 4186 1229 3994 1139 
L 3994 2003 
C 3994 2054 4026 2099 4102 2125 
C 4192 2150 4250 2195 4250 2253 
C 4250 2278 4179 2304 4051 2323 
C 3866 2349 3712 2368 3578 2381 
C 3590 2246 3597 2112 3597 1978 
L 3597 38 
C 3597 -102 3622 -198 3661 -250 
C 3712 -326 3795 -378 3904 -403 
C 4058 -429 4410 -448 4960 -448 
C 5280 -448 5536 -435 5734 -410 
C 5850 -390 5933 -371 6003 -346 
C 6061 -294 6106 -230 6106 -154 
C 6106 -83 6048 -26 5946 19 
L 5946 19 
C 5888 51 5862 109 5862 186 
C 5850 269 5843 486 5830 832 
L 5722 851 
C 5658 461 5613 230 5587 154 
C 5568 45 5523 -26 5434 -77 
C 5318 -102 5152 -122 4960 -122 
C 4589 -122 4307 -109 4128 -83 
C 4032 -58 3994 6 3994 134 
L 3994 1024 
C 4710 1229 5267 1427 5658 1619 
z
M 1094 1114 
L 1094 1818 
L 2496 1818 
L 2496 1114 
L 1094 1114 
z
" transform="scale(0.015625)"/>
       <path id="SimSong-Regular-6548" d="M 1382 5178 
L 1318 5114 
C 1434 4934 1510 4723 1574 4467 
C 1619 4307 1709 4230 1824 4230 
C 1875 4230 1920 4256 1965 4320 
C 2003 4384 2029 4454 2029 4525 
C 2029 4621 1971 4723 1869 4838 
C 1779 4947 1619 5062 1382 5178 
L 1382 5178 
z
M 3789 5178 
C 3706 4486 3603 3885 3482 3386 
C 3360 2918 3187 2406 2963 1856 
L 3053 1766 
C 3315 2189 3533 2592 3693 2995 
L 3674 2995 
C 3789 2445 3923 1984 4077 1613 
C 4154 1421 4230 1254 4307 1101 
C 4115 781 3891 518 3648 307 
C 3354 26 3002 -230 2592 -467 
L 2630 -550 
C 3021 -384 3373 -192 3706 38 
C 4013 256 4275 493 4486 742 
C 4518 691 4557 627 4595 576 
C 4851 205 5082 -70 5299 -262 
C 5504 -448 5651 -544 5728 -544 
C 5754 -544 5786 -499 5837 -410 
C 5869 -307 5952 -243 6106 -224 
L 6131 -154 
C 5690 58 5286 371 4915 806 
C 4845 883 4774 973 4710 1069 
C 4838 1286 4973 1562 5094 1888 
C 5280 2451 5421 3066 5517 3718 
L 6061 3718 
C 6118 3718 6157 3744 6157 3802 
C 6157 3827 6099 3885 5997 3987 
C 5824 4141 5722 4218 5690 4218 
C 5658 4218 5594 4166 5504 4070 
C 5414 3974 5357 3917 5331 3891 
L 3994 3891 
C 4070 4173 4147 4493 4218 4845 
C 4218 4851 4256 4858 4326 4870 
C 4390 4883 4429 4909 4429 4947 
C 4429 4986 4358 5030 4230 5069 
L 3789 5178 
L 3789 5178 
z
M 339 4198 
L 454 3917 
C 595 3949 819 3968 1139 3968 
L 3264 3968 
C 3315 3968 3354 3994 3354 4051 
C 3354 4077 3290 4154 3174 4288 
C 3059 4410 2970 4474 2912 4474 
C 2886 4474 2835 4422 2758 4326 
C 2669 4230 2605 4166 2579 4141 
L 1139 4141 
C 794 4141 531 4160 339 4198 
L 339 4198 
z
M 3776 3206 
C 3834 3360 3891 3526 3942 3718 
L 5101 3718 
C 5011 3130 4883 2560 4710 2003 
C 4627 1773 4544 1581 4474 1427 
C 4378 1581 4288 1760 4211 1958 
C 4038 2355 3891 2771 3776 3206 
z
M 1011 3706 
C 870 3110 640 2566 320 2080 
L 384 1997 
C 614 2208 794 2406 934 2611 
C 1088 2829 1242 3078 1376 3360 
C 1376 3366 1414 3379 1485 3379 
C 1542 3386 1581 3405 1581 3437 
C 1581 3462 1504 3507 1376 3558 
L 1011 3706 
L 1011 3706 
z
M 2074 3706 
L 2016 3648 
C 2272 3443 2483 3136 2662 2726 
C 2714 2611 2790 2554 2854 2554 
C 2906 2554 2950 2579 2989 2643 
C 3027 2688 3059 2746 3059 2816 
C 3059 2957 3002 3078 2906 3187 
C 2829 3264 2758 3322 2707 3366 
C 2515 3501 2310 3616 2074 3706 
L 2074 3706 
z
M 2240 2656 
C 2138 2221 2016 1824 1875 1478 
C 1613 1702 1267 1971 832 2278 
L 768 2202 
C 1178 1811 1504 1472 1741 1184 
C 1690 1075 1638 973 1581 870 
C 1286 397 883 -51 365 -493 
L 410 -582 
C 909 -250 1267 19 1485 262 
C 1658 442 1818 653 1965 883 
C 2138 634 2298 371 2445 102 
C 2522 -45 2611 -122 2701 -122 
C 2752 -122 2790 -96 2822 -58 
C 2867 -19 2899 26 2899 77 
C 2899 192 2848 326 2771 480 
C 2643 685 2451 922 2195 1178 
L 2150 1222 
C 2291 1491 2445 1856 2598 2310 
C 2598 2330 2637 2342 2739 2355 
C 2810 2355 2854 2381 2854 2426 
C 2854 2451 2771 2483 2624 2534 
C 2502 2573 2381 2618 2240 2656 
L 2240 2656 
z
" transform="scale(0.015625)"/>
       <path id="SimSong-Regular-6bd4" d="M 3424 5178 
C 3437 5050 3450 4915 3450 4781 
L 3450 160 
C 3450 19 3475 -70 3520 -128 
C 3571 -198 3661 -250 3782 -275 
C 3949 -301 4333 -320 4934 -320 
C 5286 -320 5574 -307 5798 -282 
C 5926 -262 6016 -243 6086 -224 
C 6157 -173 6208 -109 6208 -26 
C 6208 58 6131 128 6010 179 
C 5914 243 5882 314 5869 416 
C 5856 525 5843 806 5830 1254 
L 5722 1280 
C 5658 768 5613 461 5587 365 
C 5562 224 5517 122 5414 64 
C 5306 26 5139 6 4934 6 
C 4512 6 4198 13 3994 38 
C 3891 58 3846 134 3846 262 
L 3846 2650 
C 4659 2957 5306 3283 5786 3616 
L 5914 3597 
C 5952 3597 5978 3616 5984 3654 
C 5984 3686 5920 3738 5811 3802 
L 5434 4006 
C 5005 3526 4474 3110 3846 2771 
L 3846 4806 
C 3846 4858 3872 4896 3949 4922 
C 4045 4954 4102 4998 4102 5056 
C 4102 5082 4026 5107 3898 5120 
C 3712 5146 3558 5165 3424 5178 
L 3424 5178 
z
M 979 5107 
C 1005 4979 1024 4794 1024 4550 
L 1024 352 
C 1024 237 1005 147 954 83 
C 915 51 890 19 890 -13 
C 890 -64 966 -154 1114 -294 
C 1165 -346 1216 -371 1261 -371 
C 1306 -365 1344 -326 1376 -256 
C 1434 -154 1530 -77 1645 -32 
L 3098 678 
L 3053 755 
L 1421 192 
L 1421 2867 
L 3162 2867 
C 3219 2867 3258 2893 3258 2957 
C 3258 2976 3194 3034 3091 3136 
C 2925 3290 2822 3366 2790 3366 
C 2758 3366 2694 3315 2605 3226 
C 2515 3123 2458 3066 2432 3040 
L 1421 3040 
L 1421 4710 
C 1427 4787 1446 4832 1510 4858 
C 1606 4890 1670 4934 1670 4992 
C 1670 5024 1626 5043 1555 5056 
L 979 5107 
L 979 5107 
z
" transform="scale(0.015625)"/>
      </defs>
      <use xlink:href="#SimSong-Regular-80fd"/>
      <use xlink:href="#SimSong-Regular-6548" transform="translate(99.999985 0)"/>
      <use xlink:href="#SimSong-Regular-6bd4" transform="translate(199.999969 0)"/>
     </g>
    </g>
   </g>
   <g id="line2d_25">
    <path d="M 53.677358 22.427862 
L 101.220792 171.604498 
L 148.764227 220.170762 
L 196.307661 248.223445 
L 243.851095 264.148148 
L 291.39453 275.416011 
L 338.937964 282.539638 
L 386.481398 287.8829 
L 434.024833 292.327101 
L 481.568267 295.439454 
" clip-path="url(#peae0428b77)" style="fill: none; stroke: #ee6f63; stroke-width: 2.3; stroke-linecap: square"/>
    <defs>
     <path id="m1a6851ff04" d="M -1.5 3 
L 0 1.5 
L 1.5 3 
L 3 1.5 
L 1.5 0 
L 3 -1.5 
L 1.5 -3 
L 0 -1.5 
L -1.5 -3 
L -3 -1.5 
L -1.5 0 
L -3 1.5 
z
" style="stroke: #ee6f63; stroke-linejoin: miter"/>
    </defs>
    <g clip-path="url(#peae0428b77)">
     <use xlink:href="#m1a6851ff04" x="53.677358" y="22.427862" style="fill: #ee6f63; stroke: #ee6f63; stroke-linejoin: miter"/>
     <use xlink:href="#m1a6851ff04" x="101.220792" y="171.604498" style="fill: #ee6f63; stroke: #ee6f63; stroke-linejoin: miter"/>
     <use xlink:href="#m1a6851ff04" x="148.764227" y="220.170762" style="fill: #ee6f63; stroke: #ee6f63; stroke-linejoin: miter"/>
     <use xlink:href="#m1a6851ff04" x="196.307661" y="248.223445" style="fill: #ee6f63; stroke: #ee6f63; stroke-linejoin: miter"/>
     <use xlink:href="#m1a6851ff04" x="243.851095" y="264.148148" style="fill: #ee6f63; stroke: #ee6f63; stroke-linejoin: miter"/>
     <use xlink:href="#m1a6851ff04" x="291.39453" y="275.416011" style="fill: #ee6f63; stroke: #ee6f63; stroke-linejoin: miter"/>
     <use xlink:href="#m1a6851ff04" x="338.937964" y="282.539638" style="fill: #ee6f63; stroke: #ee6f63; stroke-linejoin: miter"/>
     <use xlink:href="#m1a6851ff04" x="386.481398" y="287.8829" style="fill: #ee6f63; stroke: #ee6f63; stroke-linejoin: miter"/>
     <use xlink:href="#m1a6851ff04" x="434.024833" y="292.327101" style="fill: #ee6f63; stroke: #ee6f63; stroke-linejoin: miter"/>
     <use xlink:href="#m1a6851ff04" x="481.568267" y="295.439454" style="fill: #ee6f63; stroke: #ee6f63; stroke-linejoin: miter"/>
    </g>
   </g>
   <g id="line2d_26">
    <path d="M 53.677358 242.389531 
L 101.220792 296.097155 
L 148.764227 308.687769 
L 196.307661 315.779774 
L 243.851095 319.70897 
L 291.39453 322.067217 
L 338.937964 323.192869 
L 386.481398 324.482264 
L 434.024833 325.028892 
L 481.568267 325.701439 
" clip-path="url(#peae0428b77)" style="fill: none; stroke: #5fa8e8; stroke-width: 2.3; stroke-linecap: square"/>
    <defs>
     <path id="m106259b05d" d="M -3 3 
L 3 3 
L 3 -3 
L -3 -3 
z
" style="stroke: #5fa8e8; stroke-linejoin: miter"/>
    </defs>
    <g clip-path="url(#peae0428b77)">
     <use xlink:href="#m106259b05d" x="53.677358" y="242.389531" style="fill: #5fa8e8; stroke: #5fa8e8; stroke-linejoin: miter"/>
     <use xlink:href="#m106259b05d" x="101.220792" y="296.097155" style="fill: #5fa8e8; stroke: #5fa8e8; stroke-linejoin: miter"/>
     <use xlink:href="#m106259b05d" x="148.764227" y="308.687769" style="fill: #5fa8e8; stroke: #5fa8e8; stroke-linejoin: miter"/>
     <use xlink:href="#m106259b05d" x="196.307661" y="315.779774" style="fill: #5fa8e8; stroke: #5fa8e8; stroke-linejoin: miter"/>
     <use xlink:href="#m106259b05d" x="243.851095" y="319.70897" style="fill: #5fa8e8; stroke: #5fa8e8; stroke-linejoin: miter"/>
     <use xlink:href="#m106259b05d" x="291.39453" y="322.067217" style="fill: #5fa8e8; stroke: #5fa8e8; stroke-linejoin: miter"/>
     <use xlink:href="#m106259b05d" x="338.937964" y="323.192869" style="fill: #5fa8e8; stroke: #5fa8e8; stroke-linejoin: miter"/>
     <use xlink:href="#m106259b05d" x="386.481398" y="324.482264" style="fill: #5fa8e8; stroke: #5fa8e8; stroke-linejoin: miter"/>
     <use xlink:href="#m106259b05d" x="434.024833" y="325.028892" style="fill: #5fa8e8; stroke: #5fa8e8; stroke-linejoin: miter"/>
     <use xlink:href="#m106259b05d" x="481.568267" y="325.701439" style="fill: #5fa8e8; stroke: #5fa8e8; stroke-linejoin: miter"/>
    </g>
   </g>
   <g id="line2d_27">
    <path d="M 53.677358 250.869619 
L 101.220792 297.246522 
L 148.764227 310.407517 
L 196.307661 317.928184 
L 243.851095 321.111273 
L 291.39453 322.982581 
L 338.937964 323.871084 
L 386.481398 325.598529 
L 434.024833 326.044073 
L 481.568267 326.923493 
" clip-path="url(#peae0428b77)" style="fill: none; stroke: #63cfa0; stroke-width: 2.3; stroke-linecap: square"/>
    <defs>
     <path id="m2a3d73e032" d="M 0 -3 
L -3 3 
L 3 3 
z
" style="stroke: #63cfa0; stroke-linejoin: miter"/>
    </defs>
    <g clip-path="url(#peae0428b77)">
     <use xlink:href="#m2a3d73e032" x="53.677358" y="250.869619" style="fill: #63cfa0; stroke: #63cfa0; stroke-linejoin: miter"/>
     <use xlink:href="#m2a3d73e032" x="101.220792" y="297.246522" style="fill: #63cfa0; stroke: #63cfa0; stroke-linejoin: miter"/>
     <use xlink:href="#m2a3d73e032" x="148.764227" y="310.407517" style="fill: #63cfa0; stroke: #63cfa0; stroke-linejoin: miter"/>
     <use xlink:href="#m2a3d73e032" x="196.307661" y="317.928184" style="fill: #63cfa0; stroke: #63cfa0; stroke-linejoin: miter"/>
     <use xlink:href="#m2a3d73e032" x="243.851095" y="321.111273" style="fill: #63cfa0; stroke: #63cfa0; stroke-linejoin: miter"/>
     <use xlink:href="#m2a3d73e032" x="291.39453" y="322.982581" style="fill: #63cfa0; stroke: #63cfa0; stroke-linejoin: miter"/>
     <use xlink:href="#m2a3d73e032" x="338.937964" y="323.871084" style="fill: #63cfa0; stroke: #63cfa0; stroke-linejoin: miter"/>
     <use xlink:href="#m2a3d73e032" x="386.481398" y="325.598529" style="fill: #63cfa0; stroke: #63cfa0; stroke-linejoin: miter"/>
     <use xlink:href="#m2a3d73e032" x="434.024833" y="326.044073" style="fill: #63cfa0; stroke: #63cfa0; stroke-linejoin: miter"/>
     <use xlink:href="#m2a3d73e032" x="481.568267" y="326.923493" style="fill: #63cfa0; stroke: #63cfa0; stroke-linejoin: miter"/>
    </g>
   </g>
   <g id="line2d_28">
    <path d="M 53.677358 197.686553 
L 101.220792 288.326942 
L 148.764227 309.637353 
L 196.307661 317.876044 
L 243.851095 321.107142 
L 291.39453 323.73625 
L 338.937964 325.203276 
L 386.481398 325.848173 
L 434.024833 326.085531 
L 481.568267 326.98511 
" clip-path="url(#peae0428b77)" style="fill: none; stroke: #b08adf; stroke-width: 2.3; stroke-linecap: square"/>
    <defs>
     <path id="mcf5ade61af" d="M -0 4.242641 
L 4.242641 0 
L 0 -4.242641 
L -4.242641 -0 
z
" style="stroke: #b08adf; stroke-linejoin: miter"/>
    </defs>
    <g clip-path="url(#peae0428b77)">
     <use xlink:href="#mcf5ade61af" x="53.677358" y="197.686553" style="fill: #b08adf; stroke: #b08adf; stroke-linejoin: miter"/>
     <use xlink:href="#mcf5ade61af" x="101.220792" y="288.326942" style="fill: #b08adf; stroke: #b08adf; stroke-linejoin: miter"/>
     <use xlink:href="#mcf5ade61af" x="148.764227" y="309.637353" style="fill: #b08adf; stroke: #b08adf; stroke-linejoin: miter"/>
     <use xlink:href="#mcf5ade61af" x="196.307661" y="317.876044" style="fill: #b08adf; stroke: #b08adf; stroke-linejoin: miter"/>
     <use xlink:href="#mcf5ade61af" x="243.851095" y="321.107142" style="fill: #b08adf; stroke: #b08adf; stroke-linejoin: miter"/>
     <use xlink:href="#mcf5ade61af" x="291.39453" y="323.73625" style="fill: #b08adf; stroke: #b08adf; stroke-linejoin: miter"/>
     <use xlink:href="#mcf5ade61af" x="338.937964" y="325.203276" style="fill: #b08adf; stroke: #b08adf; stroke-linejoin: miter"/>
     <use xlink:href="#mcf5ade61af" x="386.481398" y="325.848173" style="fill: #b08adf; stroke: #b08adf; stroke-linejoin: miter"/>
     <use xlink:href="#mcf5ade61af" x="434.024833" y="326.085531" style="fill: #b08adf; stroke: #b08adf; stroke-linejoin: miter"/>
     <use xlink:href="#mcf5ade61af" x="481.568267" y="326.98511" style="fill: #b08adf; stroke: #b08adf; stroke-linejoin: miter"/>
    </g>
   </g>
   <g id="patch_3">
    <path d="M 32.282813 342.212972 
L 32.282813 7.2 
" style="fill: none; stroke: #000000; stroke-width: 0.8; stroke-linejoin: miter; stroke-linecap: square"/>
   </g>
   <g id="patch_4">
    <path d="M 502.962813 342.212972 
L 502.962813 7.2 
" style="fill: none; stroke: #000000; stroke-width: 0.8; stroke-linejoin: miter; stroke-linecap: square"/>
   </g>
   <g id="patch_5">
    <path d="M 32.282813 342.212972 
L 502.962813 342.212972 
" style="fill: none; stroke: #000000; stroke-width: 0.8; stroke-linejoin: miter; stroke-linecap: square"/>
   </g>
   <g id="patch_6">
    <path d="M 32.282813 7.2 
L 502.962813 7.2 
" style="fill: none; stroke: #000000; stroke-width: 0.8; stroke-linejoin: miter; stroke-linecap: square"/>
   </g>
   <g id="legend_1">
    <g id="patch_7">
     <path d="M 39.282813 71.75625 
L 112.409375 71.75625 
Q 114.409375 71.75625 114.409375 69.75625 
L 114.409375 14.2 
Q 114.409375 12.2 112.409375 12.2 
L 39.282813 12.2 
Q 37.282813 12.2 37.282813 14.2 
L 37.282813 69.75625 
Q 37.282813 71.75625 39.282813 71.75625 
z
" style="fill: #ffffff; opacity: 0.8; stroke: #cccccc; stroke-linejoin: miter"/>
    </g>
    <g id="line2d_29">
     <path d="M 41.282813 19.7 
L 51.282813 19.7 
L 61.282813 19.7 
" style="fill: none; stroke: #ee6f63; stroke-width: 2.3; stroke-linecap: square"/>
     <g>
      <use xlink:href="#m1a6851ff04" x="51.282813" y="19.7" style="fill: #ee6f63; stroke: #ee6f63; stroke-linejoin: miter"/>
     </g>
    </g>
    <g id="text_15">
     <!-- DE2VF -->
     <g transform="translate(69.282813 23.2) scale(0.1 -0.1)">
      <defs>
       <path id="TimesNewRomanPSMT-44" d="M 109 0 
L 109 116 
L 269 116 
Q 538 116 650 288 
Q 719 391 719 750 
L 719 3488 
Q 719 3884 631 3984 
Q 509 4122 269 4122 
L 109 4122 
L 109 4238 
L 1834 4238 
Q 2784 4238 3279 4022 
Q 3775 3806 4076 3303 
Q 4378 2800 4378 2141 
Q 4378 1256 3841 663 
Q 3238 0 2003 0 
L 109 0 
z
M 1319 306 
Q 1716 219 1984 219 
Q 2709 219 3187 728 
Q 3666 1238 3666 2109 
Q 3666 2988 3187 3494 
Q 2709 4000 1959 4000 
Q 1678 4000 1319 3909 
L 1319 306 
z
" transform="scale(0.015625)"/>
       <path id="TimesNewRomanPSMT-45" d="M 1338 4006 
L 1338 2331 
L 2269 2331 
Q 2631 2331 2753 2441 
Q 2916 2584 2934 2947 
L 3050 2947 
L 3050 1472 
L 2934 1472 
Q 2891 1781 2847 1869 
Q 2791 1978 2662 2040 
Q 2534 2103 2269 2103 
L 1338 2103 
L 1338 706 
Q 1338 425 1363 364 
Q 1388 303 1450 267 
Q 1513 231 1688 231 
L 2406 231 
Q 2766 231 2928 281 
Q 3091 331 3241 478 
Q 3434 672 3638 1063 
L 3763 1063 
L 3397 0 
L 131 0 
L 131 116 
L 281 116 
Q 431 116 566 188 
Q 666 238 702 338 
Q 738 438 738 747 
L 738 3500 
Q 738 3903 656 3997 
Q 544 4122 281 4122 
L 131 4122 
L 131 4238 
L 3397 4238 
L 3444 3309 
L 3322 3309 
Q 3256 3644 3176 3769 
Q 3097 3894 2941 3959 
Q 2816 4006 2500 4006 
L 1338 4006 
z
" transform="scale(0.015625)"/>
       <path id="TimesNewRomanPSMT-56" d="M 4544 4238 
L 4544 4122 
Q 4319 4081 4203 3978 
Q 4038 3825 3909 3509 
L 2431 -97 
L 2316 -97 
L 728 3556 
Q 606 3838 556 3900 
Q 478 3997 364 4051 
Q 250 4106 56 4122 
L 56 4238 
L 1788 4238 
L 1788 4122 
Q 1494 4094 1406 4022 
Q 1319 3950 1319 3838 
Q 1319 3681 1463 3350 
L 2541 866 
L 3541 3319 
Q 3688 3681 3688 3822 
Q 3688 3913 3597 3995 
Q 3506 4078 3291 4113 
Q 3275 4116 3238 4122 
L 3238 4238 
L 4544 4238 
z
" transform="scale(0.015625)"/>
       <path id="TimesNewRomanPSMT-46" d="M 1309 4006 
L 1309 2341 
L 2081 2341 
Q 2347 2341 2470 2458 
Q 2594 2575 2634 2922 
L 2750 2922 
L 2750 1488 
L 2634 1488 
Q 2631 1734 2570 1850 
Q 2509 1966 2401 2023 
Q 2294 2081 2081 2081 
L 1309 2081 
L 1309 750 
Q 1309 428 1350 325 
Q 1381 247 1481 191 
Q 1619 116 1769 116 
L 1922 116 
L 1922 0 
L 103 0 
L 103 116 
L 253 116 
Q 516 116 634 269 
Q 709 369 709 750 
L 709 3488 
Q 709 3809 669 3913 
Q 638 3991 541 4047 
Q 406 4122 253 4122 
L 103 4122 
L 103 4238 
L 3256 4238 
L 3297 3306 
L 3188 3306 
Q 3106 3603 2998 3742 
Q 2891 3881 2733 3943 
Q 2575 4006 2244 4006 
L 1309 4006 
z
" transform="scale(0.015625)"/>
      </defs>
      <use xlink:href="#TimesNewRomanPSMT-44"/>
      <use xlink:href="#TimesNewRomanPSMT-45" transform="translate(72.216797 0)"/>
      <use xlink:href="#TimesNewRomanPSMT-32" transform="translate(133.300781 0)"/>
      <use xlink:href="#TimesNewRomanPSMT-56" transform="translate(183.300781 0)"/>
      <use xlink:href="#TimesNewRomanPSMT-46" transform="translate(255.517578 0)"/>
     </g>
    </g>
    <g id="line2d_30">
     <path d="M 41.282813 33.839063 
L 51.282813 33.839063 
L 61.282813 33.839063 
" style="fill: none; stroke: #5fa8e8; stroke-width: 2.3; stroke-linecap: square"/>
     <g>
      <use xlink:href="#m106259b05d" x="51.282813" y="33.839063" style="fill: #5fa8e8; stroke: #5fa8e8; stroke-linejoin: miter"/>
     </g>
    </g>
    <g id="text_16">
     <!-- DGA-CF -->
     <g transform="translate(69.282813 37.339063) scale(0.1 -0.1)">
      <defs>
       <path id="TimesNewRomanPSMT-47" d="M 3928 4334 
L 4038 2997 
L 3928 2997 
Q 3763 3497 3500 3750 
Q 3122 4116 2528 4116 
Q 1719 4116 1297 3475 
Q 944 2934 944 2188 
Q 944 1581 1178 1081 
Q 1413 581 1792 348 
Q 2172 116 2572 116 
Q 2806 116 3025 175 
Q 3244 234 3447 350 
L 3447 1575 
Q 3447 1894 3398 1992 
Q 3350 2091 3248 2142 
Q 3147 2194 2891 2194 
L 2891 2313 
L 4531 2313 
L 4531 2194 
L 4453 2194 
Q 4209 2194 4119 2031 
Q 4056 1916 4056 1575 
L 4056 278 
Q 3697 84 3347 -6 
Q 2997 -97 2569 -97 
Q 1341 -97 703 691 
Q 225 1281 225 2053 
Q 225 2613 494 3125 
Q 813 3734 1369 4063 
Q 1834 4334 2469 4334 
Q 2700 4334 2889 4296 
Q 3078 4259 3425 4131 
Q 3600 4066 3659 4066 
Q 3719 4066 3761 4120 
Q 3803 4175 3813 4334 
L 3928 4334 
z
" transform="scale(0.015625)"/>
       <path id="TimesNewRomanPSMT-41" d="M 2928 1419 
L 1288 1419 
L 1000 750 
Q 894 503 894 381 
Q 894 284 986 211 
Q 1078 138 1384 116 
L 1384 0 
L 50 0 
L 50 116 
Q 316 163 394 238 
Q 553 388 747 847 
L 2238 4334 
L 2347 4334 
L 3822 809 
Q 4000 384 4145 257 
Q 4291 131 4550 116 
L 4550 0 
L 2878 0 
L 2878 116 
Q 3131 128 3220 200 
Q 3309 272 3309 375 
Q 3309 513 3184 809 
L 2928 1419 
z
M 2841 1650 
L 2122 3363 
L 1384 1650 
L 2841 1650 
z
" transform="scale(0.015625)"/>
       <path id="TimesNewRomanPSMT-2d" d="M 259 1672 
L 1875 1672 
L 1875 1200 
L 259 1200 
L 259 1672 
z
" transform="scale(0.015625)"/>
       <path id="TimesNewRomanPSMT-43" d="M 3853 4334 
L 3950 2894 
L 3853 2894 
Q 3659 3541 3300 3825 
Q 2941 4109 2438 4109 
Q 2016 4109 1675 3895 
Q 1334 3681 1139 3212 
Q 944 2744 944 2047 
Q 944 1472 1128 1050 
Q 1313 628 1683 403 
Q 2053 178 2528 178 
Q 2941 178 3256 354 
Q 3572 531 3950 1056 
L 4047 994 
Q 3728 428 3303 165 
Q 2878 -97 2294 -97 
Q 1241 -97 663 684 
Q 231 1266 231 2053 
Q 231 2688 515 3219 
Q 800 3750 1298 4042 
Q 1797 4334 2388 4334 
Q 2847 4334 3294 4109 
Q 3425 4041 3481 4041 
Q 3566 4041 3628 4100 
Q 3709 4184 3744 4334 
L 3853 4334 
z
" transform="scale(0.015625)"/>
      </defs>
      <use xlink:href="#TimesNewRomanPSMT-44"/>
      <use xlink:href="#TimesNewRomanPSMT-47" transform="translate(72.216797 0)"/>
      <use xlink:href="#TimesNewRomanPSMT-41" transform="translate(144.433594 0)"/>
      <use xlink:href="#TimesNewRomanPSMT-2d" transform="translate(216.650391 0)"/>
      <use xlink:href="#TimesNewRomanPSMT-43" transform="translate(249.951172 0)"/>
      <use xlink:href="#TimesNewRomanPSMT-46" transform="translate(316.650391 0)"/>
     </g>
    </g>
    <g id="line2d_31">
     <path d="M 41.282813 47.978125 
L 51.282813 47.978125 
L 61.282813 47.978125 
" style="fill: none; stroke: #63cfa0; stroke-width: 2.3; stroke-linecap: square"/>
     <g>
      <use xlink:href="#m2a3d73e032" x="51.282813" y="47.978125" style="fill: #63cfa0; stroke: #63cfa0; stroke-linejoin: miter"/>
     </g>
    </g>
    <g id="text_17">
     <!-- DPSO-CF -->
     <g transform="translate(69.282813 51.478125) scale(0.1 -0.1)">
      <defs>
       <path id="TimesNewRomanPSMT-50" d="M 1313 1984 
L 1313 750 
Q 1313 350 1400 253 
Q 1519 116 1759 116 
L 1922 116 
L 1922 0 
L 106 0 
L 106 116 
L 266 116 
Q 534 116 650 291 
Q 713 388 713 750 
L 713 3488 
Q 713 3888 628 3984 
Q 506 4122 266 4122 
L 106 4122 
L 106 4238 
L 1659 4238 
Q 2228 4238 2556 4120 
Q 2884 4003 3109 3725 
Q 3334 3447 3334 3066 
Q 3334 2547 2992 2222 
Q 2650 1897 2025 1897 
Q 1872 1897 1694 1919 
Q 1516 1941 1313 1984 
z
M 1313 2163 
Q 1478 2131 1606 2115 
Q 1734 2100 1825 2100 
Q 2150 2100 2386 2351 
Q 2622 2603 2622 3003 
Q 2622 3278 2509 3514 
Q 2397 3750 2190 3867 
Q 1984 3984 1722 3984 
Q 1563 3984 1313 3925 
L 1313 2163 
z
" transform="scale(0.015625)"/>
       <path id="TimesNewRomanPSMT-53" d="M 2934 4334 
L 2934 2869 
L 2819 2869 
Q 2763 3291 2617 3541 
Q 2472 3791 2203 3937 
Q 1934 4084 1647 4084 
Q 1322 4084 1109 3886 
Q 897 3688 897 3434 
Q 897 3241 1031 3081 
Q 1225 2847 1953 2456 
Q 2547 2138 2764 1967 
Q 2981 1797 3098 1565 
Q 3216 1334 3216 1081 
Q 3216 600 2842 251 
Q 2469 -97 1881 -97 
Q 1697 -97 1534 -69 
Q 1438 -53 1133 45 
Q 828 144 747 144 
Q 669 144 623 97 
Q 578 50 556 -97 
L 441 -97 
L 441 1356 
L 556 1356 
Q 638 900 775 673 
Q 913 447 1195 297 
Q 1478 147 1816 147 
Q 2206 147 2432 353 
Q 2659 559 2659 841 
Q 2659 997 2573 1156 
Q 2488 1316 2306 1453 
Q 2184 1547 1640 1851 
Q 1097 2156 867 2337 
Q 638 2519 519 2737 
Q 400 2956 400 3219 
Q 400 3675 750 4004 
Q 1100 4334 1641 4334 
Q 1978 4334 2356 4169 
Q 2531 4091 2603 4091 
Q 2684 4091 2736 4139 
Q 2788 4188 2819 4334 
L 2934 4334 
z
" transform="scale(0.015625)"/>
       <path id="TimesNewRomanPSMT-4f" d="M 2341 4334 
Q 3166 4334 3770 3707 
Q 4375 3081 4375 2144 
Q 4375 1178 3765 540 
Q 3156 -97 2291 -97 
Q 1416 -97 820 525 
Q 225 1147 225 2134 
Q 225 3144 913 3781 
Q 1509 4334 2341 4334 
z
M 2281 4106 
Q 1713 4106 1369 3684 
Q 941 3159 941 2147 
Q 941 1109 1384 550 
Q 1725 125 2284 125 
Q 2881 125 3270 590 
Q 3659 1056 3659 2059 
Q 3659 3147 3231 3681 
Q 2888 4106 2281 4106 
z
" transform="scale(0.015625)"/>
      </defs>
      <use xlink:href="#TimesNewRomanPSMT-44"/>
      <use xlink:href="#TimesNewRomanPSMT-50" transform="translate(72.216797 0)"/>
      <use xlink:href="#TimesNewRomanPSMT-53" transform="translate(127.832031 0)"/>
      <use xlink:href="#TimesNewRomanPSMT-4f" transform="translate(183.447266 0)"/>
      <use xlink:href="#TimesNewRomanPSMT-2d" transform="translate(255.664062 0)"/>
      <use xlink:href="#TimesNewRomanPSMT-43" transform="translate(288.964844 0)"/>
      <use xlink:href="#TimesNewRomanPSMT-46" transform="translate(355.664062 0)"/>
     </g>
    </g>
    <g id="line2d_32">
     <path d="M 41.282813 62.117188 
L 51.282813 62.117188 
L 61.282813 62.117188 
" style="fill: none; stroke: #b08adf; stroke-width: 2.3; stroke-linecap: square"/>
     <g>
      <use xlink:href="#mcf5ade61af" x="51.282813" y="62.117188" style="fill: #b08adf; stroke: #b08adf; stroke-linejoin: miter"/>
     </g>
    </g>
    <g id="text_18">
     <!-- NSSA-CF -->
     <g transform="translate(69.282813 65.617188) scale(0.1 -0.1)">
      <defs>
       <path id="TimesNewRomanPSMT-4e" d="M -84 4238 
L 1066 4238 
L 3656 1059 
L 3656 3503 
Q 3656 3894 3569 3991 
Q 3453 4122 3203 4122 
L 3056 4122 
L 3056 4238 
L 4531 4238 
L 4531 4122 
L 4381 4122 
Q 4113 4122 4000 3959 
Q 3931 3859 3931 3503 
L 3931 -69 
L 3819 -69 
L 1025 3344 
L 1025 734 
Q 1025 344 1109 247 
Q 1228 116 1475 116 
L 1625 116 
L 1625 0 
L 150 0 
L 150 116 
L 297 116 
Q 569 116 681 278 
Q 750 378 750 734 
L 750 3681 
Q 566 3897 470 3965 
Q 375 4034 191 4094 
Q 100 4122 -84 4122 
L -84 4238 
z
" transform="scale(0.015625)"/>
      </defs>
      <use xlink:href="#TimesNewRomanPSMT-4e"/>
      <use xlink:href="#TimesNewRomanPSMT-53" transform="translate(72.216797 0)"/>
      <use xlink:href="#TimesNewRomanPSMT-53" transform="translate(127.832031 0)"/>
      <use xlink:href="#TimesNewRomanPSMT-41" transform="translate(183.447266 0)"/>
      <use xlink:href="#TimesNewRomanPSMT-2d" transform="translate(255.664062 0)"/>
      <use xlink:href="#TimesNewRomanPSMT-43" transform="translate(288.964844 0)"/>
      <use xlink:href="#TimesNewRomanPSMT-46" transform="translate(355.664062 0)"/>
     </g>
    </g>
   </g>
  </g>
 </g>
 <defs>
  <clipPath id="peae0428b77">
   <rect x="32.282813" y="7.2" width="470.68" height="335.012972"/>
  </clipPath>
 </defs>
</svg>
