<?xml version="1.0" encoding="utf-8" standalone="no"?>
<!DOCTYPE svg PUBLIC "-//W3C//DTD SVG 1.1//EN"
  "http://www.w3.org/Graphics/SVG/1.1/DTD/svg11.dtd">
<svg xmlns:xlink="http://www.w3.org/1999/xlink" width="435.85pt" height="321.898183pt" viewBox="0 0 435.85 321.898183" xmlns="http://www.w3.org/2000/svg" version="1.1">
 <metadata>
  <rdf:RDF xmlns:dc="http://purl.org/dc/elements/1.1/" xmlns:cc="http://creativecommons.org/ns#" xmlns:rdf="http://www.w3.org/1999/02/22-rdf-syntax-ns#">
   <cc:Work>
    <dc:type rdf:resource="http://purl.org/dc/dcmitype/StillImage"/>
    <dc:date>2026-04-08T20:50:31.999353</dc:date>
    <dc:format>image/svg+xml</dc:format>
    <dc:creator>
     <cc:Agent>
      <dc:title>Matplotlib v3.10.8, https://matplotlib.org/</dc:title>
     </cc:Agent>
    </dc:creator>
   </cc:Work>
  </rdf:RDF>
 </metadata>
 <defs>
  <style type="text/css">*{stroke-linejoin: round; stroke-linecap: butt}</style>
 </defs>
 <g id="figure_1">
  <g id="patch_1">
   <path d="M 0 321.898183 
L 435.85 321.898183 
L 435.85 0 
L 0 0 
z
" style="fill: #ffffff"/>
  </g>
  <g id="axes_1">
   <g id="patch_2">
    <path d="M 41.04 287.166089 
L 428.65 287.166089 
L 428.65 8.097743 
L 41.04 8.097743 
z
" style="fill: #ffffff"/>
   </g>
   <g id="matplotlib.axis_1">
    <g id="xtick_1">
     <g id="line2d_1">
      <defs>
       <path id="me660f3c93e" d="M 0 0 
L 0 3.5 
" style="stroke: #000000; stroke-width: 0.8"/>
      </defs>
      <g>
       <use xlink:href="#me660f3c93e" x="104.433184" y="287.166089" style="stroke: #000000; stroke-width: 0.8"/>
      </g>
     </g>
     <g id="text_1">
      <!-- K=20 -->
      <g transform="translate(92.431192 301.457027) scale(0.105 -0.105)">
       <defs>
        <path id="TimesNewRomanPSMT-4b" d="M 1913 2350 
L 3475 797 
Q 3859 413 4131 273 
Q 4403 134 4675 116 
L 4675 0 
L 2659 0 
L 2659 116 
Q 2841 116 2920 177 
Q 3000 238 3000 313 
Q 3000 388 2970 447 
Q 2941 506 2775 669 
L 1313 2116 
L 1313 750 
Q 1313 428 1353 325 
Q 1384 247 1484 191 
Q 1619 116 1769 116 
L 1913 116 
L 1913 0 
L 106 0 
L 106 116 
L 256 116 
Q 519 116 638 269 
Q 713 369 713 750 
L 713 3488 
Q 713 3809 672 3916 
Q 641 3991 544 4047 
Q 406 4122 256 4122 
L 106 4122 
L 106 4238 
L 1913 4238 
L 1913 4122 
L 1769 4122 
Q 1622 4122 1484 4050 
Q 1388 4000 1350 3900 
Q 1313 3800 1313 3488 
L 1313 2191 
Q 1375 2250 1741 2588 
Q 2669 3438 2863 3722 
Q 2947 3847 2947 3941 
Q 2947 4013 2881 4067 
Q 2816 4122 2659 4122 
L 2563 4122 
L 2563 4238 
L 4119 4238 
L 4119 4122 
Q 3981 4119 3868 4084 
Q 3756 4050 3593 3951 
Q 3431 3853 3194 3634 
Q 3125 3572 2559 2994 
L 1913 2350 
z
" transform="scale(0.015625)"/>
        <path id="TimesNewRomanPSMT-3d" d="M 116 2759 
L 3488 2759 
L 3488 2503 
L 116 2503 
L 116 2759 
z
M 116 1741 
L 3488 1741 
L 3488 1484 
L 116 1484 
L 116 1741 
z
" transform="scale(0.015625)"/>
        <path id="TimesNewRomanPSMT-32" d="M 2934 816 
L 2638 0 
L 138 0 
L 138 116 
Q 1241 1122 1691 1759 
Q 2141 2397 2141 2925 
Q 2141 3328 1894 3587 
Q 1647 3847 1303 3847 
Q 991 3847 742 3664 
Q 494 3481 375 3128 
L 259 3128 
Q 338 3706 661 4015 
Q 984 4325 1469 4325 
Q 1984 4325 2329 3994 
Q 2675 3663 2675 3213 
Q 2675 2891 2525 2569 
Q 2294 2063 1775 1497 
Q 997 647 803 472 
L 1909 472 
Q 2247 472 2383 497 
Q 2519 522 2628 598 
Q 2738 675 2819 816 
L 2934 816 
z
" transform="scale(0.015625)"/>
        <path id="TimesNewRomanPSMT-30" d="M 231 2094 
Q 231 2819 450 3342 
Q 669 3866 1031 4122 
Q 1313 4325 1613 4325 
Q 2100 4325 2488 3828 
Q 2972 3213 2972 2159 
Q 2972 1422 2759 906 
Q 2547 391 2217 158 
Q 1888 -75 1581 -75 
Q 975 -75 572 641 
Q 231 1244 231 2094 
z
M 844 2016 
Q 844 1141 1059 588 
Q 1238 122 1591 122 
Q 1759 122 1940 273 
Q 2122 425 2216 781 
Q 2359 1319 2359 2297 
Q 2359 3022 2209 3506 
Q 2097 3866 1919 4016 
Q 1791 4119 1609 4119 
Q 1397 4119 1231 3928 
Q 1006 3669 925 3112 
Q 844 2556 844 2016 
z
" transform="scale(0.015625)"/>
       </defs>
       <use xlink:href="#TimesNewRomanPSMT-4b"/>
       <use xlink:href="#TimesNewRomanPSMT-3d" transform="translate(72.216797 0)"/>
       <use xlink:href="#TimesNewRomanPSMT-32" transform="translate(128.613281 0)"/>
       <use xlink:href="#TimesNewRomanPSMT-30" transform="translate(178.613281 0)"/>
      </g>
      <!-- (L=9, G=6) -->
      <g transform="translate(80.14291 312.452168) scale(0.105 -0.105)">
       <defs>
        <path id="TimesNewRomanPSMT-28" d="M 1988 -1253 
L 1988 -1369 
Q 1516 -1131 1200 -813 
Q 750 -359 506 256 
Q 263 872 263 1534 
Q 263 2503 741 3301 
Q 1219 4100 1988 4444 
L 1988 4313 
Q 1603 4100 1356 3731 
Q 1109 3363 987 2797 
Q 866 2231 866 1616 
Q 866 947 969 400 
Q 1050 -31 1165 -292 
Q 1281 -553 1476 -793 
Q 1672 -1034 1988 -1253 
z
" transform="scale(0.015625)"/>
        <path id="TimesNewRomanPSMT-4c" d="M 3669 1172 
L 3772 1150 
L 3409 0 
L 128 0 
L 128 116 
L 288 116 
Q 556 116 672 291 
Q 738 391 738 753 
L 738 3488 
Q 738 3884 650 3984 
Q 528 4122 288 4122 
L 128 4122 
L 128 4238 
L 2047 4238 
L 2047 4122 
Q 1709 4125 1573 4059 
Q 1438 3994 1388 3894 
Q 1338 3794 1338 3416 
L 1338 753 
Q 1338 494 1388 397 
Q 1425 331 1503 300 
Q 1581 269 1991 269 
L 2300 269 
Q 2788 269 2984 341 
Q 3181 413 3343 595 
Q 3506 778 3669 1172 
z
" transform="scale(0.015625)"/>
        <path id="TimesNewRomanPSMT-39" d="M 338 -88 
L 338 28 
Q 744 34 1094 217 
Q 1444 400 1770 856 
Q 2097 1313 2225 1859 
Q 1734 1544 1338 1544 
Q 891 1544 572 1889 
Q 253 2234 253 2806 
Q 253 3363 572 3797 
Q 956 4325 1575 4325 
Q 2097 4325 2469 3894 
Q 2925 3359 2925 2575 
Q 2925 1869 2578 1258 
Q 2231 647 1613 244 
Q 1109 -88 516 -88 
L 338 -88 
z
M 2275 2091 
Q 2331 2497 2331 2741 
Q 2331 3044 2228 3395 
Q 2125 3747 1936 3934 
Q 1747 4122 1506 4122 
Q 1228 4122 1018 3872 
Q 809 3622 809 3128 
Q 809 2469 1088 2097 
Q 1291 1828 1588 1828 
Q 1731 1828 1928 1897 
Q 2125 1966 2275 2091 
z
" transform="scale(0.015625)"/>
        <path id="TimesNewRomanPSMT-2c" d="M 344 -1066 
L 344 -928 
Q 666 -822 842 -598 
Q 1019 -375 1019 -125 
Q 1019 -66 991 -25 
Q 969 3 947 3 
Q 913 3 797 -59 
Q 741 -88 678 -88 
Q 525 -88 434 3 
Q 344 94 344 253 
Q 344 406 461 515 
Q 578 625 747 625 
Q 953 625 1114 445 
Q 1275 266 1275 -31 
Q 1275 -353 1051 -629 
Q 828 -906 344 -1066 
z
" transform="scale(0.015625)"/>
        <path id="TimesNewRomanPSMT-20" transform="scale(0.015625)"/>
        <path id="TimesNewRomanPSMT-47" d="M 3928 4334 
L 4038 2997 
L 3928 2997 
Q 3763 3497 3500 3750 
Q 3122 4116 2528 4116 
Q 1719 4116 1297 3475 
Q 944 2934 944 2188 
Q 944 1581 1178 1081 
Q 1413 581 1792 348 
Q 2172 116 2572 116 
Q 2806 116 3025 175 
Q 3244 234 3447 350 
L 3447 1575 
Q 3447 1894 3398 1992 
Q 3350 2091 3248 2142 
Q 3147 2194 2891 2194 
L 2891 2313 
L 4531 2313 
L 4531 2194 
L 4453 2194 
Q 4209 2194 4119 2031 
Q 4056 1916 4056 1575 
L 4056 278 
Q 3697 84 3347 -6 
Q 2997 -97 2569 -97 
Q 1341 -97 703 691 
Q 225 1281 225 2053 
Q 225 2613 494 3125 
Q 813 3734 1369 4063 
Q 1834 4334 2469 4334 
Q 2700 4334 2889 4296 
Q 3078 4259 3425 4131 
Q 3600 4066 3659 4066 
Q 3719 4066 3761 4120 
Q 3803 4175 3813 4334 
L 3928 4334 
z
" transform="scale(0.015625)"/>
        <path id="TimesNewRomanPSMT-36" d="M 2869 4325 
L 2869 4209 
Q 2456 4169 2195 4045 
Q 1934 3922 1679 3669 
Q 1425 3416 1258 3105 
Q 1091 2794 978 2366 
Q 1428 2675 1881 2675 
Q 2316 2675 2634 2325 
Q 2953 1975 2953 1425 
Q 2953 894 2631 456 
Q 2244 -75 1606 -75 
Q 1172 -75 869 213 
Q 275 772 275 1663 
Q 275 2231 503 2743 
Q 731 3256 1154 3653 
Q 1578 4050 1965 4187 
Q 2353 4325 2688 4325 
L 2869 4325 
z
M 925 2138 
Q 869 1716 869 1456 
Q 869 1156 980 804 
Q 1091 453 1309 247 
Q 1469 100 1697 100 
Q 1969 100 2183 356 
Q 2397 613 2397 1088 
Q 2397 1622 2184 2012 
Q 1972 2403 1581 2403 
Q 1463 2403 1327 2353 
Q 1191 2303 925 2138 
z
" transform="scale(0.015625)"/>
        <path id="TimesNewRomanPSMT-29" d="M 144 4313 
L 144 4444 
Q 619 4209 934 3891 
Q 1381 3434 1625 2820 
Q 1869 2206 1869 1541 
Q 1869 572 1392 -226 
Q 916 -1025 144 -1369 
L 144 -1253 
Q 528 -1038 776 -670 
Q 1025 -303 1145 264 
Q 1266 831 1266 1447 
Q 1266 2113 1163 2663 
Q 1084 3094 967 3353 
Q 850 3613 656 3853 
Q 463 4094 144 4313 
z
" transform="scale(0.015625)"/>
       </defs>
       <use xlink:href="#TimesNewRomanPSMT-28"/>
       <use xlink:href="#TimesNewRomanPSMT-4c" transform="translate(33.300781 0)"/>
       <use xlink:href="#TimesNewRomanPSMT-3d" transform="translate(94.384766 0)"/>
       <use xlink:href="#TimesNewRomanPSMT-39" transform="translate(150.78125 0)"/>
       <use xlink:href="#TimesNewRomanPSMT-2c" transform="translate(200.78125 0)"/>
       <use xlink:href="#TimesNewRomanPSMT-20" transform="translate(225.78125 0)"/>
       <use xlink:href="#TimesNewRomanPSMT-47" transform="translate(250.78125 0)"/>
       <use xlink:href="#TimesNewRomanPSMT-3d" transform="translate(322.998047 0)"/>
       <use xlink:href="#TimesNewRomanPSMT-36" transform="translate(379.394531 0)"/>
       <use xlink:href="#TimesNewRomanPSMT-29" transform="translate(429.394531 0)"/>
      </g>
     </g>
    </g>
    <g id="xtick_2">
     <g id="line2d_2">
      <g>
       <use xlink:href="#me660f3c93e" x="234.845" y="287.166089" style="stroke: #000000; stroke-width: 0.8"/>
      </g>
     </g>
     <g id="text_2">
      <!-- K=30 -->
      <g transform="translate(222.843008 301.457027) scale(0.105 -0.105)">
       <defs>
        <path id="TimesNewRomanPSMT-33" d="M 325 3431 
Q 506 3859 782 4092 
Q 1059 4325 1472 4325 
Q 1981 4325 2253 3994 
Q 2459 3747 2459 3466 
Q 2459 3003 1878 2509 
Q 2269 2356 2469 2072 
Q 2669 1788 2669 1403 
Q 2669 853 2319 450 
Q 1863 -75 997 -75 
Q 569 -75 414 31 
Q 259 138 259 259 
Q 259 350 332 419 
Q 406 488 509 488 
Q 588 488 669 463 
Q 722 447 909 348 
Q 1097 250 1169 231 
Q 1284 197 1416 197 
Q 1734 197 1970 444 
Q 2206 691 2206 1028 
Q 2206 1275 2097 1509 
Q 2016 1684 1919 1775 
Q 1784 1900 1550 2001 
Q 1316 2103 1072 2103 
L 972 2103 
L 972 2197 
Q 1219 2228 1467 2375 
Q 1716 2522 1828 2728 
Q 1941 2934 1941 3181 
Q 1941 3503 1739 3701 
Q 1538 3900 1238 3900 
Q 753 3900 428 3381 
L 325 3431 
z
" transform="scale(0.015625)"/>
       </defs>
       <use xlink:href="#TimesNewRomanPSMT-4b"/>
       <use xlink:href="#TimesNewRomanPSMT-3d" transform="translate(72.216797 0)"/>
       <use xlink:href="#TimesNewRomanPSMT-33" transform="translate(128.613281 0)"/>
       <use xlink:href="#TimesNewRomanPSMT-30" transform="translate(178.613281 0)"/>
      </g>
      <!-- (L=9, G=6) -->
      <g transform="translate(210.554727 312.452168) scale(0.105 -0.105)">
       <use xlink:href="#TimesNewRomanPSMT-28"/>
       <use xlink:href="#TimesNewRomanPSMT-4c" transform="translate(33.300781 0)"/>
       <use xlink:href="#TimesNewRomanPSMT-3d" transform="translate(94.384766 0)"/>
       <use xlink:href="#TimesNewRomanPSMT-39" transform="translate(150.78125 0)"/>
       <use xlink:href="#TimesNewRomanPSMT-2c" transform="translate(200.78125 0)"/>
       <use xlink:href="#TimesNewRomanPSMT-20" transform="translate(225.78125 0)"/>
       <use xlink:href="#TimesNewRomanPSMT-47" transform="translate(250.78125 0)"/>
       <use xlink:href="#TimesNewRomanPSMT-3d" transform="translate(322.998047 0)"/>
       <use xlink:href="#TimesNewRomanPSMT-36" transform="translate(379.394531 0)"/>
       <use xlink:href="#TimesNewRomanPSMT-29" transform="translate(429.394531 0)"/>
      </g>
     </g>
    </g>
    <g id="xtick_3">
     <g id="line2d_3">
      <g>
       <use xlink:href="#me660f3c93e" x="365.256816" y="287.166089" style="stroke: #000000; stroke-width: 0.8"/>
      </g>
     </g>
     <g id="text_3">
      <!-- K=40 -->
      <g transform="translate(353.254824 301.457027) scale(0.105 -0.105)">
       <defs>
        <path id="TimesNewRomanPSMT-34" d="M 2978 1563 
L 2978 1119 
L 2409 1119 
L 2409 0 
L 1894 0 
L 1894 1119 
L 100 1119 
L 100 1519 
L 2066 4325 
L 2409 4325 
L 2409 1563 
L 2978 1563 
z
M 1894 1563 
L 1894 3666 
L 406 1563 
L 1894 1563 
z
" transform="scale(0.015625)"/>
       </defs>
       <use xlink:href="#TimesNewRomanPSMT-4b"/>
       <use xlink:href="#TimesNewRomanPSMT-3d" transform="translate(72.216797 0)"/>
       <use xlink:href="#TimesNewRomanPSMT-34" transform="translate(128.613281 0)"/>
       <use xlink:href="#TimesNewRomanPSMT-30" transform="translate(178.613281 0)"/>
      </g>
      <!-- (L=9, G=6) -->
      <g transform="translate(340.966543 312.452168) scale(0.105 -0.105)">
       <use xlink:href="#TimesNewRomanPSMT-28"/>
       <use xlink:href="#TimesNewRomanPSMT-4c" transform="translate(33.300781 0)"/>
       <use xlink:href="#TimesNewRomanPSMT-3d" transform="translate(94.384766 0)"/>
       <use xlink:href="#TimesNewRomanPSMT-39" transform="translate(150.78125 0)"/>
       <use xlink:href="#TimesNewRomanPSMT-2c" transform="translate(200.78125 0)"/>
       <use xlink:href="#TimesNewRomanPSMT-20" transform="translate(225.78125 0)"/>
       <use xlink:href="#TimesNewRomanPSMT-47" transform="translate(250.78125 0)"/>
       <use xlink:href="#TimesNewRomanPSMT-3d" transform="translate(322.998047 0)"/>
       <use xlink:href="#TimesNewRomanPSMT-36" transform="translate(379.394531 0)"/>
       <use xlink:href="#TimesNewRomanPSMT-29" transform="translate(429.394531 0)"/>
      </g>
     </g>
    </g>
   </g>
   <g id="matplotlib.axis_2">
    <g id="ytick_1">
     <g id="line2d_4">
      <path d="M 41.04 287.166089 
L 428.65 287.166089 
" clip-path="url(#pe5c6999cac)" style="fill: none; stroke-dasharray: 2.96,1.28; stroke-dashoffset: 0; stroke: #b0b0b0; stroke-opacity: 0.4; stroke-width: 0.8"/>
     </g>
     <g id="line2d_5">
      <defs>
       <path id="mc53d874900" d="M 0 0 
L -3.5 0 
" style="stroke: #000000; stroke-width: 0.8"/>
      </defs>
      <g>
       <use xlink:href="#mc53d874900" x="41.04" y="287.166089" style="stroke: #000000; stroke-width: 0.8"/>
      </g>
     </g>
     <g id="text_4">
      <!-- 0.0 -->
      <g transform="translate(21.54 290.637964) scale(0.1 -0.1)">
       <defs>
        <path id="TimesNewRomanPSMT-2e" d="M 800 606 
Q 947 606 1047 504 
Q 1147 403 1147 259 
Q 1147 116 1045 14 
Q 944 -88 800 -88 
Q 656 -88 554 14 
Q 453 116 453 259 
Q 453 406 554 506 
Q 656 606 800 606 
z
" transform="scale(0.015625)"/>
       </defs>
       <use xlink:href="#TimesNewRomanPSMT-30"/>
       <use xlink:href="#TimesNewRomanPSMT-2e" transform="translate(50 0)"/>
       <use xlink:href="#TimesNewRomanPSMT-30" transform="translate(75 0)"/>
      </g>
     </g>
    </g>
    <g id="ytick_2">
     <g id="line2d_6">
      <path d="M 41.04 231.867247 
L 428.65 231.867247 
" clip-path="url(#pe5c6999cac)" style="fill: none; stroke-dasharray: 2.96,1.28; stroke-dashoffset: 0; stroke: #b0b0b0; stroke-opacity: 0.4; stroke-width: 0.8"/>
     </g>
     <g id="line2d_7">
      <g>
       <use xlink:href="#mc53d874900" x="41.04" y="231.867247" style="stroke: #000000; stroke-width: 0.8"/>
      </g>
     </g>
     <g id="text_5">
      <!-- 0.2 -->
      <g transform="translate(21.54 235.339122) scale(0.1 -0.1)">
       <use xlink:href="#TimesNewRomanPSMT-30"/>
       <use xlink:href="#TimesNewRomanPSMT-2e" transform="translate(50 0)"/>
       <use xlink:href="#TimesNewRomanPSMT-32" transform="translate(75 0)"/>
      </g>
     </g>
    </g>
    <g id="ytick_3">
     <g id="line2d_8">
      <path d="M 41.04 176.568404 
L 428.65 176.568404 
" clip-path="url(#pe5c6999cac)" style="fill: none; stroke-dasharray: 2.96,1.28; stroke-dashoffset: 0; stroke: #b0b0b0; stroke-opacity: 0.4; stroke-width: 0.8"/>
     </g>
     <g id="line2d_9">
      <g>
       <use xlink:href="#mc53d874900" x="41.04" y="176.568404" style="stroke: #000000; stroke-width: 0.8"/>
      </g>
     </g>
     <g id="text_6">
      <!-- 0.4 -->
      <g transform="translate(21.54 180.040279) scale(0.1 -0.1)">
       <use xlink:href="#TimesNewRomanPSMT-30"/>
       <use xlink:href="#TimesNewRomanPSMT-2e" transform="translate(50 0)"/>
       <use xlink:href="#TimesNewRomanPSMT-34" transform="translate(75 0)"/>
      </g>
     </g>
    </g>
    <g id="ytick_4">
     <g id="line2d_10">
      <path d="M 41.04 121.269561 
L 428.65 121.269561 
" clip-path="url(#pe5c6999cac)" style="fill: none; stroke-dasharray: 2.96,1.28; stroke-dashoffset: 0; stroke: #b0b0b0; stroke-opacity: 0.4; stroke-width: 0.8"/>
     </g>
     <g id="line2d_11">
      <g>
       <use xlink:href="#mc53d874900" x="41.04" y="121.269561" style="stroke: #000000; stroke-width: 0.8"/>
      </g>
     </g>
     <g id="text_7">
      <!-- 0.6 -->
      <g transform="translate(21.54 124.741436) scale(0.1 -0.1)">
       <use xlink:href="#TimesNewRomanPSMT-30"/>
       <use xlink:href="#TimesNewRomanPSMT-2e" transform="translate(50 0)"/>
       <use xlink:href="#TimesNewRomanPSMT-36" transform="translate(75 0)"/>
      </g>
     </g>
    </g>
    <g id="ytick_5">
     <g id="line2d_12">
      <path d="M 41.04 65.970718 
L 428.65 65.970718 
" clip-path="url(#pe5c6999cac)" style="fill: none; stroke-dasharray: 2.96,1.28; stroke-dashoffset: 0; stroke: #b0b0b0; stroke-opacity: 0.4; stroke-width: 0.8"/>
     </g>
     <g id="line2d_13">
      <g>
       <use xlink:href="#mc53d874900" x="41.04" y="65.970718" style="stroke: #000000; stroke-width: 0.8"/>
      </g>
     </g>
     <g id="text_8">
      <!-- 0.8 -->
      <g transform="translate(21.54 69.442593) scale(0.1 -0.1)">
       <defs>
        <path id="TimesNewRomanPSMT-38" d="M 1228 2134 
Q 725 2547 579 2797 
Q 434 3047 434 3316 
Q 434 3728 753 4026 
Q 1072 4325 1600 4325 
Q 2113 4325 2425 4047 
Q 2738 3769 2738 3413 
Q 2738 3175 2569 2928 
Q 2400 2681 1866 2347 
Q 2416 1922 2594 1678 
Q 2831 1359 2831 1006 
Q 2831 559 2490 242 
Q 2150 -75 1597 -75 
Q 994 -75 656 303 
Q 388 606 388 966 
Q 388 1247 577 1523 
Q 766 1800 1228 2134 
z
M 1719 2469 
Q 2094 2806 2194 3001 
Q 2294 3197 2294 3444 
Q 2294 3772 2109 3958 
Q 1925 4144 1606 4144 
Q 1288 4144 1088 3959 
Q 888 3775 888 3528 
Q 888 3366 970 3203 
Q 1053 3041 1206 2894 
L 1719 2469 
z
M 1375 2016 
Q 1116 1797 991 1539 
Q 866 1281 866 981 
Q 866 578 1086 336 
Q 1306 94 1647 94 
Q 1984 94 2187 284 
Q 2391 475 2391 747 
Q 2391 972 2272 1150 
Q 2050 1481 1375 2016 
z
" transform="scale(0.015625)"/>
       </defs>
       <use xlink:href="#TimesNewRomanPSMT-30"/>
       <use xlink:href="#TimesNewRomanPSMT-2e" transform="translate(50 0)"/>
       <use xlink:href="#TimesNewRomanPSMT-38" transform="translate(75 0)"/>
      </g>
     </g>
    </g>
    <g id="ytick_6">
     <g id="line2d_14">
      <path d="M 41.04 10.671875 
L 428.65 10.671875 
" clip-path="url(#pe5c6999cac)" style="fill: none; stroke-dasharray: 2.96,1.28; stroke-dashoffset: 0; stroke: #b0b0b0; stroke-opacity: 0.4; stroke-width: 0.8"/>
     </g>
     <g id="line2d_15">
      <g>
       <use xlink:href="#mc53d874900" x="41.04" y="10.671875" style="stroke: #000000; stroke-width: 0.8"/>
      </g>
     </g>
     <g id="text_9">
      <!-- 1.0 -->
      <g transform="translate(21.54 14.14375) scale(0.1 -0.1)">
       <defs>
        <path id="TimesNewRomanPSMT-31" d="M 750 3822 
L 1781 4325 
L 1884 4325 
L 1884 747 
Q 1884 391 1914 303 
Q 1944 216 2037 169 
Q 2131 122 2419 116 
L 2419 0 
L 825 0 
L 825 116 
Q 1125 122 1212 167 
Q 1300 213 1334 289 
Q 1369 366 1369 747 
L 1369 3034 
Q 1369 3497 1338 3628 
Q 1316 3728 1258 3775 
Q 1200 3822 1119 3822 
Q 1003 3822 797 3725 
L 750 3822 
z
" transform="scale(0.015625)"/>
       </defs>
       <use xlink:href="#TimesNewRomanPSMT-31"/>
       <use xlink:href="#TimesNewRomanPSMT-2e" transform="translate(50 0)"/>
       <use xlink:href="#TimesNewRomanPSMT-30" transform="translate(75 0)"/>
      </g>
     </g>
    </g>
    <g id="text_10">
     <!-- $JFI_{\mathrm{eff}}$ -->
     <g transform="translate(15.187031 159.291916) rotate(-90) scale(0.11 -0.11)">
      <defs>
       <path id="DejaVuSans-Oblique-4a" d="M 1069 4666 
L 1703 4666 
L 856 325 
Q 691 -522 298 -901 
Q -94 -1281 -800 -1281 
L -1050 -1281 
L -947 -750 
L -750 -750 
Q -328 -750 -109 -509 
Q 109 -269 225 325 
L 1069 4666 
z
" transform="scale(0.015625)"/>
       <path id="DejaVuSans-Oblique-46" d="M 1081 4666 
L 3756 4666 
L 3653 4134 
L 1606 4134 
L 1338 2759 
L 3188 2759 
L 3084 2228 
L 1234 2228 
L 800 0 
L 172 0 
L 1081 4666 
z
" transform="scale(0.015625)"/>
       <path id="DejaVuSans-Oblique-49" d="M 1081 4666 
L 1716 4666 
L 806 0 
L 172 0 
L 1081 4666 
z
" transform="scale(0.015625)"/>
       <path id="DejaVuSans-65" d="M 3597 1894 
L 3597 1613 
L 953 1613 
Q 991 1019 1311 708 
Q 1631 397 2203 397 
Q 2534 397 2845 478 
Q 3156 559 3463 722 
L 3463 178 
Q 3153 47 2828 -22 
Q 2503 -91 2169 -91 
Q 1331 -91 842 396 
Q 353 884 353 1716 
Q 353 2575 817 3079 
Q 1281 3584 2069 3584 
Q 2775 3584 3186 3129 
Q 3597 2675 3597 1894 
z
M 3022 2063 
Q 3016 2534 2758 2815 
Q 2500 3097 2075 3097 
Q 1594 3097 1305 2825 
Q 1016 2553 972 2059 
L 3022 2063 
z
" transform="scale(0.015625)"/>
       <path id="DejaVuSans-66" d="M 2375 4863 
L 2375 4384 
L 1825 4384 
Q 1516 4384 1395 4259 
Q 1275 4134 1275 3809 
L 1275 3500 
L 2222 3500 
L 2222 3053 
L 1275 3053 
L 1275 0 
L 697 0 
L 697 3053 
L 147 3053 
L 147 3500 
L 697 3500 
L 697 3744 
Q 697 4328 969 4595 
Q 1241 4863 1831 4863 
L 2375 4863 
z
" transform="scale(0.015625)"/>
      </defs>
      <use xlink:href="#DejaVuSans-Oblique-4a" transform="translate(0 0.09375)"/>
      <use xlink:href="#DejaVuSans-Oblique-46" transform="translate(29.492188 0.09375)"/>
      <use xlink:href="#DejaVuSans-Oblique-49" transform="translate(87.011719 0.09375)"/>
      <use xlink:href="#DejaVuSans-65" transform="translate(116.503906 -16.3125) scale(0.7)"/>
      <use xlink:href="#DejaVuSans-66" transform="translate(159.570312 -16.3125) scale(0.7)"/>
      <use xlink:href="#DejaVuSans-66" transform="translate(184.213867 -16.3125) scale(0.7)"/>
     </g>
    </g>
   </g>
   <g id="patch_3">
    <path d="M 41.04 287.166089 
L 41.04 8.097743 
" style="fill: none; stroke: #000000; stroke-width: 0.8; stroke-linejoin: miter; stroke-linecap: square"/>
   </g>
   <g id="patch_4">
    <path d="M 41.04 287.166089 
L 428.65 287.166089 
" style="fill: none; stroke: #000000; stroke-width: 0.8; stroke-linejoin: miter; stroke-linecap: square"/>
   </g>
   <g id="patch_5">
    <path d="M 58.658636 287.166089 
L 79.785351 287.166089 
L 79.785351 31.137261 
L 58.658636 31.137261 
z
" clip-path="url(#pe5c6999cac)" style="fill: #ee6f63; stroke: #ffffff; stroke-width: 0.6; stroke-linejoin: miter"/>
   </g>
   <g id="patch_6">
    <path d="M 189.070453 287.166089 
L 210.197167 287.166089 
L 210.197167 31.579538 
L 189.070453 31.579538 
z
" clip-path="url(#pe5c6999cac)" style="fill: #ee6f63; stroke: #ffffff; stroke-width: 0.6; stroke-linejoin: miter"/>
   </g>
   <g id="patch_7">
    <path d="M 319.482269 287.166089 
L 340.608983 287.166089 
L 340.608983 31.658273 
L 319.482269 31.658273 
z
" clip-path="url(#pe5c6999cac)" style="fill: #ee6f63; stroke: #ffffff; stroke-width: 0.6; stroke-linejoin: miter"/>
   </g>
   <g id="text_11">
    <!-- 0.93 -->
    <g style="fill: #222222" transform="translate(63.271993 16.603774) scale(0.068 -0.068)">
     <defs>
      <path id="TimesNewRomanPS-BoldMT-30" d="M 2966 2119 
Q 2966 1484 2788 934 
Q 2681 597 2501 381 
Q 2322 166 2094 39 
Q 1866 -88 1597 -88 
Q 1291 -88 1044 68 
Q 797 225 606 516 
Q 469 728 366 1081 
Q 231 1559 231 2069 
Q 231 2759 425 3338 
Q 584 3816 909 4070 
Q 1234 4325 1597 4325 
Q 1966 4325 2286 4073 
Q 2606 3822 2756 3397 
Q 2966 2813 2966 2119 
z
M 2003 2125 
Q 2003 3238 1991 3422 
Q 1959 3856 1841 4009 
Q 1763 4109 1588 4109 
Q 1453 4109 1375 4034 
Q 1259 3925 1218 3648 
Q 1178 3372 1178 1719 
Q 1178 819 1241 513 
Q 1288 291 1375 216 
Q 1463 141 1606 141 
Q 1763 141 1841 241 
Q 1972 416 1991 781 
L 2003 2125 
z
" transform="scale(0.015625)"/>
      <path id="TimesNewRomanPS-BoldMT-2e" d="M 800 963 
Q 1019 963 1170 809 
Q 1322 656 1322 441 
Q 1322 225 1169 73 
Q 1016 -78 800 -78 
Q 584 -78 432 73 
Q 281 225 281 441 
Q 281 656 432 809 
Q 584 963 800 963 
z
" transform="scale(0.015625)"/>
      <path id="TimesNewRomanPS-BoldMT-39" d="M 197 -88 
L 197 0 
Q 716 119 1077 350 
Q 1438 581 1648 922 
Q 1859 1263 1944 1706 
Q 1750 1606 1614 1567 
Q 1478 1528 1328 1528 
Q 847 1528 526 1875 
Q 206 2222 206 2825 
Q 206 3244 379 3592 
Q 553 3941 875 4133 
Q 1197 4325 1544 4325 
Q 1916 4325 2247 4112 
Q 2578 3900 2775 3497 
Q 2972 3094 2972 2578 
Q 2972 1909 2651 1296 
Q 2331 684 1697 314 
Q 1063 -56 197 -88 
z
M 1991 1969 
Q 2022 2319 2022 2584 
Q 2022 3153 1891 3644 
Q 1816 3916 1669 4044 
Q 1591 4113 1466 4113 
Q 1309 4113 1222 3978 
Q 1100 3794 1100 3275 
Q 1100 2409 1306 2081 
Q 1441 1869 1669 1869 
Q 1791 1869 1991 1969 
z
" transform="scale(0.015625)"/>
      <path id="TimesNewRomanPS-BoldMT-33" d="M 947 2125 
L 947 2234 
Q 1303 2338 1440 2427 
Q 1578 2516 1678 2698 
Q 1778 2881 1778 3069 
Q 1778 3328 1589 3514 
Q 1400 3700 1119 3700 
Q 681 3700 375 3238 
L 259 3278 
Q 484 3800 836 4062 
Q 1188 4325 1619 4325 
Q 2059 4325 2345 4056 
Q 2631 3788 2631 3428 
Q 2631 3194 2498 2976 
Q 2366 2759 2081 2594 
Q 2447 2416 2639 2155 
Q 2831 1894 2831 1500 
Q 2831 838 2351 373 
Q 1872 -91 1066 -91 
Q 528 -91 281 88 
Q 103 213 103 409 
Q 103 553 206 654 
Q 309 756 444 756 
Q 547 756 638 713 
Q 688 688 992 439 
Q 1297 191 1563 191 
Q 1794 191 1959 373 
Q 2125 556 2125 838 
Q 2125 1266 1825 1627 
Q 1525 1988 947 2125 
z
" transform="scale(0.015625)"/>
     </defs>
     <use xlink:href="#TimesNewRomanPS-BoldMT-30"/>
     <use xlink:href="#TimesNewRomanPS-BoldMT-2e" transform="translate(50 0)"/>
     <use xlink:href="#TimesNewRomanPS-BoldMT-39" transform="translate(75 0)"/>
     <use xlink:href="#TimesNewRomanPS-BoldMT-33" transform="translate(125 0)"/>
    </g>
   </g>
   <g id="text_12">
    <!-- 0.92 -->
    <g style="fill: #222222" transform="translate(193.68381 17.521038) scale(0.068 -0.068)">
     <defs>
      <path id="TimesNewRomanPS-BoldMT-32" d="M 2650 0 
L 156 0 
L 156 69 
Q 1303 1434 1548 1906 
Q 1794 2378 1794 2828 
Q 1794 3156 1591 3373 
Q 1388 3591 1094 3591 
Q 613 3591 347 3109 
L 231 3150 
Q 400 3750 744 4037 
Q 1088 4325 1538 4325 
Q 1859 4325 2125 4175 
Q 2391 4025 2541 3764 
Q 2691 3503 2691 3275 
Q 2691 2859 2459 2431 
Q 2144 1853 1081 819 
L 1997 819 
Q 2334 819 2436 847 
Q 2538 875 2603 942 
Q 2669 1009 2775 1225 
L 2888 1225 
L 2650 0 
z
" transform="scale(0.015625)"/>
     </defs>
     <use xlink:href="#TimesNewRomanPS-BoldMT-30"/>
     <use xlink:href="#TimesNewRomanPS-BoldMT-2e" transform="translate(50 0)"/>
     <use xlink:href="#TimesNewRomanPS-BoldMT-39" transform="translate(75 0)"/>
     <use xlink:href="#TimesNewRomanPS-BoldMT-32" transform="translate(125 0)"/>
    </g>
   </g>
   <g id="text_13">
    <!-- 0.92 -->
    <g style="fill: #222222" transform="translate(324.095626 16.769224) scale(0.068 -0.068)">
     <use xlink:href="#TimesNewRomanPS-BoldMT-30"/>
     <use xlink:href="#TimesNewRomanPS-BoldMT-2e" transform="translate(50 0)"/>
     <use xlink:href="#TimesNewRomanPS-BoldMT-39" transform="translate(75 0)"/>
     <use xlink:href="#TimesNewRomanPS-BoldMT-32" transform="translate(125 0)"/>
    </g>
   </g>
   <g id="patch_8">
    <path d="M 82.132763 287.166089 
L 103.259477 287.166089 
L 103.259477 51.148624 
L 82.132763 51.148624 
z
" clip-path="url(#pe5c6999cac)" style="fill: #5fa8e8; stroke: #ffffff; stroke-width: 0.6; stroke-linejoin: miter"/>
   </g>
   <g id="patch_9">
    <path d="M 212.544579 287.166089 
L 233.671294 287.166089 
L 233.671294 77.7872 
L 212.544579 77.7872 
z
" clip-path="url(#pe5c6999cac)" style="fill: #5fa8e8; stroke: #ffffff; stroke-width: 0.6; stroke-linejoin: miter"/>
   </g>
   <g id="patch_10">
    <path d="M 342.956396 287.166089 
L 364.08311 287.166089 
L 364.08311 92.171447 
L 342.956396 92.171447 
z
" clip-path="url(#pe5c6999cac)" style="fill: #5fa8e8; stroke: #ffffff; stroke-width: 0.6; stroke-linejoin: miter"/>
   </g>
   <g id="text_14">
    <!-- 0.85 -->
    <g style="fill: #222222" transform="translate(86.74612 30.398417) scale(0.068 -0.068)">
     <defs>
      <path id="TimesNewRomanPS-BoldMT-38" d="M 2181 2394 
Q 2628 2066 2801 1783 
Q 2975 1500 2975 1134 
Q 2975 622 2589 267 
Q 2203 -88 1541 -88 
Q 913 -88 569 221 
Q 225 531 225 978 
Q 225 1319 423 1575 
Q 622 1831 1084 2044 
Q 581 2428 439 2672 
Q 297 2916 297 3238 
Q 297 3663 658 3986 
Q 1019 4309 1647 4309 
Q 2253 4309 2579 4023 
Q 2906 3738 2906 3338 
Q 2906 3038 2729 2808 
Q 2553 2578 2181 2394 
z
M 1944 2553 
Q 2059 2709 2115 2903 
Q 2172 3097 2172 3328 
Q 2172 3734 1997 3950 
Q 1866 4116 1634 4116 
Q 1425 4116 1278 3964 
Q 1131 3813 1131 3588 
Q 1131 3359 1295 3114 
Q 1459 2869 1944 2553 
z
M 1319 1894 
Q 1222 1806 1181 1734 
Q 1119 1625 1069 1415 
Q 1019 1206 1019 978 
Q 1019 684 1094 486 
Q 1169 288 1308 200 
Q 1447 113 1594 113 
Q 1822 113 1978 280 
Q 2134 447 2134 738 
Q 2134 1344 1319 1894 
z
" transform="scale(0.015625)"/>
      <path id="TimesNewRomanPS-BoldMT-35" d="M 975 4238 
L 2959 4238 
L 2644 3431 
L 975 3431 
L 816 3009 
Q 1894 2969 2475 2472 
Q 2953 2063 2953 1453 
Q 2953 1063 2731 689 
Q 2509 316 2106 114 
Q 1703 -88 1222 -88 
Q 703 -88 425 106 
Q 231 244 231 419 
Q 231 553 332 656 
Q 434 759 569 759 
Q 691 759 816 709 
Q 941 659 1244 447 
Q 1434 316 1572 266 
Q 1669 228 1791 228 
Q 2047 228 2226 415 
Q 2406 603 2406 866 
Q 2406 1416 1856 1759 
Q 1306 2103 469 2103 
Q 384 2103 216 2100 
L 975 4238 
z
" transform="scale(0.015625)"/>
     </defs>
     <use xlink:href="#TimesNewRomanPS-BoldMT-30"/>
     <use xlink:href="#TimesNewRomanPS-BoldMT-2e" transform="translate(50 0)"/>
     <use xlink:href="#TimesNewRomanPS-BoldMT-38" transform="translate(75 0)"/>
     <use xlink:href="#TimesNewRomanPS-BoldMT-35" transform="translate(125 0)"/>
    </g>
   </g>
   <g id="text_15">
    <!-- 0.76 -->
    <g style="fill: #222222" transform="translate(217.157937 49.957729) scale(0.068 -0.068)">
     <defs>
      <path id="TimesNewRomanPS-BoldMT-37" d="M 1134 -88 
L 2288 3409 
L 1409 3409 
Q 894 3409 634 3275 
Q 453 3181 334 2922 
L 216 2922 
L 522 4238 
L 3047 4238 
L 1625 -88 
L 1134 -88 
z
" transform="scale(0.015625)"/>
      <path id="TimesNewRomanPS-BoldMT-36" d="M 3006 4325 
L 3006 4238 
Q 2441 4094 2098 3867 
Q 1756 3641 1557 3317 
Q 1359 2994 1250 2516 
Q 1388 2609 1478 2638 
Q 1681 2700 1888 2700 
Q 2363 2700 2680 2354 
Q 2997 2009 2997 1413 
Q 2997 994 2825 644 
Q 2653 294 2337 103 
Q 2022 -88 1663 -88 
Q 1272 -88 940 126 
Q 609 341 423 753 
Q 238 1166 238 1650 
Q 238 2363 580 2977 
Q 922 3591 1551 3955 
Q 2181 4319 3006 4325 
z
M 1209 2263 
Q 1184 1831 1184 1631 
Q 1184 1200 1267 797 
Q 1350 394 1494 231 
Q 1597 116 1738 116 
Q 1881 116 1993 283 
Q 2106 450 2106 963 
Q 2106 1825 1897 2153 
Q 1763 2366 1534 2366 
Q 1409 2366 1209 2263 
z
" transform="scale(0.015625)"/>
     </defs>
     <use xlink:href="#TimesNewRomanPS-BoldMT-30"/>
     <use xlink:href="#TimesNewRomanPS-BoldMT-2e" transform="translate(50 0)"/>
     <use xlink:href="#TimesNewRomanPS-BoldMT-37" transform="translate(75 0)"/>
     <use xlink:href="#TimesNewRomanPS-BoldMT-36" transform="translate(125 0)"/>
    </g>
   </g>
   <g id="text_16">
    <!-- 0.71 -->
    <g style="fill: #222222" transform="translate(347.569753 61.588887) scale(0.068 -0.068)">
     <defs>
      <path id="TimesNewRomanPS-BoldMT-31" d="M 2084 4325 
L 2084 859 
Q 2084 469 2118 361 
Q 2153 253 2262 184 
Q 2372 116 2613 116 
L 2709 116 
L 2709 0 
L 478 0 
L 478 116 
L 591 116 
Q 863 116 978 178 
Q 1094 241 1134 350 
Q 1175 459 1175 859 
L 1175 3056 
Q 1175 3350 1147 3423 
Q 1119 3497 1042 3548 
Q 966 3600 866 3600 
Q 706 3600 478 3500 
L 422 3613 
L 1981 4325 
L 2084 4325 
z
" transform="scale(0.015625)"/>
     </defs>
     <use xlink:href="#TimesNewRomanPS-BoldMT-30"/>
     <use xlink:href="#TimesNewRomanPS-BoldMT-2e" transform="translate(50 0)"/>
     <use xlink:href="#TimesNewRomanPS-BoldMT-37" transform="translate(75 0)"/>
     <use xlink:href="#TimesNewRomanPS-BoldMT-31" transform="translate(125 0)"/>
    </g>
   </g>
   <g id="patch_11">
    <path d="M 105.60689 287.166089 
L 126.733604 287.166089 
L 126.733604 66.167594 
L 105.60689 66.167594 
z
" clip-path="url(#pe5c6999cac)" style="fill: #63cfa0; stroke: #ffffff; stroke-width: 0.6; stroke-linejoin: miter"/>
   </g>
   <g id="patch_12">
    <path d="M 236.018706 287.166089 
L 257.145421 287.166089 
L 257.145421 101.941124 
L 236.018706 101.941124 
z
" clip-path="url(#pe5c6999cac)" style="fill: #63cfa0; stroke: #ffffff; stroke-width: 0.6; stroke-linejoin: miter"/>
   </g>
   <g id="patch_13">
    <path d="M 366.430523 287.166089 
L 387.557237 287.166089 
L 387.557237 110.831385 
L 366.430523 110.831385 
z
" clip-path="url(#pe5c6999cac)" style="fill: #63cfa0; stroke: #ffffff; stroke-width: 0.6; stroke-linejoin: miter"/>
   </g>
   <g id="text_17">
    <!-- 0.80 -->
    <g style="fill: #222222" transform="translate(110.220247 34.90655) scale(0.068 -0.068)">
     <use xlink:href="#TimesNewRomanPS-BoldMT-30"/>
     <use xlink:href="#TimesNewRomanPS-BoldMT-2e" transform="translate(50 0)"/>
     <use xlink:href="#TimesNewRomanPS-BoldMT-38" transform="translate(75 0)"/>
     <use xlink:href="#TimesNewRomanPS-BoldMT-30" transform="translate(125 0)"/>
    </g>
   </g>
   <g id="text_18">
    <!-- 0.67 -->
    <g style="fill: #222222" transform="translate(240.632063 61.720636) scale(0.068 -0.068)">
     <use xlink:href="#TimesNewRomanPS-BoldMT-30"/>
     <use xlink:href="#TimesNewRomanPS-BoldMT-2e" transform="translate(50 0)"/>
     <use xlink:href="#TimesNewRomanPS-BoldMT-36" transform="translate(75 0)"/>
     <use xlink:href="#TimesNewRomanPS-BoldMT-37" transform="translate(125 0)"/>
    </g>
   </g>
   <g id="text_19">
    <!-- 0.64 -->
    <g style="fill: #222222" transform="translate(371.04388 70.701088) scale(0.068 -0.068)">
     <defs>
      <path id="TimesNewRomanPS-BoldMT-34" d="M 159 1597 
L 2172 4325 
L 2553 4325 
L 2553 1597 
L 2941 1597 
L 2941 950 
L 2553 950 
L 2553 0 
L 1694 0 
L 1694 950 
L 159 950 
L 159 1597 
z
M 463 1597 
L 1694 1597 
L 1694 3269 
L 463 1597 
z
" transform="scale(0.015625)"/>
     </defs>
     <use xlink:href="#TimesNewRomanPS-BoldMT-30"/>
     <use xlink:href="#TimesNewRomanPS-BoldMT-2e" transform="translate(50 0)"/>
     <use xlink:href="#TimesNewRomanPS-BoldMT-36" transform="translate(75 0)"/>
     <use xlink:href="#TimesNewRomanPS-BoldMT-34" transform="translate(125 0)"/>
    </g>
   </g>
   <g id="patch_14">
    <path d="M 129.081017 287.166089 
L 150.207731 287.166089 
L 150.207731 99.412938 
L 129.081017 99.412938 
z
" clip-path="url(#pe5c6999cac)" style="fill: #b08adf; stroke: #ffffff; stroke-width: 0.6; stroke-linejoin: miter"/>
   </g>
   <g id="patch_15">
    <path d="M 259.492833 287.166089 
L 280.619547 287.166089 
L 280.619547 119.017707 
L 259.492833 119.017707 
z
" clip-path="url(#pe5c6999cac)" style="fill: #b08adf; stroke: #ffffff; stroke-width: 0.6; stroke-linejoin: miter"/>
   </g>
   <g id="patch_16">
    <path d="M 389.904649 287.166089 
L 411.031364 287.166089 
L 411.031364 116.144078 
L 389.904649 116.144078 
z
" clip-path="url(#pe5c6999cac)" style="fill: #b08adf; stroke: #ffffff; stroke-width: 0.6; stroke-linejoin: miter"/>
   </g>
   <g id="text_20">
    <!-- 0.68 -->
    <g style="fill: #222222" transform="translate(133.694374 62.579894) scale(0.068 -0.068)">
     <use xlink:href="#TimesNewRomanPS-BoldMT-30"/>
     <use xlink:href="#TimesNewRomanPS-BoldMT-2e" transform="translate(50 0)"/>
     <use xlink:href="#TimesNewRomanPS-BoldMT-36" transform="translate(75 0)"/>
     <use xlink:href="#TimesNewRomanPS-BoldMT-38" transform="translate(125 0)"/>
    </g>
   </g>
   <g id="text_21">
    <!-- 0.61 -->
    <g style="fill: #222222" transform="translate(264.10619 83.200453) scale(0.068 -0.068)">
     <use xlink:href="#TimesNewRomanPS-BoldMT-30"/>
     <use xlink:href="#TimesNewRomanPS-BoldMT-2e" transform="translate(50 0)"/>
     <use xlink:href="#TimesNewRomanPS-BoldMT-36" transform="translate(75 0)"/>
     <use xlink:href="#TimesNewRomanPS-BoldMT-31" transform="translate(125 0)"/>
    </g>
   </g>
   <g id="text_22">
    <!-- 0.62 -->
    <g style="fill: #222222" transform="translate(394.518007 78.381228) scale(0.068 -0.068)">
     <use xlink:href="#TimesNewRomanPS-BoldMT-30"/>
     <use xlink:href="#TimesNewRomanPS-BoldMT-2e" transform="translate(50 0)"/>
     <use xlink:href="#TimesNewRomanPS-BoldMT-36" transform="translate(75 0)"/>
     <use xlink:href="#TimesNewRomanPS-BoldMT-32" transform="translate(125 0)"/>
    </g>
   </g>
   <g id="LineCollection_1">
    <path d="M 69.221993 40.887811 
L 69.221993 21.386711 
" clip-path="url(#pe5c6999cac)" style="fill: none; stroke: #555555"/>
    <path d="M 199.63381 40.8551 
L 199.63381 22.303976 
" clip-path="url(#pe5c6999cac)" style="fill: none; stroke: #555555"/>
    <path d="M 330.045626 41.764385 
L 330.045626 21.552162 
" clip-path="url(#pe5c6999cac)" style="fill: none; stroke: #555555"/>
   </g>
   <g id="line2d_16">
    <defs>
     <path id="m5e2f9d1573" d="M 3 0 
L -3 -0 
" style="stroke: #555555"/>
    </defs>
    <g clip-path="url(#pe5c6999cac)">
     <use xlink:href="#m5e2f9d1573" x="69.221993" y="40.887811" style="fill: #1f77b4; stroke: #555555"/>
     <use xlink:href="#m5e2f9d1573" x="199.63381" y="40.8551" style="fill: #1f77b4; stroke: #555555"/>
     <use xlink:href="#m5e2f9d1573" x="330.045626" y="41.764385" style="fill: #1f77b4; stroke: #555555"/>
    </g>
   </g>
   <g id="line2d_17">
    <g clip-path="url(#pe5c6999cac)">
     <use xlink:href="#m5e2f9d1573" x="69.221993" y="21.386711" style="fill: #1f77b4; stroke: #555555"/>
     <use xlink:href="#m5e2f9d1573" x="199.63381" y="22.303976" style="fill: #1f77b4; stroke: #555555"/>
     <use xlink:href="#m5e2f9d1573" x="330.045626" y="21.552162" style="fill: #1f77b4; stroke: #555555"/>
    </g>
   </g>
   <g id="LineCollection_2">
    <path d="M 92.69612 67.376042 
L 92.69612 34.921206 
" clip-path="url(#pe5c6999cac)" style="fill: none; stroke: #555555"/>
    <path d="M 223.107937 101.093881 
L 223.107937 54.480518 
" clip-path="url(#pe5c6999cac)" style="fill: none; stroke: #555555"/>
    <path d="M 353.519753 118.231218 
L 353.519753 66.111677 
" clip-path="url(#pe5c6999cac)" style="fill: none; stroke: #555555"/>
   </g>
   <g id="line2d_18">
    <g clip-path="url(#pe5c6999cac)">
     <use xlink:href="#m5e2f9d1573" x="92.69612" y="67.376042" style="fill: #1f77b4; stroke: #555555"/>
     <use xlink:href="#m5e2f9d1573" x="223.107937" y="101.093881" style="fill: #1f77b4; stroke: #555555"/>
     <use xlink:href="#m5e2f9d1573" x="353.519753" y="118.231218" style="fill: #1f77b4; stroke: #555555"/>
    </g>
   </g>
   <g id="line2d_19">
    <g clip-path="url(#pe5c6999cac)">
     <use xlink:href="#m5e2f9d1573" x="92.69612" y="34.921206" style="fill: #1f77b4; stroke: #555555"/>
     <use xlink:href="#m5e2f9d1573" x="223.107937" y="54.480518" style="fill: #1f77b4; stroke: #555555"/>
     <use xlink:href="#m5e2f9d1573" x="353.519753" y="66.111677" style="fill: #1f77b4; stroke: #555555"/>
    </g>
   </g>
   <g id="LineCollection_3">
    <path d="M 116.170247 93.101096 
L 116.170247 39.234093 
" clip-path="url(#pe5c6999cac)" style="fill: none; stroke: #555555"/>
    <path d="M 246.582063 137.83407 
L 246.582063 66.048179 
" clip-path="url(#pe5c6999cac)" style="fill: none; stroke: #555555"/>
    <path d="M 376.99388 146.634138 
L 376.99388 75.028631 
" clip-path="url(#pe5c6999cac)" style="fill: none; stroke: #555555"/>
   </g>
   <g id="line2d_20">
    <g clip-path="url(#pe5c6999cac)">
     <use xlink:href="#m5e2f9d1573" x="116.170247" y="93.101096" style="fill: #1f77b4; stroke: #555555"/>
     <use xlink:href="#m5e2f9d1573" x="246.582063" y="137.83407" style="fill: #1f77b4; stroke: #555555"/>
     <use xlink:href="#m5e2f9d1573" x="376.99388" y="146.634138" style="fill: #1f77b4; stroke: #555555"/>
    </g>
   </g>
   <g id="line2d_21">
    <g clip-path="url(#pe5c6999cac)">
     <use xlink:href="#m5e2f9d1573" x="116.170247" y="39.234093" style="fill: #1f77b4; stroke: #555555"/>
     <use xlink:href="#m5e2f9d1573" x="246.582063" y="66.048179" style="fill: #1f77b4; stroke: #555555"/>
     <use xlink:href="#m5e2f9d1573" x="376.99388" y="75.028631" style="fill: #1f77b4; stroke: #555555"/>
    </g>
   </g>
   <g id="LineCollection_4">
    <path d="M 139.644374 132.350629 
L 139.644374 66.475248 
" clip-path="url(#pe5c6999cac)" style="fill: none; stroke: #555555"/>
    <path d="M 270.05619 150.939608 
L 270.05619 87.095806 
" clip-path="url(#pe5c6999cac)" style="fill: none; stroke: #555555"/>
    <path d="M 400.468007 150.011574 
L 400.468007 82.276581 
" clip-path="url(#pe5c6999cac)" style="fill: none; stroke: #555555"/>
   </g>
   <g id="line2d_22">
    <g clip-path="url(#pe5c6999cac)">
     <use xlink:href="#m5e2f9d1573" x="139.644374" y="132.350629" style="fill: #1f77b4; stroke: #555555"/>
     <use xlink:href="#m5e2f9d1573" x="270.05619" y="150.939608" style="fill: #1f77b4; stroke: #555555"/>
     <use xlink:href="#m5e2f9d1573" x="400.468007" y="150.011574" style="fill: #1f77b4; stroke: #555555"/>
    </g>
   </g>
   <g id="line2d_23">
    <g clip-path="url(#pe5c6999cac)">
     <use xlink:href="#m5e2f9d1573" x="139.644374" y="66.475248" style="fill: #1f77b4; stroke: #555555"/>
     <use xlink:href="#m5e2f9d1573" x="270.05619" y="87.095806" style="fill: #1f77b4; stroke: #555555"/>
     <use xlink:href="#m5e2f9d1573" x="400.468007" y="82.276581" style="fill: #1f77b4; stroke: #555555"/>
    </g>
   </g>
   <g id="legend_1">
    <g id="patch_17">
     <path d="M 348.523438 72.653993 
L 421.65 72.653993 
Q 423.65 72.653993 423.65 70.653993 
L 423.65 15.097743 
Q 423.65 13.097743 421.65 13.097743 
L 348.523438 13.097743 
Q 346.523438 13.097743 346.523438 15.097743 
L 346.523438 70.653993 
Q 346.523438 72.653993 348.523438 72.653993 
z
" style="fill: #ffffff; opacity: 0.8; stroke: #cccccc; stroke-linejoin: miter"/>
    </g>
    <g id="patch_18">
     <path d="M 350.523438 24.097743 
L 370.523438 24.097743 
L 370.523438 17.097743 
L 350.523438 17.097743 
z
" style="fill: #ee6f63; stroke: #888888; stroke-linejoin: miter"/>
    </g>
    <g id="text_23">
     <!-- BVF -->
     <g transform="translate(378.523438 24.097743) scale(0.1 -0.1)">
      <defs>
       <path id="TimesNewRomanPSMT-42" d="M 2956 2163 
Q 3397 2069 3616 1863 
Q 3919 1575 3919 1159 
Q 3919 844 3719 555 
Q 3519 266 3170 133 
Q 2822 0 2106 0 
L 106 0 
L 106 116 
L 266 116 
Q 531 116 647 284 
Q 719 394 719 750 
L 719 3488 
Q 719 3881 628 3984 
Q 506 4122 266 4122 
L 106 4122 
L 106 4238 
L 1938 4238 
Q 2450 4238 2759 4163 
Q 3228 4050 3475 3764 
Q 3722 3478 3722 3106 
Q 3722 2788 3528 2536 
Q 3334 2284 2956 2163 
z
M 1319 2331 
Q 1434 2309 1582 2298 
Q 1731 2288 1909 2288 
Q 2366 2288 2595 2386 
Q 2825 2484 2947 2687 
Q 3069 2891 3069 3131 
Q 3069 3503 2766 3765 
Q 2463 4028 1881 4028 
Q 1569 4028 1319 3959 
L 1319 2331 
z
M 1319 306 
Q 1681 222 2034 222 
Q 2600 222 2897 476 
Q 3194 731 3194 1106 
Q 3194 1353 3059 1581 
Q 2925 1809 2622 1940 
Q 2319 2072 1872 2072 
Q 1678 2072 1540 2065 
Q 1403 2059 1319 2044 
L 1319 306 
z
" transform="scale(0.015625)"/>
       <path id="TimesNewRomanPSMT-56" d="M 4544 4238 
L 4544 4122 
Q 4319 4081 4203 3978 
Q 4038 3825 3909 3509 
L 2431 -97 
L 2316 -97 
L 728 3556 
Q 606 3838 556 3900 
Q 478 3997 364 4051 
Q 250 4106 56 4122 
L 56 4238 
L 1788 4238 
L 1788 4122 
Q 1494 4094 1406 4022 
Q 1319 3950 1319 3838 
Q 1319 3681 1463 3350 
L 2541 866 
L 3541 3319 
Q 3688 3681 3688 3822 
Q 3688 3913 3597 3995 
Q 3506 4078 3291 4113 
Q 3275 4116 3238 4122 
L 3238 4238 
L 4544 4238 
z
" transform="scale(0.015625)"/>
       <path id="TimesNewRomanPSMT-46" d="M 1309 4006 
L 1309 2341 
L 2081 2341 
Q 2347 2341 2470 2458 
Q 2594 2575 2634 2922 
L 2750 2922 
L 2750 1488 
L 2634 1488 
Q 2631 1734 2570 1850 
Q 2509 1966 2401 2023 
Q 2294 2081 2081 2081 
L 1309 2081 
L 1309 750 
Q 1309 428 1350 325 
Q 1381 247 1481 191 
Q 1619 116 1769 116 
L 1922 116 
L 1922 0 
L 103 0 
L 103 116 
L 253 116 
Q 516 116 634 269 
Q 709 369 709 750 
L 709 3488 
Q 709 3809 669 3913 
Q 638 3991 541 4047 
Q 406 4122 253 4122 
L 103 4122 
L 103 4238 
L 3256 4238 
L 3297 3306 
L 3188 3306 
Q 3106 3603 2998 3742 
Q 2891 3881 2733 3943 
Q 2575 4006 2244 4006 
L 1309 4006 
z
" transform="scale(0.015625)"/>
      </defs>
      <use xlink:href="#TimesNewRomanPSMT-42"/>
      <use xlink:href="#TimesNewRomanPSMT-56" transform="translate(66.699219 0)"/>
      <use xlink:href="#TimesNewRomanPSMT-46" transform="translate(138.916016 0)"/>
     </g>
    </g>
    <g id="patch_19">
     <path d="M 350.523438 38.236805 
L 370.523438 38.236805 
L 370.523438 31.236805 
L 350.523438 31.236805 
z
" style="fill: #5fa8e8; stroke: #888888; stroke-linejoin: miter"/>
    </g>
    <g id="text_24">
     <!-- DGA-CF -->
     <g transform="translate(378.523438 38.236805) scale(0.1 -0.1)">
      <defs>
       <path id="TimesNewRomanPSMT-44" d="M 109 0 
L 109 116 
L 269 116 
Q 538 116 650 288 
Q 719 391 719 750 
L 719 3488 
Q 719 3884 631 3984 
Q 509 4122 269 4122 
L 109 4122 
L 109 4238 
L 1834 4238 
Q 2784 4238 3279 4022 
Q 3775 3806 4076 3303 
Q 4378 2800 4378 2141 
Q 4378 1256 3841 663 
Q 3238 0 2003 0 
L 109 0 
z
M 1319 306 
Q 1716 219 1984 219 
Q 2709 219 3187 728 
Q 3666 1238 3666 2109 
Q 3666 2988 3187 3494 
Q 2709 4000 1959 4000 
Q 1678 4000 1319 3909 
L 1319 306 
z
" transform="scale(0.015625)"/>
       <path id="TimesNewRomanPSMT-41" d="M 2928 1419 
L 1288 1419 
L 1000 750 
Q 894 503 894 381 
Q 894 284 986 211 
Q 1078 138 1384 116 
L 1384 0 
L 50 0 
L 50 116 
Q 316 163 394 238 
Q 553 388 747 847 
L 2238 4334 
L 2347 4334 
L 3822 809 
Q 4000 384 4145 257 
Q 4291 131 4550 116 
L 4550 0 
L 2878 0 
L 2878 116 
Q 3131 128 3220 200 
Q 3309 272 3309 375 
Q 3309 513 3184 809 
L 2928 1419 
z
M 2841 1650 
L 2122 3363 
L 1384 1650 
L 2841 1650 
z
" transform="scale(0.015625)"/>
       <path id="TimesNewRomanPSMT-2d" d="M 259 1672 
L 1875 1672 
L 1875 1200 
L 259 1200 
L 259 1672 
z
" transform="scale(0.015625)"/>
       <path id="TimesNewRomanPSMT-43" d="M 3853 4334 
L 3950 2894 
L 3853 2894 
Q 3659 3541 3300 3825 
Q 2941 4109 2438 4109 
Q 2016 4109 1675 3895 
Q 1334 3681 1139 3212 
Q 944 2744 944 2047 
Q 944 1472 1128 1050 
Q 1313 628 1683 403 
Q 2053 178 2528 178 
Q 2941 178 3256 354 
Q 3572 531 3950 1056 
L 4047 994 
Q 3728 428 3303 165 
Q 2878 -97 2294 -97 
Q 1241 -97 663 684 
Q 231 1266 231 2053 
Q 231 2688 515 3219 
Q 800 3750 1298 4042 
Q 1797 4334 2388 4334 
Q 2847 4334 3294 4109 
Q 3425 4041 3481 4041 
Q 3566 4041 3628 4100 
Q 3709 4184 3744 4334 
L 3853 4334 
z
" transform="scale(0.015625)"/>
      </defs>
      <use xlink:href="#TimesNewRomanPSMT-44"/>
      <use xlink:href="#TimesNewRomanPSMT-47" transform="translate(72.216797 0)"/>
      <use xlink:href="#TimesNewRomanPSMT-41" transform="translate(144.433594 0)"/>
      <use xlink:href="#TimesNewRomanPSMT-2d" transform="translate(216.650391 0)"/>
      <use xlink:href="#TimesNewRomanPSMT-43" transform="translate(249.951172 0)"/>
      <use xlink:href="#TimesNewRomanPSMT-46" transform="translate(316.650391 0)"/>
     </g>
    </g>
    <g id="patch_20">
     <path d="M 350.523438 52.375868 
L 370.523438 52.375868 
L 370.523438 45.375868 
L 350.523438 45.375868 
z
" style="fill: #63cfa0; stroke: #888888; stroke-linejoin: miter"/>
    </g>
    <g id="text_25">
     <!-- DPSO-CF -->
     <g transform="translate(378.523438 52.375868) scale(0.1 -0.1)">
      <defs>
       <path id="TimesNewRomanPSMT-50" d="M 1313 1984 
L 1313 750 
Q 1313 350 1400 253 
Q 1519 116 1759 116 
L 1922 116 
L 1922 0 
L 106 0 
L 106 116 
L 266 116 
Q 534 116 650 291 
Q 713 388 713 750 
L 713 3488 
Q 713 3888 628 3984 
Q 506 4122 266 4122 
L 106 4122 
L 106 4238 
L 1659 4238 
Q 2228 4238 2556 4120 
Q 2884 4003 3109 3725 
Q 3334 3447 3334 3066 
Q 3334 2547 2992 2222 
Q 2650 1897 2025 1897 
Q 1872 1897 1694 1919 
Q 1516 1941 1313 1984 
z
M 1313 2163 
Q 1478 2131 1606 2115 
Q 1734 2100 1825 2100 
Q 2150 2100 2386 2351 
Q 2622 2603 2622 3003 
Q 2622 3278 2509 3514 
Q 2397 3750 2190 3867 
Q 1984 3984 1722 3984 
Q 1563 3984 1313 3925 
L 1313 2163 
z
" transform="scale(0.015625)"/>
       <path id="TimesNewRomanPSMT-53" d="M 2934 4334 
L 2934 2869 
L 2819 2869 
Q 2763 3291 2617 3541 
Q 2472 3791 2203 3937 
Q 1934 4084 1647 4084 
Q 1322 4084 1109 3886 
Q 897 3688 897 3434 
Q 897 3241 1031 3081 
Q 1225 2847 1953 2456 
Q 2547 2138 2764 1967 
Q 2981 1797 3098 1565 
Q 3216 1334 3216 1081 
Q 3216 600 2842 251 
Q 2469 -97 1881 -97 
Q 1697 -97 1534 -69 
Q 1438 -53 1133 45 
Q 828 144 747 144 
Q 669 144 623 97 
Q 578 50 556 -97 
L 441 -97 
L 441 1356 
L 556 1356 
Q 638 900 775 673 
Q 913 447 1195 297 
Q 1478 147 1816 147 
Q 2206 147 2432 353 
Q 2659 559 2659 841 
Q 2659 997 2573 1156 
Q 2488 1316 2306 1453 
Q 2184 1547 1640 1851 
Q 1097 2156 867 2337 
Q 638 2519 519 2737 
Q 400 2956 400 3219 
Q 400 3675 750 4004 
Q 1100 4334 1641 4334 
Q 1978 4334 2356 4169 
Q 2531 4091 2603 4091 
Q 2684 4091 2736 4139 
Q 2788 4188 2819 4334 
L 2934 4334 
z
" transform="scale(0.015625)"/>
       <path id="TimesNewRomanPSMT-4f" d="M 2341 4334 
Q 3166 4334 3770 3707 
Q 4375 3081 4375 2144 
Q 4375 1178 3765 540 
Q 3156 -97 2291 -97 
Q 1416 -97 820 525 
Q 225 1147 225 2134 
Q 225 3144 913 3781 
Q 1509 4334 2341 4334 
z
M 2281 4106 
Q 1713 4106 1369 3684 
Q 941 3159 941 2147 
Q 941 1109 1384 550 
Q 1725 125 2284 125 
Q 2881 125 3270 590 
Q 3659 1056 3659 2059 
Q 3659 3147 3231 3681 
Q 2888 4106 2281 4106 
z
" transform="scale(0.015625)"/>
      </defs>
      <use xlink:href="#TimesNewRomanPSMT-44"/>
      <use xlink:href="#TimesNewRomanPSMT-50" transform="translate(72.216797 0)"/>
      <use xlink:href="#TimesNewRomanPSMT-53" transform="translate(127.832031 0)"/>
      <use xlink:href="#TimesNewRomanPSMT-4f" transform="translate(183.447266 0)"/>
      <use xlink:href="#TimesNewRomanPSMT-2d" transform="translate(255.664062 0)"/>
      <use xlink:href="#TimesNewRomanPSMT-43" transform="translate(288.964844 0)"/>
      <use xlink:href="#TimesNewRomanPSMT-46" transform="translate(355.664062 0)"/>
     </g>
    </g>
    <g id="patch_21">
     <path d="M 350.523438 66.51493 
L 370.523438 66.51493 
L 370.523438 59.51493 
L 350.523438 59.51493 
z
" style="fill: #b08adf; stroke: #888888; stroke-linejoin: miter"/>
    </g>
    <g id="text_26">
     <!-- NSSA-CF -->
     <g transform="translate(378.523438 66.51493) scale(0.1 -0.1)">
      <defs>
       <path id="TimesNewRomanPSMT-4e" d="M -84 4238 
L 1066 4238 
L 3656 1059 
L 3656 3503 
Q 3656 3894 3569 3991 
Q 3453 4122 3203 4122 
L 3056 4122 
L 3056 4238 
L 4531 4238 
L 4531 4122 
L 4381 4122 
Q 4113 4122 4000 3959 
Q 3931 3859 3931 3503 
L 3931 -69 
L 3819 -69 
L 1025 3344 
L 1025 734 
Q 1025 344 1109 247 
Q 1228 116 1475 116 
L 1625 116 
L 1625 0 
L 150 0 
L 150 116 
L 297 116 
Q 569 116 681 278 
Q 750 378 750 734 
L 750 3681 
Q 566 3897 470 3965 
Q 375 4034 191 4094 
Q 100 4122 -84 4122 
L -84 4238 
z
" transform="scale(0.015625)"/>
      </defs>
      <use xlink:href="#TimesNewRomanPSMT-4e"/>
      <use xlink:href="#TimesNewRomanPSMT-53" transform="translate(72.216797 0)"/>
      <use xlink:href="#TimesNewRomanPSMT-53" transform="translate(127.832031 0)"/>
      <use xlink:href="#TimesNewRomanPSMT-41" transform="translate(183.447266 0)"/>
      <use xlink:href="#TimesNewRomanPSMT-2d" transform="translate(255.664062 0)"/>
      <use xlink:href="#TimesNewRomanPSMT-43" transform="translate(288.964844 0)"/>
      <use xlink:href="#TimesNewRomanPSMT-46" transform="translate(355.664062 0)"/>
     </g>
    </g>
   </g>
  </g>
 </g>
 <defs>
  <clipPath id="pe5c6999cac">
   <rect x="41.04" y="8.097743" width="387.61" height="279.068347"/>
  </clipPath>
 </defs>
</svg>
