<?xml version="1.0" encoding="utf-8" standalone="no"?>
<!DOCTYPE svg PUBLIC "-//W3C//DTD SVG 1.1//EN"
  "http://www.w3.org/Graphics/SVG/1.1/DTD/svg11.dtd">
<svg xmlns:xlink="http://www.w3.org/1999/xlink" width="439.030625pt" height="322.608094pt" viewBox="0 0 439.030625 322.608094" xmlns="http://www.w3.org/2000/svg" version="1.1">
 <metadata>
  <rdf:RDF xmlns:dc="http://purl.org/dc/elements/1.1/" xmlns:cc="http://creativecommons.org/ns#" xmlns:rdf="http://www.w3.org/1999/02/22-rdf-syntax-ns#">
   <cc:Work>
    <dc:type rdf:resource="http://purl.org/dc/dcmitype/StillImage"/>
    <dc:date>2026-04-08T20:50:31.554624</dc:date>
    <dc:format>image/svg+xml</dc:format>
    <dc:creator>
     <cc:Agent>
      <dc:title>Matplotlib v3.10.8, https://matplotlib.org/</dc:title>
     </cc:Agent>
    </dc:creator>
   </cc:Work>
  </rdf:RDF>
 </metadata>
 <defs>
  <style type="text/css">*{stroke-linejoin: round; stroke-linecap: butt}</style>
 </defs>
 <g id="figure_1">
  <g id="patch_1">
   <path d="M 0 322.608094 
L 439.030625 322.608094 
L 439.030625 0 
L 0 0 
z
" style="fill: #ffffff"/>
  </g>
  <g id="axes_1">
   <g id="patch_2">
    <path d="M 39.495625 287.876 
L 431.830625 287.876 
L 431.830625 7.2 
L 39.495625 7.2 
z
" style="fill: #ffffff"/>
   </g>
   <g id="matplotlib.axis_1">
    <g id="xtick_1">
     <g id="line2d_1">
      <defs>
       <path id="m5ad1e338d5" d="M 0 0 
L 0 3.5 
" style="stroke: #000000; stroke-width: 0.8"/>
      </defs>
      <g>
       <use xlink:href="#m5ad1e338d5" x="103.661577" y="287.876" style="stroke: #000000; stroke-width: 0.8"/>
      </g>
     </g>
     <g id="text_1">
      <!-- K=20 -->
      <g transform="translate(91.659585 302.166937) scale(0.105 -0.105)">
       <defs>
        <path id="TimesNewRomanPSMT-4b" d="M 1913 2350 
L 3475 797 
Q 3859 413 4131 273 
Q 4403 134 4675 116 
L 4675 0 
L 2659 0 
L 2659 116 
Q 2841 116 2920 177 
Q 3000 238 3000 313 
Q 3000 388 2970 447 
Q 2941 506 2775 669 
L 1313 2116 
L 1313 750 
Q 1313 428 1353 325 
Q 1384 247 1484 191 
Q 1619 116 1769 116 
L 1913 116 
L 1913 0 
L 106 0 
L 106 116 
L 256 116 
Q 519 116 638 269 
Q 713 369 713 750 
L 713 3488 
Q 713 3809 672 3916 
Q 641 3991 544 4047 
Q 406 4122 256 4122 
L 106 4122 
L 106 4238 
L 1913 4238 
L 1913 4122 
L 1769 4122 
Q 1622 4122 1484 4050 
Q 1388 4000 1350 3900 
Q 1313 3800 1313 3488 
L 1313 2191 
Q 1375 2250 1741 2588 
Q 2669 3438 2863 3722 
Q 2947 3847 2947 3941 
Q 2947 4013 2881 4067 
Q 2816 4122 2659 4122 
L 2563 4122 
L 2563 4238 
L 4119 4238 
L 4119 4122 
Q 3981 4119 3868 4084 
Q 3756 4050 3593 3951 
Q 3431 3853 3194 3634 
Q 3125 3572 2559 2994 
L 1913 2350 
z
" transform="scale(0.015625)"/>
        <path id="TimesNewRomanPSMT-3d" d="M 116 2759 
L 3488 2759 
L 3488 2503 
L 116 2503 
L 116 2759 
z
M 116 1741 
L 3488 1741 
L 3488 1484 
L 116 1484 
L 116 1741 
z
" transform="scale(0.015625)"/>
        <path id="TimesNewRomanPSMT-32" d="M 2934 816 
L 2638 0 
L 138 0 
L 138 116 
Q 1241 1122 1691 1759 
Q 2141 2397 2141 2925 
Q 2141 3328 1894 3587 
Q 1647 3847 1303 3847 
Q 991 3847 742 3664 
Q 494 3481 375 3128 
L 259 3128 
Q 338 3706 661 4015 
Q 984 4325 1469 4325 
Q 1984 4325 2329 3994 
Q 2675 3663 2675 3213 
Q 2675 2891 2525 2569 
Q 2294 2063 1775 1497 
Q 997 647 803 472 
L 1909 472 
Q 2247 472 2383 497 
Q 2519 522 2628 598 
Q 2738 675 2819 816 
L 2934 816 
z
" transform="scale(0.015625)"/>
        <path id="TimesNewRomanPSMT-30" d="M 231 2094 
Q 231 2819 450 3342 
Q 669 3866 1031 4122 
Q 1313 4325 1613 4325 
Q 2100 4325 2488 3828 
Q 2972 3213 2972 2159 
Q 2972 1422 2759 906 
Q 2547 391 2217 158 
Q 1888 -75 1581 -75 
Q 975 -75 572 641 
Q 231 1244 231 2094 
z
M 844 2016 
Q 844 1141 1059 588 
Q 1238 122 1591 122 
Q 1759 122 1940 273 
Q 2122 425 2216 781 
Q 2359 1319 2359 2297 
Q 2359 3022 2209 3506 
Q 2097 3866 1919 4016 
Q 1791 4119 1609 4119 
Q 1397 4119 1231 3928 
Q 1006 3669 925 3112 
Q 844 2556 844 2016 
z
" transform="scale(0.015625)"/>
       </defs>
       <use xlink:href="#TimesNewRomanPSMT-4b"/>
       <use xlink:href="#TimesNewRomanPSMT-3d" transform="translate(72.216797 0)"/>
       <use xlink:href="#TimesNewRomanPSMT-32" transform="translate(128.613281 0)"/>
       <use xlink:href="#TimesNewRomanPSMT-30" transform="translate(178.613281 0)"/>
      </g>
      <!-- (L=9, G=6) -->
      <g transform="translate(79.371304 313.162078) scale(0.105 -0.105)">
       <defs>
        <path id="TimesNewRomanPSMT-28" d="M 1988 -1253 
L 1988 -1369 
Q 1516 -1131 1200 -813 
Q 750 -359 506 256 
Q 263 872 263 1534 
Q 263 2503 741 3301 
Q 1219 4100 1988 4444 
L 1988 4313 
Q 1603 4100 1356 3731 
Q 1109 3363 987 2797 
Q 866 2231 866 1616 
Q 866 947 969 400 
Q 1050 -31 1165 -292 
Q 1281 -553 1476 -793 
Q 1672 -1034 1988 -1253 
z
" transform="scale(0.015625)"/>
        <path id="TimesNewRomanPSMT-4c" d="M 3669 1172 
L 3772 1150 
L 3409 0 
L 128 0 
L 128 116 
L 288 116 
Q 556 116 672 291 
Q 738 391 738 753 
L 738 3488 
Q 738 3884 650 3984 
Q 528 4122 288 4122 
L 128 4122 
L 128 4238 
L 2047 4238 
L 2047 4122 
Q 1709 4125 1573 4059 
Q 1438 3994 1388 3894 
Q 1338 3794 1338 3416 
L 1338 753 
Q 1338 494 1388 397 
Q 1425 331 1503 300 
Q 1581 269 1991 269 
L 2300 269 
Q 2788 269 2984 341 
Q 3181 413 3343 595 
Q 3506 778 3669 1172 
z
" transform="scale(0.015625)"/>
        <path id="TimesNewRomanPSMT-39" d="M 338 -88 
L 338 28 
Q 744 34 1094 217 
Q 1444 400 1770 856 
Q 2097 1313 2225 1859 
Q 1734 1544 1338 1544 
Q 891 1544 572 1889 
Q 253 2234 253 2806 
Q 253 3363 572 3797 
Q 956 4325 1575 4325 
Q 2097 4325 2469 3894 
Q 2925 3359 2925 2575 
Q 2925 1869 2578 1258 
Q 2231 647 1613 244 
Q 1109 -88 516 -88 
L 338 -88 
z
M 2275 2091 
Q 2331 2497 2331 2741 
Q 2331 3044 2228 3395 
Q 2125 3747 1936 3934 
Q 1747 4122 1506 4122 
Q 1228 4122 1018 3872 
Q 809 3622 809 3128 
Q 809 2469 1088 2097 
Q 1291 1828 1588 1828 
Q 1731 1828 1928 1897 
Q 2125 1966 2275 2091 
z
" transform="scale(0.015625)"/>
        <path id="TimesNewRomanPSMT-2c" d="M 344 -1066 
L 344 -928 
Q 666 -822 842 -598 
Q 1019 -375 1019 -125 
Q 1019 -66 991 -25 
Q 969 3 947 3 
Q 913 3 797 -59 
Q 741 -88 678 -88 
Q 525 -88 434 3 
Q 344 94 344 253 
Q 344 406 461 515 
Q 578 625 747 625 
Q 953 625 1114 445 
Q 1275 266 1275 -31 
Q 1275 -353 1051 -629 
Q 828 -906 344 -1066 
z
" transform="scale(0.015625)"/>
        <path id="TimesNewRomanPSMT-20" transform="scale(0.015625)"/>
        <path id="TimesNewRomanPSMT-47" d="M 3928 4334 
L 4038 2997 
L 3928 2997 
Q 3763 3497 3500 3750 
Q 3122 4116 2528 4116 
Q 1719 4116 1297 3475 
Q 944 2934 944 2188 
Q 944 1581 1178 1081 
Q 1413 581 1792 348 
Q 2172 116 2572 116 
Q 2806 116 3025 175 
Q 3244 234 3447 350 
L 3447 1575 
Q 3447 1894 3398 1992 
Q 3350 2091 3248 2142 
Q 3147 2194 2891 2194 
L 2891 2313 
L 4531 2313 
L 4531 2194 
L 4453 2194 
Q 4209 2194 4119 2031 
Q 4056 1916 4056 1575 
L 4056 278 
Q 3697 84 3347 -6 
Q 2997 -97 2569 -97 
Q 1341 -97 703 691 
Q 225 1281 225 2053 
Q 225 2613 494 3125 
Q 813 3734 1369 4063 
Q 1834 4334 2469 4334 
Q 2700 4334 2889 4296 
Q 3078 4259 3425 4131 
Q 3600 4066 3659 4066 
Q 3719 4066 3761 4120 
Q 3803 4175 3813 4334 
L 3928 4334 
z
" transform="scale(0.015625)"/>
        <path id="TimesNewRomanPSMT-36" d="M 2869 4325 
L 2869 4209 
Q 2456 4169 2195 4045 
Q 1934 3922 1679 3669 
Q 1425 3416 1258 3105 
Q 1091 2794 978 2366 
Q 1428 2675 1881 2675 
Q 2316 2675 2634 2325 
Q 2953 1975 2953 1425 
Q 2953 894 2631 456 
Q 2244 -75 1606 -75 
Q 1172 -75 869 213 
Q 275 772 275 1663 
Q 275 2231 503 2743 
Q 731 3256 1154 3653 
Q 1578 4050 1965 4187 
Q 2353 4325 2688 4325 
L 2869 4325 
z
M 925 2138 
Q 869 1716 869 1456 
Q 869 1156 980 804 
Q 1091 453 1309 247 
Q 1469 100 1697 100 
Q 1969 100 2183 356 
Q 2397 613 2397 1088 
Q 2397 1622 2184 2012 
Q 1972 2403 1581 2403 
Q 1463 2403 1327 2353 
Q 1191 2303 925 2138 
z
" transform="scale(0.015625)"/>
        <path id="TimesNewRomanPSMT-29" d="M 144 4313 
L 144 4444 
Q 619 4209 934 3891 
Q 1381 3434 1625 2820 
Q 1869 2206 1869 1541 
Q 1869 572 1392 -226 
Q 916 -1025 144 -1369 
L 144 -1253 
Q 528 -1038 776 -670 
Q 1025 -303 1145 264 
Q 1266 831 1266 1447 
Q 1266 2113 1163 2663 
Q 1084 3094 967 3353 
Q 850 3613 656 3853 
Q 463 4094 144 4313 
z
" transform="scale(0.015625)"/>
       </defs>
       <use xlink:href="#TimesNewRomanPSMT-28"/>
       <use xlink:href="#TimesNewRomanPSMT-4c" transform="translate(33.300781 0)"/>
       <use xlink:href="#TimesNewRomanPSMT-3d" transform="translate(94.384766 0)"/>
       <use xlink:href="#TimesNewRomanPSMT-39" transform="translate(150.78125 0)"/>
       <use xlink:href="#TimesNewRomanPSMT-2c" transform="translate(200.78125 0)"/>
       <use xlink:href="#TimesNewRomanPSMT-20" transform="translate(225.78125 0)"/>
       <use xlink:href="#TimesNewRomanPSMT-47" transform="translate(250.78125 0)"/>
       <use xlink:href="#TimesNewRomanPSMT-3d" transform="translate(322.998047 0)"/>
       <use xlink:href="#TimesNewRomanPSMT-36" transform="translate(379.394531 0)"/>
       <use xlink:href="#TimesNewRomanPSMT-29" transform="translate(429.394531 0)"/>
      </g>
     </g>
    </g>
    <g id="xtick_2">
     <g id="line2d_2">
      <g>
       <use xlink:href="#m5ad1e338d5" x="235.663125" y="287.876" style="stroke: #000000; stroke-width: 0.8"/>
      </g>
     </g>
     <g id="text_2">
      <!-- K=30 -->
      <g transform="translate(223.661133 302.166937) scale(0.105 -0.105)">
       <defs>
        <path id="TimesNewRomanPSMT-33" d="M 325 3431 
Q 506 3859 782 4092 
Q 1059 4325 1472 4325 
Q 1981 4325 2253 3994 
Q 2459 3747 2459 3466 
Q 2459 3003 1878 2509 
Q 2269 2356 2469 2072 
Q 2669 1788 2669 1403 
Q 2669 853 2319 450 
Q 1863 -75 997 -75 
Q 569 -75 414 31 
Q 259 138 259 259 
Q 259 350 332 419 
Q 406 488 509 488 
Q 588 488 669 463 
Q 722 447 909 348 
Q 1097 250 1169 231 
Q 1284 197 1416 197 
Q 1734 197 1970 444 
Q 2206 691 2206 1028 
Q 2206 1275 2097 1509 
Q 2016 1684 1919 1775 
Q 1784 1900 1550 2001 
Q 1316 2103 1072 2103 
L 972 2103 
L 972 2197 
Q 1219 2228 1467 2375 
Q 1716 2522 1828 2728 
Q 1941 2934 1941 3181 
Q 1941 3503 1739 3701 
Q 1538 3900 1238 3900 
Q 753 3900 428 3381 
L 325 3431 
z
" transform="scale(0.015625)"/>
       </defs>
       <use xlink:href="#TimesNewRomanPSMT-4b"/>
       <use xlink:href="#TimesNewRomanPSMT-3d" transform="translate(72.216797 0)"/>
       <use xlink:href="#TimesNewRomanPSMT-33" transform="translate(128.613281 0)"/>
       <use xlink:href="#TimesNewRomanPSMT-30" transform="translate(178.613281 0)"/>
      </g>
      <!-- (L=9, G=6) -->
      <g transform="translate(211.372852 313.162078) scale(0.105 -0.105)">
       <use xlink:href="#TimesNewRomanPSMT-28"/>
       <use xlink:href="#TimesNewRomanPSMT-4c" transform="translate(33.300781 0)"/>
       <use xlink:href="#TimesNewRomanPSMT-3d" transform="translate(94.384766 0)"/>
       <use xlink:href="#TimesNewRomanPSMT-39" transform="translate(150.78125 0)"/>
       <use xlink:href="#TimesNewRomanPSMT-2c" transform="translate(200.78125 0)"/>
       <use xlink:href="#TimesNewRomanPSMT-20" transform="translate(225.78125 0)"/>
       <use xlink:href="#TimesNewRomanPSMT-47" transform="translate(250.78125 0)"/>
       <use xlink:href="#TimesNewRomanPSMT-3d" transform="translate(322.998047 0)"/>
       <use xlink:href="#TimesNewRomanPSMT-36" transform="translate(379.394531 0)"/>
       <use xlink:href="#TimesNewRomanPSMT-29" transform="translate(429.394531 0)"/>
      </g>
     </g>
    </g>
    <g id="xtick_3">
     <g id="line2d_3">
      <g>
       <use xlink:href="#m5ad1e338d5" x="367.664673" y="287.876" style="stroke: #000000; stroke-width: 0.8"/>
      </g>
     </g>
     <g id="text_3">
      <!-- K=40 -->
      <g transform="translate(355.66268 302.166937) scale(0.105 -0.105)">
       <defs>
        <path id="TimesNewRomanPSMT-34" d="M 2978 1563 
L 2978 1119 
L 2409 1119 
L 2409 0 
L 1894 0 
L 1894 1119 
L 100 1119 
L 100 1519 
L 2066 4325 
L 2409 4325 
L 2409 1563 
L 2978 1563 
z
M 1894 1563 
L 1894 3666 
L 406 1563 
L 1894 1563 
z
" transform="scale(0.015625)"/>
       </defs>
       <use xlink:href="#TimesNewRomanPSMT-4b"/>
       <use xlink:href="#TimesNewRomanPSMT-3d" transform="translate(72.216797 0)"/>
       <use xlink:href="#TimesNewRomanPSMT-34" transform="translate(128.613281 0)"/>
       <use xlink:href="#TimesNewRomanPSMT-30" transform="translate(178.613281 0)"/>
      </g>
      <!-- (L=9, G=6) -->
      <g transform="translate(343.374399 313.162078) scale(0.105 -0.105)">
       <use xlink:href="#TimesNewRomanPSMT-28"/>
       <use xlink:href="#TimesNewRomanPSMT-4c" transform="translate(33.300781 0)"/>
       <use xlink:href="#TimesNewRomanPSMT-3d" transform="translate(94.384766 0)"/>
       <use xlink:href="#TimesNewRomanPSMT-39" transform="translate(150.78125 0)"/>
       <use xlink:href="#TimesNewRomanPSMT-2c" transform="translate(200.78125 0)"/>
       <use xlink:href="#TimesNewRomanPSMT-20" transform="translate(225.78125 0)"/>
       <use xlink:href="#TimesNewRomanPSMT-47" transform="translate(250.78125 0)"/>
       <use xlink:href="#TimesNewRomanPSMT-3d" transform="translate(322.998047 0)"/>
       <use xlink:href="#TimesNewRomanPSMT-36" transform="translate(379.394531 0)"/>
       <use xlink:href="#TimesNewRomanPSMT-29" transform="translate(429.394531 0)"/>
      </g>
     </g>
    </g>
   </g>
   <g id="matplotlib.axis_2">
    <g id="ytick_1">
     <g id="line2d_4">
      <path d="M 39.495625 287.876 
L 431.830625 287.876 
" clip-path="url(#p7083b7fb5c)" style="fill: none; stroke-dasharray: 2.96,1.28; stroke-dashoffset: 0; stroke: #b0b0b0; stroke-opacity: 0.4; stroke-width: 0.8"/>
     </g>
     <g id="line2d_5">
      <defs>
       <path id="me42087aa23" d="M 0 0 
L -3.5 0 
" style="stroke: #000000; stroke-width: 0.8"/>
      </defs>
      <g>
       <use xlink:href="#me42087aa23" x="39.495625" y="287.876" style="stroke: #000000; stroke-width: 0.8"/>
      </g>
     </g>
     <g id="text_4">
      <!-- 0 -->
      <g transform="translate(27.495625 291.347875) scale(0.1 -0.1)">
       <use xlink:href="#TimesNewRomanPSMT-30"/>
      </g>
     </g>
    </g>
    <g id="ytick_2">
     <g id="line2d_6">
      <path d="M 39.495625 231.303813 
L 431.830625 231.303813 
" clip-path="url(#p7083b7fb5c)" style="fill: none; stroke-dasharray: 2.96,1.28; stroke-dashoffset: 0; stroke: #b0b0b0; stroke-opacity: 0.4; stroke-width: 0.8"/>
     </g>
     <g id="line2d_7">
      <g>
       <use xlink:href="#me42087aa23" x="39.495625" y="231.303813" style="stroke: #000000; stroke-width: 0.8"/>
      </g>
     </g>
     <g id="text_5">
      <!-- 20 -->
      <g transform="translate(22.495625 234.775688) scale(0.1 -0.1)">
       <use xlink:href="#TimesNewRomanPSMT-32"/>
       <use xlink:href="#TimesNewRomanPSMT-30" transform="translate(50 0)"/>
      </g>
     </g>
    </g>
    <g id="ytick_3">
     <g id="line2d_8">
      <path d="M 39.495625 174.731626 
L 431.830625 174.731626 
" clip-path="url(#p7083b7fb5c)" style="fill: none; stroke-dasharray: 2.96,1.28; stroke-dashoffset: 0; stroke: #b0b0b0; stroke-opacity: 0.4; stroke-width: 0.8"/>
     </g>
     <g id="line2d_9">
      <g>
       <use xlink:href="#me42087aa23" x="39.495625" y="174.731626" style="stroke: #000000; stroke-width: 0.8"/>
      </g>
     </g>
     <g id="text_6">
      <!-- 40 -->
      <g transform="translate(22.495625 178.203501) scale(0.1 -0.1)">
       <use xlink:href="#TimesNewRomanPSMT-34"/>
       <use xlink:href="#TimesNewRomanPSMT-30" transform="translate(50 0)"/>
      </g>
     </g>
    </g>
    <g id="ytick_4">
     <g id="line2d_10">
      <path d="M 39.495625 118.159439 
L 431.830625 118.159439 
" clip-path="url(#p7083b7fb5c)" style="fill: none; stroke-dasharray: 2.96,1.28; stroke-dashoffset: 0; stroke: #b0b0b0; stroke-opacity: 0.4; stroke-width: 0.8"/>
     </g>
     <g id="line2d_11">
      <g>
       <use xlink:href="#me42087aa23" x="39.495625" y="118.159439" style="stroke: #000000; stroke-width: 0.8"/>
      </g>
     </g>
     <g id="text_7">
      <!-- 60 -->
      <g transform="translate(22.495625 121.631314) scale(0.1 -0.1)">
       <use xlink:href="#TimesNewRomanPSMT-36"/>
       <use xlink:href="#TimesNewRomanPSMT-30" transform="translate(50 0)"/>
      </g>
     </g>
    </g>
    <g id="ytick_5">
     <g id="line2d_12">
      <path d="M 39.495625 61.587252 
L 431.830625 61.587252 
" clip-path="url(#p7083b7fb5c)" style="fill: none; stroke-dasharray: 2.96,1.28; stroke-dashoffset: 0; stroke: #b0b0b0; stroke-opacity: 0.4; stroke-width: 0.8"/>
     </g>
     <g id="line2d_13">
      <g>
       <use xlink:href="#me42087aa23" x="39.495625" y="61.587252" style="stroke: #000000; stroke-width: 0.8"/>
      </g>
     </g>
     <g id="text_8">
      <!-- 80 -->
      <g transform="translate(22.495625 65.059127) scale(0.1 -0.1)">
       <defs>
        <path id="TimesNewRomanPSMT-38" d="M 1228 2134 
Q 725 2547 579 2797 
Q 434 3047 434 3316 
Q 434 3728 753 4026 
Q 1072 4325 1600 4325 
Q 2113 4325 2425 4047 
Q 2738 3769 2738 3413 
Q 2738 3175 2569 2928 
Q 2400 2681 1866 2347 
Q 2416 1922 2594 1678 
Q 2831 1359 2831 1006 
Q 2831 559 2490 242 
Q 2150 -75 1597 -75 
Q 994 -75 656 303 
Q 388 606 388 966 
Q 388 1247 577 1523 
Q 766 1800 1228 2134 
z
M 1719 2469 
Q 2094 2806 2194 3001 
Q 2294 3197 2294 3444 
Q 2294 3772 2109 3958 
Q 1925 4144 1606 4144 
Q 1288 4144 1088 3959 
Q 888 3775 888 3528 
Q 888 3366 970 3203 
Q 1053 3041 1206 2894 
L 1719 2469 
z
M 1375 2016 
Q 1116 1797 991 1539 
Q 866 1281 866 981 
Q 866 578 1086 336 
Q 1306 94 1647 94 
Q 1984 94 2187 284 
Q 2391 475 2391 747 
Q 2391 972 2272 1150 
Q 2050 1481 1375 2016 
z
" transform="scale(0.015625)"/>
       </defs>
       <use xlink:href="#TimesNewRomanPSMT-38"/>
       <use xlink:href="#TimesNewRomanPSMT-30" transform="translate(50 0)"/>
      </g>
     </g>
    </g>
    <g id="text_9">
     <!-- 最小用户速率 (Mbps) -->
     <g transform="translate(16.142656 198.107062) rotate(-90) scale(0.11 -0.11)">
      <defs>
       <path id="SimSong-Regular-6700" d="M 1312 5107 
C 1325 4954 1338 4794 1338 4640 
L 1338 3475 
C 1338 3354 1325 3238 1312 3130 
C 1312 3059 1363 3027 1440 3027 
C 1491 3027 1555 3034 1632 3059 
C 1677 3072 1709 3098 1709 3130 
L 1709 3315 
L 4614 3315 
L 4614 3155 
C 4614 3085 4653 3053 4710 3053 
C 4774 3053 4845 3059 4934 3085 
C 4979 3104 5011 3130 5011 3168 
C 4986 3334 4979 3469 4979 3571 
L 4979 4576 
C 4979 4614 4992 4653 5043 4691 
C 5094 4730 5133 4762 5133 4800 
C 5133 4826 5075 4883 4973 4973 
C 4864 5062 4794 5107 4762 5107 
C 4730 5107 4691 5088 4653 5050 
C 4602 4998 4557 4954 4506 4915 
L 1728 4915 
C 1594 4992 1459 5056 1312 5107 
L 1312 5107 
z
M 1709 4192 
L 1709 4742 
L 4614 4742 
L 4614 4192 
L 1709 4192 
z
M 1709 3494 
L 1709 4019 
L 4614 4019 
L 4614 3494 
L 1709 3494 
z
M 237 2899 
L 358 2618 
C 493 2650 691 2662 960 2662 
L 960 346 
C 742 326 506 301 262 275 
L 410 -90 
C 454 -205 512 -269 557 -269 
C 570 -269 589 -243 621 -192 
C 621 -154 627 -122 634 -102 
C 634 -64 710 -32 883 -13 
C 1523 109 2131 250 2688 403 
L 2688 51 
C 2688 -173 2675 -346 2662 -474 
C 2662 -538 2714 -570 2790 -570 
C 2842 -570 2912 -557 3008 -531 
C 3040 -506 3072 -480 3072 -448 
C 3059 -256 3059 -90 3059 51 
L 3059 512 
C 3232 563 3405 621 3578 678 
L 3552 730 
C 3386 691 3219 666 3059 640 
L 3059 2669 
L 6042 2669 
C 6093 2669 6131 2694 6131 2752 
C 6131 2778 6067 2848 5958 2970 
C 5843 3091 5766 3155 5715 3155 
C 5690 3155 5638 3110 5562 3021 
C 5478 2925 5421 2867 5395 2842 
L 1037 2842 
C 691 2842 429 2861 237 2899 
L 237 2899 
z
M 1331 2042 
L 1331 2669 
L 2688 2669 
L 2688 2042 
L 1331 2042 
z
M 3162 2150 
L 3283 1869 
C 3379 1888 3488 1894 3603 1901 
C 3680 1523 3802 1197 3949 922 
C 4038 768 4141 614 4269 461 
C 4198 371 4122 294 4045 218 
C 3802 -13 3482 -256 3091 -499 
L 3142 -576 
C 3661 -352 4096 -77 4448 250 
L 4461 243 
C 4666 32 4922 -160 5229 -339 
C 5472 -474 5638 -544 5722 -544 
C 5728 -544 5747 -506 5786 -435 
L 5792 -435 
C 5830 -346 5907 -288 6035 -250 
L 6054 -205 
C 5600 -45 5229 122 4941 301 
C 4851 352 4768 410 4678 480 
C 4973 813 5229 1248 5427 1792 
C 5440 1824 5472 1856 5536 1882 
C 5594 1901 5632 1926 5632 1965 
C 5632 2003 5562 2074 5434 2176 
C 5318 2259 5248 2304 5222 2304 
C 5190 2304 5146 2278 5094 2227 
L 4960 2093 
L 3962 2093 
C 3731 2093 3469 2112 3162 2150 
L 3162 2150 
z
M 3725 1914 
L 5030 1914 
C 4954 1581 4832 1274 4653 992 
C 4589 883 4518 781 4442 685 
C 4358 755 4275 851 4192 954 
C 4000 1197 3846 1517 3731 1914 
L 3725 1914 
z
M 1331 1267 
L 1331 1869 
L 2688 1869 
L 2688 1267 
L 1331 1267 
z
M 1331 390 
L 1331 1094 
L 2688 1094 
L 2688 576 
C 2253 506 1792 442 1331 390 
L 1331 390 
z
" transform="scale(0.015625)"/>
       <path id="SimSong-Regular-5c0f" d="M 2950 5178 
C 2963 5018 2976 4832 2976 4627 
L 2976 83 
C 2976 19 2970 -13 2950 -32 
C 2912 -58 2861 -70 2797 -70 
C 2618 -70 2323 -32 1901 32 
L 1862 -77 
C 2362 -186 2605 -301 2630 -422 
C 2630 -550 2701 -621 2803 -621 
C 2874 -621 2989 -582 3142 -512 
C 3283 -448 3366 -307 3366 -83 
L 3366 4806 
C 3366 4864 3392 4902 3469 4928 
C 3565 4954 3622 4992 3622 5056 
C 3622 5082 3546 5107 3418 5126 
L 2950 5178 
L 2950 5178 
z
M 1574 3776 
C 1395 3059 1197 2464 966 1997 
C 685 1408 435 947 192 627 
L 275 518 
C 717 973 1069 1434 1338 1907 
C 1574 2278 1798 2771 2003 3392 
C 2010 3405 2054 3424 2131 3443 
C 2221 3450 2278 3475 2278 3514 
C 2278 3552 2189 3597 2029 3648 
C 1901 3680 1754 3725 1574 3776 
L 1574 3776 
z
M 4256 3776 
L 4192 3738 
C 4845 2893 5261 2016 5459 1094 
C 5491 902 5587 806 5728 806 
C 5779 806 5824 826 5862 877 
C 5901 928 5933 998 5933 1075 
C 5933 1408 5805 1798 5568 2234 
C 5318 2682 4883 3200 4262 3776 
L 4256 3776 
z
" transform="scale(0.015625)"/>
       <path id="SimSong-Regular-7528" d="M 941 4979 
C 966 4480 986 3654 986 2502 
C 986 1632 928 986 813 550 
C 723 192 550 -179 294 -582 
L 384 -653 
C 627 -397 826 -154 973 90 
C 1139 403 1261 742 1325 1101 
C 1344 1242 1363 1402 1376 1568 
L 2976 1568 
L 2976 128 
C 2976 -115 2963 -301 2950 -435 
C 2950 -506 3002 -544 3078 -544 
C 3142 -544 3219 -531 3315 -506 
C 3354 -480 3386 -454 3386 -416 
C 3373 -205 3366 -26 3366 128 
L 3366 1568 
L 4979 1568 
L 4979 64 
C 4979 -26 4928 -70 4800 -70 
C 4589 -70 4314 -32 3962 32 
L 3930 -77 
C 4390 -179 4614 -294 4640 -422 
C 4640 -538 4704 -595 4800 -595 
C 4890 -595 5005 -563 5139 -499 
C 5306 -422 5402 -314 5402 -166 
L 5402 4429 
C 5402 4467 5427 4506 5504 4544 
L 5504 4544 
C 5568 4570 5606 4614 5606 4672 
C 5606 4710 5536 4781 5414 4896 
C 5286 4986 5210 5030 5184 5030 
C 5146 5030 5088 4992 5018 4915 
L 4883 4768 
L 1402 4768 
C 1286 4832 1139 4902 941 4979 
L 941 4979 
z
M 1408 3238 
L 1408 4589 
L 2976 4589 
L 2976 3238 
L 1408 3238 
z
M 3360 4589 
L 4979 4589 
L 4979 3238 
L 3366 3238 
L 3366 4589 
L 3360 4589 
z
M 1389 1741 
C 1402 1971 1408 2221 1408 2502 
L 1408 3066 
L 2976 3066 
L 2976 1741 
L 1389 1741 
z
M 3360 3066 
L 4979 3066 
L 4979 1741 
L 3366 1741 
L 3366 3066 
L 3360 3066 
z
" transform="scale(0.015625)"/>
       <path id="SimSong-Regular-6237" d="M 2810 5203 
L 2746 5133 
C 2957 4954 3110 4736 3219 4474 
C 3270 4294 3373 4205 3501 4205 
C 3558 4205 3610 4237 3654 4307 
C 3699 4384 3731 4461 3731 4538 
C 3731 4640 3648 4742 3507 4851 
C 3373 4966 3142 5082 2810 5203 
L 2810 5203 
z
M 5114 4326 
C 5082 4326 5037 4301 4992 4262 
L 4845 4115 
L 1805 4115 
C 1690 4179 1549 4250 1357 4326 
C 1382 3949 1402 3322 1402 2451 
C 1402 1606 1325 979 1178 563 
C 1062 211 851 -154 518 -538 
L 602 -602 
C 883 -352 1114 -115 1286 115 
C 1478 416 1626 742 1702 1101 
C 1754 1459 1786 1882 1792 2368 
L 4902 2368 
L 4902 2035 
C 4902 1958 4941 1926 5005 1926 
C 5069 1926 5146 1933 5235 1958 
C 5286 1978 5325 2010 5325 2048 
C 5299 2227 5293 2368 5293 2477 
L 5293 3770 
C 5293 3808 5318 3846 5389 3885 
C 5459 3923 5504 3968 5504 4006 
C 5504 4038 5440 4102 5338 4192 
C 5222 4282 5152 4326 5114 4326 
z
M 1786 3942 
L 4902 3942 
L 4902 2541 
L 1792 2541 
L 1792 3942 
L 1786 3942 
z
" transform="scale(0.015625)"/>
       <path id="SimSong-Regular-901f" d="M 1862 4422 
L 1984 4141 
C 2125 4173 2349 4192 2662 4192 
L 3661 4192 
L 3661 3469 
L 2618 3469 
C 2502 3533 2387 3584 2259 3629 
C 2272 3475 2285 3322 2285 3168 
L 2285 2195 
C 2285 2080 2272 1965 2259 1856 
C 2259 1786 2310 1754 2387 1754 
C 2438 1754 2502 1760 2579 1786 
C 2624 1798 2656 1824 2656 1856 
L 2656 2093 
L 3539 2093 
C 3066 1466 2451 966 1696 582 
L 1741 499 
C 2458 762 3098 1165 3661 1683 
L 3661 442 
C 3661 390 3648 320 3635 230 
C 3642 179 3693 154 3763 154 
C 3821 154 3891 160 3974 186 
C 4019 198 4051 224 4051 256 
C 4038 384 4032 474 4032 518 
L 4032 1594 
C 4429 1402 4806 1120 5152 762 
C 5248 621 5350 557 5453 557 
C 5491 557 5536 582 5581 634 
C 5606 672 5632 730 5632 794 
C 5619 922 5504 1050 5299 1178 
C 4947 1382 4525 1562 4032 1709 
L 4032 2061 
L 4058 2093 
L 5037 2093 
L 5037 1926 
C 5037 1862 5075 1830 5139 1830 
C 5197 1830 5267 1837 5357 1862 
C 5408 1882 5440 1907 5440 1939 
C 5414 2106 5408 2246 5408 2349 
L 5408 3130 
C 5408 3168 5427 3206 5478 3238 
C 5542 3277 5581 3309 5581 3347 
C 5581 3379 5523 3437 5427 3520 
C 5312 3610 5242 3654 5210 3654 
C 5184 3654 5139 3635 5101 3597 
C 5050 3546 5005 3507 4954 3469 
L 4032 3469 
L 4032 4192 
L 5862 4192 
C 5920 4192 5958 4218 5958 4282 
C 5958 4301 5888 4378 5773 4512 
C 5658 4634 5568 4698 5510 4698 
C 5485 4698 5434 4646 5357 4557 
L 5184 4365 
L 4032 4365 
L 4032 4832 
C 4032 4877 4051 4909 4115 4934 
C 4198 4960 4250 4998 4250 5056 
C 4250 5088 4173 5107 4038 5120 
C 3885 5146 3757 5165 3635 5178 
C 3648 5107 3661 5024 3661 4934 
L 3661 4365 
L 2662 4365 
C 2317 4365 2054 4384 1862 4422 
L 1862 4422 
z
M 730 5030 
L 666 4966 
C 909 4736 1082 4454 1197 4115 
C 1242 3955 1338 3878 1453 3878 
C 1498 3878 1542 3910 1587 3974 
C 1626 4038 1658 4102 1658 4173 
C 1658 4301 1574 4435 1434 4576 
C 1293 4723 1056 4877 730 5030 
L 730 5030 
z
M 2656 2266 
L 2656 3290 
L 3661 3290 
L 3661 2266 
L 2656 2266 
z
M 4026 3290 
L 5037 3290 
L 5037 2266 
L 4032 2266 
L 4032 3290 
L 4026 3290 
z
M 211 2701 
L 333 2419 
C 512 2451 768 2464 1101 2464 
L 1101 461 
C 922 320 659 160 320 -13 
C 410 -192 493 -352 576 -486 
C 608 -538 640 -570 666 -570 
C 723 -570 762 -493 762 -346 
C 973 -109 1165 134 1318 403 
C 1338 442 1350 467 1357 467 
C 1606 19 2010 -237 2547 -314 
C 2976 -358 3443 -384 3949 -397 
L 5837 -397 
C 5888 -397 5926 -358 5939 -282 
C 5984 -115 6048 -26 6157 0 
L 6138 70 
C 5427 26 4794 6 4230 6 
C 3245 6 2598 26 2291 77 
C 1952 141 1683 301 1491 563 
L 1491 2349 
C 1491 2374 1517 2413 1581 2464 
C 1645 2515 1683 2554 1683 2592 
C 1683 2630 1619 2694 1504 2790 
C 1395 2880 1312 2931 1261 2931 
C 1222 2931 1165 2886 1088 2810 
C 1037 2758 992 2701 941 2643 
C 678 2643 442 2662 211 2701 
L 211 2701 
z
" transform="scale(0.015625)"/>
       <path id="SimSong-Regular-7387" d="M 461 4499 
L 582 4218 
C 723 4250 947 4269 1261 4269 
L 2938 4269 
C 2784 3891 2643 3590 2502 3360 
C 2445 3270 2381 3213 2317 3174 
C 2266 3149 2240 3123 2240 3098 
C 2240 3053 2291 2963 2381 2835 
C 2406 2797 2445 2778 2483 2778 
C 2509 2778 2534 2790 2566 2822 
C 2662 2874 2746 2906 2816 2931 
L 3264 3123 
C 3066 2848 2867 2611 2669 2406 
C 2541 2266 2406 2176 2234 2118 
C 2195 2099 2163 2067 2163 2035 
C 2163 1984 2214 1875 2304 1722 
C 2330 1670 2368 1651 2406 1651 
C 2432 1651 2458 1670 2496 1709 
C 2586 1766 2669 1811 2746 1837 
L 3834 2163 
C 3872 2054 3904 1939 3930 1811 
C 3968 1670 4051 1606 4147 1606 
C 4186 1606 4230 1632 4269 1683 
C 4307 1741 4333 1798 4333 1862 
C 4333 1997 4269 2138 4160 2285 
C 4058 2432 3891 2586 3648 2752 
L 3590 2701 
C 3667 2586 3725 2451 3782 2304 
L 2586 2138 
C 2989 2470 3456 2886 3994 3386 
C 4026 3418 4070 3437 4134 3450 
C 4224 3462 4282 3482 4282 3520 
C 4275 3546 4237 3578 4179 3616 
L 3757 3853 
C 3642 3674 3533 3501 3418 3334 
L 2662 3181 
C 2810 3354 2989 3571 3194 3834 
C 3226 3866 3270 3885 3334 3898 
C 3424 3910 3482 3936 3482 3974 
C 3475 4000 3437 4032 3379 4064 
L 3021 4269 
L 5805 4269 
C 5869 4269 5907 4294 5907 4352 
C 5907 4378 5837 4467 5709 4608 
C 5574 4749 5478 4819 5421 4819 
C 5395 4819 5331 4762 5242 4653 
C 5146 4544 5082 4474 5050 4442 
L 3206 4442 
C 3219 4448 3232 4461 3245 4486 
C 3283 4538 3309 4595 3309 4659 
C 3309 4742 3245 4826 3130 4915 
C 3027 5005 2854 5101 2598 5203 
L 2541 5146 
C 2707 5005 2829 4826 2906 4608 
C 2931 4531 2970 4474 3014 4442 
L 1261 4442 
C 915 4442 653 4461 461 4499 
L 461 4499 
z
M 5485 3622 
L 5613 3597 
C 5651 3597 5677 3616 5683 3654 
C 5683 3686 5619 3738 5510 3802 
L 5133 4006 
C 4902 3635 4614 3328 4269 3072 
L 4326 2995 
C 4819 3200 5203 3405 5485 3616 
L 5485 3622 
z
M 877 3904 
L 819 3846 
C 1075 3667 1293 3398 1485 3034 
C 1536 2931 1606 2880 1683 2880 
C 1734 2880 1773 2906 1811 2970 
C 1850 3014 1882 3072 1882 3142 
C 1882 3258 1824 3366 1728 3462 
C 1645 3526 1574 3578 1517 3616 
C 1325 3731 1114 3827 877 3904 
L 877 3904 
z
M 4301 2803 
L 4243 2714 
C 4589 2509 4902 2195 5171 1792 
C 5242 1645 5325 1581 5402 1581 
C 5459 1581 5517 1613 5568 1683 
C 5606 1741 5632 1811 5632 1894 
C 5619 2016 5530 2138 5376 2259 
C 5082 2477 4730 2656 4301 2803 
L 4301 2803 
z
M 2125 2726 
C 1651 2406 1139 2138 570 1920 
C 634 1824 698 1734 749 1651 
C 819 1536 883 1478 922 1478 
C 941 1478 960 1504 960 1568 
L 960 1651 
C 960 1677 1018 1728 1152 1805 
C 1478 1997 1818 2285 2176 2669 
L 2131 2726 
L 2125 2726 
z
M 314 1075 
L 429 794 
C 576 826 800 838 1114 838 
L 2976 838 
L 2976 -262 
C 2976 -314 2963 -390 2950 -499 
C 2957 -544 3008 -570 3078 -570 
C 3142 -570 3219 -557 3322 -538 
C 3360 -512 3392 -486 3392 -461 
C 3373 -320 3366 -224 3366 -186 
L 3366 838 
L 5978 838 
C 6042 838 6080 864 6080 928 
C 6080 954 6003 1043 5875 1190 
C 5741 1331 5638 1408 5574 1408 
C 5549 1408 5478 1350 5389 1242 
L 5190 1018 
L 3366 1018 
L 3366 1331 
C 3366 1382 3392 1421 3456 1446 
C 3546 1472 3603 1510 3603 1574 
C 3603 1606 3520 1626 3373 1638 
L 2950 1702 
C 2963 1632 2976 1549 2976 1446 
L 2976 1018 
L 1114 1018 
C 768 1018 506 1037 314 1075 
L 314 1075 
z
" transform="scale(0.015625)"/>
       <path id="TimesNewRomanPSMT-4d" d="M 2619 0 
L 981 3566 
L 981 734 
Q 981 344 1066 247 
Q 1181 116 1431 116 
L 1581 116 
L 1581 0 
L 106 0 
L 106 116 
L 256 116 
Q 525 116 638 278 
Q 706 378 706 734 
L 706 3503 
Q 706 3784 644 3909 
Q 600 4000 483 4061 
Q 366 4122 106 4122 
L 106 4238 
L 1306 4238 
L 2844 922 
L 4356 4238 
L 5556 4238 
L 5556 4122 
L 5409 4122 
Q 5138 4122 5025 3959 
Q 4956 3859 4956 3503 
L 4956 734 
Q 4956 344 5044 247 
Q 5159 116 5409 116 
L 5556 116 
L 5556 0 
L 3756 0 
L 3756 116 
L 3906 116 
Q 4178 116 4288 278 
Q 4356 378 4356 734 
L 4356 3566 
L 2722 0 
L 2619 0 
z
" transform="scale(0.015625)"/>
       <path id="TimesNewRomanPSMT-62" d="M 984 2369 
Q 1400 2947 1881 2947 
Q 2322 2947 2650 2570 
Q 2978 2194 2978 1541 
Q 2978 778 2472 313 
Q 2038 -88 1503 -88 
Q 1253 -88 995 3 
Q 738 94 469 275 
L 469 3241 
Q 469 3728 445 3840 
Q 422 3953 372 3993 
Q 322 4034 247 4034 
Q 159 4034 28 3984 
L -16 4094 
L 844 4444 
L 984 4444 
L 984 2369 
z
M 984 2169 
L 984 456 
Q 1144 300 1314 220 
Q 1484 141 1663 141 
Q 1947 141 2192 453 
Q 2438 766 2438 1363 
Q 2438 1913 2192 2208 
Q 1947 2503 1634 2503 
Q 1469 2503 1303 2419 
Q 1178 2356 984 2169 
z
" transform="scale(0.015625)"/>
       <path id="TimesNewRomanPSMT-70" d="M -6 2578 
L 875 2934 
L 994 2934 
L 994 2266 
Q 1216 2644 1439 2795 
Q 1663 2947 1909 2947 
Q 2341 2947 2628 2609 
Q 2981 2197 2981 1534 
Q 2981 794 2556 309 
Q 2206 -88 1675 -88 
Q 1444 -88 1275 -22 
Q 1150 25 994 166 
L 994 -706 
Q 994 -1000 1030 -1079 
Q 1066 -1159 1155 -1206 
Q 1244 -1253 1478 -1253 
L 1478 -1369 
L -22 -1369 
L -22 -1253 
L 56 -1253 
Q 228 -1256 350 -1188 
Q 409 -1153 442 -1076 
Q 475 -1000 475 -688 
L 475 2019 
Q 475 2297 450 2372 
Q 425 2447 370 2484 
Q 316 2522 222 2522 
Q 147 2522 31 2478 
L -6 2578 
z
M 994 2081 
L 994 1013 
Q 994 666 1022 556 
Q 1066 375 1236 237 
Q 1406 100 1666 100 
Q 1978 100 2172 344 
Q 2425 663 2425 1241 
Q 2425 1897 2138 2250 
Q 1938 2494 1663 2494 
Q 1513 2494 1366 2419 
Q 1253 2363 994 2081 
z
" transform="scale(0.015625)"/>
       <path id="TimesNewRomanPSMT-73" d="M 2050 2947 
L 2050 1972 
L 1947 1972 
Q 1828 2431 1642 2597 
Q 1456 2763 1169 2763 
Q 950 2763 815 2647 
Q 681 2531 681 2391 
Q 681 2216 781 2091 
Q 878 1963 1175 1819 
L 1631 1597 
Q 2266 1288 2266 781 
Q 2266 391 1970 151 
Q 1675 -88 1309 -88 
Q 1047 -88 709 6 
Q 606 38 541 38 
Q 469 38 428 -44 
L 325 -44 
L 325 978 
L 428 978 
Q 516 541 762 319 
Q 1009 97 1316 97 
Q 1531 97 1667 223 
Q 1803 350 1803 528 
Q 1803 744 1651 891 
Q 1500 1038 1047 1263 
Q 594 1488 453 1669 
Q 313 1847 313 2119 
Q 313 2472 555 2709 
Q 797 2947 1181 2947 
Q 1350 2947 1591 2875 
Q 1750 2828 1803 2828 
Q 1853 2828 1881 2850 
Q 1909 2872 1947 2947 
L 2050 2947 
z
" transform="scale(0.015625)"/>
      </defs>
      <use xlink:href="#SimSong-Regular-6700"/>
      <use xlink:href="#SimSong-Regular-5c0f" transform="translate(99.999985 0)"/>
      <use xlink:href="#SimSong-Regular-7528" transform="translate(199.999969 0)"/>
      <use xlink:href="#SimSong-Regular-6237" transform="translate(299.999954 0)"/>
      <use xlink:href="#SimSong-Regular-901f" transform="translate(399.999939 0)"/>
      <use xlink:href="#SimSong-Regular-7387" transform="translate(499.999924 0)"/>
      <use xlink:href="#TimesNewRomanPSMT-20" transform="translate(599.999908 0)"/>
      <use xlink:href="#TimesNewRomanPSMT-28" transform="translate(624.999908 0)"/>
      <use xlink:href="#TimesNewRomanPSMT-4d" transform="translate(658.30069 0)"/>
      <use xlink:href="#TimesNewRomanPSMT-62" transform="translate(747.216705 0)"/>
      <use xlink:href="#TimesNewRomanPSMT-70" transform="translate(797.216705 0)"/>
      <use xlink:href="#TimesNewRomanPSMT-73" transform="translate(847.216705 0)"/>
      <use xlink:href="#TimesNewRomanPSMT-29" transform="translate(886.132721 0)"/>
     </g>
    </g>
   </g>
   <g id="patch_3">
    <path d="M 39.495625 287.876 
L 39.495625 7.2 
" style="fill: none; stroke: #000000; stroke-width: 0.8; stroke-linejoin: miter; stroke-linecap: square"/>
   </g>
   <g id="patch_4">
    <path d="M 39.495625 287.876 
L 431.830625 287.876 
" style="fill: none; stroke: #000000; stroke-width: 0.8; stroke-linejoin: miter; stroke-linecap: square"/>
   </g>
   <g id="patch_5">
    <path d="M 57.329034 287.876 
L 78.713285 287.876 
L 78.713285 41.777586 
L 57.329034 41.777586 
z
" clip-path="url(#p7083b7fb5c)" style="fill: #ee6f63; stroke: #ffffff; stroke-width: 0.6; stroke-linejoin: miter"/>
   </g>
   <g id="patch_6">
    <path d="M 189.330582 287.876 
L 210.714832 287.876 
L 210.714832 86.966266 
L 189.330582 86.966266 
z
" clip-path="url(#p7083b7fb5c)" style="fill: #ee6f63; stroke: #ffffff; stroke-width: 0.6; stroke-linejoin: miter"/>
   </g>
   <g id="patch_7">
    <path d="M 321.332129 287.876 
L 342.71638 287.876 
L 342.71638 125.339039 
L 321.332129 125.339039 
z
" clip-path="url(#p7083b7fb5c)" style="fill: #ee6f63; stroke: #ffffff; stroke-width: 0.6; stroke-linejoin: miter"/>
   </g>
   <g id="text_10">
    <!-- 87.0 -->
    <g style="fill: #222222" transform="translate(62.071159 15.911682) scale(0.068 -0.068)">
     <defs>
      <path id="TimesNewRomanPS-BoldMT-38" d="M 2181 2394 
Q 2628 2066 2801 1783 
Q 2975 1500 2975 1134 
Q 2975 622 2589 267 
Q 2203 -88 1541 -88 
Q 913 -88 569 221 
Q 225 531 225 978 
Q 225 1319 423 1575 
Q 622 1831 1084 2044 
Q 581 2428 439 2672 
Q 297 2916 297 3238 
Q 297 3663 658 3986 
Q 1019 4309 1647 4309 
Q 2253 4309 2579 4023 
Q 2906 3738 2906 3338 
Q 2906 3038 2729 2808 
Q 2553 2578 2181 2394 
z
M 1944 2553 
Q 2059 2709 2115 2903 
Q 2172 3097 2172 3328 
Q 2172 3734 1997 3950 
Q 1866 4116 1634 4116 
Q 1425 4116 1278 3964 
Q 1131 3813 1131 3588 
Q 1131 3359 1295 3114 
Q 1459 2869 1944 2553 
z
M 1319 1894 
Q 1222 1806 1181 1734 
Q 1119 1625 1069 1415 
Q 1019 1206 1019 978 
Q 1019 684 1094 486 
Q 1169 288 1308 200 
Q 1447 113 1594 113 
Q 1822 113 1978 280 
Q 2134 447 2134 738 
Q 2134 1344 1319 1894 
z
" transform="scale(0.015625)"/>
      <path id="TimesNewRomanPS-BoldMT-37" d="M 1134 -88 
L 2288 3409 
L 1409 3409 
Q 894 3409 634 3275 
Q 453 3181 334 2922 
L 216 2922 
L 522 4238 
L 3047 4238 
L 1625 -88 
L 1134 -88 
z
" transform="scale(0.015625)"/>
      <path id="TimesNewRomanPS-BoldMT-2e" d="M 800 963 
Q 1019 963 1170 809 
Q 1322 656 1322 441 
Q 1322 225 1169 73 
Q 1016 -78 800 -78 
Q 584 -78 432 73 
Q 281 225 281 441 
Q 281 656 432 809 
Q 584 963 800 963 
z
" transform="scale(0.015625)"/>
      <path id="TimesNewRomanPS-BoldMT-30" d="M 2966 2119 
Q 2966 1484 2788 934 
Q 2681 597 2501 381 
Q 2322 166 2094 39 
Q 1866 -88 1597 -88 
Q 1291 -88 1044 68 
Q 797 225 606 516 
Q 469 728 366 1081 
Q 231 1559 231 2069 
Q 231 2759 425 3338 
Q 584 3816 909 4070 
Q 1234 4325 1597 4325 
Q 1966 4325 2286 4073 
Q 2606 3822 2756 3397 
Q 2966 2813 2966 2119 
z
M 2003 2125 
Q 2003 3238 1991 3422 
Q 1959 3856 1841 4009 
Q 1763 4109 1588 4109 
Q 1453 4109 1375 4034 
Q 1259 3925 1218 3648 
Q 1178 3372 1178 1719 
Q 1178 819 1241 513 
Q 1288 291 1375 216 
Q 1463 141 1606 141 
Q 1763 141 1841 241 
Q 1972 416 1991 781 
L 2003 2125 
z
" transform="scale(0.015625)"/>
     </defs>
     <use xlink:href="#TimesNewRomanPS-BoldMT-38"/>
     <use xlink:href="#TimesNewRomanPS-BoldMT-37" transform="translate(50 0)"/>
     <use xlink:href="#TimesNewRomanPS-BoldMT-2e" transform="translate(100 0)"/>
     <use xlink:href="#TimesNewRomanPS-BoldMT-30" transform="translate(125 0)"/>
    </g>
   </g>
   <g id="text_11">
    <!-- 71.0 -->
    <g style="fill: #222222" transform="translate(194.072707 64.615059) scale(0.068 -0.068)">
     <defs>
      <path id="TimesNewRomanPS-BoldMT-31" d="M 2084 4325 
L 2084 859 
Q 2084 469 2118 361 
Q 2153 253 2262 184 
Q 2372 116 2613 116 
L 2709 116 
L 2709 0 
L 478 0 
L 478 116 
L 591 116 
Q 863 116 978 178 
Q 1094 241 1134 350 
Q 1175 459 1175 859 
L 1175 3056 
Q 1175 3350 1147 3423 
Q 1119 3497 1042 3548 
Q 966 3600 866 3600 
Q 706 3600 478 3500 
L 422 3613 
L 1981 4325 
L 2084 4325 
z
" transform="scale(0.015625)"/>
     </defs>
     <use xlink:href="#TimesNewRomanPS-BoldMT-37"/>
     <use xlink:href="#TimesNewRomanPS-BoldMT-31" transform="translate(50 0)"/>
     <use xlink:href="#TimesNewRomanPS-BoldMT-2e" transform="translate(100 0)"/>
     <use xlink:href="#TimesNewRomanPS-BoldMT-30" transform="translate(125 0)"/>
    </g>
   </g>
   <g id="text_12">
    <!-- 57.5 -->
    <g style="fill: #222222" transform="translate(326.074255 104.025995) scale(0.068 -0.068)">
     <defs>
      <path id="TimesNewRomanPS-BoldMT-35" d="M 975 4238 
L 2959 4238 
L 2644 3431 
L 975 3431 
L 816 3009 
Q 1894 2969 2475 2472 
Q 2953 2063 2953 1453 
Q 2953 1063 2731 689 
Q 2509 316 2106 114 
Q 1703 -88 1222 -88 
Q 703 -88 425 106 
Q 231 244 231 419 
Q 231 553 332 656 
Q 434 759 569 759 
Q 691 759 816 709 
Q 941 659 1244 447 
Q 1434 316 1572 266 
Q 1669 228 1791 228 
Q 2047 228 2226 415 
Q 2406 603 2406 866 
Q 2406 1416 1856 1759 
Q 1306 2103 469 2103 
Q 384 2103 216 2100 
L 975 4238 
z
" transform="scale(0.015625)"/>
     </defs>
     <use xlink:href="#TimesNewRomanPS-BoldMT-35"/>
     <use xlink:href="#TimesNewRomanPS-BoldMT-37" transform="translate(50 0)"/>
     <use xlink:href="#TimesNewRomanPS-BoldMT-2e" transform="translate(100 0)"/>
     <use xlink:href="#TimesNewRomanPS-BoldMT-35" transform="translate(125 0)"/>
    </g>
   </g>
   <g id="patch_8">
    <path d="M 81.089313 287.876 
L 102.473563 287.876 
L 102.473563 87.518188 
L 81.089313 87.518188 
z
" clip-path="url(#p7083b7fb5c)" style="fill: #5fa8e8; stroke: #ffffff; stroke-width: 0.6; stroke-linejoin: miter"/>
   </g>
   <g id="patch_9">
    <path d="M 213.09086 287.876 
L 234.475111 287.876 
L 234.475111 113.825628 
L 213.09086 113.825628 
z
" clip-path="url(#p7083b7fb5c)" style="fill: #5fa8e8; stroke: #ffffff; stroke-width: 0.6; stroke-linejoin: miter"/>
   </g>
   <g id="patch_10">
    <path d="M 345.092408 287.876 
L 366.476659 287.876 
L 366.476659 143.95309 
L 345.092408 143.95309 
z
" clip-path="url(#p7083b7fb5c)" style="fill: #5fa8e8; stroke: #ffffff; stroke-width: 0.6; stroke-linejoin: miter"/>
   </g>
   <g id="text_13">
    <!-- 70.8 -->
    <g style="fill: #222222" transform="translate(85.831438 66.024582) scale(0.068 -0.068)">
     <use xlink:href="#TimesNewRomanPS-BoldMT-37"/>
     <use xlink:href="#TimesNewRomanPS-BoldMT-30" transform="translate(50 0)"/>
     <use xlink:href="#TimesNewRomanPS-BoldMT-2e" transform="translate(100 0)"/>
     <use xlink:href="#TimesNewRomanPS-BoldMT-38" transform="translate(125 0)"/>
    </g>
   </g>
   <g id="text_14">
    <!-- 61.5 -->
    <g style="fill: #222222" transform="translate(217.832986 91.808948) scale(0.068 -0.068)">
     <defs>
      <path id="TimesNewRomanPS-BoldMT-36" d="M 3006 4325 
L 3006 4238 
Q 2441 4094 2098 3867 
Q 1756 3641 1557 3317 
Q 1359 2994 1250 2516 
Q 1388 2609 1478 2638 
Q 1681 2700 1888 2700 
Q 2363 2700 2680 2354 
Q 2997 2009 2997 1413 
Q 2997 994 2825 644 
Q 2653 294 2337 103 
Q 2022 -88 1663 -88 
Q 1272 -88 940 126 
Q 609 341 423 753 
Q 238 1166 238 1650 
Q 238 2363 580 2977 
Q 922 3591 1551 3955 
Q 2181 4319 3006 4325 
z
M 1209 2263 
Q 1184 1831 1184 1631 
Q 1184 1200 1267 797 
Q 1350 394 1494 231 
Q 1597 116 1738 116 
Q 1881 116 1993 283 
Q 2106 450 2106 963 
Q 2106 1825 1897 2153 
Q 1763 2366 1534 2366 
Q 1409 2366 1209 2263 
z
" transform="scale(0.015625)"/>
     </defs>
     <use xlink:href="#TimesNewRomanPS-BoldMT-36"/>
     <use xlink:href="#TimesNewRomanPS-BoldMT-31" transform="translate(50 0)"/>
     <use xlink:href="#TimesNewRomanPS-BoldMT-2e" transform="translate(100 0)"/>
     <use xlink:href="#TimesNewRomanPS-BoldMT-35" transform="translate(125 0)"/>
    </g>
   </g>
   <g id="text_15">
    <!-- 50.9 -->
    <g style="fill: #222222" transform="translate(349.834533 124.263544) scale(0.068 -0.068)">
     <defs>
      <path id="TimesNewRomanPS-BoldMT-39" d="M 197 -88 
L 197 0 
Q 716 119 1077 350 
Q 1438 581 1648 922 
Q 1859 1263 1944 1706 
Q 1750 1606 1614 1567 
Q 1478 1528 1328 1528 
Q 847 1528 526 1875 
Q 206 2222 206 2825 
Q 206 3244 379 3592 
Q 553 3941 875 4133 
Q 1197 4325 1544 4325 
Q 1916 4325 2247 4112 
Q 2578 3900 2775 3497 
Q 2972 3094 2972 2578 
Q 2972 1909 2651 1296 
Q 2331 684 1697 314 
Q 1063 -56 197 -88 
z
M 1991 1969 
Q 2022 2319 2022 2584 
Q 2022 3153 1891 3644 
Q 1816 3916 1669 4044 
Q 1591 4113 1466 4113 
Q 1309 4113 1222 3978 
Q 1100 3794 1100 3275 
Q 1100 2409 1306 2081 
Q 1441 1869 1669 1869 
Q 1791 1869 1991 1969 
z
" transform="scale(0.015625)"/>
     </defs>
     <use xlink:href="#TimesNewRomanPS-BoldMT-35"/>
     <use xlink:href="#TimesNewRomanPS-BoldMT-30" transform="translate(50 0)"/>
     <use xlink:href="#TimesNewRomanPS-BoldMT-2e" transform="translate(100 0)"/>
     <use xlink:href="#TimesNewRomanPS-BoldMT-39" transform="translate(125 0)"/>
    </g>
   </g>
   <g id="patch_11">
    <path d="M 104.849591 287.876 
L 126.233842 287.876 
L 126.233842 99.684585 
L 104.849591 99.684585 
z
" clip-path="url(#p7083b7fb5c)" style="fill: #63cfa0; stroke: #ffffff; stroke-width: 0.6; stroke-linejoin: miter"/>
   </g>
   <g id="patch_12">
    <path d="M 236.851139 287.876 
L 258.23539 287.876 
L 258.23539 123.577394 
L 236.851139 123.577394 
z
" clip-path="url(#p7083b7fb5c)" style="fill: #63cfa0; stroke: #ffffff; stroke-width: 0.6; stroke-linejoin: miter"/>
   </g>
   <g id="patch_13">
    <path d="M 368.852687 287.876 
L 390.236937 287.876 
L 390.236937 151.853698 
L 368.852687 151.853698 
z
" clip-path="url(#p7083b7fb5c)" style="fill: #63cfa0; stroke: #ffffff; stroke-width: 0.6; stroke-linejoin: miter"/>
   </g>
   <g id="text_16">
    <!-- 66.5 -->
    <g style="fill: #222222" transform="translate(109.591717 73.366877) scale(0.068 -0.068)">
     <use xlink:href="#TimesNewRomanPS-BoldMT-36"/>
     <use xlink:href="#TimesNewRomanPS-BoldMT-36" transform="translate(50 0)"/>
     <use xlink:href="#TimesNewRomanPS-BoldMT-2e" transform="translate(100 0)"/>
     <use xlink:href="#TimesNewRomanPS-BoldMT-35" transform="translate(125 0)"/>
    </g>
   </g>
   <g id="text_17">
    <!-- 58.1 -->
    <g style="fill: #222222" transform="translate(241.593264 100.884926) scale(0.068 -0.068)">
     <use xlink:href="#TimesNewRomanPS-BoldMT-35"/>
     <use xlink:href="#TimesNewRomanPS-BoldMT-38" transform="translate(50 0)"/>
     <use xlink:href="#TimesNewRomanPS-BoldMT-2e" transform="translate(100 0)"/>
     <use xlink:href="#TimesNewRomanPS-BoldMT-31" transform="translate(125 0)"/>
    </g>
   </g>
   <g id="text_18">
    <!-- 48.1 -->
    <g style="fill: #222222" transform="translate(373.594812 130.23335) scale(0.068 -0.068)">
     <defs>
      <path id="TimesNewRomanPS-BoldMT-34" d="M 159 1597 
L 2172 4325 
L 2553 4325 
L 2553 1597 
L 2941 1597 
L 2941 950 
L 2553 950 
L 2553 0 
L 1694 0 
L 1694 950 
L 159 950 
L 159 1597 
z
M 463 1597 
L 1694 1597 
L 1694 3269 
L 463 1597 
z
" transform="scale(0.015625)"/>
     </defs>
     <use xlink:href="#TimesNewRomanPS-BoldMT-34"/>
     <use xlink:href="#TimesNewRomanPS-BoldMT-38" transform="translate(50 0)"/>
     <use xlink:href="#TimesNewRomanPS-BoldMT-2e" transform="translate(100 0)"/>
     <use xlink:href="#TimesNewRomanPS-BoldMT-31" transform="translate(125 0)"/>
    </g>
   </g>
   <g id="patch_14">
    <path d="M 128.60987 287.876 
L 149.994121 287.876 
L 149.994121 104.264606 
L 128.60987 104.264606 
z
" clip-path="url(#p7083b7fb5c)" style="fill: #b08adf; stroke: #ffffff; stroke-width: 0.6; stroke-linejoin: miter"/>
   </g>
   <g id="patch_15">
    <path d="M 260.611418 287.876 
L 281.995668 287.876 
L 281.995668 131.00363 
L 260.611418 131.00363 
z
" clip-path="url(#p7083b7fb5c)" style="fill: #b08adf; stroke: #ffffff; stroke-width: 0.6; stroke-linejoin: miter"/>
   </g>
   <g id="patch_16">
    <path d="M 392.612965 287.876 
L 413.997216 287.876 
L 413.997216 159.551894 
L 392.612965 159.551894 
z
" clip-path="url(#p7083b7fb5c)" style="fill: #b08adf; stroke: #ffffff; stroke-width: 0.6; stroke-linejoin: miter"/>
   </g>
   <g id="text_19">
    <!-- 64.9 -->
    <g style="fill: #222222" transform="translate(133.351995 81.908847) scale(0.068 -0.068)">
     <use xlink:href="#TimesNewRomanPS-BoldMT-36"/>
     <use xlink:href="#TimesNewRomanPS-BoldMT-34" transform="translate(50 0)"/>
     <use xlink:href="#TimesNewRomanPS-BoldMT-2e" transform="translate(100 0)"/>
     <use xlink:href="#TimesNewRomanPS-BoldMT-39" transform="translate(125 0)"/>
    </g>
   </g>
   <g id="text_20">
    <!-- 55.5 -->
    <g style="fill: #222222" transform="translate(265.353543 111.95247) scale(0.068 -0.068)">
     <use xlink:href="#TimesNewRomanPS-BoldMT-35"/>
     <use xlink:href="#TimesNewRomanPS-BoldMT-35" transform="translate(50 0)"/>
     <use xlink:href="#TimesNewRomanPS-BoldMT-2e" transform="translate(100 0)"/>
     <use xlink:href="#TimesNewRomanPS-BoldMT-35" transform="translate(125 0)"/>
    </g>
   </g>
   <g id="text_21">
    <!-- 45.4 -->
    <g style="fill: #222222" transform="translate(397.355091 140.136164) scale(0.068 -0.068)">
     <use xlink:href="#TimesNewRomanPS-BoldMT-34"/>
     <use xlink:href="#TimesNewRomanPS-BoldMT-35" transform="translate(50 0)"/>
     <use xlink:href="#TimesNewRomanPS-BoldMT-2e" transform="translate(100 0)"/>
     <use xlink:href="#TimesNewRomanPS-BoldMT-34" transform="translate(125 0)"/>
    </g>
   </g>
   <g id="LineCollection_1">
    <path d="M 68.021159 62.989648 
L 68.021159 20.565524 
" clip-path="url(#p7083b7fb5c)" style="fill: none; stroke: #555555"/>
    <path d="M 200.022707 104.663632 
L 200.022707 69.268901 
" clip-path="url(#p7083b7fb5c)" style="fill: none; stroke: #555555"/>
    <path d="M 332.024255 141.998242 
L 332.024255 108.679837 
" clip-path="url(#p7083b7fb5c)" style="fill: none; stroke: #555555"/>
   </g>
   <g id="line2d_14">
    <defs>
     <path id="m4428a4168b" d="M 3 0 
L -3 -0 
" style="stroke: #555555"/>
    </defs>
    <g clip-path="url(#p7083b7fb5c)">
     <use xlink:href="#m4428a4168b" x="68.021159" y="62.989648" style="fill: #1f77b4; stroke: #555555"/>
     <use xlink:href="#m4428a4168b" x="200.022707" y="104.663632" style="fill: #1f77b4; stroke: #555555"/>
     <use xlink:href="#m4428a4168b" x="332.024255" y="141.998242" style="fill: #1f77b4; stroke: #555555"/>
    </g>
   </g>
   <g id="line2d_15">
    <g clip-path="url(#p7083b7fb5c)">
     <use xlink:href="#m4428a4168b" x="68.021159" y="20.565524" style="fill: #1f77b4; stroke: #555555"/>
     <use xlink:href="#m4428a4168b" x="200.022707" y="69.268901" style="fill: #1f77b4; stroke: #555555"/>
     <use xlink:href="#m4428a4168b" x="332.024255" y="108.679837" style="fill: #1f77b4; stroke: #555555"/>
    </g>
   </g>
   <g id="LineCollection_2">
    <path d="M 91.781438 104.952579 
L 91.781438 70.083796 
" clip-path="url(#p7083b7fb5c)" style="fill: none; stroke: #555555"/>
    <path d="M 223.782986 131.783094 
L 223.782986 95.868162 
" clip-path="url(#p7083b7fb5c)" style="fill: none; stroke: #555555"/>
    <path d="M 355.784533 159.583421 
L 355.784533 128.322758 
" clip-path="url(#p7083b7fb5c)" style="fill: none; stroke: #555555"/>
   </g>
   <g id="line2d_16">
    <g clip-path="url(#p7083b7fb5c)">
     <use xlink:href="#m4428a4168b" x="91.781438" y="104.952579" style="fill: #1f77b4; stroke: #555555"/>
     <use xlink:href="#m4428a4168b" x="223.782986" y="131.783094" style="fill: #1f77b4; stroke: #555555"/>
     <use xlink:href="#m4428a4168b" x="355.784533" y="159.583421" style="fill: #1f77b4; stroke: #555555"/>
    </g>
   </g>
   <g id="line2d_17">
    <g clip-path="url(#p7083b7fb5c)">
     <use xlink:href="#m4428a4168b" x="91.781438" y="70.083796" style="fill: #1f77b4; stroke: #555555"/>
     <use xlink:href="#m4428a4168b" x="223.782986" y="95.868162" style="fill: #1f77b4; stroke: #555555"/>
     <use xlink:href="#m4428a4168b" x="355.784533" y="128.322758" style="fill: #1f77b4; stroke: #555555"/>
    </g>
   </g>
   <g id="LineCollection_3">
    <path d="M 115.541717 122.101243 
L 115.541717 77.267928 
" clip-path="url(#p7083b7fb5c)" style="fill: none; stroke: #555555"/>
    <path d="M 247.543264 142.368811 
L 247.543264 104.785977 
" clip-path="url(#p7083b7fb5c)" style="fill: none; stroke: #555555"/>
    <path d="M 379.544812 169.572995 
L 379.544812 134.134401 
" clip-path="url(#p7083b7fb5c)" style="fill: none; stroke: #555555"/>
   </g>
   <g id="line2d_18">
    <g clip-path="url(#p7083b7fb5c)">
     <use xlink:href="#m4428a4168b" x="115.541717" y="122.101243" style="fill: #1f77b4; stroke: #555555"/>
     <use xlink:href="#m4428a4168b" x="247.543264" y="142.368811" style="fill: #1f77b4; stroke: #555555"/>
     <use xlink:href="#m4428a4168b" x="379.544812" y="169.572995" style="fill: #1f77b4; stroke: #555555"/>
    </g>
   </g>
   <g id="line2d_19">
    <g clip-path="url(#p7083b7fb5c)">
     <use xlink:href="#m4428a4168b" x="115.541717" y="77.267928" style="fill: #1f77b4; stroke: #555555"/>
     <use xlink:href="#m4428a4168b" x="247.543264" y="104.785977" style="fill: #1f77b4; stroke: #555555"/>
     <use xlink:href="#m4428a4168b" x="379.544812" y="134.134401" style="fill: #1f77b4; stroke: #555555"/>
    </g>
   </g>
   <g id="LineCollection_4">
    <path d="M 139.301995 122.778854 
L 139.301995 85.750357 
" clip-path="url(#p7083b7fb5c)" style="fill: none; stroke: #555555"/>
    <path d="M 271.303543 146.213279 
L 271.303543 115.79398 
" clip-path="url(#p7083b7fb5c)" style="fill: none; stroke: #555555"/>
    <path d="M 403.305091 175.126114 
L 403.305091 143.977675 
" clip-path="url(#p7083b7fb5c)" style="fill: none; stroke: #555555"/>
   </g>
   <g id="line2d_20">
    <g clip-path="url(#p7083b7fb5c)">
     <use xlink:href="#m4428a4168b" x="139.301995" y="122.778854" style="fill: #1f77b4; stroke: #555555"/>
     <use xlink:href="#m4428a4168b" x="271.303543" y="146.213279" style="fill: #1f77b4; stroke: #555555"/>
     <use xlink:href="#m4428a4168b" x="403.305091" y="175.126114" style="fill: #1f77b4; stroke: #555555"/>
    </g>
   </g>
   <g id="line2d_21">
    <g clip-path="url(#p7083b7fb5c)">
     <use xlink:href="#m4428a4168b" x="139.301995" y="85.750357" style="fill: #1f77b4; stroke: #555555"/>
     <use xlink:href="#m4428a4168b" x="271.303543" y="115.79398" style="fill: #1f77b4; stroke: #555555"/>
     <use xlink:href="#m4428a4168b" x="403.305091" y="143.977675" style="fill: #1f77b4; stroke: #555555"/>
    </g>
   </g>
   <g id="legend_1">
    <g id="patch_17">
     <path d="M 351.704062 71.75625 
L 424.830625 71.75625 
Q 426.830625 71.75625 426.830625 69.75625 
L 426.830625 14.2 
Q 426.830625 12.2 424.830625 12.2 
L 351.704062 12.2 
Q 349.704062 12.2 349.704062 14.2 
L 349.704062 69.75625 
Q 349.704062 71.75625 351.704062 71.75625 
z
" style="fill: #ffffff; opacity: 0.8; stroke: #cccccc; stroke-linejoin: miter"/>
    </g>
    <g id="patch_18">
     <path d="M 353.704062 23.2 
L 373.704062 23.2 
L 373.704062 16.2 
L 353.704062 16.2 
z
" style="fill: #ee6f63; stroke: #888888; stroke-linejoin: miter"/>
    </g>
    <g id="text_22">
     <!-- BVF -->
     <g transform="translate(381.704062 23.2) scale(0.1 -0.1)">
      <defs>
       <path id="TimesNewRomanPSMT-42" d="M 2956 2163 
Q 3397 2069 3616 1863 
Q 3919 1575 3919 1159 
Q 3919 844 3719 555 
Q 3519 266 3170 133 
Q 2822 0 2106 0 
L 106 0 
L 106 116 
L 266 116 
Q 531 116 647 284 
Q 719 394 719 750 
L 719 3488 
Q 719 3881 628 3984 
Q 506 4122 266 4122 
L 106 4122 
L 106 4238 
L 1938 4238 
Q 2450 4238 2759 4163 
Q 3228 4050 3475 3764 
Q 3722 3478 3722 3106 
Q 3722 2788 3528 2536 
Q 3334 2284 2956 2163 
z
M 1319 2331 
Q 1434 2309 1582 2298 
Q 1731 2288 1909 2288 
Q 2366 2288 2595 2386 
Q 2825 2484 2947 2687 
Q 3069 2891 3069 3131 
Q 3069 3503 2766 3765 
Q 2463 4028 1881 4028 
Q 1569 4028 1319 3959 
L 1319 2331 
z
M 1319 306 
Q 1681 222 2034 222 
Q 2600 222 2897 476 
Q 3194 731 3194 1106 
Q 3194 1353 3059 1581 
Q 2925 1809 2622 1940 
Q 2319 2072 1872 2072 
Q 1678 2072 1540 2065 
Q 1403 2059 1319 2044 
L 1319 306 
z
" transform="scale(0.015625)"/>
       <path id="TimesNewRomanPSMT-56" d="M 4544 4238 
L 4544 4122 
Q 4319 4081 4203 3978 
Q 4038 3825 3909 3509 
L 2431 -97 
L 2316 -97 
L 728 3556 
Q 606 3838 556 3900 
Q 478 3997 364 4051 
Q 250 4106 56 4122 
L 56 4238 
L 1788 4238 
L 1788 4122 
Q 1494 4094 1406 4022 
Q 1319 3950 1319 3838 
Q 1319 3681 1463 3350 
L 2541 866 
L 3541 3319 
Q 3688 3681 3688 3822 
Q 3688 3913 3597 3995 
Q 3506 4078 3291 4113 
Q 3275 4116 3238 4122 
L 3238 4238 
L 4544 4238 
z
" transform="scale(0.015625)"/>
       <path id="TimesNewRomanPSMT-46" d="M 1309 4006 
L 1309 2341 
L 2081 2341 
Q 2347 2341 2470 2458 
Q 2594 2575 2634 2922 
L 2750 2922 
L 2750 1488 
L 2634 1488 
Q 2631 1734 2570 1850 
Q 2509 1966 2401 2023 
Q 2294 2081 2081 2081 
L 1309 2081 
L 1309 750 
Q 1309 428 1350 325 
Q 1381 247 1481 191 
Q 1619 116 1769 116 
L 1922 116 
L 1922 0 
L 103 0 
L 103 116 
L 253 116 
Q 516 116 634 269 
Q 709 369 709 750 
L 709 3488 
Q 709 3809 669 3913 
Q 638 3991 541 4047 
Q 406 4122 253 4122 
L 103 4122 
L 103 4238 
L 3256 4238 
L 3297 3306 
L 3188 3306 
Q 3106 3603 2998 3742 
Q 2891 3881 2733 3943 
Q 2575 4006 2244 4006 
L 1309 4006 
z
" transform="scale(0.015625)"/>
      </defs>
      <use xlink:href="#TimesNewRomanPSMT-42"/>
      <use xlink:href="#TimesNewRomanPSMT-56" transform="translate(66.699219 0)"/>
      <use xlink:href="#TimesNewRomanPSMT-46" transform="translate(138.916016 0)"/>
     </g>
    </g>
    <g id="patch_19">
     <path d="M 353.704062 37.339062 
L 373.704062 37.339062 
L 373.704062 30.339062 
L 353.704062 30.339062 
z
" style="fill: #5fa8e8; stroke: #888888; stroke-linejoin: miter"/>
    </g>
    <g id="text_23">
     <!-- DGA-CF -->
     <g transform="translate(381.704062 37.339062) scale(0.1 -0.1)">
      <defs>
       <path id="TimesNewRomanPSMT-44" d="M 109 0 
L 109 116 
L 269 116 
Q 538 116 650 288 
Q 719 391 719 750 
L 719 3488 
Q 719 3884 631 3984 
Q 509 4122 269 4122 
L 109 4122 
L 109 4238 
L 1834 4238 
Q 2784 4238 3279 4022 
Q 3775 3806 4076 3303 
Q 4378 2800 4378 2141 
Q 4378 1256 3841 663 
Q 3238 0 2003 0 
L 109 0 
z
M 1319 306 
Q 1716 219 1984 219 
Q 2709 219 3187 728 
Q 3666 1238 3666 2109 
Q 3666 2988 3187 3494 
Q 2709 4000 1959 4000 
Q 1678 4000 1319 3909 
L 1319 306 
z
" transform="scale(0.015625)"/>
       <path id="TimesNewRomanPSMT-41" d="M 2928 1419 
L 1288 1419 
L 1000 750 
Q 894 503 894 381 
Q 894 284 986 211 
Q 1078 138 1384 116 
L 1384 0 
L 50 0 
L 50 116 
Q 316 163 394 238 
Q 553 388 747 847 
L 2238 4334 
L 2347 4334 
L 3822 809 
Q 4000 384 4145 257 
Q 4291 131 4550 116 
L 4550 0 
L 2878 0 
L 2878 116 
Q 3131 128 3220 200 
Q 3309 272 3309 375 
Q 3309 513 3184 809 
L 2928 1419 
z
M 2841 1650 
L 2122 3363 
L 1384 1650 
L 2841 1650 
z
" transform="scale(0.015625)"/>
       <path id="TimesNewRomanPSMT-2d" d="M 259 1672 
L 1875 1672 
L 1875 1200 
L 259 1200 
L 259 1672 
z
" transform="scale(0.015625)"/>
       <path id="TimesNewRomanPSMT-43" d="M 3853 4334 
L 3950 2894 
L 3853 2894 
Q 3659 3541 3300 3825 
Q 2941 4109 2438 4109 
Q 2016 4109 1675 3895 
Q 1334 3681 1139 3212 
Q 944 2744 944 2047 
Q 944 1472 1128 1050 
Q 1313 628 1683 403 
Q 2053 178 2528 178 
Q 2941 178 3256 354 
Q 3572 531 3950 1056 
L 4047 994 
Q 3728 428 3303 165 
Q 2878 -97 2294 -97 
Q 1241 -97 663 684 
Q 231 1266 231 2053 
Q 231 2688 515 3219 
Q 800 3750 1298 4042 
Q 1797 4334 2388 4334 
Q 2847 4334 3294 4109 
Q 3425 4041 3481 4041 
Q 3566 4041 3628 4100 
Q 3709 4184 3744 4334 
L 3853 4334 
z
" transform="scale(0.015625)"/>
      </defs>
      <use xlink:href="#TimesNewRomanPSMT-44"/>
      <use xlink:href="#TimesNewRomanPSMT-47" transform="translate(72.216797 0)"/>
      <use xlink:href="#TimesNewRomanPSMT-41" transform="translate(144.433594 0)"/>
      <use xlink:href="#TimesNewRomanPSMT-2d" transform="translate(216.650391 0)"/>
      <use xlink:href="#TimesNewRomanPSMT-43" transform="translate(249.951172 0)"/>
      <use xlink:href="#TimesNewRomanPSMT-46" transform="translate(316.650391 0)"/>
     </g>
    </g>
    <g id="patch_20">
     <path d="M 353.704062 51.478125 
L 373.704062 51.478125 
L 373.704062 44.478125 
L 353.704062 44.478125 
z
" style="fill: #63cfa0; stroke: #888888; stroke-linejoin: miter"/>
    </g>
    <g id="text_24">
     <!-- DPSO-CF -->
     <g transform="translate(381.704062 51.478125) scale(0.1 -0.1)">
      <defs>
       <path id="TimesNewRomanPSMT-50" d="M 1313 1984 
L 1313 750 
Q 1313 350 1400 253 
Q 1519 116 1759 116 
L 1922 116 
L 1922 0 
L 106 0 
L 106 116 
L 266 116 
Q 534 116 650 291 
Q 713 388 713 750 
L 713 3488 
Q 713 3888 628 3984 
Q 506 4122 266 4122 
L 106 4122 
L 106 4238 
L 1659 4238 
Q 2228 4238 2556 4120 
Q 2884 4003 3109 3725 
Q 3334 3447 3334 3066 
Q 3334 2547 2992 2222 
Q 2650 1897 2025 1897 
Q 1872 1897 1694 1919 
Q 1516 1941 1313 1984 
z
M 1313 2163 
Q 1478 2131 1606 2115 
Q 1734 2100 1825 2100 
Q 2150 2100 2386 2351 
Q 2622 2603 2622 3003 
Q 2622 3278 2509 3514 
Q 2397 3750 2190 3867 
Q 1984 3984 1722 3984 
Q 1563 3984 1313 3925 
L 1313 2163 
z
" transform="scale(0.015625)"/>
       <path id="TimesNewRomanPSMT-53" d="M 2934 4334 
L 2934 2869 
L 2819 2869 
Q 2763 3291 2617 3541 
Q 2472 3791 2203 3937 
Q 1934 4084 1647 4084 
Q 1322 4084 1109 3886 
Q 897 3688 897 3434 
Q 897 3241 1031 3081 
Q 1225 2847 1953 2456 
Q 2547 2138 2764 1967 
Q 2981 1797 3098 1565 
Q 3216 1334 3216 1081 
Q 3216 600 2842 251 
Q 2469 -97 1881 -97 
Q 1697 -97 1534 -69 
Q 1438 -53 1133 45 
Q 828 144 747 144 
Q 669 144 623 97 
Q 578 50 556 -97 
L 441 -97 
L 441 1356 
L 556 1356 
Q 638 900 775 673 
Q 913 447 1195 297 
Q 1478 147 1816 147 
Q 2206 147 2432 353 
Q 2659 559 2659 841 
Q 2659 997 2573 1156 
Q 2488 1316 2306 1453 
Q 2184 1547 1640 1851 
Q 1097 2156 867 2337 
Q 638 2519 519 2737 
Q 400 2956 400 3219 
Q 400 3675 750 4004 
Q 1100 4334 1641 4334 
Q 1978 4334 2356 4169 
Q 2531 4091 2603 4091 
Q 2684 4091 2736 4139 
Q 2788 4188 2819 4334 
L 2934 4334 
z
" transform="scale(0.015625)"/>
       <path id="TimesNewRomanPSMT-4f" d="M 2341 4334 
Q 3166 4334 3770 3707 
Q 4375 3081 4375 2144 
Q 4375 1178 3765 540 
Q 3156 -97 2291 -97 
Q 1416 -97 820 525 
Q 225 1147 225 2134 
Q 225 3144 913 3781 
Q 1509 4334 2341 4334 
z
M 2281 4106 
Q 1713 4106 1369 3684 
Q 941 3159 941 2147 
Q 941 1109 1384 550 
Q 1725 125 2284 125 
Q 2881 125 3270 590 
Q 3659 1056 3659 2059 
Q 3659 3147 3231 3681 
Q 2888 4106 2281 4106 
z
" transform="scale(0.015625)"/>
      </defs>
      <use xlink:href="#TimesNewRomanPSMT-44"/>
      <use xlink:href="#TimesNewRomanPSMT-50" transform="translate(72.216797 0)"/>
      <use xlink:href="#TimesNewRomanPSMT-53" transform="translate(127.832031 0)"/>
      <use xlink:href="#TimesNewRomanPSMT-4f" transform="translate(183.447266 0)"/>
      <use xlink:href="#TimesNewRomanPSMT-2d" transform="translate(255.664062 0)"/>
      <use xlink:href="#TimesNewRomanPSMT-43" transform="translate(288.964844 0)"/>
      <use xlink:href="#TimesNewRomanPSMT-46" transform="translate(355.664062 0)"/>
     </g>
    </g>
    <g id="patch_21">
     <path d="M 353.704062 65.617187 
L 373.704062 65.617187 
L 373.704062 58.617187 
L 353.704062 58.617187 
z
" style="fill: #b08adf; stroke: #888888; stroke-linejoin: miter"/>
    </g>
    <g id="text_25">
     <!-- NSSA-CF -->
     <g transform="translate(381.704062 65.617187) scale(0.1 -0.1)">
      <defs>
       <path id="TimesNewRomanPSMT-4e" d="M -84 4238 
L 1066 4238 
L 3656 1059 
L 3656 3503 
Q 3656 3894 3569 3991 
Q 3453 4122 3203 4122 
L 3056 4122 
L 3056 4238 
L 4531 4238 
L 4531 4122 
L 4381 4122 
Q 4113 4122 4000 3959 
Q 3931 3859 3931 3503 
L 3931 -69 
L 3819 -69 
L 1025 3344 
L 1025 734 
Q 1025 344 1109 247 
Q 1228 116 1475 116 
L 1625 116 
L 1625 0 
L 150 0 
L 150 116 
L 297 116 
Q 569 116 681 278 
Q 750 378 750 734 
L 750 3681 
Q 566 3897 470 3965 
Q 375 4034 191 4094 
Q 100 4122 -84 4122 
L -84 4238 
z
" transform="scale(0.015625)"/>
      </defs>
      <use xlink:href="#TimesNewRomanPSMT-4e"/>
      <use xlink:href="#TimesNewRomanPSMT-53" transform="translate(72.216797 0)"/>
      <use xlink:href="#TimesNewRomanPSMT-53" transform="translate(127.832031 0)"/>
      <use xlink:href="#TimesNewRomanPSMT-41" transform="translate(183.447266 0)"/>
      <use xlink:href="#TimesNewRomanPSMT-2d" transform="translate(255.664062 0)"/>
      <use xlink:href="#TimesNewRomanPSMT-43" transform="translate(288.964844 0)"/>
      <use xlink:href="#TimesNewRomanPSMT-46" transform="translate(355.664062 0)"/>
     </g>
    </g>
   </g>
  </g>
 </g>
 <defs>
  <clipPath id="p7083b7fb5c">
   <rect x="39.495625" y="7.2" width="392.335" height="280.676"/>
  </clipPath>
 </defs>
</svg>
